<?xml version="1.0" encoding="UTF-8" standalone="no"?>
<!DOCTYPE svg PUBLIC "-//W3C//DTD SVG 1.1//EN"
 "http://www.w3.org/Graphics/SVG/1.1/DTD/svg11.dtd">
<!-- Generated by graphviz version 2.38.0 (20140413.2041)
 -->
<!-- Title: %3 Pages: 1 -->
<svg width="1009pt" height="237pt"
 viewBox="0.00 0.00 1008.99 236.50" xmlns="http://www.w3.org/2000/svg" xmlns:xlink="http://www.w3.org/1999/xlink">
<g id="graph0" class="graph" transform="scale(1 1) rotate(0) translate(4 232.5)">
<title>%3</title>
<polygon fill="white" stroke="none" points="-4,4 -4,-232.5 1004.99,-232.5 1004.99,4 -4,4"/>
<!-- 1995.Amauris_damocles -->
<g id="node1" class="node"><title>1995.Amauris_damocles</title>
<polygon fill="#ffffcc" stroke="black" points="1000.98,-80.0442 1000.98,-94.9558 932.165,-105.5 834.853,-105.5 766.042,-94.9558 766.042,-80.0442 834.853,-69.5 932.165,-69.5 1000.98,-80.0442"/>
<text text-anchor="middle" x="883.509" y="-83.8" font-family="Helvetica,sans-Serif" font-size="14.00">1995.Amauris_damocles</text>
</g>
<!-- 1995.Amauris_damocles_subsp_makuyensis -->
<g id="node2" class="node"><title>1995.Amauris_damocles_subsp_makuyensis</title>
<polygon fill="#ffffcc" stroke="black" points="729.038,-121.044 729.038,-135.956 609.523,-146.5 440.503,-146.5 320.987,-135.956 320.987,-121.044 440.503,-110.5 609.523,-110.5 729.038,-121.044"/>
<text text-anchor="middle" x="525.013" y="-124.8" font-family="Helvetica,sans-Serif" font-size="14.00">1995.Amauris_damocles_subsp_makuyensis</text>
</g>
<!-- 1995.Amauris_damocles_subsp_makuyensis&#45;&gt;1995.Amauris_damocles -->
<g id="edge1" class="edge"><title>1995.Amauris_damocles_subsp_makuyensis&#45;&gt;1995.Amauris_damocles</title>
<path fill="none" stroke="#000000" d="M656.822,-114.621C680.845,-111.988 705.696,-109.208 729.026,-106.5 745.97,-104.533 763.957,-102.372 781.425,-100.235"/>
<polygon fill="#000000" stroke="#000000" points="782.14,-103.674 791.639,-98.9811 781.287,-96.726 782.14,-103.674"/>
</g>
<!-- 1995.Amauris_damocles_subsp_damocles -->
<g id="node3" class="node"><title>1995.Amauris_damocles_subsp_damocles</title>
<polygon fill="#ffffcc" stroke="black" points="719.341,-80.0442 719.341,-94.9558 605.506,-105.5 444.52,-105.5 330.685,-94.9558 330.685,-80.0442 444.52,-69.5 605.506,-69.5 719.341,-80.0442"/>
<text text-anchor="middle" x="525.013" y="-83.8" font-family="Helvetica,sans-Serif" font-size="14.00">1995.Amauris_damocles_subsp_damocles</text>
</g>
<!-- 1995.Amauris_damocles_subsp_damocles&#45;&gt;1995.Amauris_damocles -->
<g id="edge3" class="edge"><title>1995.Amauris_damocles_subsp_damocles&#45;&gt;1995.Amauris_damocles</title>
<path fill="none" stroke="#000000" d="M719.389,-87.5C731.669,-87.5 743.853,-87.5 755.704,-87.5"/>
<polygon fill="#000000" stroke="#000000" points="756.028,-91.0001 766.028,-87.5 756.028,-84.0001 756.028,-91.0001"/>
</g>
<!-- 1995.Amauris_damocles_subsp_hyalites -->
<g id="node4" class="node"><title>1995.Amauris_damocles_subsp_hyalites</title>
<polygon fill="#ffffcc" stroke="black" points="710.05,-39.0442 710.05,-53.9558 601.658,-64.5 448.368,-64.5 339.976,-53.9558 339.976,-39.0442 448.368,-28.5 601.658,-28.5 710.05,-39.0442"/>
<text text-anchor="middle" x="525.013" y="-42.8" font-family="Helvetica,sans-Serif" font-size="14.00">1995.Amauris_damocles_subsp_hyalites</text>
</g>
<!-- 1995.Amauris_damocles_subsp_hyalites&#45;&gt;1995.Amauris_damocles -->
<g id="edge2" class="edge"><title>1995.Amauris_damocles_subsp_hyalites&#45;&gt;1995.Amauris_damocles</title>
<path fill="none" stroke="#000000" d="M650.858,-59.7266C676.708,-62.5502 703.759,-65.5672 729.026,-68.5 745.97,-70.4668 763.957,-72.6275 781.425,-74.7649"/>
<polygon fill="#000000" stroke="#000000" points="781.287,-78.274 791.639,-76.0189 782.14,-71.3262 781.287,-78.274"/>
</g>
<!-- 1997.Amauris_hyalites -->
<g id="node5" class="node"><title>1997.Amauris_hyalites</title>
<polygon fill="#ccffcc" stroke="black" points="261.5,-207.5 107.5,-207.5 107.5,-171.5 261.5,-171.5 261.5,-207.5"/>
<text text-anchor="middle" x="184.5" y="-185.8" font-family="Helvetica,sans-Serif" font-size="14.00">1997.Amauris_hyalites</text>
</g>
<!-- 1997.Amauris_hyalites_subsp_hyalites -->
<g id="node6" class="node"><title>1997.Amauris_hyalites_subsp_hyalites</title>
<polygon fill="#ccffcc" stroke="black" points="650.513,-228.5 399.513,-228.5 399.513,-192.5 650.513,-192.5 650.513,-228.5"/>
<text text-anchor="middle" x="525.013" y="-206.8" font-family="Helvetica,sans-Serif" font-size="14.00">1997.Amauris_hyalites_subsp_hyalites</text>
</g>
<!-- 1997.Amauris_hyalites&#45;&gt;1997.Amauris_hyalites_subsp_hyalites -->
<g id="edge5" class="edge"><title>1997.Amauris_hyalites&#45;&gt;1997.Amauris_hyalites_subsp_hyalites</title>
<path fill="none" stroke="#000000" d="M272.103,-195.592C276.803,-195.904 281.459,-196.208 286,-196.5 322.764,-198.862 362.733,-201.273 399.235,-203.415"/>
<polygon fill="#000000" stroke="#000000" points="271.98,-192.076 261.768,-194.899 271.512,-199.06 271.98,-192.076"/>
</g>
<!-- 1997.Amauris_hyalites_subsp_makuyensis -->
<g id="node7" class="node"><title>1997.Amauris_hyalites_subsp_makuyensis</title>
<polygon fill="#ccffcc" stroke="black" points="663.513,-187.5 386.513,-187.5 386.513,-151.5 663.513,-151.5 663.513,-187.5"/>
<text text-anchor="middle" x="525.013" y="-165.8" font-family="Helvetica,sans-Serif" font-size="14.00">1997.Amauris_hyalites_subsp_makuyensis</text>
</g>
<!-- 1997.Amauris_hyalites&#45;&gt;1997.Amauris_hyalites_subsp_makuyensis -->
<g id="edge4" class="edge"><title>1997.Amauris_hyalites&#45;&gt;1997.Amauris_hyalites_subsp_makuyensis</title>
<path fill="none" stroke="#000000" d="M271.995,-184.39C306.752,-182.336 347.686,-179.918 386.341,-177.634"/>
<polygon fill="#000000" stroke="#000000" points="271.667,-180.903 261.891,-184.987 272.08,-187.891 271.667,-180.903"/>
</g>
<!-- 1997.Amauris_damocles -->
<g id="node8" class="node"><title>1997.Amauris_damocles</title>
<polygon fill="#ccffcc" stroke="black" points="268,-105.5 101,-105.5 101,-69.5 268,-69.5 268,-105.5"/>
<text text-anchor="middle" x="184.5" y="-83.8" font-family="Helvetica,sans-Serif" font-size="14.00">1997.Amauris_damocles</text>
</g>
<!-- 1997.Amauris_damocles&#45;&gt;1995.Amauris_damocles_subsp_damocles -->
<g id="edge6" class="edge"><title>1997.Amauris_damocles&#45;&gt;1995.Amauris_damocles_subsp_damocles</title>
<path fill="none" stroke="#aa00ff" stroke-dasharray="5,2" d="M268.31,-87.5C287.589,-87.5 308.915,-87.5 330.785,-87.5"/>
<text text-anchor="middle" x="294.5" y="-91.3" font-family="Times,serif" font-size="14.00">==</text>
</g>
<!-- Legend -->
<g id="node9" class="node"><title>Legend</title>
<polygon fill="white" stroke="black" points="83,-175 0,-175 0,-0 83,-0 83,-175"/>
<polygon fill="none" stroke="black" points="0.5,-149.5 0.5,-174.5 83.5,-174.5 83.5,-149.5 0.5,-149.5"/>
<text text-anchor="start" x="19" y="-158.3" font-family="Arial Black" font-size="14.00"> Nodes</text>
<polygon fill="#ffffcc" stroke="none" points="0.5,-124.5 0.5,-149.5 65.5,-149.5 65.5,-124.5 0.5,-124.5"/>
<polygon fill="none" stroke="black" points="0.5,-124.5 0.5,-149.5 65.5,-149.5 65.5,-124.5 0.5,-124.5"/>
<text text-anchor="start" x="17.5" y="-133.3" font-family="Helvetica,sans-Serif" font-size="14.00">1995</text>
<polygon fill="none" stroke="black" points="65.5,-124.5 65.5,-149.5 83.5,-149.5 83.5,-124.5 65.5,-124.5"/>
<text text-anchor="start" x="70.5" y="-133.3" font-family="Helvetica,sans-Serif" font-size="14.00">4</text>
<polygon fill="#ccffcc" stroke="none" points="0.5,-99.5 0.5,-124.5 65.5,-124.5 65.5,-99.5 0.5,-99.5"/>
<polygon fill="none" stroke="black" points="0.5,-99.5 0.5,-124.5 65.5,-124.5 65.5,-99.5 0.5,-99.5"/>
<text text-anchor="start" x="17.5" y="-108.3" font-family="Helvetica,sans-Serif" font-size="14.00">1997</text>
<polygon fill="none" stroke="black" points="65.5,-99.5 65.5,-124.5 83.5,-124.5 83.5,-99.5 65.5,-99.5"/>
<text text-anchor="start" x="70.5" y="-108.3" font-family="Helvetica,sans-Serif" font-size="14.00">4</text>
<polygon fill="none" stroke="black" points="0.5,-74.5 0.5,-99.5 83.5,-99.5 83.5,-74.5 0.5,-74.5"/>
<text text-anchor="start" x="17.5" y="-83.3" font-family="Arial Black" font-size="14.00"> Edges </text>
<polygon fill="none" stroke="black" points="0.5,-49.5 0.5,-74.5 65.5,-74.5 65.5,-49.5 0.5,-49.5"/>
<text text-anchor="start" x="5.5" y="-58.3" font-family="Helvetica,sans-Serif" font-size="14.00" fill="#000000">isa_1995</text>
<polygon fill="none" stroke="black" points="65.5,-49.5 65.5,-74.5 83.5,-74.5 83.5,-49.5 65.5,-49.5"/>
<text text-anchor="start" x="70.5" y="-58.3" font-family="Helvetica,sans-Serif" font-size="14.00">3</text>
<polygon fill="none" stroke="black" points="0.5,-24.5 0.5,-49.5 65.5,-49.5 65.5,-24.5 0.5,-24.5"/>
<text text-anchor="start" x="5.5" y="-33.3" font-family="Helvetica,sans-Serif" font-size="14.00" fill="#000000">isa_1997</text>
<polygon fill="none" stroke="black" points="65.5,-24.5 65.5,-49.5 83.5,-49.5 83.5,-24.5 65.5,-24.5"/>
<text text-anchor="start" x="70.5" y="-33.3" font-family="Helvetica,sans-Serif" font-size="14.00">2</text>
<polygon fill="none" stroke="black" points="0.5,0.5 0.5,-24.5 65.5,-24.5 65.5,0.5 0.5,0.5"/>
<text text-anchor="start" x="22" y="-8.3" font-family="Helvetica,sans-Serif" font-size="14.00" fill="#aa00ff">Art.</text>
<polygon fill="none" stroke="black" points="65.5,0.5 65.5,-24.5 83.5,-24.5 83.5,0.5 65.5,0.5"/>
<text text-anchor="start" x="70.5" y="-8.3" font-family="Helvetica,sans-Serif" font-size="14.00">1</text>
</g>
</g>
</svg>
