<?xml version="1.0" encoding="UTF-8" standalone="no"?>
<!DOCTYPE svg PUBLIC "-//W3C//DTD SVG 1.1//EN"
 "http://www.w3.org/Graphics/SVG/1.1/DTD/svg11.dtd">
<!-- Generated by graphviz version 2.38.0 (20140413.2041)
 -->
<!-- Title: %3 Pages: 1 -->
<svg width="1415pt" height="377pt"
 viewBox="0.00 0.00 1414.99 376.50" xmlns="http://www.w3.org/2000/svg" xmlns:xlink="http://www.w3.org/1999/xlink">
<g id="graph0" class="graph" transform="scale(1 1) rotate(0) translate(4 372.5)">
<title>%3</title>
<polygon fill="white" stroke="none" points="-4,4 -4,-372.5 1410.99,-372.5 1410.99,4 -4,4"/>
<!-- 1995.Amauris_damocles_subsp_makuyensis -->
<g id="node1" class="node"><title>1995.Amauris_damocles_subsp_makuyensis</title>
<polygon fill="#ffffcc" stroke="black" points="1135.04,-177.044 1135.04,-191.956 1015.52,-202.5 846.503,-202.5 726.987,-191.956 726.987,-177.044 846.503,-166.5 1015.52,-166.5 1135.04,-177.044"/>
<text text-anchor="middle" x="931.013" y="-180.8" font-family="Helvetica,sans-Serif" font-size="14.00">1995.Amauris_damocles_subsp_makuyensis</text>
</g>
<!-- 1995.Amauris_damocles -->
<g id="node4" class="node"><title>1995.Amauris_damocles</title>
<polygon fill="#ffffcc" stroke="black" points="1406.98,-177.044 1406.98,-191.956 1338.17,-202.5 1240.85,-202.5 1172.04,-191.956 1172.04,-177.044 1240.85,-166.5 1338.17,-166.5 1406.98,-177.044"/>
<text text-anchor="middle" x="1289.51" y="-180.8" font-family="Helvetica,sans-Serif" font-size="14.00">1995.Amauris_damocles</text>
</g>
<!-- 1995.Amauris_damocles_subsp_makuyensis&#45;&gt;1995.Amauris_damocles -->
<g id="edge1" class="edge"><title>1995.Amauris_damocles_subsp_makuyensis&#45;&gt;1995.Amauris_damocles</title>
<path fill="none" stroke="#000000" d="M1135.25,-184.5C1144.24,-184.5 1153.15,-184.5 1161.87,-184.5"/>
<polygon fill="#000000" stroke="#000000" points="1162.03,-188 1172.03,-184.5 1162.03,-181 1162.03,-188"/>
</g>
<!-- 1995.Amauris_damocles_subsp_damocles -->
<g id="node2" class="node"><title>1995.Amauris_damocles_subsp_damocles</title>
<polygon fill="#ffffcc" stroke="black" points="1125.34,-343.044 1125.34,-357.956 1011.51,-368.5 850.52,-368.5 736.685,-357.956 736.685,-343.044 850.52,-332.5 1011.51,-332.5 1125.34,-343.044"/>
<text text-anchor="middle" x="931.013" y="-346.8" font-family="Helvetica,sans-Serif" font-size="14.00">1995.Amauris_damocles_subsp_damocles</text>
</g>
<!-- 1995.Amauris_damocles_subsp_damocles&#45;&gt;1995.Amauris_damocles -->
<g id="edge2" class="edge"><title>1995.Amauris_damocles_subsp_damocles&#45;&gt;1995.Amauris_damocles</title>
<path fill="none" stroke="#000000" d="M1101.05,-340.769C1112.79,-337.497 1124.23,-333.459 1135.03,-328.5 1193.03,-301.848 1243.34,-244.514 1269.45,-210.784"/>
<polygon fill="#000000" stroke="#000000" points="1272.29,-212.829 1275.56,-202.75 1266.72,-208.593 1272.29,-212.829"/>
</g>
<!-- 1995.Amauris_damocles_subsp_hyalites -->
<g id="node3" class="node"><title>1995.Amauris_damocles_subsp_hyalites</title>
<polygon fill="#ffffcc" stroke="black" points="1116.05,-51.0442 1116.05,-65.9558 1007.66,-76.5 854.368,-76.5 745.976,-65.9558 745.976,-51.0442 854.368,-40.5 1007.66,-40.5 1116.05,-51.0442"/>
<text text-anchor="middle" x="931.013" y="-54.8" font-family="Helvetica,sans-Serif" font-size="14.00">1995.Amauris_damocles_subsp_hyalites</text>
</g>
<!-- 1995.Amauris_damocles_subsp_hyalites&#45;&gt;1995.Amauris_damocles -->
<g id="edge3" class="edge"><title>1995.Amauris_damocles_subsp_hyalites&#45;&gt;1995.Amauris_damocles</title>
<path fill="none" stroke="#000000" d="M1091.93,-68.334C1106.72,-71.4758 1121.3,-75.4616 1135.03,-80.5 1183.64,-98.3404 1231.76,-134.829 1260.82,-159.483"/>
<polygon fill="#000000" stroke="#000000" points="1258.63,-162.219 1268.49,-166.097 1263.2,-156.917 1258.63,-162.219"/>
</g>
<!-- 1997.Amauris_bar -->
<g id="node5" class="node"><title>1997.Amauris_bar</title>
<polygon fill="#ccffcc" stroke="black" points="995.013,-326.5 867.013,-326.5 867.013,-290.5 995.013,-290.5 995.013,-326.5"/>
<text text-anchor="middle" x="931.013" y="-304.8" font-family="Helvetica,sans-Serif" font-size="14.00">1997.Amauris_bar</text>
</g>
<!-- 1997.subsubspec1 -->
<g id="node6" class="node"><title>1997.subsubspec1</title>
<polygon fill="#ccffcc" stroke="black" points="996.013,-159.5 866.013,-159.5 866.013,-123.5 996.013,-123.5 996.013,-159.5"/>
<text text-anchor="middle" x="931.013" y="-137.8" font-family="Helvetica,sans-Serif" font-size="14.00">1997.subsubspec1</text>
</g>
<!-- 1997.Amauris_foo -->
<g id="node7" class="node"><title>1997.Amauris_foo</title>
<polygon fill="#ccffcc" stroke="black" points="994.513,-285.5 867.513,-285.5 867.513,-249.5 994.513,-249.5 994.513,-285.5"/>
<text text-anchor="middle" x="931.013" y="-263.8" font-family="Helvetica,sans-Serif" font-size="14.00">1997.Amauris_foo</text>
</g>
<!-- 1997.Amauris_hyalites_subsp_makuyensis -->
<g id="node8" class="node"><title>1997.Amauris_hyalites_subsp_makuyensis</title>
<polygon fill="#ccffcc" stroke="black" points="674,-137.5 397,-137.5 397,-101.5 674,-101.5 674,-137.5"/>
<text text-anchor="middle" x="535.5" y="-115.8" font-family="Helvetica,sans-Serif" font-size="14.00">1997.Amauris_hyalites_subsp_makuyensis</text>
</g>
<!-- 1997.Amauris_hyalites_subsp_makuyensis&#45;&gt;1995.Amauris_damocles_subsp_makuyensis -->
<g id="edge13" class="edge"><title>1997.Amauris_hyalites_subsp_makuyensis&#45;&gt;1995.Amauris_damocles_subsp_makuyensis</title>
<path fill="none" stroke="#aa00ff" stroke-dasharray="5,2" d="M607.585,-137.571C643.239,-146.117 687.201,-155.874 727,-162.5 747.283,-165.877 768.796,-168.853 789.94,-171.436"/>
<text text-anchor="middle" x="700.5" y="-162.3" font-family="Times,serif" font-size="14.00">==</text>
</g>
<!-- 1997.Amauris_hyalites_subsp_makuyensis&#45;&gt;1997.subsubspec1 -->
<g id="edge9" class="edge"><title>1997.Amauris_hyalites_subsp_makuyensis&#45;&gt;1997.subsubspec1</title>
<path fill="none" stroke="#000000" d="M684.128,-127.753C746.82,-131.258 816.622,-135.161 865.789,-137.909"/>
<polygon fill="#000000" stroke="#000000" points="684.312,-124.258 674.132,-127.195 683.921,-131.247 684.312,-124.258"/>
</g>
<!-- 1997.subusbspec2 -->
<g id="node12" class="node"><title>1997.subusbspec2</title>
<polygon fill="#ccffcc" stroke="black" points="996.013,-118.5 866.013,-118.5 866.013,-82.5 996.013,-82.5 996.013,-118.5"/>
<text text-anchor="middle" x="931.013" y="-96.8" font-family="Helvetica,sans-Serif" font-size="14.00">1997.subusbspec2</text>
</g>
<!-- 1997.Amauris_hyalites_subsp_makuyensis&#45;&gt;1997.subusbspec2 -->
<g id="edge10" class="edge"><title>1997.Amauris_hyalites_subsp_makuyensis&#45;&gt;1997.subusbspec2</title>
<path fill="none" stroke="#000000" d="M684.128,-112.372C746.82,-109.345 816.622,-105.975 865.789,-103.601"/>
<polygon fill="#000000" stroke="#000000" points="683.951,-108.876 674.132,-112.855 684.289,-115.868 683.951,-108.876"/>
</g>
<!-- 1997.MyRoot -->
<g id="node9" class="node"><title>1997.MyRoot</title>
<polygon fill="#ccffcc" stroke="black" points="379,-172.5 281,-172.5 281,-136.5 379,-136.5 379,-172.5"/>
<text text-anchor="middle" x="330" y="-150.8" font-family="Helvetica,sans-Serif" font-size="14.00">1997.MyRoot</text>
</g>
<!-- 1997.Amauris_hyalites -->
<g id="node10" class="node"><title>1997.Amauris_hyalites</title>
<polygon fill="#ccffcc" stroke="black" points="263,-105.5 109,-105.5 109,-69.5 263,-69.5 263,-105.5"/>
<text text-anchor="middle" x="186" y="-83.8" font-family="Helvetica,sans-Serif" font-size="14.00">1997.Amauris_hyalites</text>
</g>
<!-- 1997.Amauris_hyalites&#45;&gt;1997.Amauris_hyalites_subsp_makuyensis -->
<g id="edge5" class="edge"><title>1997.Amauris_hyalites&#45;&gt;1997.Amauris_hyalites_subsp_makuyensis</title>
<path fill="none" stroke="#000000" d="M273.564,-95.4714C310.803,-98.9006 355.254,-102.994 396.823,-106.822"/>
<polygon fill="#000000" stroke="#000000" points="273.539,-91.9544 263.26,-94.5225 272.897,-98.9249 273.539,-91.9544"/>
</g>
<!-- 1997.Amauris_hyalites_subsp_hyalites -->
<g id="node11" class="node"><title>1997.Amauris_hyalites_subsp_hyalites</title>
<polygon fill="#ccffcc" stroke="black" points="661,-85.5 410,-85.5 410,-49.5 661,-49.5 661,-85.5"/>
<text text-anchor="middle" x="535.5" y="-63.8" font-family="Helvetica,sans-Serif" font-size="14.00">1997.Amauris_hyalites_subsp_hyalites</text>
</g>
<!-- 1997.Amauris_hyalites&#45;&gt;1997.Amauris_hyalites_subsp_hyalites -->
<g id="edge8" class="edge"><title>1997.Amauris_hyalites&#45;&gt;1997.Amauris_hyalites_subsp_hyalites</title>
<path fill="none" stroke="#000000" d="M273.273,-82.5346C314.517,-80.1609 364.657,-77.2751 409.94,-74.6689"/>
<polygon fill="#000000" stroke="#000000" points="273.043,-79.042 263.26,-83.1109 273.445,-86.0305 273.043,-79.042"/>
</g>
<!-- 1997.Amauris_hyalites_subsp_hyalites&#45;&gt;1995.Amauris_damocles_subsp_hyalites -->
<g id="edge11" class="edge"><title>1997.Amauris_hyalites_subsp_hyalites&#45;&gt;1995.Amauris_damocles_subsp_hyalites</title>
<path fill="none" stroke="#aa00ff" stroke-dasharray="5,2" d="M661.01,-64.6523C688.03,-64.0344 717.162,-63.3681 745.93,-62.7101"/>
<text text-anchor="middle" x="700.5" y="-68.3" font-family="Times,serif" font-size="14.00">&lt;</text>
</g>
<!-- 1997.Amauris_damocles -->
<g id="node13" class="node"><title>1997.Amauris_damocles</title>
<polygon fill="#ccffcc" stroke="black" points="619,-304.5 452,-304.5 452,-268.5 619,-268.5 619,-304.5"/>
<text text-anchor="middle" x="535.5" y="-282.8" font-family="Helvetica,sans-Serif" font-size="14.00">1997.Amauris_damocles</text>
</g>
<!-- 1997.Amauris_damocles&#45;&gt;1995.Amauris_damocles_subsp_damocles -->
<g id="edge12" class="edge"><title>1997.Amauris_damocles&#45;&gt;1995.Amauris_damocles_subsp_damocles</title>
<path fill="none" stroke="#aa00ff" stroke-dasharray="5,2" d="M609.414,-304.531C644.746,-312.767 687.897,-322.09 727,-328.5 748.428,-332.012 771.224,-335.104 793.506,-337.774"/>
<text text-anchor="middle" x="700.5" y="-328.3" font-family="Times,serif" font-size="14.00">==</text>
</g>
<!-- 1997.Amauris_damocles&#45;&gt;1997.Amauris_bar -->
<g id="edge7" class="edge"><title>1997.Amauris_damocles&#45;&gt;1997.Amauris_bar</title>
<path fill="none" stroke="#000000" d="M629.616,-291.706C702.805,-295.798 802.769,-301.386 866.87,-304.97"/>
<polygon fill="#000000" stroke="#000000" points="629.653,-288.202 619.473,-291.139 629.262,-295.192 629.653,-288.202"/>
</g>
<!-- 1997.Amauris_damocles&#45;&gt;1997.Amauris_foo -->
<g id="edge4" class="edge"><title>1997.Amauris_damocles&#45;&gt;1997.Amauris_foo</title>
<path fill="none" stroke="#000000" d="M629.648,-282.003C703.068,-278.458 803.417,-273.612 867.483,-270.519"/>
<polygon fill="#000000" stroke="#000000" points="629.293,-278.516 619.473,-282.494 629.63,-285.507 629.293,-278.516"/>
</g>
<!-- 1997.FooBar -->
<g id="node14" class="node"><title>1997.FooBar</title>
<polygon fill="#ccffcc" stroke="black" points="978.513,-244.5 883.513,-244.5 883.513,-208.5 978.513,-208.5 978.513,-244.5"/>
<text text-anchor="middle" x="931.013" y="-222.8" font-family="Helvetica,sans-Serif" font-size="14.00">1997.FooBar</text>
</g>
<!-- 1997.Amauris_damocles&#45;&gt;1997.FooBar -->
<g id="edge6" class="edge"><title>1997.Amauris_damocles&#45;&gt;1997.FooBar</title>
<path fill="none" stroke="#000000" d="M628.691,-266.392C659.811,-260.064 694.816,-253.444 727,-248.5 780.437,-240.292 842.25,-234.056 883.498,-230.355"/>
<polygon fill="#000000" stroke="#000000" points="627.826,-262.997 618.733,-268.434 629.232,-269.854 627.826,-262.997"/>
</g>
<!-- Legend -->
<g id="node15" class="node"><title>Legend</title>
<polygon fill="white" stroke="black" points="91,-175 0,-175 0,-0 91,-0 91,-175"/>
<polygon fill="none" stroke="black" points="0.5,-149.5 0.5,-174.5 91.5,-174.5 91.5,-149.5 0.5,-149.5"/>
<text text-anchor="start" x="23" y="-158.3" font-family="Arial Black" font-size="14.00"> Nodes</text>
<polygon fill="#ffffcc" stroke="none" points="0.5,-124.5 0.5,-149.5 65.5,-149.5 65.5,-124.5 0.5,-124.5"/>
<polygon fill="none" stroke="black" points="0.5,-124.5 0.5,-149.5 65.5,-149.5 65.5,-124.5 0.5,-124.5"/>
<text text-anchor="start" x="17.5" y="-133.3" font-family="Helvetica,sans-Serif" font-size="14.00">1995</text>
<polygon fill="none" stroke="black" points="65.5,-124.5 65.5,-149.5 91.5,-149.5 91.5,-124.5 65.5,-124.5"/>
<text text-anchor="start" x="74.5" y="-133.3" font-family="Helvetica,sans-Serif" font-size="14.00">4</text>
<polygon fill="#ccffcc" stroke="none" points="0.5,-99.5 0.5,-124.5 65.5,-124.5 65.5,-99.5 0.5,-99.5"/>
<polygon fill="none" stroke="black" points="0.5,-99.5 0.5,-124.5 65.5,-124.5 65.5,-99.5 0.5,-99.5"/>
<text text-anchor="start" x="17.5" y="-108.3" font-family="Helvetica,sans-Serif" font-size="14.00">1997</text>
<polygon fill="none" stroke="black" points="65.5,-99.5 65.5,-124.5 91.5,-124.5 91.5,-99.5 65.5,-99.5"/>
<text text-anchor="start" x="70.5" y="-108.3" font-family="Helvetica,sans-Serif" font-size="14.00">10</text>
<polygon fill="none" stroke="black" points="0.5,-74.5 0.5,-99.5 91.5,-99.5 91.5,-74.5 0.5,-74.5"/>
<text text-anchor="start" x="21.5" y="-83.3" font-family="Arial Black" font-size="14.00"> Edges </text>
<polygon fill="none" stroke="black" points="0.5,-49.5 0.5,-74.5 65.5,-74.5 65.5,-49.5 0.5,-49.5"/>
<text text-anchor="start" x="5.5" y="-58.3" font-family="Helvetica,sans-Serif" font-size="14.00" fill="#000000">isa_1995</text>
<polygon fill="none" stroke="black" points="65.5,-49.5 65.5,-74.5 91.5,-74.5 91.5,-49.5 65.5,-49.5"/>
<text text-anchor="start" x="74.5" y="-58.3" font-family="Helvetica,sans-Serif" font-size="14.00">3</text>
<polygon fill="none" stroke="black" points="0.5,-24.5 0.5,-49.5 65.5,-49.5 65.5,-24.5 0.5,-24.5"/>
<text text-anchor="start" x="5.5" y="-33.3" font-family="Helvetica,sans-Serif" font-size="14.00" fill="#000000">isa_1997</text>
<polygon fill="none" stroke="black" points="65.5,-24.5 65.5,-49.5 91.5,-49.5 91.5,-24.5 65.5,-24.5"/>
<text text-anchor="start" x="74.5" y="-33.3" font-family="Helvetica,sans-Serif" font-size="14.00">7</text>
<polygon fill="none" stroke="black" points="0.5,0.5 0.5,-24.5 65.5,-24.5 65.5,0.5 0.5,0.5"/>
<text text-anchor="start" x="22" y="-8.3" font-family="Helvetica,sans-Serif" font-size="14.00" fill="#aa00ff">Art.</text>
<polygon fill="none" stroke="black" points="65.5,0.5 65.5,-24.5 91.5,-24.5 91.5,0.5 65.5,0.5"/>
<text text-anchor="start" x="74.5" y="-8.3" font-family="Helvetica,sans-Serif" font-size="14.00">3</text>
</g>
</g>
</svg>
