<?xml version="1.0" encoding="UTF-8" standalone="no"?>
<!DOCTYPE svg PUBLIC "-//W3C//DTD SVG 1.1//EN"
 "http://www.w3.org/Graphics/SVG/1.1/DTD/svg11.dtd">
<!-- Generated by graphviz version 2.38.0 (20140413.2041)
 -->
<!-- Title: %3 Pages: 1 -->
<svg width="1407pt" height="313pt"
 viewBox="0.00 0.00 1406.99 313.00" xmlns="http://www.w3.org/2000/svg" xmlns:xlink="http://www.w3.org/1999/xlink">
<g id="graph0" class="graph" transform="scale(1 1) rotate(0) translate(4 309)">
<title>%3</title>
<polygon fill="white" stroke="none" points="-4,4 -4,-309 1402.99,-309 1402.99,4 -4,4"/>
<!-- 1995.Amauris_damocles -->
<g id="node1" class="node"><title>1995.Amauris_damocles</title>
<polygon fill="#ffffcc" stroke="black" points="1398.98,-187.544 1398.98,-202.456 1330.17,-213 1232.85,-213 1164.04,-202.456 1164.04,-187.544 1232.85,-177 1330.17,-177 1398.98,-187.544"/>
<text text-anchor="middle" x="1281.51" y="-191.3" font-family="Helvetica,sans-Serif" font-size="14.00">1995.Amauris_damocles</text>
</g>
<!-- 1995.Amauris_damocles_subsp_makuyensis -->
<g id="node2" class="node"><title>1995.Amauris_damocles_subsp_makuyensis</title>
<polygon fill="#ffffcc" stroke="black" points="1127.04,-233.544 1127.04,-248.456 1007.52,-259 838.503,-259 718.987,-248.456 718.987,-233.544 838.503,-223 1007.52,-223 1127.04,-233.544"/>
<text text-anchor="middle" x="923.013" y="-237.3" font-family="Helvetica,sans-Serif" font-size="14.00">1995.Amauris_damocles_subsp_makuyensis</text>
</g>
<!-- 1995.Amauris_damocles_subsp_makuyensis&#45;&gt;1995.Amauris_damocles -->
<g id="edge1" class="edge"><title>1995.Amauris_damocles_subsp_makuyensis&#45;&gt;1995.Amauris_damocles</title>
<path fill="none" stroke="#000000" d="M1057.89,-227.398C1080.97,-224.794 1104.71,-221.952 1127.03,-219 1147.71,-216.264 1169.9,-212.991 1190.8,-209.754"/>
<polygon fill="#000000" stroke="#000000" points="1191.61,-213.171 1200.95,-208.171 1190.53,-206.255 1191.61,-213.171"/>
</g>
<!-- 1995.Amauris_damocles_subsp_damocles -->
<g id="node3" class="node"><title>1995.Amauris_damocles_subsp_damocles</title>
<polygon fill="#ffffcc" stroke="black" points="1117.34,-141.544 1117.34,-156.456 1003.51,-167 842.52,-167 728.685,-156.456 728.685,-141.544 842.52,-131 1003.51,-131 1117.34,-141.544"/>
<text text-anchor="middle" x="923.013" y="-145.3" font-family="Helvetica,sans-Serif" font-size="14.00">1995.Amauris_damocles_subsp_damocles</text>
</g>
<!-- 1995.Amauris_damocles_subsp_damocles&#45;&gt;1995.Amauris_damocles -->
<g id="edge2" class="edge"><title>1995.Amauris_damocles_subsp_damocles&#45;&gt;1995.Amauris_damocles</title>
<path fill="none" stroke="#000000" d="M1054.9,-162.266C1078.91,-164.96 1103.74,-167.92 1127.03,-171 1147.71,-173.736 1169.9,-177.009 1190.8,-180.246"/>
<polygon fill="#000000" stroke="#000000" points="1190.53,-183.745 1200.95,-181.829 1191.61,-176.829 1190.53,-183.745"/>
</g>
<!-- 1995.Amauris_damocles_subsp_hyalites -->
<g id="node4" class="node"><title>1995.Amauris_damocles_subsp_hyalites</title>
<polygon fill="#ffffcc" stroke="black" points="1108.05,-187.544 1108.05,-202.456 999.658,-213 846.368,-213 737.976,-202.456 737.976,-187.544 846.368,-177 999.658,-177 1108.05,-187.544"/>
<text text-anchor="middle" x="923.013" y="-191.3" font-family="Helvetica,sans-Serif" font-size="14.00">1995.Amauris_damocles_subsp_hyalites</text>
</g>
<!-- 1995.Amauris_damocles_subsp_hyalites&#45;&gt;1995.Amauris_damocles -->
<g id="edge3" class="edge"><title>1995.Amauris_damocles_subsp_hyalites&#45;&gt;1995.Amauris_damocles</title>
<path fill="none" stroke="#000000" d="M1108.27,-195C1123.6,-195 1138.88,-195 1153.65,-195"/>
<polygon fill="#000000" stroke="#000000" points="1153.78,-198.5 1163.78,-195 1153.78,-191.5 1153.78,-198.5"/>
</g>
<!-- 1997.Amauris_foo -->
<g id="node5" class="node"><title>1997.Amauris_foo</title>
<polygon fill="#ccffcc" stroke="black" points="986.513,-118 859.513,-118 859.513,-82 986.513,-82 986.513,-118"/>
<text text-anchor="middle" x="923.013" y="-96.3" font-family="Helvetica,sans-Serif" font-size="14.00">1997.Amauris_foo</text>
</g>
<!-- 1997.Amauris_hyalites_subsp_makuyensis -->
<g id="node6" class="node"><title>1997.Amauris_hyalites_subsp_makuyensis</title>
<polygon fill="#ccffcc" stroke="black" points="666,-261 389,-261 389,-225 666,-225 666,-261"/>
<text text-anchor="middle" x="527.5" y="-239.3" font-family="Helvetica,sans-Serif" font-size="14.00">1997.Amauris_hyalites_subsp_makuyensis</text>
</g>
<!-- 1997.Amauris_hyalites_subsp_makuyensis&#45;&gt;1995.Amauris_damocles_subsp_makuyensis -->
<g id="edge11" class="edge"><title>1997.Amauris_hyalites_subsp_makuyensis&#45;&gt;1995.Amauris_damocles_subsp_makuyensis</title>
<path fill="none" stroke="#aa00ff" stroke-dasharray="5,2" d="M666.132,-242.3C683.198,-242.214 700.918,-242.124 718.71,-242.033"/>
<text text-anchor="middle" x="692.5" y="-245.8" font-family="Times,serif" font-size="14.00">==</text>
</g>
<!-- 1997.MyRoot -->
<g id="node7" class="node"><title>1997.MyRoot</title>
<polygon fill="#ccffcc" stroke="black" points="371,-305 273,-305 273,-269 371,-269 371,-305"/>
<text text-anchor="middle" x="322" y="-283.3" font-family="Helvetica,sans-Serif" font-size="14.00">1997.MyRoot</text>
</g>
<!-- 1997.Amauris_hyalites -->
<g id="node8" class="node"><title>1997.Amauris_hyalites</title>
<polygon fill="#ccffcc" stroke="black" points="255,-219 101,-219 101,-183 255,-183 255,-219"/>
<text text-anchor="middle" x="178" y="-197.3" font-family="Helvetica,sans-Serif" font-size="14.00">1997.Amauris_hyalites</text>
</g>
<!-- 1997.Amauris_hyalites&#45;&gt;1997.Amauris_hyalites_subsp_makuyensis -->
<g id="edge5" class="edge"><title>1997.Amauris_hyalites&#45;&gt;1997.Amauris_hyalites_subsp_makuyensis</title>
<path fill="none" stroke="#000000" d="M265.291,-212.047C267.89,-212.37 270.464,-212.688 273,-213 310.608,-217.626 351.372,-222.508 388.989,-226.959"/>
<polygon fill="#000000" stroke="#000000" points="265.533,-208.55 255.177,-210.785 264.666,-215.496 265.533,-208.55"/>
</g>
<!-- 1997.Amauris_hyalites_subsp_hyalites -->
<g id="node9" class="node"><title>1997.Amauris_hyalites_subsp_hyalites</title>
<polygon fill="#ccffcc" stroke="black" points="653,-215 402,-215 402,-179 653,-179 653,-215"/>
<text text-anchor="middle" x="527.5" y="-193.3" font-family="Helvetica,sans-Serif" font-size="14.00">1997.Amauris_hyalites_subsp_hyalites</text>
</g>
<!-- 1997.Amauris_hyalites&#45;&gt;1997.Amauris_hyalites_subsp_hyalites -->
<g id="edge8" class="edge"><title>1997.Amauris_hyalites&#45;&gt;1997.Amauris_hyalites_subsp_hyalites</title>
<path fill="none" stroke="#000000" d="M265.273,-200.007C306.517,-199.532 356.657,-198.955 401.94,-198.434"/>
<polygon fill="#000000" stroke="#000000" points="265.219,-196.507 255.26,-200.122 265.3,-203.507 265.219,-196.507"/>
</g>
<!-- 1997.Amauris_hyalites_subsp_hyalites&#45;&gt;1995.Amauris_damocles_subsp_hyalites -->
<g id="edge9" class="edge"><title>1997.Amauris_hyalites_subsp_hyalites&#45;&gt;1995.Amauris_damocles_subsp_hyalites</title>
<path fill="none" stroke="#aa00ff" stroke-dasharray="5,2" d="M653.01,-196.367C680.03,-196.23 709.162,-196.082 737.93,-195.936"/>
<text text-anchor="middle" x="692.5" y="-199.8" font-family="Times,serif" font-size="14.00">&lt;</text>
</g>
<!-- 1997.Amauris_bar -->
<g id="node10" class="node"><title>1997.Amauris_bar</title>
<polygon fill="#ccffcc" stroke="black" points="987.013,-77 859.013,-77 859.013,-41 987.013,-41 987.013,-77"/>
<text text-anchor="middle" x="923.013" y="-55.3" font-family="Helvetica,sans-Serif" font-size="14.00">1997.Amauris_bar</text>
</g>
<!-- 1997.Amauris_damocles -->
<g id="node11" class="node"><title>1997.Amauris_damocles</title>
<polygon fill="#ccffcc" stroke="black" points="611,-96 444,-96 444,-60 611,-60 611,-96"/>
<text text-anchor="middle" x="527.5" y="-74.3" font-family="Helvetica,sans-Serif" font-size="14.00">1997.Amauris_damocles</text>
</g>
<!-- 1997.Amauris_damocles&#45;&gt;1995.Amauris_damocles_subsp_damocles -->
<g id="edge10" class="edge"><title>1997.Amauris_damocles&#45;&gt;1995.Amauris_damocles_subsp_damocles</title>
<path fill="none" stroke="#aa00ff" stroke-dasharray="5,2" d="M589.347,-96.0346C626.507,-106.45 675.154,-119.028 719,-127 739.405,-130.71 761.085,-133.873 782.392,-136.546"/>
<text text-anchor="middle" x="692.5" y="-125.8" font-family="Times,serif" font-size="14.00">==</text>
</g>
<!-- 1997.Amauris_damocles&#45;&gt;1997.Amauris_foo -->
<g id="edge4" class="edge"><title>1997.Amauris_damocles&#45;&gt;1997.Amauris_foo</title>
<path fill="none" stroke="#000000" d="M621.648,-83.2076C695.068,-87.3122 795.417,-92.9225 859.483,-96.5042"/>
<polygon fill="#000000" stroke="#000000" points="621.653,-79.7025 611.473,-82.6388 621.262,-86.6916 621.653,-79.7025"/>
</g>
<!-- 1997.Amauris_damocles&#45;&gt;1997.Amauris_bar -->
<g id="edge7" class="edge"><title>1997.Amauris_damocles&#45;&gt;1997.Amauris_bar</title>
<path fill="none" stroke="#000000" d="M621.616,-73.5041C694.805,-69.9703 794.769,-65.1437 858.87,-62.0487"/>
<polygon fill="#000000" stroke="#000000" points="621.293,-70.0155 611.473,-73.9938 621.63,-77.0074 621.293,-70.0155"/>
</g>
<!-- 1997.FooBar -->
<g id="node12" class="node"><title>1997.FooBar</title>
<polygon fill="#ccffcc" stroke="black" points="970.513,-36 875.513,-36 875.513,-0 970.513,-0 970.513,-36"/>
<text text-anchor="middle" x="923.013" y="-14.3" font-family="Helvetica,sans-Serif" font-size="14.00">1997.FooBar</text>
</g>
<!-- 1997.Amauris_damocles&#45;&gt;1997.FooBar -->
<g id="edge6" class="edge"><title>1997.Amauris_damocles&#45;&gt;1997.FooBar</title>
<path fill="none" stroke="#000000" d="M620.691,-57.8922C651.811,-51.5637 686.816,-44.9437 719,-40 772.437,-31.7916 834.25,-25.5557 875.498,-21.8552"/>
<polygon fill="#000000" stroke="#000000" points="619.826,-54.4968 610.733,-59.9342 621.232,-61.3541 619.826,-54.4968"/>
</g>
<!-- Legend -->
<g id="node13" class="node"><title>Legend</title>
<polygon fill="white" stroke="black" points="83,-288.5 0,-288.5 0,-113.5 83,-113.5 83,-288.5"/>
<polygon fill="none" stroke="black" points="0.5,-263 0.5,-288 83.5,-288 83.5,-263 0.5,-263"/>
<text text-anchor="start" x="19" y="-271.8" font-family="Arial Black" font-size="14.00"> Nodes</text>
<polygon fill="#ffffcc" stroke="none" points="0.5,-238 0.5,-263 65.5,-263 65.5,-238 0.5,-238"/>
<polygon fill="none" stroke="black" points="0.5,-238 0.5,-263 65.5,-263 65.5,-238 0.5,-238"/>
<text text-anchor="start" x="17.5" y="-246.8" font-family="Helvetica,sans-Serif" font-size="14.00">1995</text>
<polygon fill="none" stroke="black" points="65.5,-238 65.5,-263 83.5,-263 83.5,-238 65.5,-238"/>
<text text-anchor="start" x="70.5" y="-246.8" font-family="Helvetica,sans-Serif" font-size="14.00">4</text>
<polygon fill="#ccffcc" stroke="none" points="0.5,-213 0.5,-238 65.5,-238 65.5,-213 0.5,-213"/>
<polygon fill="none" stroke="black" points="0.5,-213 0.5,-238 65.5,-238 65.5,-213 0.5,-213"/>
<text text-anchor="start" x="17.5" y="-221.8" font-family="Helvetica,sans-Serif" font-size="14.00">1997</text>
<polygon fill="none" stroke="black" points="65.5,-213 65.5,-238 83.5,-238 83.5,-213 65.5,-213"/>
<text text-anchor="start" x="70.5" y="-221.8" font-family="Helvetica,sans-Serif" font-size="14.00">8</text>
<polygon fill="none" stroke="black" points="0.5,-188 0.5,-213 83.5,-213 83.5,-188 0.5,-188"/>
<text text-anchor="start" x="17.5" y="-196.8" font-family="Arial Black" font-size="14.00"> Edges </text>
<polygon fill="none" stroke="black" points="0.5,-163 0.5,-188 65.5,-188 65.5,-163 0.5,-163"/>
<text text-anchor="start" x="5.5" y="-171.8" font-family="Helvetica,sans-Serif" font-size="14.00" fill="#000000">isa_1995</text>
<polygon fill="none" stroke="black" points="65.5,-163 65.5,-188 83.5,-188 83.5,-163 65.5,-163"/>
<text text-anchor="start" x="70.5" y="-171.8" font-family="Helvetica,sans-Serif" font-size="14.00">3</text>
<polygon fill="none" stroke="black" points="0.5,-138 0.5,-163 65.5,-163 65.5,-138 0.5,-138"/>
<text text-anchor="start" x="5.5" y="-146.8" font-family="Helvetica,sans-Serif" font-size="14.00" fill="#000000">isa_1997</text>
<polygon fill="none" stroke="black" points="65.5,-138 65.5,-163 83.5,-163 83.5,-138 65.5,-138"/>
<text text-anchor="start" x="70.5" y="-146.8" font-family="Helvetica,sans-Serif" font-size="14.00">5</text>
<polygon fill="none" stroke="black" points="0.5,-113 0.5,-138 65.5,-138 65.5,-113 0.5,-113"/>
<text text-anchor="start" x="22" y="-121.8" font-family="Helvetica,sans-Serif" font-size="14.00" fill="#aa00ff">Art.</text>
<polygon fill="none" stroke="black" points="65.5,-113 65.5,-138 83.5,-138 83.5,-113 65.5,-113"/>
<text text-anchor="start" x="70.5" y="-121.8" font-family="Helvetica,sans-Serif" font-size="14.00">3</text>
</g>
</g>
</svg>
