<?xml version="1.0" encoding="UTF-8" standalone="no"?>
<!DOCTYPE svg PUBLIC "-//W3C//DTD SVG 1.1//EN"
 "http://www.w3.org/Graphics/SVG/1.1/DTD/svg11.dtd">
<!-- Generated by graphviz version 2.38.0 (20140413.2041)
 -->
<!-- Title: %3 Pages: 1 -->
<svg width="1318pt" height="597pt"
 viewBox="0.00 0.00 1317.99 597.49" xmlns="http://www.w3.org/2000/svg" xmlns:xlink="http://www.w3.org/1999/xlink">
<g id="graph0" class="graph" transform="scale(1 1) rotate(0) translate(4 593.487)">
<title>%3</title>
<polygon fill="white" stroke="none" points="-4,4 -4,-593.487 1313.99,-593.487 1313.99,4 -4,4"/>
<!-- 1995.Amauris_damocles -->
<g id="node1" class="node"><title>1995.Amauris_damocles</title>
<polygon fill="#ffffcc" stroke="black" points="1309.98,-316.345 1309.98,-331.256 1241.17,-341.801 1143.85,-341.801 1075.04,-331.256 1075.04,-316.345 1143.85,-305.801 1241.17,-305.801 1309.98,-316.345"/>
<text text-anchor="middle" x="1192.51" y="-320.101" font-family="Helvetica,sans-Serif" font-size="14.00">1995.Amauris_damocles</text>
</g>
<!-- 1995.Amauris_damocles_subsp_makuyensis -->
<g id="node2" class="node"><title>1995.Amauris_damocles_subsp_makuyensis</title>
<polygon fill="#ffffcc" stroke="black" points="1038.04,-362.345 1038.04,-377.256 918.523,-387.801 749.503,-387.801 629.987,-377.256 629.987,-362.345 749.503,-351.801 918.523,-351.801 1038.04,-362.345"/>
<text text-anchor="middle" x="834.013" y="-366.101" font-family="Helvetica,sans-Serif" font-size="14.00">1995.Amauris_damocles_subsp_makuyensis</text>
</g>
<!-- 1995.Amauris_damocles_subsp_makuyensis&#45;&gt;1995.Amauris_damocles -->
<g id="edge1" class="edge"><title>1995.Amauris_damocles_subsp_makuyensis&#45;&gt;1995.Amauris_damocles</title>
<path fill="none" stroke="#000000" d="M952.237,-354.675C997.328,-348.856 1048.35,-342.274 1091.65,-336.685"/>
<polygon fill="#000000" stroke="#000000" points="1092.16,-340.15 1101.63,-335.399 1091.26,-333.207 1092.16,-340.15"/>
</g>
<!-- 1995.Amauris_damocles_subsp_damocles -->
<g id="node3" class="node"><title>1995.Amauris_damocles_subsp_damocles</title>
<polygon fill="#ffffcc" stroke="black" points="1028.34,-273.345 1028.34,-288.256 914.506,-298.801 753.52,-298.801 639.685,-288.256 639.685,-273.345 753.52,-262.801 914.506,-262.801 1028.34,-273.345"/>
<text text-anchor="middle" x="834.013" y="-277.101" font-family="Helvetica,sans-Serif" font-size="14.00">1995.Amauris_damocles_subsp_damocles</text>
</g>
<!-- 1995.Amauris_damocles_subsp_damocles&#45;&gt;1995.Amauris_damocles -->
<g id="edge3" class="edge"><title>1995.Amauris_damocles_subsp_damocles&#45;&gt;1995.Amauris_damocles</title>
<path fill="none" stroke="#000000" d="M963.95,-294.223C988.557,-296.941 1014.1,-299.868 1038.03,-302.801 1056.58,-305.075 1076.37,-307.662 1095.37,-310.225"/>
<polygon fill="#000000" stroke="#000000" points="1095.14,-313.726 1105.52,-311.603 1096.08,-306.79 1095.14,-313.726"/>
</g>
<!-- 1995.Amauris_damocles_subsp_hyalites -->
<g id="node4" class="node"><title>1995.Amauris_damocles_subsp_hyalites</title>
<polygon fill="#ffffcc" stroke="black" points="1019.05,-222.345 1019.05,-237.256 910.658,-247.801 757.368,-247.801 648.976,-237.256 648.976,-222.345 757.368,-211.801 910.658,-211.801 1019.05,-222.345"/>
<text text-anchor="middle" x="834.013" y="-226.101" font-family="Helvetica,sans-Serif" font-size="14.00">1995.Amauris_damocles_subsp_hyalites</text>
</g>
<!-- 1995.Amauris_damocles_subsp_hyalites&#45;&gt;1995.Amauris_damocles -->
<g id="edge2" class="edge"><title>1995.Amauris_damocles_subsp_hyalites&#45;&gt;1995.Amauris_damocles</title>
<path fill="none" stroke="#000000" d="M978.903,-241.184C998.953,-244.397 1019.14,-248.518 1038.03,-253.801 1077.9,-264.955 1120.54,-285.138 1150.73,-300.976"/>
<polygon fill="#000000" stroke="#000000" points="1149.21,-304.132 1159.69,-305.736 1152.5,-297.951 1149.21,-304.132"/>
</g>
<!-- 1997.Amauris_hyalites_subsp_hyalites -->
<g id="node5" class="node"><title>1997.Amauris_hyalites_subsp_hyalites</title>
<polygon fill="#ccffcc" stroke="black" points="564,-527.801 313,-527.801 313,-491.801 564,-491.801 564,-527.801"/>
<text text-anchor="middle" x="438.5" y="-506.101" font-family="Helvetica,sans-Serif" font-size="14.00">1997.Amauris_hyalites_subsp_hyalites</text>
</g>
<!-- 1997.Amauris_hyalites_subsp_hyalites&#45;&gt;1995.Amauris_damocles -->
<g id="edge14" class="edge"><title>1997.Amauris_hyalites_subsp_hyalites&#45;&gt;1995.Amauris_damocles</title>
<path fill="none" stroke="#aa00ff" stroke-dasharray="5,2" d="M477.256,-527.896C512.023,-542.375 565.155,-559.008 612,-550.801 831.515,-512.343 1073.48,-388.509 1159.23,-341.83"/>
<text text-anchor="middle" x="834.013" y="-550.601" font-family="Times,serif" font-size="14.00">&gt;&lt;</text>
</g>
<!-- 1997.Amauris_hyalites_subsp_hyalites&#45;&gt;1995.Amauris_damocles_subsp_makuyensis -->
<g id="edge7" class="edge"><title>1997.Amauris_hyalites_subsp_hyalites&#45;&gt;1995.Amauris_damocles_subsp_makuyensis</title>
<path fill="none" stroke="#aa00ff" stroke-dasharray="5,2" d="M496.636,-527.811C530.82,-535.73 574.721,-540.817 612,-528.801 699.503,-500.595 781.621,-423.467 816.026,-388.037"/>
<text text-anchor="middle" x="603.5" y="-535.601" font-family="Times,serif" font-size="14.00">!</text>
</g>
<!-- 1997.Amauris_hyalites_subsp_hyalites&#45;&gt;1995.Amauris_damocles_subsp_damocles -->
<g id="edge20" class="edge"><title>1997.Amauris_hyalites_subsp_hyalites&#45;&gt;1995.Amauris_damocles_subsp_damocles</title>
<path fill="none" stroke="#aa00ff" stroke-dasharray="5,2" d="M564.055,-506.578C582.209,-500.864 599.095,-491.795 612,-477.801 638.503,-449.061 602.432,-330.52 630,-302.801 635.25,-297.522 641.005,-292.961 647.146,-289.036"/>
<text text-anchor="middle" x="603.5" y="-493.601" font-family="Times,serif" font-size="14.00">!</text>
</g>
<!-- 1997.Amauris_hyalites_subsp_hyalites&#45;&gt;1995.Amauris_damocles_subsp_hyalites -->
<g id="edge10" class="edge"><title>1997.Amauris_hyalites_subsp_hyalites&#45;&gt;1995.Amauris_damocles_subsp_hyalites</title>
<path fill="none" stroke="#aa00ff" stroke-dasharray="5,2" d="M486.649,-491.712C515.682,-478.647 552,-458.586 577,-431.801 601.55,-405.497 601.078,-393.084 612,-358.801 626.373,-313.687 595.66,-286.397 630,-253.801 636.693,-247.448 644.12,-242.138 652.064,-237.725"/>
<text text-anchor="middle" x="603.5" y="-410.601" font-family="Times,serif" font-size="14.00">&gt;</text>
</g>
<!-- 1997.Amauris_hyalites_subsp_makuyensis -->
<g id="node6" class="node"><title>1997.Amauris_hyalites_subsp_makuyensis</title>
<polygon fill="#ccffcc" stroke="black" points="577,-107.801 300,-107.801 300,-71.8006 577,-71.8006 577,-107.801"/>
<text text-anchor="middle" x="438.5" y="-86.1006" font-family="Helvetica,sans-Serif" font-size="14.00">1997.Amauris_hyalites_subsp_makuyensis</text>
</g>
<!-- 1997.Amauris_hyalites_subsp_makuyensis&#45;&gt;1995.Amauris_damocles -->
<g id="edge19" class="edge"><title>1997.Amauris_hyalites_subsp_makuyensis&#45;&gt;1995.Amauris_damocles</title>
<path fill="none" stroke="#aa00ff" stroke-dasharray="5,2" d="M567.234,-71.7736C570.576,-70.2401 573.839,-68.5854 577,-66.8006 587.705,-60.7572 583.832,-50.9372 595,-45.8006 601.864,-42.6435 604.542,-44.5904 612,-45.8006 809.009,-77.7689 865.16,-88.0413 1038.03,-187.801 1094.76,-220.544 1149.23,-276.476 1175.38,-305.349"/>
<text text-anchor="middle" x="834.013" y="-191.601" font-family="Times,serif" font-size="14.00">&lt;</text>
</g>
<!-- 1997.Amauris_hyalites_subsp_makuyensis&#45;&gt;1995.Amauris_damocles_subsp_makuyensis -->
<g id="edge16" class="edge"><title>1997.Amauris_hyalites_subsp_makuyensis&#45;&gt;1995.Amauris_damocles_subsp_makuyensis</title>
<path fill="none" stroke="#aa00ff" stroke-dasharray="5,2" d="M492.869,-107.939C520.858,-119.674 554.007,-137.371 577,-161.801 603.042,-189.47 600.866,-203.472 612,-239.801 625.618,-284.232 596.476,-310.617 630,-342.801 637.182,-349.695 645.221,-355.405 653.845,-360.106"/>
<text text-anchor="middle" x="603.5" y="-246.601" font-family="Times,serif" font-size="14.00">==</text>
</g>
<!-- 1997.Amauris_hyalites_subsp_makuyensis&#45;&gt;1995.Amauris_damocles_subsp_damocles -->
<g id="edge13" class="edge"><title>1997.Amauris_hyalites_subsp_makuyensis&#45;&gt;1995.Amauris_damocles_subsp_damocles</title>
<path fill="none" stroke="#aa00ff" stroke-dasharray="5,2" d="M577.21,-83.2371C590.109,-87.6067 602.052,-94.2056 612,-103.801 661.281,-151.333 581.599,-208.372 630,-256.801 636.021,-262.825 642.698,-267.931 649.854,-272.238"/>
<text text-anchor="middle" x="603.5" y="-107.601" font-family="Times,serif" font-size="14.00">!</text>
</g>
<!-- 1997.Amauris_hyalites_subsp_makuyensis&#45;&gt;1995.Amauris_damocles_subsp_hyalites -->
<g id="edge18" class="edge"><title>1997.Amauris_hyalites_subsp_makuyensis&#45;&gt;1995.Amauris_damocles_subsp_hyalites</title>
<path fill="none" stroke="#aa00ff" stroke-dasharray="5,2" d="M473.583,-71.6991C508.89,-55.4287 565.327,-36.4148 612,-52.8006 703.839,-85.0428 785.825,-173.293 818.262,-211.626"/>
<text text-anchor="middle" x="603.5" y="-56.6006" font-family="Times,serif" font-size="14.00">!</text>
</g>
<!-- 1997.Amauris_hyalites -->
<g id="node7" class="node"><title>1997.Amauris_hyalites</title>
<polygon fill="#ccffcc" stroke="black" points="263,-315.801 109,-315.801 109,-279.801 263,-279.801 263,-315.801"/>
<text text-anchor="middle" x="186" y="-294.101" font-family="Helvetica,sans-Serif" font-size="14.00">1997.Amauris_hyalites</text>
</g>
<!-- 1997.Amauris_hyalites&#45;&gt;1995.Amauris_damocles -->
<g id="edge21" class="edge"><title>1997.Amauris_hyalites&#45;&gt;1995.Amauris_damocles</title>
<path fill="none" stroke="#aa00ff" stroke-dasharray="5,2" d="M189.497,-316.043C196.852,-362.008 222.982,-482.755 300,-536.801 407.805,-612.451 463.549,-556.693 595,-564.801 767.421,-575.435 950.687,-613.831 1038.03,-565.801 1128.05,-516.294 1172.71,-389.194 1186.61,-341.892"/>
<text text-anchor="middle" x="603.5" y="-569.601" font-family="Times,serif" font-size="14.00">&gt;&lt;</text>
</g>
<!-- 1997.Amauris_hyalites&#45;&gt;1995.Amauris_damocles_subsp_makuyensis -->
<g id="edge12" class="edge"><title>1997.Amauris_hyalites&#45;&gt;1995.Amauris_damocles_subsp_makuyensis</title>
<path fill="none" stroke="#aa00ff" stroke-dasharray="5,2" d="M245.51,-315.843C262.907,-320.666 282.102,-325.46 300,-328.801 407.885,-348.94 529.828,-359.222 629.824,-364.456"/>
<text text-anchor="middle" x="438.5" y="-364.601" font-family="Times,serif" font-size="14.00">&gt;</text>
</g>
<!-- 1997.Amauris_hyalites&#45;&gt;1995.Amauris_damocles_subsp_damocles -->
<g id="edge9" class="edge"><title>1997.Amauris_hyalites&#45;&gt;1995.Amauris_damocles_subsp_damocles</title>
<path fill="none" stroke="#aa00ff" stroke-dasharray="5,2" d="M230.194,-279.795C250.92,-272.063 276.34,-263.879 300,-259.801 436.669,-236.245 473.553,-246.685 612,-254.801 613.437,-254.885 661.493,-260.532 712.423,-266.542"/>
<text text-anchor="middle" x="438.5" y="-263.601" font-family="Times,serif" font-size="14.00">!</text>
</g>
<!-- 1997.Amauris_hyalites&#45;&gt;1995.Amauris_damocles_subsp_hyalites -->
<g id="edge6" class="edge"><title>1997.Amauris_hyalites&#45;&gt;1995.Amauris_damocles_subsp_hyalites</title>
<path fill="none" stroke="#aa00ff" stroke-dasharray="5,2" d="M188.75,-279.737C194.475,-231.831 217.342,-101.547 300,-47.8006 416.255,27.7907 481.602,1.37511 612,-45.8006 705.429,-79.6015 787.155,-172.037 818.917,-211.524"/>
<text text-anchor="middle" x="438.5" y="-51.6006" font-family="Times,serif" font-size="14.00">&gt;</text>
</g>
<!-- 1997.Amauris_hyalites&#45;&gt;1997.Amauris_hyalites_subsp_hyalites -->
<g id="edge5" class="edge"><title>1997.Amauris_hyalites&#45;&gt;1997.Amauris_hyalites_subsp_hyalites</title>
<path fill="none" stroke="#000000" d="M201.808,-324.988C218.232,-353.21 246.954,-397.279 281,-426.801 313.762,-455.21 357.911,-477.503 390.964,-491.8"/>
<polygon fill="#000000" stroke="#000000" points="204.715,-323.02 196.719,-316.068 198.635,-326.489 204.715,-323.02"/>
</g>
<!-- 1997.Amauris_hyalites&#45;&gt;1997.Amauris_hyalites_subsp_makuyensis -->
<g id="edge4" class="edge"><title>1997.Amauris_hyalites&#45;&gt;1997.Amauris_hyalites_subsp_makuyensis</title>
<path fill="none" stroke="#000000" d="M201.767,-270.728C218.157,-242.646 246.852,-198.854 281,-169.801 312.956,-142.612 355.732,-121.551 388.487,-107.879"/>
<polygon fill="#000000" stroke="#000000" points="198.616,-269.187 196.69,-279.606 204.693,-272.662 198.616,-269.187"/>
</g>
<!-- 1997.Amauris_damocles -->
<g id="node8" class="node"><title>1997.Amauris_damocles</title>
<polygon fill="#ccffcc" stroke="black" points="522,-319.801 355,-319.801 355,-283.801 522,-283.801 522,-319.801"/>
<text text-anchor="middle" x="438.5" y="-298.101" font-family="Helvetica,sans-Serif" font-size="14.00">1997.Amauris_damocles</text>
</g>
<!-- 1997.Amauris_damocles&#45;&gt;1995.Amauris_damocles -->
<g id="edge17" class="edge"><title>1997.Amauris_damocles&#45;&gt;1995.Amauris_damocles</title>
<path fill="none" stroke="#aa00ff" stroke-dasharray="5,2" d="M522.199,-306.485C545.718,-307.701 571.363,-308.915 595,-309.801 761.662,-316.042 954.627,-319.97 1074.89,-322.026"/>
<text text-anchor="middle" x="834.013" y="-324.601" font-family="Times,serif" font-size="14.00">&lt;</text>
</g>
<!-- 1997.Amauris_damocles&#45;&gt;1995.Amauris_damocles_subsp_makuyensis -->
<g id="edge11" class="edge"><title>1997.Amauris_damocles&#45;&gt;1995.Amauris_damocles_subsp_makuyensis</title>
<path fill="none" stroke="#aa00ff" stroke-dasharray="5,2" d="M511.619,-319.851C537.778,-326.039 567.625,-332.686 595,-337.801 631.476,-344.615 671.357,-350.559 707.867,-355.415"/>
<text text-anchor="middle" x="603.5" y="-343.601" font-family="Times,serif" font-size="14.00">!</text>
</g>
<!-- 1997.Amauris_damocles&#45;&gt;1995.Amauris_damocles_subsp_damocles -->
<g id="edge15" class="edge"><title>1997.Amauris_damocles&#45;&gt;1995.Amauris_damocles_subsp_damocles</title>
<path fill="none" stroke="#aa00ff" stroke-dasharray="5,2" d="M522.473,-297.373C562.273,-295.249 611.536,-292.62 659.008,-290.086"/>
<text text-anchor="middle" x="603.5" y="-297.601" font-family="Times,serif" font-size="14.00">==</text>
</g>
<!-- 1997.Amauris_damocles&#45;&gt;1995.Amauris_damocles_subsp_hyalites -->
<g id="edge8" class="edge"><title>1997.Amauris_damocles&#45;&gt;1995.Amauris_damocles_subsp_hyalites</title>
<path fill="none" stroke="#aa00ff" stroke-dasharray="5,2" d="M502.55,-283.735C539.442,-273.713 587.067,-261.713 630,-253.801 653.647,-249.443 678.996,-245.71 703.491,-242.578"/>
<text text-anchor="middle" x="603.5" y="-264.601" font-family="Times,serif" font-size="14.00">!</text>
</g>
<!-- Legend -->
<g id="node9" class="node"><title>Legend</title>
<polygon fill="white" stroke="black" points="91,-385.301 0,-385.301 0,-210.301 91,-210.301 91,-385.301"/>
<polygon fill="none" stroke="black" points="0.5,-359.801 0.5,-384.801 91.5,-384.801 91.5,-359.801 0.5,-359.801"/>
<text text-anchor="start" x="23" y="-368.601" font-family="Arial Black" font-size="14.00"> Nodes</text>
<polygon fill="#ffffcc" stroke="none" points="0.5,-334.801 0.5,-359.801 65.5,-359.801 65.5,-334.801 0.5,-334.801"/>
<polygon fill="none" stroke="black" points="0.5,-334.801 0.5,-359.801 65.5,-359.801 65.5,-334.801 0.5,-334.801"/>
<text text-anchor="start" x="17.5" y="-343.601" font-family="Helvetica,sans-Serif" font-size="14.00">1995</text>
<polygon fill="none" stroke="black" points="65.5,-334.801 65.5,-359.801 91.5,-359.801 91.5,-334.801 65.5,-334.801"/>
<text text-anchor="start" x="74.5" y="-343.601" font-family="Helvetica,sans-Serif" font-size="14.00">4</text>
<polygon fill="#ccffcc" stroke="none" points="0.5,-309.801 0.5,-334.801 65.5,-334.801 65.5,-309.801 0.5,-309.801"/>
<polygon fill="none" stroke="black" points="0.5,-309.801 0.5,-334.801 65.5,-334.801 65.5,-309.801 0.5,-309.801"/>
<text text-anchor="start" x="17.5" y="-318.601" font-family="Helvetica,sans-Serif" font-size="14.00">1997</text>
<polygon fill="none" stroke="black" points="65.5,-309.801 65.5,-334.801 91.5,-334.801 91.5,-309.801 65.5,-309.801"/>
<text text-anchor="start" x="74.5" y="-318.601" font-family="Helvetica,sans-Serif" font-size="14.00">4</text>
<polygon fill="none" stroke="black" points="0.5,-284.801 0.5,-309.801 91.5,-309.801 91.5,-284.801 0.5,-284.801"/>
<text text-anchor="start" x="21.5" y="-293.601" font-family="Arial Black" font-size="14.00"> Edges </text>
<polygon fill="none" stroke="black" points="0.5,-259.801 0.5,-284.801 65.5,-284.801 65.5,-259.801 0.5,-259.801"/>
<text text-anchor="start" x="5.5" y="-268.601" font-family="Helvetica,sans-Serif" font-size="14.00" fill="#000000">isa_1995</text>
<polygon fill="none" stroke="black" points="65.5,-259.801 65.5,-284.801 91.5,-284.801 91.5,-259.801 65.5,-259.801"/>
<text text-anchor="start" x="74.5" y="-268.601" font-family="Helvetica,sans-Serif" font-size="14.00">3</text>
<polygon fill="none" stroke="black" points="0.5,-234.801 0.5,-259.801 65.5,-259.801 65.5,-234.801 0.5,-234.801"/>
<text text-anchor="start" x="5.5" y="-243.601" font-family="Helvetica,sans-Serif" font-size="14.00" fill="#000000">isa_1997</text>
<polygon fill="none" stroke="black" points="65.5,-234.801 65.5,-259.801 91.5,-259.801 91.5,-234.801 65.5,-234.801"/>
<text text-anchor="start" x="74.5" y="-243.601" font-family="Helvetica,sans-Serif" font-size="14.00">2</text>
<polygon fill="none" stroke="black" points="0.5,-209.801 0.5,-234.801 65.5,-234.801 65.5,-209.801 0.5,-209.801"/>
<text text-anchor="start" x="22" y="-218.601" font-family="Helvetica,sans-Serif" font-size="14.00" fill="#aa00ff">Art.</text>
<polygon fill="none" stroke="black" points="65.5,-209.801 65.5,-234.801 91.5,-234.801 91.5,-209.801 65.5,-209.801"/>
<text text-anchor="start" x="70.5" y="-218.601" font-family="Helvetica,sans-Serif" font-size="14.00">16</text>
</g>
</g>
</svg>
