<?xml version="1.0" encoding="UTF-8" standalone="no"?>
<!DOCTYPE svg PUBLIC "-//W3C//DTD SVG 1.1//EN"
 "http://www.w3.org/Graphics/SVG/1.1/DTD/svg11.dtd">
<!-- Generated by graphviz version 2.38.0 (20140413.2041)
 -->
<!-- Title: %3 Pages: 1 -->
<svg width="772pt" height="208pt"
 viewBox="0.00 0.00 772.11 208.00" xmlns="http://www.w3.org/2000/svg" xmlns:xlink="http://www.w3.org/1999/xlink">
<g id="graph0" class="graph" transform="scale(1 1) rotate(0) translate(4 204)">
<title>%3</title>
<polygon fill="white" stroke="none" points="-4,4 -4,-204 768.106,-204 768.106,4 -4,4"/>
<!-- 2015.Palaeognathae -->
<g id="node1" class="node"><title>2015.Palaeognathae</title>
<polygon fill="#ccffcc" stroke="black" points="469.606,-91 344.606,-91 344.606,-55 469.606,-55 469.606,-91"/>
<text text-anchor="middle" x="407.106" y="-69.3" font-family="Times,serif" font-size="14.00">2015.Palaeognathae</text>
</g>
<!-- 2015.Aves -->
<g id="node2" class="node"><title>2015.Aves</title>
<polygon fill="#ccffcc" stroke="black" points="257.815,-145 182.815,-145 182.815,-109 257.815,-109 257.815,-145"/>
<text text-anchor="middle" x="220.315" y="-123.3" font-family="Times,serif" font-size="14.00">2015.Aves</text>
</g>
<!-- 2015.Palaeognathae&#45;&gt;2015.Aves -->
<g id="edge5" class="edge"><title>2015.Palaeognathae&#45;&gt;2015.Aves</title>
<path fill="none" stroke="#000000" d="M344.573,-90.9812C319.493,-98.3101 290.986,-106.641 267.708,-113.443"/>
<polygon fill="#000000" stroke="#000000" points="266.694,-110.093 258.078,-116.257 268.658,-116.812 266.694,-110.093"/>
</g>
<!-- 2014.Neognathae -->
<g id="node4" class="node"><title>2014.Neognathae</title>
<polygon fill="#ffffcc" stroke="black" points="298.898,-65.5442 298.898,-80.4558 252.865,-91 187.765,-91 141.732,-80.4558 141.732,-65.5442 187.765,-55 252.865,-55 298.898,-65.5442"/>
<text text-anchor="middle" x="220.315" y="-69.3" font-family="Times,serif" font-size="14.00">2014.Neognathae</text>
</g>
<!-- 2015.Palaeognathae&#45;&gt;2014.Neognathae -->
<g id="edge7" class="edge"><title>2015.Palaeognathae&#45;&gt;2014.Neognathae</title>
<path fill="none" stroke="#ff0000" d="M344.573,-73C333.172,-73 321.062,-73 309.057,-73"/>
<polygon fill="#ff0000" stroke="#ff0000" points="309.016,-69.5001 299.016,-73 309.016,-76.5001 309.016,-69.5001"/>
</g>
<!-- 2014.Aves -->
<g id="node3" class="node"><title>2014.Aves</title>
<polygon fill="#ffffcc" stroke="black" points="105.287,-92.5442 105.287,-107.456 74.5185,-118 31.0054,-118 0.236993,-107.456 0.236993,-92.5442 31.0054,-82 74.5185,-82 105.287,-92.5442"/>
<text text-anchor="middle" x="52.7619" y="-96.3" font-family="Times,serif" font-size="14.00">2014.Aves</text>
</g>
<!-- 2015.Aves&#45;&gt;2014.Aves -->
<g id="edge8" class="edge"><title>2015.Aves&#45;&gt;2014.Aves</title>
<path fill="none" stroke="#ff0000" d="M182.573,-121.008C162.326,-117.706 136.691,-113.525 113.63,-109.764"/>
<polygon fill="#ff0000" stroke="#ff0000" points="114.021,-106.281 103.588,-108.126 112.894,-113.19 114.021,-106.281"/>
</g>
<!-- 2015.Aves&#45;&gt;2014.Neognathae -->
<g id="edge1" class="edge"><title>2015.Aves&#45;&gt;2014.Neognathae</title>
<path fill="none" stroke="#0000ff" stroke-dasharray="1,5" d="M220.315,-108.79C220.315,-102.907 220.315,-97.0238 220.315,-91.1406"/>
</g>
<!-- 2014.Neognathae&#45;&gt;2014.Aves -->
<g id="edge6" class="edge"><title>2014.Neognathae&#45;&gt;2014.Aves</title>
<path fill="none" stroke="#000000" d="M154.834,-83.5162C141.232,-85.7345 126.937,-88.0659 113.519,-90.2543"/>
<polygon fill="#000000" stroke="#000000" points="112.761,-86.8316 103.454,-91.8957 113.887,-93.7403 112.761,-86.8316"/>
</g>
<!-- 2015.Gall_Neoa_Clade\n2014.Paleognathae -->
<g id="node5" class="node"><title>2015.Gall_Neoa_Clade\n2014.Paleognathae</title>
<path fill="#eeeeee" stroke="black" d="M467.106,-147C467.106,-147 347.106,-147 347.106,-147 341.106,-147 335.106,-141 335.106,-135 335.106,-135 335.106,-121 335.106,-121 335.106,-115 341.106,-109 347.106,-109 347.106,-109 467.106,-109 467.106,-109 473.106,-109 479.106,-115 479.106,-121 479.106,-121 479.106,-135 479.106,-135 479.106,-141 473.106,-147 467.106,-147"/>
<text text-anchor="middle" x="407.106" y="-131.8" font-family="Times,serif" font-size="14.00">2015.Gall_Neoa_Clade</text>
<text text-anchor="middle" x="407.106" y="-116.8" font-family="Times,serif" font-size="14.00">2014.Paleognathae</text>
</g>
<!-- 2015.Gall_Neoa_Clade\n2014.Paleognathae&#45;&gt;2015.Aves -->
<g id="edge2" class="edge"><title>2015.Gall_Neoa_Clade\n2014.Paleognathae&#45;&gt;2015.Aves</title>
<path fill="none" stroke="#000000" d="M334.925,-127.615C312.501,-127.493 288.314,-127.363 268.045,-127.253"/>
<polygon fill="#000000" stroke="#000000" points="267.851,-123.752 257.832,-127.198 267.813,-130.752 267.851,-123.752"/>
</g>
<!-- 2015.Neoaves\n2014.Tinamiformes -->
<g id="node6" class="node"><title>2015.Neoaves\n2014.Tinamiformes</title>
<path fill="#eeeeee" stroke="black" d="M635.606,-175C635.606,-175 534.606,-175 534.606,-175 528.606,-175 522.606,-169 522.606,-163 522.606,-163 522.606,-149 522.606,-149 522.606,-143 528.606,-137 534.606,-137 534.606,-137 635.606,-137 635.606,-137 641.606,-137 647.606,-143 647.606,-149 647.606,-149 647.606,-163 647.606,-163 647.606,-169 641.606,-175 635.606,-175"/>
<text text-anchor="middle" x="585.106" y="-159.8" font-family="Times,serif" font-size="14.00">2015.Neoaves</text>
<text text-anchor="middle" x="585.106" y="-144.8" font-family="Times,serif" font-size="14.00">2014.Tinamiformes</text>
</g>
<!-- 2015.Neoaves\n2014.Tinamiformes&#45;&gt;2015.Gall_Neoa_Clade\n2014.Paleognathae -->
<g id="edge3" class="edge"><title>2015.Neoaves\n2014.Tinamiformes&#45;&gt;2015.Gall_Neoa_Clade\n2014.Paleognathae</title>
<path fill="none" stroke="#000000" d="M522.55,-146.207C511.849,-144.505 500.573,-142.711 489.439,-140.939"/>
<polygon fill="#000000" stroke="#000000" points="489.702,-137.437 479.276,-139.322 488.602,-144.35 489.702,-137.437"/>
</g>
<!-- 2015.Galloanserae\n2014.Struthioniformes -->
<g id="node7" class="node"><title>2015.Galloanserae\n2014.Struthioniformes</title>
<path fill="#eeeeee" stroke="black" d="M643.106,-119C643.106,-119 527.106,-119 527.106,-119 521.106,-119 515.106,-113 515.106,-107 515.106,-107 515.106,-93 515.106,-93 515.106,-87 521.106,-81 527.106,-81 527.106,-81 643.106,-81 643.106,-81 649.106,-81 655.106,-87 655.106,-93 655.106,-93 655.106,-107 655.106,-107 655.106,-113 649.106,-119 643.106,-119"/>
<text text-anchor="middle" x="585.106" y="-103.8" font-family="Times,serif" font-size="14.00">2015.Galloanserae</text>
<text text-anchor="middle" x="585.106" y="-88.8" font-family="Times,serif" font-size="14.00">2014.Struthioniformes</text>
</g>
<!-- 2015.Galloanserae\n2014.Struthioniformes&#45;&gt;2015.Gall_Neoa_Clade\n2014.Paleognathae -->
<g id="edge4" class="edge"><title>2015.Galloanserae\n2014.Struthioniformes&#45;&gt;2015.Gall_Neoa_Clade\n2014.Paleognathae</title>
<path fill="none" stroke="#000000" d="M515.051,-110.986C506.607,-112.329 497.918,-113.712 489.316,-115.08"/>
<polygon fill="#000000" stroke="#000000" points="488.604,-111.649 479.278,-116.677 489.704,-118.563 488.604,-111.649"/>
</g>
<!-- Legend -->
<g id="node8" class="node"><title>Legend</title>
<path fill="white" stroke="black" d="M752.106,-200C752.106,-200 703.106,-200 703.106,-200 697.106,-200 691.106,-194 691.106,-188 691.106,-188 691.106,-12 691.106,-12 691.106,-6 697.106,-0 703.106,-0 703.106,-0 752.106,-0 752.106,-0 758.106,-0 764.106,-6 764.106,-12 764.106,-12 764.106,-188 764.106,-188 764.106,-194 758.106,-200 752.106,-200"/>
<polygon fill="none" stroke="black" points="691.606,-175 691.606,-200 764.606,-200 764.606,-175 691.606,-175"/>
<text text-anchor="start" x="705.106" y="-183.8" font-family="Arial Black" font-size="14.00"> Nodes</text>
<polygon fill="#ccffcc" stroke="none" points="691.606,-150 691.606,-175 747.606,-175 747.606,-150 691.606,-150"/>
<polygon fill="none" stroke="black" points="691.606,-150 691.606,-175 747.606,-175 747.606,-150 691.606,-150"/>
<text text-anchor="start" x="705.606" y="-158.8" font-family="Times,serif" font-size="14.00">2015</text>
<polygon fill="none" stroke="black" points="747.606,-150 747.606,-175 764.606,-175 764.606,-150 747.606,-150"/>
<text text-anchor="start" x="752.606" y="-158.8" font-family="Times,serif" font-size="14.00">2</text>
<polygon fill="#ffffcc" stroke="none" points="691.606,-125 691.606,-150 747.606,-150 747.606,-125 691.606,-125"/>
<polygon fill="none" stroke="black" points="691.606,-125 691.606,-150 747.606,-150 747.606,-125 691.606,-125"/>
<text text-anchor="start" x="705.606" y="-133.8" font-family="Times,serif" font-size="14.00">2014</text>
<polygon fill="none" stroke="black" points="747.606,-125 747.606,-150 764.606,-150 764.606,-125 747.606,-125"/>
<text text-anchor="start" x="752.606" y="-133.8" font-family="Times,serif" font-size="14.00">2</text>
<polygon fill="#eeeeee" stroke="none" points="691.606,-100 691.606,-125 747.606,-125 747.606,-100 691.606,-100"/>
<polygon fill="none" stroke="black" points="691.606,-100 691.606,-125 747.606,-125 747.606,-100 691.606,-100"/>
<text text-anchor="start" x="704.106" y="-108.8" font-family="Times,serif" font-size="14.00">comb</text>
<polygon fill="none" stroke="black" points="747.606,-100 747.606,-125 764.606,-125 764.606,-100 747.606,-100"/>
<text text-anchor="start" x="752.606" y="-108.8" font-family="Times,serif" font-size="14.00">3</text>
<polygon fill="none" stroke="black" points="691.606,-75 691.606,-100 764.606,-100 764.606,-75 691.606,-75"/>
<text text-anchor="start" x="703.606" y="-83.8" font-family="Arial Black" font-size="14.00"> Edges </text>
<polygon fill="none" stroke="black" points="691.606,-50 691.606,-75 747.606,-75 747.606,-50 691.606,-50"/>
<text text-anchor="start" x="696.606" y="-58.8" font-family="Times,serif" font-size="14.00" fill="#0000ff">overlaps</text>
<polygon fill="none" stroke="black" points="747.606,-50 747.606,-75 764.606,-75 764.606,-50 747.606,-50"/>
<text text-anchor="start" x="752.606" y="-58.8" font-family="Times,serif" font-size="14.00">1</text>
<polygon fill="none" stroke="black" points="691.606,-25 691.606,-50 747.606,-50 747.606,-25 691.606,-25"/>
<text text-anchor="start" x="705.606" y="-33.8" font-family="Times,serif" font-size="14.00" fill="#000000">input</text>
<polygon fill="none" stroke="black" points="747.606,-25 747.606,-50 764.606,-50 764.606,-25 747.606,-25"/>
<text text-anchor="start" x="752.606" y="-33.8" font-family="Times,serif" font-size="14.00">5</text>
<polygon fill="none" stroke="black" points="691.606,-0 691.606,-25 747.606,-25 747.606,-0 691.606,-0"/>
<text text-anchor="start" x="698.106" y="-8.8" font-family="Times,serif" font-size="14.00" fill="#ff0000">inferred</text>
<polygon fill="none" stroke="black" points="747.606,-0 747.606,-25 764.606,-25 764.606,-0 747.606,-0"/>
<text text-anchor="start" x="752.606" y="-8.8" font-family="Times,serif" font-size="14.00">2</text>
</g>
</g>
</svg>
