<?xml version="1.0" encoding="UTF-8" standalone="no"?>
<!DOCTYPE svg PUBLIC "-//W3C//DTD SVG 1.1//EN"
 "http://www.w3.org/Graphics/SVG/1.1/DTD/svg11.dtd">
<!-- Generated by graphviz version 2.38.0 (20140413.2041)
 -->
<!-- Title: %3 Pages: 1 -->
<svg width="820pt" height="565pt"
 viewBox="0.00 0.00 820.00 565.00" xmlns="http://www.w3.org/2000/svg" xmlns:xlink="http://www.w3.org/1999/xlink">
<g id="graph0" class="graph" transform="scale(1 1) rotate(0) translate(4 561)">
<title>%3</title>
<polygon fill="white" stroke="none" points="-4,4 -4,-561 816,-561 816,4 -4,4"/>
<!-- None -->
<g id="node1" class="node"><title>None</title>
<polygon fill="#ffffff" stroke="black" points="342,-197 288,-197 288,-161 342,-161 342,-197"/>
<text text-anchor="middle" x="315" y="-175.3" font-family="Times,serif" font-size="14.00">None</text>
</g>
<!-- 0 -->
<g id="node2" class="node"><title>0</title>
<polygon fill="#ffffff" stroke="black" points="198,-269 144,-269 144,-233 198,-233 198,-269"/>
<text text-anchor="middle" x="171" y="-247.3" font-family="Times,serif" font-size="14.00">0</text>
</g>
<!-- None&#45;&gt;0 -->
<g id="edge1" class="edge"><title>None&#45;&gt;0</title>
<path fill="none" stroke="black" d="M287.915,-193.166C262.333,-205.602 224.155,-224.161 198.453,-236.655"/>
</g>
<!-- 1 -->
<g id="node3" class="node"><title>1</title>
<polygon fill="#ffffff" stroke="black" points="270,-269 216,-269 216,-233 270,-233 270,-269"/>
<text text-anchor="middle" x="243" y="-247.3" font-family="Times,serif" font-size="14.00">1</text>
</g>
<!-- None&#45;&gt;1 -->
<g id="edge2" class="edge"><title>None&#45;&gt;1</title>
<path fill="none" stroke="black" d="M297.202,-197.303C286.042,-208.154 271.714,-222.083 260.593,-232.896"/>
</g>
<!-- 2 -->
<g id="node5" class="node"><title>2</title>
<polygon fill="#ffffff" stroke="black" points="342,-269 288,-269 288,-233 342,-233 342,-269"/>
<text text-anchor="middle" x="315" y="-247.3" font-family="Times,serif" font-size="14.00">2</text>
</g>
<!-- None&#45;&gt;2 -->
<g id="edge3" class="edge"><title>None&#45;&gt;2</title>
<path fill="none" stroke="black" d="M315,-197.303C315,-208.154 315,-222.083 315,-232.896"/>
</g>
<!-- 3 -->
<g id="node9" class="node"><title>3</title>
<polygon fill="#ffffff" stroke="black" points="414,-269 360,-269 360,-233 414,-233 414,-269"/>
<text text-anchor="middle" x="387" y="-247.3" font-family="Times,serif" font-size="14.00">3</text>
</g>
<!-- None&#45;&gt;3 -->
<g id="edge4" class="edge"><title>None&#45;&gt;3</title>
<path fill="none" stroke="black" d="M332.798,-197.303C343.958,-208.154 358.286,-222.083 369.407,-232.896"/>
</g>
<!-- 4 -->
<g id="node17" class="node"><title>4</title>
<polygon fill="#ffffff" stroke="black" points="558,-269 504,-269 504,-233 558,-233 558,-269"/>
<text text-anchor="middle" x="531" y="-247.3" font-family="Times,serif" font-size="14.00">4</text>
</g>
<!-- None&#45;&gt;4 -->
<g id="edge5" class="edge"><title>None&#45;&gt;4</title>
<path fill="none" stroke="black" d="M342.357,-188.866C383.905,-202.33 462.449,-227.785 503.866,-241.206"/>
</g>
<!-- 0,1 -->
<g id="node4" class="node"><title>0,1</title>
<polygon fill="#ff0000" stroke="black" points="54,-341 0,-341 0,-305 54,-305 54,-341"/>
<text text-anchor="middle" x="27" y="-319.3" font-family="Times,serif" font-size="14.00">0,1</text>
</g>
<!-- 0&#45;&gt;0,1 -->
<g id="edge6" class="edge"><title>0&#45;&gt;0,1</title>
<path fill="none" stroke="black" d="M143.915,-265.166C118.333,-277.602 80.1554,-296.161 54.4534,-308.655"/>
</g>
<!-- 0,2 -->
<g id="node6" class="node"><title>0,2</title>
<polygon fill="#ff0000" stroke="black" points="126,-341 72,-341 72,-305 126,-305 126,-341"/>
<text text-anchor="middle" x="99" y="-319.3" font-family="Times,serif" font-size="14.00">0,2</text>
</g>
<!-- 0&#45;&gt;0,2 -->
<g id="edge7" class="edge"><title>0&#45;&gt;0,2</title>
<path fill="none" stroke="black" d="M153.202,-269.303C142.042,-280.154 127.714,-294.083 116.593,-304.896"/>
</g>
<!-- 0,3 -->
<g id="node10" class="node"><title>0,3</title>
<polygon fill="#ffffff" stroke="black" points="198,-341 144,-341 144,-305 198,-305 198,-341"/>
<text text-anchor="middle" x="171" y="-319.3" font-family="Times,serif" font-size="14.00">0,3</text>
</g>
<!-- 0&#45;&gt;0,3 -->
<g id="edge8" class="edge"><title>0&#45;&gt;0,3</title>
<path fill="none" stroke="black" d="M171,-269.303C171,-280.154 171,-294.083 171,-304.896"/>
</g>
<!-- 0,4 -->
<g id="node18" class="node"><title>0,4</title>
<polygon fill="#ffffff" stroke="black" points="486,-341 432,-341 432,-305 486,-305 486,-341"/>
<text text-anchor="middle" x="459" y="-319.3" font-family="Times,serif" font-size="14.00">0,4</text>
</g>
<!-- 0&#45;&gt;0,4 -->
<g id="edge9" class="edge"><title>0&#45;&gt;0,4</title>
<path fill="none" stroke="black" d="M198.204,-265.798C201.129,-266.994 204.097,-268.092 207,-269 299.886,-298.055 330.114,-275.945 423,-305 425.903,-305.908 428.871,-307.006 431.796,-308.202"/>
</g>
<!-- 1&#45;&gt;0,1 -->
<g id="edge10" class="edge"><title>1&#45;&gt;0,1</title>
<path fill="none" stroke="black" d="M215.717,-265.561C212.807,-266.803 209.864,-267.977 207,-269 144.875,-291.191 125.125,-282.809 63,-305 60.136,-306.023 57.1931,-307.197 54.2829,-308.439"/>
</g>
<!-- 1,2 -->
<g id="node7" class="node"><title>1,2</title>
<polygon fill="#ffffff" stroke="black" points="270,-341 216,-341 216,-305 270,-305 270,-341"/>
<text text-anchor="middle" x="243" y="-319.3" font-family="Times,serif" font-size="14.00">1,2</text>
</g>
<!-- 1&#45;&gt;1,2 -->
<g id="edge11" class="edge"><title>1&#45;&gt;1,2</title>
<path fill="none" stroke="black" d="M243,-269.303C243,-280.154 243,-294.083 243,-304.896"/>
</g>
<!-- 1,3 -->
<g id="node11" class="node"><title>1,3</title>
<polygon fill="#ffffff" stroke="black" points="342,-341 288,-341 288,-305 342,-305 342,-341"/>
<text text-anchor="middle" x="315" y="-319.3" font-family="Times,serif" font-size="14.00">1,3</text>
</g>
<!-- 1&#45;&gt;1,3 -->
<g id="edge12" class="edge"><title>1&#45;&gt;1,3</title>
<path fill="none" stroke="black" d="M260.798,-269.303C271.958,-280.154 286.286,-294.083 297.407,-304.896"/>
</g>
<!-- 1,4 -->
<g id="node19" class="node"><title>1,4</title>
<polygon fill="#ffffff" stroke="black" points="558,-341 504,-341 504,-305 558,-305 558,-341"/>
<text text-anchor="middle" x="531" y="-319.3" font-family="Times,serif" font-size="14.00">1,4</text>
</g>
<!-- 1&#45;&gt;1,4 -->
<g id="edge13" class="edge"><title>1&#45;&gt;1,4</title>
<path fill="none" stroke="black" d="M270.204,-265.798C273.129,-266.994 276.097,-268.092 279,-269 371.886,-298.055 402.114,-275.945 495,-305 497.903,-305.908 500.871,-307.006 503.796,-308.202"/>
</g>
<!-- 0,1,2 -->
<g id="node8" class="node"><title>0,1,2</title>
<polygon fill="#ffffff" stroke="black" points="54,-413 0,-413 0,-377 54,-377 54,-413"/>
<text text-anchor="middle" x="27" y="-391.3" font-family="Times,serif" font-size="14.00">0,1,2</text>
</g>
<!-- 0,1&#45;&gt;0,1,2 -->
<g id="edge14" class="edge"><title>0,1&#45;&gt;0,1,2</title>
<path fill="none" stroke="black" d="M27,-341.303C27,-352.154 27,-366.083 27,-376.896"/>
</g>
<!-- 0,1,3 -->
<g id="node12" class="node"><title>0,1,3</title>
<polygon fill="#ffffff" stroke="black" points="126,-413 72,-413 72,-377 126,-377 126,-413"/>
<text text-anchor="middle" x="99" y="-391.3" font-family="Times,serif" font-size="14.00">0,1,3</text>
</g>
<!-- 0,1&#45;&gt;0,1,3 -->
<g id="edge15" class="edge"><title>0,1&#45;&gt;0,1,3</title>
<path fill="none" stroke="black" d="M44.7978,-341.303C55.9581,-352.154 70.2857,-366.083 81.407,-376.896"/>
</g>
<!-- 0,1,4 -->
<g id="node20" class="node"><title>0,1,4</title>
<polygon fill="#ffffff" stroke="black" points="350,-413 296,-413 296,-377 350,-377 350,-413"/>
<text text-anchor="middle" x="323" y="-391.3" font-family="Times,serif" font-size="14.00">0,1,4</text>
</g>
<!-- 0,1&#45;&gt;0,1,4 -->
<g id="edge16" class="edge"><title>0,1&#45;&gt;0,1,4</title>
<path fill="none" stroke="black" d="M54.1982,-337.815C57.1249,-339.008 60.0949,-340.1 63,-341 159.322,-370.824 190.678,-347.176 287,-377 289.905,-377.9 292.875,-378.992 295.802,-380.185"/>
</g>
<!-- 2&#45;&gt;0,2 -->
<g id="edge17" class="edge"><title>2&#45;&gt;0,2</title>
<path fill="none" stroke="black" d="M287.717,-265.561C284.807,-266.803 281.864,-267.977 279,-269 216.875,-291.191 197.125,-282.809 135,-305 132.136,-306.023 129.193,-307.197 126.283,-308.439"/>
</g>
<!-- 2&#45;&gt;1,2 -->
<g id="edge18" class="edge"><title>2&#45;&gt;1,2</title>
<path fill="none" stroke="black" d="M297.202,-269.303C286.042,-280.154 271.714,-294.083 260.593,-304.896"/>
</g>
<!-- 2,3 -->
<g id="node13" class="node"><title>2,3</title>
<polygon fill="#ffffff" stroke="black" points="414,-341 360,-341 360,-305 414,-305 414,-341"/>
<text text-anchor="middle" x="387" y="-319.3" font-family="Times,serif" font-size="14.00">2,3</text>
</g>
<!-- 2&#45;&gt;2,3 -->
<g id="edge19" class="edge"><title>2&#45;&gt;2,3</title>
<path fill="none" stroke="black" d="M332.798,-269.303C343.958,-280.154 358.286,-294.083 369.407,-304.896"/>
</g>
<!-- 2,4 -->
<g id="node21" class="node"><title>2,4</title>
<polygon fill="#ffffff" stroke="black" points="630,-341 576,-341 576,-305 630,-305 630,-341"/>
<text text-anchor="middle" x="603" y="-319.3" font-family="Times,serif" font-size="14.00">2,4</text>
</g>
<!-- 2&#45;&gt;2,4 -->
<g id="edge20" class="edge"><title>2&#45;&gt;2,4</title>
<path fill="none" stroke="black" d="M342.204,-265.798C345.129,-266.994 348.097,-268.092 351,-269 443.886,-298.055 474.114,-275.945 567,-305 569.903,-305.908 572.871,-307.006 575.796,-308.202"/>
</g>
<!-- 0,2&#45;&gt;0,1,2 -->
<g id="edge21" class="edge"><title>0,2&#45;&gt;0,1,2</title>
<path fill="none" stroke="black" d="M81.2022,-341.303C70.0419,-352.154 55.7143,-366.083 44.593,-376.896"/>
</g>
<!-- 0,2,3 -->
<g id="node14" class="node"><title>0,2,3</title>
<polygon fill="#ffffff" stroke="black" points="198,-413 144,-413 144,-377 198,-377 198,-413"/>
<text text-anchor="middle" x="171" y="-391.3" font-family="Times,serif" font-size="14.00">0,2,3</text>
</g>
<!-- 0,2&#45;&gt;0,2,3 -->
<g id="edge22" class="edge"><title>0,2&#45;&gt;0,2,3</title>
<path fill="none" stroke="black" d="M116.798,-341.303C127.958,-352.154 142.286,-366.083 153.407,-376.896"/>
</g>
<!-- 0,2,4 -->
<g id="node22" class="node"><title>0,2,4</title>
<polygon fill="#ffffff" stroke="black" points="422,-413 368,-413 368,-377 422,-377 422,-413"/>
<text text-anchor="middle" x="395" y="-391.3" font-family="Times,serif" font-size="14.00">0,2,4</text>
</g>
<!-- 0,2&#45;&gt;0,2,4 -->
<g id="edge23" class="edge"><title>0,2&#45;&gt;0,2,4</title>
<path fill="none" stroke="black" d="M126.198,-337.815C129.125,-339.008 132.095,-340.1 135,-341 231.322,-370.824 262.678,-347.176 359,-377 361.905,-377.9 364.875,-378.992 367.802,-380.185"/>
</g>
<!-- 1,2&#45;&gt;0,1,2 -->
<g id="edge24" class="edge"><title>1,2&#45;&gt;0,1,2</title>
<path fill="none" stroke="black" d="M215.717,-337.561C212.807,-338.803 209.864,-339.977 207,-341 144.875,-363.191 125.125,-354.809 63,-377 60.136,-378.023 57.1931,-379.197 54.2829,-380.439"/>
</g>
<!-- 1,2,3 -->
<g id="node15" class="node"><title>1,2,3</title>
<polygon fill="#00ff00" stroke="black" points="277.907,-387.544 277.907,-402.456 259.802,-413 234.198,-413 216.093,-402.456 216.093,-387.544 234.198,-377 259.802,-377 277.907,-387.544"/>
<text text-anchor="middle" x="247" y="-391.3" font-family="Times,serif" font-size="14.00">1,2,3</text>
</g>
<!-- 1,2&#45;&gt;1,2,3 -->
<g id="edge25" class="edge"><title>1,2&#45;&gt;1,2,3</title>
<path fill="none" stroke="black" d="M243.989,-341.303C244.609,-352.154 245.405,-366.083 246.023,-376.896"/>
</g>
<!-- 1,2,4 -->
<g id="node23" class="node"><title>1,2,4</title>
<polygon fill="#ff0000" stroke="black" points="566,-413 512,-413 512,-377 566,-377 566,-413"/>
<text text-anchor="middle" x="539" y="-391.3" font-family="Times,serif" font-size="14.00">1,2,4</text>
</g>
<!-- 1,2&#45;&gt;1,2,4 -->
<g id="edge26" class="edge"><title>1,2&#45;&gt;1,2,4</title>
<path fill="none" stroke="black" d="M270.198,-337.815C273.125,-339.008 276.095,-340.1 279,-341 375.322,-370.824 406.678,-347.176 503,-377 505.905,-377.9 508.875,-378.992 511.802,-380.185"/>
</g>
<!-- 0,1,2,3 -->
<g id="node16" class="node"><title>0,1,2,3</title>
<polygon fill="#ffffff" stroke="black" points="198.5,-485 143.5,-485 143.5,-449 198.5,-449 198.5,-485"/>
<text text-anchor="middle" x="171" y="-463.3" font-family="Times,serif" font-size="14.00">0,1,2,3</text>
</g>
<!-- 0,1,2&#45;&gt;0,1,2,3 -->
<g id="edge27" class="edge"><title>0,1,2&#45;&gt;0,1,2,3</title>
<path fill="none" stroke="black" d="M54.0853,-409.166C79.5043,-421.523 117.359,-439.924 143.054,-452.415"/>
</g>
<!-- 0,1,2,4 -->
<g id="node24" class="node"><title>0,1,2,4</title>
<polygon fill="#ffffff" stroke="black" points="348.5,-485 293.5,-485 293.5,-449 348.5,-449 348.5,-485"/>
<text text-anchor="middle" x="321" y="-463.3" font-family="Times,serif" font-size="14.00">0,1,2,4</text>
</g>
<!-- 0,1,2&#45;&gt;0,1,2,4 -->
<g id="edge28" class="edge"><title>0,1,2&#45;&gt;0,1,2,4</title>
<path fill="none" stroke="black" d="M54.2396,-409.687C57.1582,-410.904 60.115,-412.038 63,-413 144.551,-440.197 245.465,-456.032 293.322,-462.525"/>
</g>
<!-- 3&#45;&gt;0,3 -->
<g id="edge29" class="edge"><title>3&#45;&gt;0,3</title>
<path fill="none" stroke="black" d="M359.717,-265.561C356.807,-266.803 353.864,-267.977 351,-269 288.875,-291.191 269.125,-282.809 207,-305 204.136,-306.023 201.193,-307.197 198.283,-308.439"/>
</g>
<!-- 3&#45;&gt;1,3 -->
<g id="edge30" class="edge"><title>3&#45;&gt;1,3</title>
<path fill="none" stroke="black" d="M369.202,-269.303C358.042,-280.154 343.714,-294.083 332.593,-304.896"/>
</g>
<!-- 3&#45;&gt;2,3 -->
<g id="edge31" class="edge"><title>3&#45;&gt;2,3</title>
<path fill="none" stroke="black" d="M387,-269.303C387,-280.154 387,-294.083 387,-304.896"/>
</g>
<!-- 3,4 -->
<g id="node25" class="node"><title>3,4</title>
<polygon fill="#ffffff" stroke="black" points="702,-341 648,-341 648,-305 702,-305 702,-341"/>
<text text-anchor="middle" x="675" y="-319.3" font-family="Times,serif" font-size="14.00">3,4</text>
</g>
<!-- 3&#45;&gt;3,4 -->
<g id="edge32" class="edge"><title>3&#45;&gt;3,4</title>
<path fill="none" stroke="black" d="M414.334,-256.912C470.531,-267.148 597.258,-290.971 639,-305 641.883,-305.969 644.838,-307.107 647.756,-308.327"/>
</g>
<!-- 0,3&#45;&gt;0,1,3 -->
<g id="edge33" class="edge"><title>0,3&#45;&gt;0,1,3</title>
<path fill="none" stroke="black" d="M153.202,-341.303C142.042,-352.154 127.714,-366.083 116.593,-376.896"/>
</g>
<!-- 0,3&#45;&gt;0,2,3 -->
<g id="edge34" class="edge"><title>0,3&#45;&gt;0,2,3</title>
<path fill="none" stroke="black" d="M171,-341.303C171,-352.154 171,-366.083 171,-376.896"/>
</g>
<!-- 0,3,4 -->
<g id="node26" class="node"><title>0,3,4</title>
<polygon fill="#00ff00" stroke="black" points="494,-413 440,-413 440,-377 494,-377 494,-413"/>
<text text-anchor="middle" x="467" y="-391.3" font-family="Times,serif" font-size="14.00">0,3,4</text>
</g>
<!-- 0,3&#45;&gt;0,3,4 -->
<g id="edge35" class="edge"><title>0,3&#45;&gt;0,3,4</title>
<path fill="none" stroke="black" d="M198.198,-337.815C201.125,-339.008 204.095,-340.1 207,-341 303.322,-370.824 334.678,-347.176 431,-377 433.905,-377.9 436.875,-378.992 439.802,-380.185"/>
</g>
<!-- 1,3&#45;&gt;0,1,3 -->
<g id="edge36" class="edge"><title>1,3&#45;&gt;0,1,3</title>
<path fill="none" stroke="black" d="M287.717,-337.561C284.807,-338.803 281.864,-339.977 279,-341 216.875,-363.191 197.125,-354.809 135,-377 132.136,-378.023 129.193,-379.197 126.283,-380.439"/>
</g>
<!-- 1,3&#45;&gt;1,2,3 -->
<g id="edge37" class="edge"><title>1,3&#45;&gt;1,2,3</title>
<path fill="none" stroke="black" d="M298.191,-341.303C287.179,-352.64 272.901,-367.337 262.223,-378.329"/>
</g>
<!-- 1,3,4 -->
<g id="node27" class="node"><title>1,3,4</title>
<polygon fill="#00ff00" stroke="black" points="638,-413 584,-413 584,-377 638,-377 638,-413"/>
<text text-anchor="middle" x="611" y="-391.3" font-family="Times,serif" font-size="14.00">1,3,4</text>
</g>
<!-- 1,3&#45;&gt;1,3,4 -->
<g id="edge38" class="edge"><title>1,3&#45;&gt;1,3,4</title>
<path fill="none" stroke="black" d="M342.198,-337.815C345.125,-339.008 348.095,-340.1 351,-341 447.322,-370.824 478.678,-347.176 575,-377 577.905,-377.9 580.875,-378.992 583.802,-380.185"/>
</g>
<!-- 0,1,3&#45;&gt;0,1,2,3 -->
<g id="edge39" class="edge"><title>0,1,3&#45;&gt;0,1,2,3</title>
<path fill="none" stroke="black" d="M116.798,-413.303C127.958,-424.154 142.286,-438.083 153.407,-448.896"/>
</g>
<!-- 0,1,3,4 -->
<g id="node28" class="node"><title>0,1,3,4</title>
<polygon fill="#ffffff" stroke="black" points="421.5,-485 366.5,-485 366.5,-449 421.5,-449 421.5,-485"/>
<text text-anchor="middle" x="394" y="-463.3" font-family="Times,serif" font-size="14.00">0,1,3,4</text>
</g>
<!-- 0,1,3&#45;&gt;0,1,3,4 -->
<g id="edge40" class="edge"><title>0,1,3&#45;&gt;0,1,3,4</title>
<path fill="none" stroke="black" d="M126.2,-409.811C129.126,-411.005 132.096,-412.098 135,-413 230.462,-442.632 261.383,-419.869 357,-449 360.111,-449.948 363.298,-451.104 366.434,-452.363"/>
</g>
<!-- 2,3&#45;&gt;0,2,3 -->
<g id="edge41" class="edge"><title>2,3&#45;&gt;0,2,3</title>
<path fill="none" stroke="black" d="M359.717,-337.561C356.807,-338.803 353.864,-339.977 351,-341 288.875,-363.191 269.125,-354.809 207,-377 204.136,-378.023 201.193,-379.197 198.283,-380.439"/>
</g>
<!-- 2,3&#45;&gt;1,2,3 -->
<g id="edge42" class="edge"><title>2,3&#45;&gt;1,2,3</title>
<path fill="none" stroke="black" d="M359.674,-337.663C333.414,-350.793 294.198,-370.401 269.636,-382.682"/>
</g>
<!-- 2,3,4 -->
<g id="node29" class="node"><title>2,3,4</title>
<polygon fill="#00ff00" stroke="black" points="710,-413 656,-413 656,-377 710,-377 710,-413"/>
<text text-anchor="middle" x="683" y="-391.3" font-family="Times,serif" font-size="14.00">2,3,4</text>
</g>
<!-- 2,3&#45;&gt;2,3,4 -->
<g id="edge43" class="edge"><title>2,3&#45;&gt;2,3,4</title>
<path fill="none" stroke="black" d="M414.198,-337.815C417.125,-339.008 420.095,-340.1 423,-341 519.322,-370.824 550.678,-347.176 647,-377 649.905,-377.9 652.875,-378.992 655.802,-380.185"/>
</g>
<!-- 0,2,3&#45;&gt;0,1,2,3 -->
<g id="edge44" class="edge"><title>0,2,3&#45;&gt;0,1,2,3</title>
<path fill="none" stroke="black" d="M171,-413.303C171,-424.154 171,-438.083 171,-448.896"/>
</g>
<!-- 0,2,3,4 -->
<g id="node30" class="node"><title>0,2,3,4</title>
<polygon fill="#ffffff" stroke="black" points="494.5,-485 439.5,-485 439.5,-449 494.5,-449 494.5,-485"/>
<text text-anchor="middle" x="467" y="-463.3" font-family="Times,serif" font-size="14.00">0,2,3,4</text>
</g>
<!-- 0,2,3&#45;&gt;0,2,3,4 -->
<g id="edge45" class="edge"><title>0,2,3&#45;&gt;0,2,3,4</title>
<path fill="none" stroke="black" d="M198.199,-409.813C201.125,-411.006 204.095,-412.099 207,-413 302.892,-442.728 333.953,-419.776 430,-449 433.111,-449.947 436.299,-451.102 439.435,-452.36"/>
</g>
<!-- 1,2,3&#45;&gt;0,1,2,3 -->
<g id="edge46" class="edge"><title>1,2,3&#45;&gt;0,1,2,3</title>
<path fill="none" stroke="black" d="M230.509,-411.189C218.46,-422.287 202.109,-437.347 189.595,-448.873"/>
</g>
<!-- 1,2,3,4 -->
<g id="node31" class="node"><title>1,2,3,4</title>
<polygon fill="#ffffff" stroke="black" points="567.5,-485 512.5,-485 512.5,-449 567.5,-449 567.5,-485"/>
<text text-anchor="middle" x="540" y="-463.3" font-family="Times,serif" font-size="14.00">1,2,3,4</text>
</g>
<!-- 1,2,3&#45;&gt;1,2,3,4 -->
<g id="edge47" class="edge"><title>1,2,3&#45;&gt;1,2,3,4</title>
<path fill="none" stroke="black" d="M270.351,-407.016C275.732,-409.246 281.494,-411.396 287,-413 380.439,-440.224 409.963,-420.432 503,-449 506.109,-449.955 509.295,-451.115 512.43,-452.376"/>
</g>
<!-- 0,1,2,3,4 -->
<g id="node32" class="node"><title>0,1,2,3,4</title>
<polygon fill="#ffffff" stroke="black" points="426.5,-557 361.5,-557 361.5,-521 426.5,-521 426.5,-557"/>
<text text-anchor="middle" x="394" y="-535.3" font-family="Times,serif" font-size="14.00">0,1,2,3,4</text>
</g>
<!-- 0,1,2,3&#45;&gt;0,1,2,3,4 -->
<g id="edge48" class="edge"><title>0,1,2,3&#45;&gt;0,1,2,3,4</title>
<path fill="none" stroke="black" d="M198.792,-476.724C240.007,-489.661 317.182,-513.887 361.14,-527.685"/>
</g>
<!-- 4&#45;&gt;0,4 -->
<g id="edge49" class="edge"><title>4&#45;&gt;0,4</title>
<path fill="none" stroke="black" d="M513.202,-269.303C502.042,-280.154 487.714,-294.083 476.593,-304.896"/>
</g>
<!-- 4&#45;&gt;1,4 -->
<g id="edge50" class="edge"><title>4&#45;&gt;1,4</title>
<path fill="none" stroke="black" d="M531,-269.303C531,-280.154 531,-294.083 531,-304.896"/>
</g>
<!-- 4&#45;&gt;2,4 -->
<g id="edge51" class="edge"><title>4&#45;&gt;2,4</title>
<path fill="none" stroke="black" d="M548.798,-269.303C559.958,-280.154 574.286,-294.083 585.407,-304.896"/>
</g>
<!-- 4&#45;&gt;3,4 -->
<g id="edge52" class="edge"><title>4&#45;&gt;3,4</title>
<path fill="none" stroke="black" d="M558.085,-265.166C583.667,-277.602 621.845,-296.161 647.547,-308.655"/>
</g>
<!-- 0,4&#45;&gt;0,1,4 -->
<g id="edge53" class="edge"><title>0,4&#45;&gt;0,1,4</title>
<path fill="none" stroke="black" d="M431.805,-337.997C408.085,-350.206 373.854,-367.825 350.148,-380.027"/>
</g>
<!-- 0,4&#45;&gt;0,2,4 -->
<g id="edge54" class="edge"><title>0,4&#45;&gt;0,2,4</title>
<path fill="none" stroke="black" d="M443.18,-341.303C433.259,-352.154 420.524,-366.083 410.638,-376.896"/>
</g>
<!-- 0,4&#45;&gt;0,3,4 -->
<g id="edge55" class="edge"><title>0,4&#45;&gt;0,3,4</title>
<path fill="none" stroke="black" d="M460.978,-341.303C462.218,-352.154 463.81,-366.083 465.045,-376.896"/>
</g>
<!-- 1,4&#45;&gt;0,1,4 -->
<g id="edge56" class="edge"><title>1,4&#45;&gt;0,1,4</title>
<path fill="none" stroke="black" d="M503.702,-337.521C500.795,-338.771 497.857,-339.957 495,-341 436.264,-362.439 417.736,-355.561 359,-377 356.143,-378.043 353.205,-379.229 350.298,-380.479"/>
</g>
<!-- 1,4&#45;&gt;1,2,4 -->
<g id="edge57" class="edge"><title>1,4&#45;&gt;1,2,4</title>
<path fill="none" stroke="black" d="M532.978,-341.303C534.218,-352.154 535.81,-366.083 537.045,-376.896"/>
</g>
<!-- 1,4&#45;&gt;1,3,4 -->
<g id="edge58" class="edge"><title>1,4&#45;&gt;1,3,4</title>
<path fill="none" stroke="black" d="M550.775,-341.303C563.176,-352.154 579.095,-366.083 591.452,-376.896"/>
</g>
<!-- 0,1,4&#45;&gt;0,1,2,4 -->
<g id="edge59" class="edge"><title>0,1,4&#45;&gt;0,1,2,4</title>
<path fill="none" stroke="black" d="M322.506,-413.303C322.196,-424.154 321.798,-438.083 321.489,-448.896"/>
</g>
<!-- 0,1,4&#45;&gt;0,1,3,4 -->
<g id="edge60" class="edge"><title>0,1,4&#45;&gt;0,1,3,4</title>
<path fill="none" stroke="black" d="M340.551,-413.303C351.556,-424.154 365.684,-438.083 376.651,-448.896"/>
</g>
<!-- 2,4&#45;&gt;0,2,4 -->
<g id="edge61" class="edge"><title>2,4&#45;&gt;0,2,4</title>
<path fill="none" stroke="black" d="M575.702,-337.521C572.795,-338.771 569.857,-339.957 567,-341 508.264,-362.439 489.736,-355.561 431,-377 428.143,-378.043 425.205,-379.229 422.298,-380.479"/>
</g>
<!-- 2,4&#45;&gt;1,2,4 -->
<g id="edge62" class="edge"><title>2,4&#45;&gt;1,2,4</title>
<path fill="none" stroke="black" d="M587.18,-341.303C577.259,-352.154 564.524,-366.083 554.638,-376.896"/>
</g>
<!-- 2,4&#45;&gt;2,3,4 -->
<g id="edge63" class="edge"><title>2,4&#45;&gt;2,3,4</title>
<path fill="none" stroke="black" d="M622.775,-341.303C635.176,-352.154 651.095,-366.083 663.452,-376.896"/>
</g>
<!-- 0,2,4&#45;&gt;0,1,2,4 -->
<g id="edge64" class="edge"><title>0,2,4&#45;&gt;0,1,2,4</title>
<path fill="none" stroke="black" d="M376.708,-413.303C365.238,-424.154 350.512,-438.083 339.082,-448.896"/>
</g>
<!-- 0,2,4&#45;&gt;0,2,3,4 -->
<g id="edge65" class="edge"><title>0,2,4&#45;&gt;0,2,3,4</title>
<path fill="none" stroke="black" d="M412.798,-413.303C423.958,-424.154 438.286,-438.083 449.407,-448.896"/>
</g>
<!-- 1,2,4&#45;&gt;0,1,2,4 -->
<g id="edge66" class="edge"><title>1,2,4&#45;&gt;0,1,2,4</title>
<path fill="none" stroke="black" d="M511.72,-409.571C508.81,-410.811 505.866,-411.982 503,-413 440.026,-435.38 419.974,-426.62 357,-449 354.265,-449.972 351.458,-451.083 348.677,-452.261"/>
</g>
<!-- 1,2,4&#45;&gt;1,2,3,4 -->
<g id="edge67" class="edge"><title>1,2,4&#45;&gt;1,2,3,4</title>
<path fill="none" stroke="black" d="M539.247,-413.303C539.402,-424.154 539.601,-438.083 539.756,-448.896"/>
</g>
<!-- 0,1,2,4&#45;&gt;0,1,2,3,4 -->
<g id="edge68" class="edge"><title>0,1,2,4&#45;&gt;0,1,2,3,4</title>
<path fill="none" stroke="black" d="M339.045,-485.303C350.36,-496.154 364.887,-510.083 376.163,-520.896"/>
</g>
<!-- 3,4&#45;&gt;0,3,4 -->
<g id="edge69" class="edge"><title>3,4&#45;&gt;0,3,4</title>
<path fill="none" stroke="black" d="M647.702,-337.521C644.795,-338.771 641.857,-339.957 639,-341 580.264,-362.439 561.736,-355.561 503,-377 500.143,-378.043 497.205,-379.229 494.298,-380.479"/>
</g>
<!-- 3,4&#45;&gt;1,3,4 -->
<g id="edge70" class="edge"><title>3,4&#45;&gt;1,3,4</title>
<path fill="none" stroke="black" d="M659.18,-341.303C649.259,-352.154 636.524,-366.083 626.638,-376.896"/>
</g>
<!-- 3,4&#45;&gt;2,3,4 -->
<g id="edge71" class="edge"><title>3,4&#45;&gt;2,3,4</title>
<path fill="none" stroke="black" d="M676.978,-341.303C678.218,-352.154 679.81,-366.083 681.045,-376.896"/>
</g>
<!-- 0,3,4&#45;&gt;0,1,3,4 -->
<g id="edge72" class="edge"><title>0,3,4&#45;&gt;0,1,3,4</title>
<path fill="none" stroke="black" d="M448.955,-413.303C437.64,-424.154 423.113,-438.083 411.837,-448.896"/>
</g>
<!-- 0,3,4&#45;&gt;0,2,3,4 -->
<g id="edge73" class="edge"><title>0,3,4&#45;&gt;0,2,3,4</title>
<path fill="none" stroke="black" d="M467,-413.303C467,-424.154 467,-438.083 467,-448.896"/>
</g>
<!-- 1,3,4&#45;&gt;0,1,3,4 -->
<g id="edge74" class="edge"><title>1,3,4&#45;&gt;0,1,3,4</title>
<path fill="none" stroke="black" d="M583.719,-409.566C580.808,-410.807 577.865,-411.979 575,-413 512.451,-435.286 492.549,-426.714 430,-449 427.265,-449.974 424.459,-451.086 421.678,-452.265"/>
</g>
<!-- 1,3,4&#45;&gt;1,2,3,4 -->
<g id="edge75" class="edge"><title>1,3,4&#45;&gt;1,2,3,4</title>
<path fill="none" stroke="black" d="M593.449,-413.303C582.444,-424.154 568.316,-438.083 557.349,-448.896"/>
</g>
<!-- 0,1,3,4&#45;&gt;0,1,2,3,4 -->
<g id="edge76" class="edge"><title>0,1,3,4&#45;&gt;0,1,2,3,4</title>
<path fill="none" stroke="black" d="M394,-485.303C394,-496.154 394,-510.083 394,-520.896"/>
</g>
<!-- 2,3,4&#45;&gt;0,2,3,4 -->
<g id="edge77" class="edge"><title>2,3,4&#45;&gt;0,2,3,4</title>
<path fill="none" stroke="black" d="M655.717,-409.561C652.807,-410.803 649.864,-411.977 647,-413 584.875,-435.191 565.125,-426.809 503,-449 500.266,-449.977 497.46,-451.09 494.68,-452.27"/>
</g>
<!-- 2,3,4&#45;&gt;1,2,3,4 -->
<g id="edge78" class="edge"><title>2,3,4&#45;&gt;1,2,3,4</title>
<path fill="none" stroke="black" d="M655.766,-409.331C630.483,-421.708 593.025,-440.043 567.619,-452.48"/>
</g>
<!-- 0,2,3,4&#45;&gt;0,1,2,3,4 -->
<g id="edge79" class="edge"><title>0,2,3,4&#45;&gt;0,1,2,3,4</title>
<path fill="none" stroke="black" d="M448.955,-485.303C437.64,-496.154 423.113,-510.083 411.837,-520.896"/>
</g>
<!-- 1,2,3,4&#45;&gt;0,1,2,3,4 -->
<g id="edge80" class="edge"><title>1,2,3,4&#45;&gt;0,1,2,3,4</title>
<path fill="none" stroke="black" d="M512.195,-481.331C487.788,-493.033 452.269,-510.063 426.545,-522.396"/>
</g>
<!-- Legend -->
<g id="node33" class="node"><title>Legend</title>
<polygon fill="none" stroke="black" points="478,-125 152,-125 152,-7.10543e-15 478,-7.10543e-15 478,-125"/>
<polygon fill="none" stroke="black" points="152,-99.5 152,-124.5 169,-124.5 169,-99.5 152,-99.5"/>
<text text-anchor="start" x="157" y="-108.3" font-family="Times,serif" font-size="14.00">0</text>
<polygon fill="none" stroke="black" points="169,-99.5 169,-124.5 478,-124.5 478,-99.5 169,-99.5"/>
<text text-anchor="start" x="191" y="-108.3" font-family="Times,serif" font-size="14.00">2015.Gall_Neoa_Clade equals 2014.Neognathae</text>
<polygon fill="none" stroke="black" points="152,-74.5 152,-99.5 169,-99.5 169,-74.5 152,-74.5"/>
<text text-anchor="start" x="157" y="-83.3" font-family="Times,serif" font-size="14.00">1</text>
<polygon fill="none" stroke="black" points="169,-74.5 169,-99.5 478,-99.5 478,-74.5 169,-74.5"/>
<text text-anchor="start" x="190" y="-83.3" font-family="Times,serif" font-size="14.00">2015.Galloanserae equals 2014.Struthioniformes</text>
<polygon fill="none" stroke="black" points="152,-49.5 152,-74.5 169,-74.5 169,-49.5 152,-49.5"/>
<text text-anchor="start" x="157" y="-58.3" font-family="Times,serif" font-size="14.00">2</text>
<polygon fill="none" stroke="black" points="169,-49.5 169,-74.5 478,-74.5 478,-49.5 169,-49.5"/>
<text text-anchor="start" x="209" y="-58.3" font-family="Times,serif" font-size="14.00">2015.Neoaves equals 2014.Tinamiformes</text>
<polygon fill="none" stroke="black" points="152,-24.5 152,-49.5 169,-49.5 169,-24.5 152,-24.5"/>
<text text-anchor="start" x="157" y="-33.3" font-family="Times,serif" font-size="14.00">3</text>
<polygon fill="none" stroke="black" points="169,-24.5 169,-49.5 478,-49.5 478,-24.5 169,-24.5"/>
<text text-anchor="start" x="221" y="-33.3" font-family="Times,serif" font-size="14.00">2015.Aves is_included_in 2014.Aves</text>
<polygon fill="none" stroke="black" points="152,0.5 152,-24.5 169,-24.5 169,0.5 152,0.5"/>
<text text-anchor="start" x="157" y="-8.3" font-family="Times,serif" font-size="14.00">4</text>
<polygon fill="none" stroke="black" points="169,0.5 169,-24.5 478,-24.5 478,0.5 169,0.5"/>
<text text-anchor="start" x="174" y="-8.3" font-family="Times,serif" font-size="14.00">2015.Palaeognathae is_included_in 2014.Paleognathae</text>
</g>
<!-- Legend&#45;&gt;None -->
<!-- Intro -->
<g id="node34" class="node"><title>Intro</title>
<polygon fill="none" stroke="black" points="812,-112.5 496,-112.5 496,-12.5 812,-12.5 812,-112.5"/>
<polygon fill="none" stroke="black" points="496,-87.5 496,-112.5 714,-112.5 714,-87.5 496,-87.5"/>
<text text-anchor="start" x="501" y="-96.3" font-family="Times,serif" font-size="14.00"> Minimal Inconsistent Subsets (MIS) </text>
<polygon fill="none" stroke="black" points="714,-87.5 714,-112.5 812,-112.5 812,-87.5 714,-87.5"/>
<text text-anchor="start" x="736" y="-96.3" font-family="Times,serif" font-size="14.00"> Red box </text>
<polygon fill="none" stroke="black" points="496,-62.5 496,-87.5 714,-87.5 714,-62.5 496,-62.5"/>
<text text-anchor="start" x="523" y="-71.3" font-family="Times,serif" font-size="14.00"> Maximal Consistent Subsets </text>
<polygon fill="none" stroke="black" points="714,-62.5 714,-87.5 812,-87.5 812,-62.5 714,-62.5"/>
<text text-anchor="start" x="730.5" y="-71.3" font-family="Times,serif" font-size="14.00"> Green box </text>
<polygon fill="none" stroke="black" points="496,-37.5 496,-62.5 714,-62.5 714,-37.5 496,-37.5"/>
<text text-anchor="start" x="532.5" y="-46.3" font-family="Times,serif" font-size="14.00"> Minimal Unique Subsets </text>
<polygon fill="none" stroke="black" points="714,-37.5 714,-62.5 812,-62.5 812,-37.5 714,-37.5"/>
<text text-anchor="start" x="721" y="-46.3" font-family="Times,serif" font-size="14.00"> Green octagon</text>
<polygon fill="none" stroke="black" points="496,-12.5 496,-37.5 714,-37.5 714,-12.5 496,-12.5"/>
<text text-anchor="start" x="519.5" y="-21.3" font-family="Times,serif" font-size="14.00"> Maximal Ambiguous Subsets </text>
<polygon fill="none" stroke="black" points="714,-12.5 714,-37.5 812,-37.5 812,-12.5 714,-12.5"/>
<text text-anchor="start" x="719" y="-21.3" font-family="Times,serif" font-size="14.00"> Cyan diamond </text>
</g>
</g>
</svg>
