<?xml version="1.0" encoding="UTF-8" standalone="no"?>
<!DOCTYPE svg PUBLIC "-//W3C//DTD SVG 1.1//EN"
 "http://www.w3.org/Graphics/SVG/1.1/DTD/svg11.dtd">
<!-- Generated by graphviz version 2.38.0 (20140413.2041)
 -->
<!-- Title: %3 Pages: 1 -->
<svg width="782pt" height="543pt"
 viewBox="0.00 0.00 782.06 543.00" xmlns="http://www.w3.org/2000/svg" xmlns:xlink="http://www.w3.org/1999/xlink">
<g id="graph0" class="graph" transform="scale(1 1) rotate(0) translate(4 539)">
<title>%3</title>
<polygon fill="white" stroke="none" points="-4,4 -4,-539 778.064,-539 778.064,4 -4,4"/>
<!-- 2,3,5 -->
<g id="node1" class="node"><title>2,3,5</title>
<polygon fill="#ffb0b0" stroke="#ff0000" points="138.128,-365.544 138.128,-380.456 118.722,-391 91.2778,-391 71.8716,-380.456 71.8716,-365.544 91.2778,-355 118.722,-355 138.128,-365.544"/>
<text text-anchor="middle" x="105" y="-369.3" font-family="Helvetica,sans-Serif" font-size="14.00">2,3,5</text>
</g>
<!-- 2,3,4,5 -->
<g id="node6" class="node"><title>2,3,4,5</title>
<polygon fill="none" stroke="#ff0000" stroke-width="0.4" points="223.606,-437.544 223.606,-452.456 199.82,-463 166.18,-463 142.394,-452.456 142.394,-437.544 166.18,-427 199.82,-427 223.606,-437.544"/>
<text text-anchor="middle" x="183" y="-441.3" font-family="Helvetica,sans-Serif" font-size="14.00">2,3,4,5</text>
</g>
<!-- 2,3,5&#45;&gt;2,3,4,5 -->
<g id="edge67" class="edge"><title>2,3,5&#45;&gt;2,3,4,5</title>
<path fill="none" stroke="#cc0000" stroke-width="0.4" stroke-dasharray="1,5" d="M122.311,-389.535C132.521,-398.699 145.64,-410.472 157.067,-420.727"/>
<polygon fill="#cc0000" stroke="#cc0000" stroke-width="0.4" points="154.871,-423.459 164.651,-427.533 159.546,-418.249 154.871,-423.459"/>
</g>
<!-- 1,2,3,5 -->
<g id="node10" class="node"><title>1,2,3,5</title>
<polygon fill="none" stroke="#ff0000" stroke-width="0.4" points="429.606,-437.544 429.606,-452.456 405.82,-463 372.18,-463 348.394,-452.456 348.394,-437.544 372.18,-427 405.82,-427 429.606,-437.544"/>
<text text-anchor="middle" x="389" y="-441.3" font-family="Helvetica,sans-Serif" font-size="14.00">1,2,3,5</text>
</g>
<!-- 2,3,5&#45;&gt;1,2,3,5 -->
<g id="edge66" class="edge"><title>2,3,5&#45;&gt;1,2,3,5</title>
<path fill="none" stroke="#cc0000" stroke-width="0.4" stroke-dasharray="1,5" d="M130.03,-385.078C135.548,-387.253 141.414,-389.363 147,-391 230.319,-415.408 255.021,-404.97 339,-427 342.193,-427.838 345.476,-428.776 348.762,-429.77"/>
<polygon fill="#cc0000" stroke="#cc0000" stroke-width="0.4" points="347.946,-433.183 358.537,-432.874 350.065,-426.511 347.946,-433.183"/>
</g>
<!-- 1,3 -->
<g id="node2" class="node"><title>1,3</title>
<polygon fill="#ffb0b0" stroke="#ff0000" points="564,-293.544 564,-308.456 548.184,-319 525.816,-319 510,-308.456 510,-293.544 525.816,-283 548.184,-283 564,-293.544"/>
<text text-anchor="middle" x="537" y="-297.3" font-family="Helvetica,sans-Serif" font-size="14.00">1,3</text>
</g>
<!-- 1,3,4 -->
<g id="node4" class="node"><title>1,3,4</title>
<polygon fill="none" stroke="#ff0000" stroke-width="0.4" points="606.128,-365.544 606.128,-380.456 586.722,-391 559.278,-391 539.872,-380.456 539.872,-365.544 559.278,-355 586.722,-355 606.128,-365.544"/>
<text text-anchor="middle" x="573" y="-369.3" font-family="Helvetica,sans-Serif" font-size="14.00">1,3,4</text>
</g>
<!-- 1,3&#45;&gt;1,3,4 -->
<g id="edge22" class="edge"><title>1,3&#45;&gt;1,3,4</title>
<path fill="none" stroke="#cc0000" stroke-width="0.4" stroke-dasharray="1,5" d="M545.899,-319.303C549.997,-327.272 554.949,-336.9 559.493,-345.736"/>
<polygon fill="#cc0000" stroke="#cc0000" stroke-width="0.4" points="556.517,-347.604 564.203,-354.896 562.742,-344.402 556.517,-347.604"/>
</g>
<!-- 1,3,5 -->
<g id="node9" class="node"><title>1,3,5</title>
<polygon fill="none" stroke="#ff0000" stroke-width="0.4" points="366.128,-365.544 366.128,-380.456 346.722,-391 319.278,-391 299.872,-380.456 299.872,-365.544 319.278,-355 346.722,-355 366.128,-365.544"/>
<text text-anchor="middle" x="333" y="-369.3" font-family="Helvetica,sans-Serif" font-size="14.00">1,3,5</text>
</g>
<!-- 1,3&#45;&gt;1,3,5 -->
<g id="edge23" class="edge"><title>1,3&#45;&gt;1,3,5</title>
<path fill="none" stroke="#cc0000" stroke-width="0.4" stroke-dasharray="1,5" d="M515.927,-312.652C511.087,-314.901 505.917,-317.151 501,-319 446.487,-339.503 430.071,-336.047 375,-355 372.741,-355.778 370.426,-356.61 368.101,-357.473"/>
<polygon fill="#cc0000" stroke="#cc0000" stroke-width="0.4" points="366.674,-354.272 358.602,-361.134 369.192,-360.804 366.674,-354.272"/>
</g>
<!-- 1,2,3 -->
<g id="node13" class="node"><title>1,2,3</title>
<polygon fill="none" stroke="#ff0000" stroke-width="0.4" points="690.128,-365.544 690.128,-380.456 670.722,-391 643.278,-391 623.872,-380.456 623.872,-365.544 643.278,-355 670.722,-355 690.128,-365.544"/>
<text text-anchor="middle" x="657" y="-369.3" font-family="Helvetica,sans-Serif" font-size="14.00">1,2,3</text>
</g>
<!-- 1,3&#45;&gt;1,2,3 -->
<g id="edge21" class="edge"><title>1,3&#45;&gt;1,2,3</title>
<path fill="none" stroke="#cc0000" stroke-width="0.4" stroke-dasharray="1,5" d="M556.816,-313.559C575.688,-324.568 604.377,-341.303 626.225,-354.048"/>
<polygon fill="#cc0000" stroke="#cc0000" stroke-width="0.4" points="624.72,-357.222 635.121,-359.237 628.247,-351.175 624.72,-357.222"/>
</g>
<!-- 1,2 -->
<g id="node3" class="node"><title>1,2</title>
<polygon fill="#ffb0b0" stroke="#ff0000" points="708,-293.544 708,-308.456 692.184,-319 669.816,-319 654,-308.456 654,-293.544 669.816,-283 692.184,-283 708,-293.544"/>
<text text-anchor="middle" x="681" y="-297.3" font-family="Helvetica,sans-Serif" font-size="14.00">1,2</text>
</g>
<!-- 1,2,4 -->
<g id="node5" class="node"><title>1,2,4</title>
<polygon fill="none" stroke="#ff0000" stroke-width="0.4" points="774.128,-365.544 774.128,-380.456 754.722,-391 727.278,-391 707.872,-380.456 707.872,-365.544 727.278,-355 754.722,-355 774.128,-365.544"/>
<text text-anchor="middle" x="741" y="-369.3" font-family="Helvetica,sans-Serif" font-size="14.00">1,2,4</text>
</g>
<!-- 1,2&#45;&gt;1,2,4 -->
<g id="edge15" class="edge"><title>1,2&#45;&gt;1,2,4</title>
<path fill="none" stroke="#cc0000" stroke-width="0.4" stroke-dasharray="1,5" d="M694.615,-317.884C702.07,-326.582 711.473,-337.552 719.861,-347.337"/>
<polygon fill="#cc0000" stroke="#cc0000" stroke-width="0.4" points="717.437,-349.888 726.602,-355.203 722.752,-345.332 717.437,-349.888"/>
</g>
<!-- 1,2,5 -->
<g id="node12" class="node"><title>1,2,5</title>
<polygon fill="none" stroke="#ff0000" stroke-width="0.4" points="522.128,-365.544 522.128,-380.456 502.722,-391 475.278,-391 455.872,-380.456 455.872,-365.544 475.278,-355 502.722,-355 522.128,-365.544"/>
<text text-anchor="middle" x="489" y="-369.3" font-family="Helvetica,sans-Serif" font-size="14.00">1,2,5</text>
</g>
<!-- 1,2&#45;&gt;1,2,5 -->
<g id="edge16" class="edge"><title>1,2&#45;&gt;1,2,5</title>
<path fill="none" stroke="#cc0000" stroke-width="0.4" stroke-dasharray="1,5" d="M659.888,-312.552C655.05,-314.806 649.891,-317.083 645,-319 595.531,-338.388 580.998,-337.019 531,-355 528.752,-355.809 526.445,-356.665 524.127,-357.546"/>
<polygon fill="#cc0000" stroke="#cc0000" stroke-width="0.4" points="522.685,-354.351 514.642,-361.248 525.23,-360.872 522.685,-354.351"/>
</g>
<!-- 1,2&#45;&gt;1,2,3 -->
<g id="edge14" class="edge"><title>1,2&#45;&gt;1,2,3</title>
<path fill="none" stroke="#cc0000" stroke-width="0.4" stroke-dasharray="1,5" d="M675.067,-319.303C672.394,-327.102 669.174,-336.491 666.199,-345.171"/>
<polygon fill="#cc0000" stroke="#cc0000" stroke-width="0.4" points="662.797,-344.301 662.864,-354.896 669.418,-346.571 662.797,-344.301"/>
</g>
<!-- 1,3,4,5 -->
<g id="node8" class="node"><title>1,3,4,5</title>
<polygon fill="none" stroke="#ff0000" stroke-width="0.4" points="329.606,-437.544 329.606,-452.456 305.82,-463 272.18,-463 248.394,-452.456 248.394,-437.544 272.18,-427 305.82,-427 329.606,-437.544"/>
<text text-anchor="middle" x="289" y="-441.3" font-family="Helvetica,sans-Serif" font-size="14.00">1,3,4,5</text>
</g>
<!-- 1,3,4&#45;&gt;1,3,4,5 -->
<g id="edge45" class="edge"><title>1,3,4&#45;&gt;1,3,4,5</title>
<path fill="none" stroke="#cc0000" stroke-width="0.4" stroke-dasharray="1,5" d="M547.97,-385.078C542.452,-387.253 536.586,-389.363 531,-391 447.681,-415.408 422.979,-404.97 339,-427 335.807,-427.838 332.524,-428.776 329.238,-429.77"/>
<polygon fill="#cc0000" stroke="#cc0000" stroke-width="0.4" points="327.935,-426.511 319.463,-432.874 330.054,-433.183 327.935,-426.511"/>
</g>
<!-- 1,2,3,4 -->
<g id="node14" class="node"><title>1,2,3,4</title>
<polygon fill="none" stroke="#ff0000" stroke-width="0.4" points="629.606,-437.544 629.606,-452.456 605.82,-463 572.18,-463 548.394,-452.456 548.394,-437.544 572.18,-427 605.82,-427 629.606,-437.544"/>
<text text-anchor="middle" x="589" y="-441.3" font-family="Helvetica,sans-Serif" font-size="14.00">1,2,3,4</text>
</g>
<!-- 1,3,4&#45;&gt;1,2,3,4 -->
<g id="edge44" class="edge"><title>1,3,4&#45;&gt;1,2,3,4</title>
<path fill="none" stroke="#cc0000" stroke-width="0.4" stroke-dasharray="1,5" d="M576.955,-391.303C578.718,-399.017 580.837,-408.288 582.803,-416.888"/>
<polygon fill="#cc0000" stroke="#cc0000" stroke-width="0.4" points="579.45,-417.927 585.09,-426.896 586.274,-416.367 579.45,-417.927"/>
</g>
<!-- 1,2,4,5 -->
<g id="node11" class="node"><title>1,2,4,5</title>
<polygon fill="none" stroke="#ff0000" stroke-width="0.4" points="529.606,-437.544 529.606,-452.456 505.82,-463 472.18,-463 448.394,-452.456 448.394,-437.544 472.18,-427 505.82,-427 529.606,-437.544"/>
<text text-anchor="middle" x="489" y="-441.3" font-family="Helvetica,sans-Serif" font-size="14.00">1,2,4,5</text>
</g>
<!-- 1,2,4&#45;&gt;1,2,4,5 -->
<g id="edge40" class="edge"><title>1,2,4&#45;&gt;1,2,4,5</title>
<path fill="none" stroke="#cc0000" stroke-width="0.4" stroke-dasharray="1,5" d="M715.924,-384.926C710.409,-387.11 704.556,-389.263 699,-391 629.431,-412.746 609.159,-407.24 539,-427 535.823,-427.895 532.551,-428.874 529.273,-429.896"/>
<polygon fill="#cc0000" stroke="#cc0000" stroke-width="0.4" points="527.951,-426.645 519.512,-433.051 530.104,-433.306 527.951,-426.645"/>
</g>
<!-- 1,2,4&#45;&gt;1,2,3,4 -->
<g id="edge39" class="edge"><title>1,2,4&#45;&gt;1,2,3,4</title>
<path fill="none" stroke="#cc0000" stroke-width="0.4" stroke-dasharray="1,5" d="M716.579,-385.247C691.924,-396.601 653.557,-414.27 625.333,-427.268"/>
<polygon fill="#cc0000" stroke="#cc0000" stroke-width="0.4" points="623.803,-424.119 616.184,-431.481 626.731,-430.477 623.803,-424.119"/>
</g>
<!-- 1,2,3,4,5 -->
<g id="node7" class="node"><title>1,2,3,4,5</title>
<polygon fill="none" stroke="#ff0000" stroke-width="0.4" points="437.582,-509.544 437.582,-524.456 409.123,-535 368.877,-535 340.418,-524.456 340.418,-509.544 368.877,-499 409.123,-499 437.582,-509.544"/>
<text text-anchor="middle" x="389" y="-513.3" font-family="Helvetica,sans-Serif" font-size="14.00">1,2,3,4,5</text>
</g>
<!-- 2,3,4,5&#45;&gt;1,2,3,4,5 -->
<g id="edge80" class="edge"><title>2,3,4,5&#45;&gt;1,2,3,4,5</title>
<path fill="none" stroke="#cc0000" stroke-width="0.4" stroke-dasharray="1,5" d="M214.287,-456.631C249.047,-468.443 305.439,-487.605 344.721,-500.954"/>
<polygon fill="#cc0000" stroke="#cc0000" stroke-width="0.4" points="343.721,-504.31 354.315,-504.214 345.973,-497.683 343.721,-504.31"/>
</g>
<!-- 1,3,4,5&#45;&gt;1,2,3,4,5 -->
<g id="edge79" class="edge"><title>1,3,4,5&#45;&gt;1,2,3,4,5</title>
<path fill="none" stroke="#cc0000" stroke-width="0.4" stroke-dasharray="1,5" d="M310.699,-461.189C324.336,-470.735 342.161,-483.213 357.359,-493.851"/>
<polygon fill="#cc0000" stroke="#cc0000" stroke-width="0.4" points="355.753,-496.999 365.952,-499.866 359.767,-491.264 355.753,-496.999"/>
</g>
<!-- 1,3,5&#45;&gt;1,3,4,5 -->
<g id="edge65" class="edge"><title>1,3,5&#45;&gt;1,3,4,5</title>
<path fill="none" stroke="#cc0000" stroke-width="0.4" stroke-dasharray="1,5" d="M322.124,-391.303C317.008,-399.441 310.805,-409.311 305.155,-418.299"/>
<polygon fill="#cc0000" stroke="#cc0000" stroke-width="0.4" points="302.11,-416.567 299.751,-426.896 308.036,-420.292 302.11,-416.567"/>
</g>
<!-- 1,3,5&#45;&gt;1,2,3,5 -->
<g id="edge64" class="edge"><title>1,3,5&#45;&gt;1,2,3,5</title>
<path fill="none" stroke="#cc0000" stroke-width="0.4" stroke-dasharray="1,5" d="M346.843,-391.303C353.489,-399.611 361.578,-409.723 368.887,-418.859"/>
<polygon fill="#cc0000" stroke="#cc0000" stroke-width="0.4" points="366.336,-421.273 375.317,-426.896 371.803,-416.901 366.336,-421.273"/>
</g>
<!-- 1,2,3,5&#45;&gt;1,2,3,4,5 -->
<g id="edge68" class="edge"><title>1,2,3,5&#45;&gt;1,2,3,4,5</title>
<path fill="none" stroke="#cc0000" stroke-width="0.4" stroke-dasharray="1,5" d="M389,-463.303C389,-471.017 389,-480.288 389,-488.888"/>
<polygon fill="#cc0000" stroke="#cc0000" stroke-width="0.4" points="385.5,-488.896 389,-498.896 392.5,-488.896 385.5,-488.896"/>
</g>
<!-- 1,2,4,5&#45;&gt;1,2,3,4,5 -->
<g id="edge76" class="edge"><title>1,2,4,5&#45;&gt;1,2,3,4,5</title>
<path fill="none" stroke="#cc0000" stroke-width="0.4" stroke-dasharray="1,5" d="M467.301,-461.189C453.664,-470.735 435.839,-483.213 420.641,-493.851"/>
<polygon fill="#cc0000" stroke="#cc0000" stroke-width="0.4" points="418.233,-491.264 412.048,-499.866 422.247,-496.999 418.233,-491.264"/>
</g>
<!-- 1,2,5&#45;&gt;1,2,3,5 -->
<g id="edge59" class="edge"><title>1,2,5&#45;&gt;1,2,3,5</title>
<path fill="none" stroke="#cc0000" stroke-width="0.4" stroke-dasharray="1,5" d="M469.243,-387.83C454.931,-397.848 435.324,-411.573 419.074,-422.948"/>
<polygon fill="#cc0000" stroke="#cc0000" stroke-width="0.4" points="416.632,-420.385 410.447,-428.987 420.646,-426.12 416.632,-420.385"/>
</g>
<!-- 1,2,5&#45;&gt;1,2,4,5 -->
<g id="edge60" class="edge"><title>1,2,5&#45;&gt;1,2,4,5</title>
<path fill="none" stroke="#cc0000" stroke-width="0.4" stroke-dasharray="1,5" d="M489,-391.303C489,-399.017 489,-408.288 489,-416.888"/>
<polygon fill="#cc0000" stroke="#cc0000" stroke-width="0.4" points="485.5,-416.896 489,-426.896 492.5,-416.896 485.5,-416.896"/>
</g>
<!-- 1,2,3&#45;&gt;1,2,3,5 -->
<g id="edge28" class="edge"><title>1,2,3&#45;&gt;1,2,3,5</title>
<path fill="none" stroke="#cc0000" stroke-width="0.4" stroke-dasharray="1,5" d="M631.949,-385.009C626.433,-387.188 620.573,-389.318 615,-391 538.565,-414.074 516.06,-406.108 439,-427 435.814,-427.864 432.536,-428.821 429.254,-429.828"/>
<polygon fill="#cc0000" stroke="#cc0000" stroke-width="0.4" points="427.942,-426.572 419.485,-432.955 430.076,-433.239 427.942,-426.572"/>
</g>
<!-- 1,2,3&#45;&gt;1,2,3,4 -->
<g id="edge27" class="edge"><title>1,2,3&#45;&gt;1,2,3,4</title>
<path fill="none" stroke="#cc0000" stroke-width="0.4" stroke-dasharray="1,5" d="M641.229,-390.235C632.808,-398.904 622.269,-409.752 612.868,-419.43"/>
<polygon fill="#cc0000" stroke="#cc0000" stroke-width="0.4" points="610.092,-417.264 605.635,-426.876 615.113,-422.142 610.092,-417.264"/>
</g>
<!-- 1,2,3,4&#45;&gt;1,2,3,4,5 -->
<g id="edge48" class="edge"><title>1,2,3,4&#45;&gt;1,2,3,4,5</title>
<path fill="none" stroke="#cc0000" stroke-width="0.4" stroke-dasharray="1,5" d="M557.75,-456.938C524.167,-468.692 470.533,-487.464 432.761,-500.684"/>
<polygon fill="#cc0000" stroke="#cc0000" stroke-width="0.4" points="431.323,-497.479 423.041,-504.086 433.635,-504.086 431.323,-497.479"/>
</g>
<!-- 2,4,5 -->
<g id="node15" class="node"><title>2,4,5</title>
<path fill="#a0ffa0" stroke="#006400" stroke-width="0.4" d="M198,-391C198,-391 168,-391 168,-391 162,-391 156,-385 156,-379 156,-379 156,-367 156,-367 156,-361 162,-355 168,-355 168,-355 198,-355 198,-355 204,-355 210,-361 210,-367 210,-367 210,-379 210,-379 210,-385 204,-391 198,-391"/>
<text text-anchor="middle" x="183" y="-369.3" font-family="Helvetica,sans-Serif" font-size="14.00">2,4,5</text>
</g>
<!-- 2,4,5&#45;&gt;2,3,4,5 -->
<g id="edge75" class="edge"><title>2,4,5&#45;&gt;2,3,4,5</title>
<path fill="none" stroke="#0000ff" stroke-width="2" d="M183,-391.303C183,-402.154 183,-416.083 183,-426.896"/>
</g>
<!-- 2,4,5&#45;&gt;1,2,4,5 -->
<g id="edge74" class="edge"><title>2,4,5&#45;&gt;1,2,4,5</title>
<path fill="none" stroke="#0000ff" stroke-width="2" d="M210.201,-387.807C213.127,-389.001 216.096,-390.096 219,-391 313.603,-420.439 342.88,-402.971 439,-427 445.493,-428.623 452.349,-430.703 458.833,-432.847"/>
</g>
<!-- 1,4,5 -->
<g id="node16" class="node"><title>1,4,5</title>
<path fill="#a0ffa0" stroke="#006400" stroke-width="0.4" d="M426,-391C426,-391 396,-391 396,-391 390,-391 384,-385 384,-379 384,-379 384,-367 384,-367 384,-361 390,-355 396,-355 396,-355 426,-355 426,-355 432,-355 438,-361 438,-367 438,-367 438,-379 438,-379 438,-385 432,-391 426,-391"/>
<text text-anchor="middle" x="411" y="-369.3" font-family="Helvetica,sans-Serif" font-size="14.00">1,4,5</text>
</g>
<!-- 1,4,5&#45;&gt;1,3,4,5 -->
<g id="edge73" class="edge"><title>1,4,5&#45;&gt;1,3,4,5</title>
<path fill="none" stroke="#0000ff" stroke-width="2" d="M383.924,-389.535C362.724,-401.699 333.508,-418.463 313.108,-430.168"/>
</g>
<!-- 1,4,5&#45;&gt;1,2,4,5 -->
<g id="edge72" class="edge"><title>1,4,5&#45;&gt;1,2,4,5</title>
<path fill="none" stroke="#0000ff" stroke-width="2" d="M430.281,-391.303C442.642,-402.397 458.59,-416.709 470.745,-427.617"/>
</g>
<!-- 2,3,4 -->
<g id="node17" class="node"><title>2,3,4</title>
<path fill="#a0ffa0" stroke="#006400" stroke-width="0.4" d="M270,-391C270,-391 240,-391 240,-391 234,-391 228,-385 228,-379 228,-379 228,-367 228,-367 228,-361 234,-355 240,-355 240,-355 270,-355 270,-355 276,-355 282,-361 282,-367 282,-367 282,-379 282,-379 282,-385 276,-391 270,-391"/>
<text text-anchor="middle" x="255" y="-369.3" font-family="Helvetica,sans-Serif" font-size="14.00">2,3,4</text>
</g>
<!-- 2,3,4&#45;&gt;2,3,4,5 -->
<g id="edge47" class="edge"><title>2,3,4&#45;&gt;2,3,4,5</title>
<path fill="none" stroke="#0000ff" stroke-width="2" d="M237.202,-391.303C225.959,-402.235 211.5,-416.291 200.345,-427.137"/>
</g>
<!-- 2,3,4&#45;&gt;1,2,3,4 -->
<g id="edge46" class="edge"><title>2,3,4&#45;&gt;1,2,3,4</title>
<path fill="none" stroke="#0000ff" stroke-width="2" d="M282.184,-387.861C285.114,-389.045 288.088,-390.123 291,-391 397.641,-423.133 430.708,-400.964 539,-427 545.508,-428.565 552.37,-430.619 558.855,-432.757"/>
</g>
<!-- 3,4,5 -->
<g id="node18" class="node"><title>3,4,5</title>
<path fill="#a0ffa0" stroke="#006400" stroke-width="0.4" d="M42,-391C42,-391 12,-391 12,-391 6,-391 0,-385 0,-379 0,-379 0,-367 0,-367 0,-361 6,-355 12,-355 12,-355 42,-355 42,-355 48,-355 54,-361 54,-367 54,-367 54,-379 54,-379 54,-385 48,-391 42,-391"/>
<text text-anchor="middle" x="27" y="-369.3" font-family="Helvetica,sans-Serif" font-size="14.00">3,4,5</text>
</g>
<!-- 3,4,5&#45;&gt;2,3,4,5 -->
<g id="edge78" class="edge"><title>3,4,5&#45;&gt;2,3,4,5</title>
<path fill="none" stroke="#0000ff" stroke-width="2" d="M54.0926,-386.883C57.0931,-388.284 60.1081,-389.679 63,-391 94.2802,-405.291 130.409,-421.162 154.784,-431.778"/>
</g>
<!-- 3,4,5&#45;&gt;1,3,4,5 -->
<g id="edge77" class="edge"><title>3,4,5&#45;&gt;1,3,4,5</title>
<path fill="none" stroke="#0000ff" stroke-width="2" d="M54.2457,-387.669C57.1631,-388.89 60.1179,-390.029 63,-391 136.19,-415.655 158.203,-407.765 233,-427 240.774,-428.999 249.082,-431.383 256.856,-433.725"/>
</g>
<!-- 3,5 -->
<g id="node19" class="node"><title>3,5</title>
<path fill="none" stroke="#006400" stroke-width="0.4" d="M48,-319C48,-319 18,-319 18,-319 12,-319 6,-313 6,-307 6,-307 6,-295 6,-295 6,-289 12,-283 18,-283 18,-283 48,-283 48,-283 54,-283 60,-289 60,-295 60,-295 60,-307 60,-307 60,-313 54,-319 48,-319"/>
<text text-anchor="middle" x="33" y="-297.3" font-family="Helvetica,sans-Serif" font-size="14.00">3,5</text>
</g>
<!-- 3,5&#45;&gt;2,3,5 -->
<g id="edge62" class="edge"><title>3,5&#45;&gt;2,3,5</title>
<path fill="none" stroke="#0000ff" stroke-width="2" d="M50.7978,-319.303C62.2912,-330.478 77.1439,-344.918 88.3942,-355.855"/>
</g>
<!-- 3,5&#45;&gt;1,3,5 -->
<g id="edge61" class="edge"><title>3,5&#45;&gt;1,3,5</title>
<path fill="none" stroke="#0000ff" stroke-width="2" d="M60.1995,-315.811C63.126,-317.005 66.0955,-318.098 69,-319 164.462,-348.632 194.738,-328.08 291,-355 296.606,-356.568 302.48,-358.65 308,-360.817"/>
</g>
<!-- 3,5&#45;&gt;3,4,5 -->
<g id="edge63" class="edge"><title>3,5&#45;&gt;3,4,5</title>
<path fill="none" stroke="#006400" stroke-width="0.4" stroke-dasharray="1,5" d="M30.657,-329.335C29.9189,-337.946 29.125,-347.209 28.4661,-354.896"/>
<polygon fill="#006400" stroke="#006400" stroke-width="0.4" points="34.15,-329.566 31.5169,-319.303 27.1755,-328.968 34.15,-329.566"/>
</g>
<!-- 4 -->
<g id="node20" class="node"><title>4</title>
<path fill="none" stroke="#006400" stroke-width="0.4" d="M336,-247C336,-247 306,-247 306,-247 300,-247 294,-241 294,-235 294,-235 294,-223 294,-223 294,-217 300,-211 306,-211 306,-211 336,-211 336,-211 342,-211 348,-217 348,-223 348,-223 348,-235 348,-235 348,-241 342,-247 336,-247"/>
<text text-anchor="middle" x="321" y="-225.3" font-family="Helvetica,sans-Serif" font-size="14.00">4</text>
</g>
<!-- 4,5 -->
<g id="node26" class="node"><title>4,5</title>
<path fill="none" stroke="#006400" stroke-width="0.4" d="M120,-319C120,-319 90,-319 90,-319 84,-319 78,-313 78,-307 78,-307 78,-295 78,-295 78,-289 84,-283 90,-283 90,-283 120,-283 120,-283 126,-283 132,-289 132,-295 132,-295 132,-307 132,-307 132,-313 126,-319 120,-319"/>
<text text-anchor="middle" x="105" y="-297.3" font-family="Helvetica,sans-Serif" font-size="14.00">4,5</text>
</g>
<!-- 4&#45;&gt;4,5 -->
<g id="edge32" class="edge"><title>4&#45;&gt;4,5</title>
<path fill="none" stroke="#006400" stroke-width="0.4" stroke-dasharray="1,5" d="M284.082,-246.948C220.93,-268.473 200.213,-261.849 141,-283 138.136,-284.023 135.193,-285.197 132.283,-286.439"/>
<polygon fill="#006400" stroke="#006400" stroke-width="0.4" points="285.444,-250.179 293.717,-243.561 283.122,-243.575 285.444,-250.179"/>
</g>
<!-- 3,4 -->
<g id="node28" class="node"><title>3,4</title>
<path fill="none" stroke="#006400" stroke-width="0.4" d="M264,-319C264,-319 234,-319 234,-319 228,-319 222,-313 222,-307 222,-307 222,-295 222,-295 222,-289 228,-283 234,-283 234,-283 264,-283 264,-283 270,-283 276,-289 276,-295 276,-295 276,-307 276,-307 276,-313 270,-319 264,-319"/>
<text text-anchor="middle" x="249" y="-297.3" font-family="Helvetica,sans-Serif" font-size="14.00">3,4</text>
</g>
<!-- 4&#45;&gt;3,4 -->
<g id="edge31" class="edge"><title>4&#45;&gt;3,4</title>
<path fill="none" stroke="#006400" stroke-width="0.4" stroke-dasharray="1,5" d="M295.777,-254.522C286.14,-263.892 275.368,-274.364 266.593,-282.896"/>
<polygon fill="#006400" stroke="#006400" stroke-width="0.4" points="298.472,-256.784 303.202,-247.303 293.592,-251.765 298.472,-256.784"/>
</g>
<!-- 2,4 -->
<g id="node30" class="node"><title>2,4</title>
<path fill="none" stroke="#006400" stroke-width="0.4" d="M408,-319C408,-319 378,-319 378,-319 372,-319 366,-313 366,-307 366,-307 366,-295 366,-295 366,-289 372,-283 378,-283 378,-283 408,-283 408,-283 414,-283 420,-289 420,-295 420,-295 420,-307 420,-307 420,-313 414,-319 408,-319"/>
<text text-anchor="middle" x="393" y="-297.3" font-family="Helvetica,sans-Serif" font-size="14.00">2,4</text>
</g>
<!-- 4&#45;&gt;2,4 -->
<g id="edge30" class="edge"><title>4&#45;&gt;2,4</title>
<path fill="none" stroke="#006400" stroke-width="0.4" stroke-dasharray="1,5" d="M346.223,-254.522C355.86,-263.892 366.632,-274.364 375.407,-282.896"/>
<polygon fill="#006400" stroke="#006400" stroke-width="0.4" points="348.408,-251.765 338.798,-247.303 343.528,-256.784 348.408,-251.765"/>
</g>
<!-- 1,4 -->
<g id="node32" class="node"><title>1,4</title>
<path fill="none" stroke="#006400" stroke-width="0.4" d="M624,-319C624,-319 594,-319 594,-319 588,-319 582,-313 582,-307 582,-307 582,-295 582,-295 582,-289 588,-283 594,-283 594,-283 624,-283 624,-283 630,-283 636,-289 636,-295 636,-295 636,-307 636,-307 636,-313 630,-319 624,-319"/>
<text text-anchor="middle" x="609" y="-297.3" font-family="Helvetica,sans-Serif" font-size="14.00">1,4</text>
</g>
<!-- 4&#45;&gt;1,4 -->
<g id="edge29" class="edge"><title>4&#45;&gt;1,4</title>
<path fill="none" stroke="#006400" stroke-width="0.4" stroke-dasharray="1,5" d="M357.816,-246.751C451.899,-274.683 483.108,-254.881 573,-283 575.903,-283.908 578.871,-285.006 581.796,-286.202"/>
<polygon fill="#006400" stroke="#006400" stroke-width="0.4" points="358.791,-243.389 348.204,-243.798 356.735,-250.08 358.791,-243.389"/>
</g>
<!-- 1 -->
<g id="node21" class="node"><title>1</title>
<path fill="none" stroke="#006400" stroke-width="0.4" d="M552,-247C552,-247 522,-247 522,-247 516,-247 510,-241 510,-235 510,-235 510,-223 510,-223 510,-217 516,-211 522,-211 522,-211 552,-211 552,-211 558,-211 564,-217 564,-223 564,-223 564,-235 564,-235 564,-241 558,-247 552,-247"/>
<text text-anchor="middle" x="537" y="-225.3" font-family="Helvetica,sans-Serif" font-size="14.00">1</text>
</g>
<!-- 1&#45;&gt;1,3 -->
<g id="edge7" class="edge"><title>1&#45;&gt;1,3</title>
<path fill="none" stroke="#0000ff" stroke-width="2" d="M537,-247.303C537,-258.154 537,-272.083 537,-282.896"/>
</g>
<!-- 1&#45;&gt;1,2 -->
<g id="edge6" class="edge"><title>1&#45;&gt;1,2</title>
<path fill="none" stroke="#0000ff" stroke-width="2" d="M564.085,-243.166C591.786,-256.632 634.253,-277.276 659.66,-289.627"/>
</g>
<!-- 1,5 -->
<g id="node23" class="node"><title>1,5</title>
<path fill="none" stroke="#006400" stroke-width="0.4" d="M480,-319C480,-319 450,-319 450,-319 444,-319 438,-313 438,-307 438,-307 438,-295 438,-295 438,-289 444,-283 450,-283 450,-283 480,-283 480,-283 486,-283 492,-289 492,-295 492,-295 492,-307 492,-307 492,-313 486,-319 480,-319"/>
<text text-anchor="middle" x="465" y="-297.3" font-family="Helvetica,sans-Serif" font-size="14.00">1,5</text>
</g>
<!-- 1&#45;&gt;1,5 -->
<g id="edge9" class="edge"><title>1&#45;&gt;1,5</title>
<path fill="none" stroke="#006400" stroke-width="0.4" stroke-dasharray="1,5" d="M511.777,-254.522C502.14,-263.892 491.368,-274.364 482.593,-282.896"/>
<polygon fill="#006400" stroke="#006400" stroke-width="0.4" points="514.472,-256.784 519.202,-247.303 509.592,-251.765 514.472,-256.784"/>
</g>
<!-- 1&#45;&gt;1,4 -->
<g id="edge8" class="edge"><title>1&#45;&gt;1,4</title>
<path fill="none" stroke="#006400" stroke-width="0.4" stroke-dasharray="1,5" d="M562.223,-254.522C571.86,-263.892 582.632,-274.364 591.407,-282.896"/>
<polygon fill="#006400" stroke="#006400" stroke-width="0.4" points="564.408,-251.765 554.798,-247.303 559.528,-256.784 564.408,-251.765"/>
</g>
<!-- 2,3 -->
<g id="node22" class="node"><title>2,3</title>
<path fill="none" stroke="#006400" stroke-width="0.4" d="M336,-319C336,-319 306,-319 306,-319 300,-319 294,-313 294,-307 294,-307 294,-295 294,-295 294,-289 300,-283 306,-283 306,-283 336,-283 336,-283 342,-283 348,-289 348,-295 348,-295 348,-307 348,-307 348,-313 342,-319 336,-319"/>
<text text-anchor="middle" x="321" y="-297.3" font-family="Helvetica,sans-Serif" font-size="14.00">2,3</text>
</g>
<!-- 2,3&#45;&gt;2,3,5 -->
<g id="edge26" class="edge"><title>2,3&#45;&gt;2,3,5</title>
<path fill="none" stroke="#0000ff" stroke-width="2" d="M293.706,-315.531C290.798,-316.779 287.859,-317.962 285,-319 225.418,-340.627 207.17,-335.067 147,-355 141.624,-356.781 135.949,-358.905 130.57,-361.038"/>
</g>
<!-- 2,3&#45;&gt;1,2,3 -->
<g id="edge24" class="edge"><title>2,3&#45;&gt;1,2,3</title>
<path fill="none" stroke="#0000ff" stroke-width="2" d="M348.179,-315.877C351.11,-317.058 354.086,-318.131 357,-319 467.946,-352.097 503.162,-325.054 615,-355 620.623,-356.506 626.505,-358.561 632.025,-360.723"/>
</g>
<!-- 2,3&#45;&gt;2,3,4 -->
<g id="edge25" class="edge"><title>2,3&#45;&gt;2,3,4</title>
<path fill="none" stroke="#006400" stroke-width="0.4" stroke-dasharray="1,5" d="M297.616,-326.801C288.85,-336.099 279.091,-346.448 271.127,-354.896"/>
<polygon fill="#006400" stroke="#006400" stroke-width="0.4" points="300.372,-328.98 304.685,-319.303 295.279,-324.178 300.372,-328.98"/>
</g>
<!-- 1,5&#45;&gt;1,3,5 -->
<g id="edge54" class="edge"><title>1,5&#45;&gt;1,3,5</title>
<path fill="none" stroke="#0000ff" stroke-width="2" d="M437.969,-316.334C413.833,-329.134 378.863,-347.679 356.03,-359.787"/>
</g>
<!-- 1,5&#45;&gt;1,2,5 -->
<g id="edge53" class="edge"><title>1,5&#45;&gt;1,2,5</title>
<path fill="none" stroke="#0000ff" stroke-width="2" d="M470.933,-319.303C474.653,-330.154 479.429,-344.083 483.136,-354.896"/>
</g>
<!-- 1,5&#45;&gt;1,4,5 -->
<g id="edge55" class="edge"><title>1,5&#45;&gt;1,4,5</title>
<path fill="none" stroke="#006400" stroke-width="0.4" stroke-dasharray="1,5" d="M445.436,-327.36C438.376,-336.512 430.581,-346.617 424.195,-354.896"/>
<polygon fill="#006400" stroke="#006400" stroke-width="0.4" points="448.315,-329.359 451.652,-319.303 442.772,-325.083 448.315,-329.359"/>
</g>
<!-- 2,5 -->
<g id="node24" class="node"><title>2,5</title>
<path fill="none" stroke="#006400" stroke-width="0.4" d="M192,-319C192,-319 162,-319 162,-319 156,-319 150,-313 150,-307 150,-307 150,-295 150,-295 150,-289 156,-283 162,-283 162,-283 192,-283 192,-283 198,-283 204,-289 204,-295 204,-295 204,-307 204,-307 204,-313 198,-319 192,-319"/>
<text text-anchor="middle" x="177" y="-297.3" font-family="Helvetica,sans-Serif" font-size="14.00">2,5</text>
</g>
<!-- 2,5&#45;&gt;2,3,5 -->
<g id="edge57" class="edge"><title>2,5&#45;&gt;2,3,5</title>
<path fill="none" stroke="#0000ff" stroke-width="2" d="M159.202,-319.303C147.709,-330.478 132.856,-344.918 121.606,-355.855"/>
</g>
<!-- 2,5&#45;&gt;1,2,5 -->
<g id="edge56" class="edge"><title>2,5&#45;&gt;1,2,5</title>
<path fill="none" stroke="#0000ff" stroke-width="2" d="M204.192,-315.835C207.12,-317.024 210.092,-318.11 213,-319 313.619,-349.785 345.55,-327.073 447,-355 452.612,-356.545 458.489,-358.617 464.009,-360.783"/>
</g>
<!-- 2,5&#45;&gt;2,4,5 -->
<g id="edge58" class="edge"><title>2,5&#45;&gt;2,4,5</title>
<path fill="none" stroke="#006400" stroke-width="0.4" stroke-dasharray="1,5" d="M179.343,-329.335C180.081,-337.946 180.875,-347.209 181.534,-354.896"/>
<polygon fill="#006400" stroke="#006400" stroke-width="0.4" points="182.824,-328.968 178.483,-319.303 175.85,-329.566 182.824,-328.968"/>
</g>
<!-- None -->
<g id="node25" class="node"><title>None</title>
<path fill="none" stroke="#006400" stroke-width="0.4" d="M336,-175C336,-175 306,-175 306,-175 300,-175 294,-169 294,-163 294,-163 294,-151 294,-151 294,-145 300,-139 306,-139 306,-139 336,-139 336,-139 342,-139 348,-145 348,-151 348,-151 348,-163 348,-163 348,-169 342,-175 336,-175"/>
<text text-anchor="middle" x="321" y="-153.3" font-family="Helvetica,sans-Serif" font-size="14.00">None</text>
</g>
<!-- None&#45;&gt;4 -->
<g id="edge4" class="edge"><title>None&#45;&gt;4</title>
<path fill="none" stroke="#006400" stroke-width="0.4" stroke-dasharray="1,5" d="M321,-185.335C321,-193.946 321,-203.209 321,-210.896"/>
<polygon fill="#006400" stroke="#006400" stroke-width="0.4" points="324.5,-185.303 321,-175.303 317.5,-185.303 324.5,-185.303"/>
</g>
<!-- None&#45;&gt;1 -->
<g id="edge1" class="edge"><title>None&#45;&gt;1</title>
<path fill="none" stroke="#006400" stroke-width="0.4" stroke-dasharray="1,5" d="M357.916,-169.963C401.063,-183.946 471.442,-206.754 509.866,-219.206"/>
<polygon fill="#006400" stroke="#006400" stroke-width="0.4" points="358.949,-166.619 348.357,-166.866 356.79,-173.278 358.949,-166.619"/>
</g>
<!-- 5 -->
<g id="node27" class="node"><title>5</title>
<path fill="none" stroke="#006400" stroke-width="0.4" d="M192,-247C192,-247 162,-247 162,-247 156,-247 150,-241 150,-235 150,-235 150,-223 150,-223 150,-217 156,-211 162,-211 162,-211 192,-211 192,-211 198,-211 204,-217 204,-223 204,-223 204,-235 204,-235 204,-241 198,-247 192,-247"/>
<text text-anchor="middle" x="177" y="-225.3" font-family="Helvetica,sans-Serif" font-size="14.00">5</text>
</g>
<!-- None&#45;&gt;5 -->
<g id="edge5" class="edge"><title>None&#45;&gt;5</title>
<path fill="none" stroke="#006400" stroke-width="0.4" stroke-dasharray="1,5" d="M284.772,-175.611C259.843,-187.729 227.244,-203.576 204.453,-214.655"/>
<polygon fill="#006400" stroke="#006400" stroke-width="0.4" points="286.451,-178.686 293.915,-171.166 283.391,-172.391 286.451,-178.686"/>
</g>
<!-- 2 -->
<g id="node29" class="node"><title>2</title>
<path fill="none" stroke="#006400" stroke-width="0.4" d="M408,-247C408,-247 378,-247 378,-247 372,-247 366,-241 366,-235 366,-235 366,-223 366,-223 366,-217 372,-211 378,-211 378,-211 408,-211 408,-211 414,-211 420,-217 420,-223 420,-223 420,-235 420,-235 420,-241 414,-247 408,-247"/>
<text text-anchor="middle" x="393" y="-225.3" font-family="Helvetica,sans-Serif" font-size="14.00">2</text>
</g>
<!-- None&#45;&gt;2 -->
<g id="edge2" class="edge"><title>None&#45;&gt;2</title>
<path fill="none" stroke="#006400" stroke-width="0.4" stroke-dasharray="1,5" d="M346.223,-182.522C355.86,-191.892 366.632,-202.364 375.407,-210.896"/>
<polygon fill="#006400" stroke="#006400" stroke-width="0.4" points="348.408,-179.765 338.798,-175.303 343.528,-184.784 348.408,-179.765"/>
</g>
<!-- 3 -->
<g id="node31" class="node"><title>3</title>
<path fill="none" stroke="#006400" stroke-width="0.4" d="M264,-247C264,-247 234,-247 234,-247 228,-247 222,-241 222,-235 222,-235 222,-223 222,-223 222,-217 228,-211 234,-211 234,-211 264,-211 264,-211 270,-211 276,-217 276,-223 276,-223 276,-235 276,-235 276,-241 270,-247 264,-247"/>
<text text-anchor="middle" x="249" y="-225.3" font-family="Helvetica,sans-Serif" font-size="14.00">3</text>
</g>
<!-- None&#45;&gt;3 -->
<g id="edge3" class="edge"><title>None&#45;&gt;3</title>
<path fill="none" stroke="#006400" stroke-width="0.4" stroke-dasharray="1,5" d="M295.777,-182.522C286.14,-191.892 275.368,-202.364 266.593,-210.896"/>
<polygon fill="#006400" stroke="#006400" stroke-width="0.4" points="298.472,-184.784 303.202,-175.303 293.592,-179.765 298.472,-184.784"/>
</g>
<!-- 4,5&#45;&gt;2,4,5 -->
<g id="edge70" class="edge"><title>4,5&#45;&gt;2,4,5</title>
<path fill="none" stroke="#006400" stroke-width="0.4" stroke-dasharray="1,5" d="M132.015,-326.245C142.534,-335.684 154.34,-346.28 163.941,-354.896"/>
<polygon fill="#006400" stroke="#006400" stroke-width="0.4" points="134.061,-323.378 124.281,-319.303 129.386,-328.587 134.061,-323.378"/>
</g>
<!-- 4,5&#45;&gt;1,4,5 -->
<g id="edge69" class="edge"><title>4,5&#45;&gt;1,4,5</title>
<path fill="none" stroke="#006400" stroke-width="0.4" stroke-dasharray="1,5" d="M141.923,-318.758C243.665,-348.289 277.427,-325.147 375,-355 377.908,-355.89 380.88,-356.976 383.808,-358.165"/>
<polygon fill="#006400" stroke="#006400" stroke-width="0.4" points="142.776,-315.36 132.192,-315.835 140.763,-322.064 142.776,-315.36"/>
</g>
<!-- 4,5&#45;&gt;3,4,5 -->
<g id="edge71" class="edge"><title>4,5&#45;&gt;3,4,5</title>
<path fill="none" stroke="#006400" stroke-width="0.4" stroke-dasharray="1,5" d="M77.9847,-326.245C67.4664,-335.684 55.6599,-346.28 46.0591,-354.896"/>
<polygon fill="#006400" stroke="#006400" stroke-width="0.4" points="80.6143,-328.587 85.7191,-319.303 75.939,-323.378 80.6143,-328.587"/>
</g>
<!-- 5&#45;&gt;3,5 -->
<g id="edge51" class="edge"><title>5&#45;&gt;3,5</title>
<path fill="none" stroke="#006400" stroke-width="0.4" stroke-dasharray="1,5" d="M140.772,-247.611C115.843,-259.729 83.2438,-275.576 60.4534,-286.655"/>
<polygon fill="#006400" stroke="#006400" stroke-width="0.4" points="142.451,-250.686 149.915,-243.166 139.391,-244.391 142.451,-250.686"/>
</g>
<!-- 5&#45;&gt;1,5 -->
<g id="edge49" class="edge"><title>5&#45;&gt;1,5</title>
<path fill="none" stroke="#006400" stroke-width="0.4" stroke-dasharray="1,5" d="M213.816,-246.751C307.899,-274.683 339.108,-254.881 429,-283 431.903,-283.908 434.871,-285.006 437.796,-286.202"/>
<polygon fill="#006400" stroke="#006400" stroke-width="0.4" points="214.791,-243.389 204.204,-243.798 212.735,-250.08 214.791,-243.389"/>
</g>
<!-- 5&#45;&gt;2,5 -->
<g id="edge50" class="edge"><title>5&#45;&gt;2,5</title>
<path fill="none" stroke="#006400" stroke-width="0.4" stroke-dasharray="1,5" d="M177,-257.335C177,-265.946 177,-275.209 177,-282.896"/>
<polygon fill="#006400" stroke="#006400" stroke-width="0.4" points="180.5,-257.303 177,-247.303 173.5,-257.303 180.5,-257.303"/>
</g>
<!-- 5&#45;&gt;4,5 -->
<g id="edge52" class="edge"><title>5&#45;&gt;4,5</title>
<path fill="none" stroke="#006400" stroke-width="0.4" stroke-dasharray="1,5" d="M151.777,-254.522C142.14,-263.892 131.368,-274.364 122.593,-282.896"/>
<polygon fill="#006400" stroke="#006400" stroke-width="0.4" points="154.472,-256.784 159.202,-247.303 149.592,-251.765 154.472,-256.784"/>
</g>
<!-- 3,4&#45;&gt;1,3,4 -->
<g id="edge41" class="edge"><title>3,4&#45;&gt;1,3,4</title>
<path fill="none" stroke="#0000ff" stroke-width="2" d="M276.185,-315.857C279.115,-317.042 282.089,-318.121 285,-319 390.781,-350.941 424.358,-326.064 531,-355 536.618,-356.524 542.497,-358.588 548.018,-360.752"/>
</g>
<!-- 3,4&#45;&gt;2,3,4 -->
<g id="edge42" class="edge"><title>3,4&#45;&gt;2,3,4</title>
<path fill="none" stroke="#006400" stroke-width="0.4" stroke-dasharray="1,5" d="M251.343,-329.335C252.081,-337.946 252.875,-347.209 253.534,-354.896"/>
<polygon fill="#006400" stroke="#006400" stroke-width="0.4" points="254.824,-328.968 250.483,-319.303 247.85,-329.566 254.824,-328.968"/>
</g>
<!-- 3,4&#45;&gt;3,4,5 -->
<g id="edge43" class="edge"><title>3,4&#45;&gt;3,4,5</title>
<path fill="none" stroke="#006400" stroke-width="0.4" stroke-dasharray="1,5" d="M212.146,-318.906C146.383,-340.968 124.767,-333.264 63,-355 60.1312,-356.01 57.1851,-357.174 54.273,-358.411"/>
<polygon fill="#006400" stroke="#006400" stroke-width="0.4" points="213.422,-322.168 221.727,-315.589 211.132,-315.553 213.422,-322.168"/>
</g>
<!-- 2&#45;&gt;1,2 -->
<g id="edge10" class="edge"><title>2&#45;&gt;1,2</title>
<path fill="none" stroke="#0000ff" stroke-width="2" d="M420.334,-234.912C476.531,-245.148 603.258,-268.971 645,-283 650.11,-284.718 655.449,-286.967 660.401,-289.264"/>
</g>
<!-- 2&#45;&gt;2,3 -->
<g id="edge11" class="edge"><title>2&#45;&gt;2,3</title>
<path fill="none" stroke="#006400" stroke-width="0.4" stroke-dasharray="1,5" d="M367.777,-254.522C358.14,-263.892 347.368,-274.364 338.593,-282.896"/>
<polygon fill="#006400" stroke="#006400" stroke-width="0.4" points="370.472,-256.784 375.202,-247.303 365.592,-251.765 370.472,-256.784"/>
</g>
<!-- 2&#45;&gt;2,5 -->
<g id="edge13" class="edge"><title>2&#45;&gt;2,5</title>
<path fill="none" stroke="#006400" stroke-width="0.4" stroke-dasharray="1,5" d="M356.082,-246.948C292.93,-268.473 272.213,-261.849 213,-283 210.136,-284.023 207.193,-285.197 204.283,-286.439"/>
<polygon fill="#006400" stroke="#006400" stroke-width="0.4" points="357.444,-250.179 365.717,-243.561 355.122,-243.575 357.444,-250.179"/>
</g>
<!-- 2&#45;&gt;2,4 -->
<g id="edge12" class="edge"><title>2&#45;&gt;2,4</title>
<path fill="none" stroke="#006400" stroke-width="0.4" stroke-dasharray="1,5" d="M393,-257.335C393,-265.946 393,-275.209 393,-282.896"/>
<polygon fill="#006400" stroke="#006400" stroke-width="0.4" points="396.5,-257.303 393,-247.303 389.5,-257.303 396.5,-257.303"/>
</g>
<!-- 2,4&#45;&gt;1,2,4 -->
<g id="edge36" class="edge"><title>2,4&#45;&gt;1,2,4</title>
<path fill="none" stroke="#0000ff" stroke-width="2" d="M420.174,-315.896C423.105,-317.073 426.083,-318.14 429,-319 545.115,-353.254 581.963,-324.044 699,-355 704.628,-356.488 710.511,-358.537 716.032,-360.697"/>
</g>
<!-- 2,4&#45;&gt;2,4,5 -->
<g id="edge38" class="edge"><title>2,4&#45;&gt;2,4,5</title>
<path fill="none" stroke="#006400" stroke-width="0.4" stroke-dasharray="1,5" d="M356.046,-318.983C295.481,-339.987 275.673,-334.429 219,-355 216.141,-356.038 213.202,-357.221 210.294,-358.469"/>
<polygon fill="#006400" stroke="#006400" stroke-width="0.4" points="357.467,-322.192 365.706,-315.531 355.112,-315.6 357.467,-322.192"/>
</g>
<!-- 2,4&#45;&gt;2,3,4 -->
<g id="edge37" class="edge"><title>2,4&#45;&gt;2,3,4</title>
<path fill="none" stroke="#006400" stroke-width="0.4" stroke-dasharray="1,5" d="M356.814,-320.355C333.453,-332.205 303.551,-347.373 282.208,-358.199"/>
<polygon fill="#006400" stroke="#006400" stroke-width="0.4" points="358.401,-323.475 365.736,-315.83 355.234,-317.232 358.401,-323.475"/>
</g>
<!-- 3&#45;&gt;1,3 -->
<g id="edge17" class="edge"><title>3&#45;&gt;1,3</title>
<path fill="none" stroke="#0000ff" stroke-width="2" d="M276.204,-243.798C279.129,-244.994 282.097,-246.092 285,-247 377.886,-276.055 408.114,-253.945 501,-283 506.145,-284.61 511.497,-286.816 516.452,-289.107"/>
</g>
<!-- 3&#45;&gt;3,5 -->
<g id="edge20" class="edge"><title>3&#45;&gt;3,5</title>
<path fill="none" stroke="#006400" stroke-width="0.4" stroke-dasharray="1,5" d="M212.082,-246.948C148.93,-268.473 128.213,-261.849 69,-283 66.136,-284.023 63.1931,-285.197 60.2829,-286.439"/>
<polygon fill="#006400" stroke="#006400" stroke-width="0.4" points="213.444,-250.179 221.717,-243.561 211.122,-243.575 213.444,-250.179"/>
</g>
<!-- 3&#45;&gt;2,3 -->
<g id="edge18" class="edge"><title>3&#45;&gt;2,3</title>
<path fill="none" stroke="#006400" stroke-width="0.4" stroke-dasharray="1,5" d="M274.223,-254.522C283.86,-263.892 294.632,-274.364 303.407,-282.896"/>
<polygon fill="#006400" stroke="#006400" stroke-width="0.4" points="276.408,-251.765 266.798,-247.303 271.528,-256.784 276.408,-251.765"/>
</g>
<!-- 3&#45;&gt;3,4 -->
<g id="edge19" class="edge"><title>3&#45;&gt;3,4</title>
<path fill="none" stroke="#006400" stroke-width="0.4" stroke-dasharray="1,5" d="M249,-257.335C249,-265.946 249,-275.209 249,-282.896"/>
<polygon fill="#006400" stroke="#006400" stroke-width="0.4" points="252.5,-257.303 249,-247.303 245.5,-257.303 252.5,-257.303"/>
</g>
<!-- 1,4&#45;&gt;1,3,4 -->
<g id="edge34" class="edge"><title>1,4&#45;&gt;1,3,4</title>
<path fill="none" stroke="#0000ff" stroke-width="2" d="M600.101,-319.303C594.521,-330.154 587.357,-344.083 581.797,-354.896"/>
</g>
<!-- 1,4&#45;&gt;1,2,4 -->
<g id="edge33" class="edge"><title>1,4&#45;&gt;1,2,4</title>
<path fill="none" stroke="#0000ff" stroke-width="2" d="M636.031,-316.334C660.167,-329.134 695.137,-347.679 717.97,-359.787"/>
</g>
<!-- 1,4&#45;&gt;1,4,5 -->
<g id="edge35" class="edge"><title>1,4&#45;&gt;1,4,5</title>
<path fill="none" stroke="#006400" stroke-width="0.4" stroke-dasharray="1,5" d="M572.057,-319.032C516.593,-339.046 498.638,-335.579 447,-355 444.153,-356.071 441.222,-357.275 438.319,-358.537"/>
<polygon fill="#006400" stroke="#006400" stroke-width="0.4" points="573.522,-322.222 581.681,-315.463 571.088,-315.659 573.522,-322.222"/>
</g>
<!-- Legend -->
<g id="node33" class="node"><title>Legend</title>
<polygon fill="none" stroke="black" points="161,-79.5 161,-98.5 174,-98.5 174,-79.5 161,-79.5"/>
<text text-anchor="start" x="164" y="-85.9" font-family="Helvetica,sans-Serif" font-size="12.00">1</text>
<polygon fill="none" stroke="black" points="174,-79.5 174,-98.5 481,-98.5 481,-79.5 174,-79.5"/>
<text text-anchor="start" x="195" y="-85.9" font-family="Helvetica,sans-Serif" font-size="12.00">2015.Gall_Neoa_Clade equals 2014.Neognathae</text>
<polygon fill="none" stroke="black" points="161,-60.5 161,-79.5 174,-79.5 174,-60.5 161,-60.5"/>
<text text-anchor="start" x="164" y="-66.9" font-family="Helvetica,sans-Serif" font-size="12.00">2</text>
<polygon fill="none" stroke="black" points="174,-60.5 174,-79.5 481,-79.5 481,-60.5 174,-60.5"/>
<text text-anchor="start" x="196.5" y="-66.9" font-family="Helvetica,sans-Serif" font-size="12.00">2015.Galloanserae equals 2014.Struthioniformes</text>
<polygon fill="none" stroke="black" points="161,-41.5 161,-60.5 174,-60.5 174,-41.5 161,-41.5"/>
<text text-anchor="start" x="164" y="-47.9" font-family="Helvetica,sans-Serif" font-size="12.00">3</text>
<polygon fill="none" stroke="black" points="174,-41.5 174,-60.5 481,-60.5 481,-41.5 174,-41.5"/>
<text text-anchor="start" x="216" y="-47.9" font-family="Helvetica,sans-Serif" font-size="12.00">2015.Neoaves equals 2014.Tinamiformes</text>
<polygon fill="none" stroke="black" points="161,-22.5 161,-41.5 174,-41.5 174,-22.5 161,-22.5"/>
<text text-anchor="start" x="164" y="-28.9" font-family="Helvetica,sans-Serif" font-size="12.00">4</text>
<polygon fill="none" stroke="black" points="174,-22.5 174,-41.5 481,-41.5 481,-22.5 174,-22.5"/>
<text text-anchor="start" x="228" y="-28.9" font-family="Helvetica,sans-Serif" font-size="12.00">2015.Aves is_included_in 2014.Aves</text>
<polygon fill="none" stroke="black" points="161,-3.5 161,-22.5 174,-22.5 174,-3.5 161,-3.5"/>
<text text-anchor="start" x="164" y="-9.9" font-family="Helvetica,sans-Serif" font-size="12.00">5</text>
<polygon fill="none" stroke="black" points="174,-3.5 174,-22.5 481,-22.5 481,-3.5 174,-3.5"/>
<text text-anchor="start" x="177" y="-9.9" font-family="Helvetica,sans-Serif" font-size="12.00">2015.Palaeognathae is_included_in 2014.Paleognathae</text>
</g>
<!-- Legend&#45;&gt;None -->
</g>
</svg>
