<?xml version="1.0" encoding="UTF-8" standalone="no"?>
<!DOCTYPE svg PUBLIC "-//W3C//DTD SVG 1.1//EN"
 "http://www.w3.org/Graphics/SVG/1.1/DTD/svg11.dtd">
<!-- Generated by graphviz version 2.38.0 (20140413.2041)
 -->
<!-- Title: %3 Pages: 1 -->
<svg width="1196pt" height="183pt"
 viewBox="0.00 0.00 1195.91 183.00" xmlns="http://www.w3.org/2000/svg" xmlns:xlink="http://www.w3.org/1999/xlink">
<g id="graph0" class="graph" transform="scale(1 1) rotate(0) translate(4 179)">
<title>%3</title>
<polygon fill="white" stroke="none" points="-4,4 -4,-179 1191.91,-179 1191.91,4 -4,4"/>
<!-- FloraChina.OakGenus -->
<g id="node1" class="node"><title>FloraChina.OakGenus</title>
<polygon fill="#ccffcc" stroke="black" points="298,-105.5 146,-105.5 146,-69.5 298,-69.5 298,-105.5"/>
<text text-anchor="middle" x="222" y="-83.8" font-family="Helvetica,sans-Serif" font-size="14.00">FloraChina.OakGenus</text>
</g>
<!-- FloraChina.ChineseOakSpecies1 -->
<g id="node2" class="node"><title>FloraChina.ChineseOakSpecies1</title>
<polygon fill="#ccffcc" stroke="black" points="552,-131.5 335,-131.5 335,-95.5 552,-95.5 552,-131.5"/>
<text text-anchor="middle" x="443.5" y="-109.8" font-family="Helvetica,sans-Serif" font-size="14.00">FloraChina.ChineseOakSpecies1</text>
</g>
<!-- FloraChina.OakGenus&#45;&gt;FloraChina.ChineseOakSpecies1 -->
<g id="edge2" class="edge"><title>FloraChina.OakGenus&#45;&gt;FloraChina.ChineseOakSpecies1</title>
<path fill="none" stroke="#000000" d="M308.306,-97.6046C316.984,-98.6325 325.876,-99.6858 334.751,-100.737"/>
<polygon fill="#000000" stroke="#000000" points="308.575,-94.112 298.232,-96.4113 307.751,-101.063 308.575,-94.112"/>
</g>
<!-- FloraChina.ChineseOakSpecies2 -->
<g id="node3" class="node"><title>FloraChina.ChineseOakSpecies2</title>
<polygon fill="#ccffcc" stroke="black" points="552,-85.5 335,-85.5 335,-49.5 552,-49.5 552,-85.5"/>
<text text-anchor="middle" x="443.5" y="-63.8" font-family="Helvetica,sans-Serif" font-size="14.00">FloraChina.ChineseOakSpecies2</text>
</g>
<!-- FloraChina.OakGenus&#45;&gt;FloraChina.ChineseOakSpecies2 -->
<g id="edge1" class="edge"><title>FloraChina.OakGenus&#45;&gt;FloraChina.ChineseOakSpecies2</title>
<path fill="none" stroke="#000000" d="M308.306,-79.7272C316.984,-78.9365 325.876,-78.1263 334.751,-77.3176"/>
<polygon fill="#000000" stroke="#000000" points="307.873,-76.2521 298.232,-80.6451 308.509,-83.2232 307.873,-76.2521"/>
</g>
<!-- FloraMexico.MexicanOakSpecies1 -->
<g id="node5" class="node"><title>FloraMexico.MexicanOakSpecies1</title>
<polygon fill="#ffffcc" stroke="black" points="924.579,-106.044 924.579,-120.956 830.92,-131.5 698.466,-131.5 604.807,-120.956 604.807,-106.044 698.466,-95.5 830.92,-95.5 924.579,-106.044"/>
<text text-anchor="middle" x="764.693" y="-109.8" font-family="Helvetica,sans-Serif" font-size="14.00">FloraMexico.MexicanOakSpecies1</text>
</g>
<!-- FloraChina.ChineseOakSpecies1&#45;&gt;FloraMexico.MexicanOakSpecies1 -->
<g id="edge5" class="edge"><title>FloraChina.ChineseOakSpecies1&#45;&gt;FloraMexico.MexicanOakSpecies1</title>
<path fill="none" stroke="#aa00ff" stroke-dasharray="5,2" d="M552.119,-113.5C569.132,-113.5 587.029,-113.5 604.913,-113.5"/>
<text text-anchor="middle" x="578.5" y="-117.3" font-family="Times,serif" font-size="14.00">&lt;</text>
</g>
<!-- FloraMexico.MexicanOakSpecies2 -->
<g id="node6" class="node"><title>FloraMexico.MexicanOakSpecies2</title>
<polygon fill="#ffffcc" stroke="black" points="924.579,-63.0442 924.579,-77.9558 830.92,-88.5 698.466,-88.5 604.807,-77.9558 604.807,-63.0442 698.466,-52.5 830.92,-52.5 924.579,-63.0442"/>
<text text-anchor="middle" x="764.693" y="-66.8" font-family="Helvetica,sans-Serif" font-size="14.00">FloraMexico.MexicanOakSpecies2</text>
</g>
<!-- FloraChina.ChineseOakSpecies2&#45;&gt;FloraMexico.MexicanOakSpecies2 -->
<g id="edge6" class="edge"><title>FloraChina.ChineseOakSpecies2&#45;&gt;FloraMexico.MexicanOakSpecies2</title>
<path fill="none" stroke="#aa00ff" stroke-dasharray="5,2" d="M552.119,-68.5115C569.132,-68.6714 587.029,-68.8396 604.913,-69.0077"/>
<text text-anchor="middle" x="578.5" y="-73.3" font-family="Times,serif" font-size="14.00">==</text>
</g>
<!-- FloraMexico.OakGenus -->
<g id="node4" class="node"><title>FloraMexico.OakGenus</title>
<polygon fill="#ffffcc" stroke="black" points="1187.67,-84.0442 1187.67,-98.9558 1121.46,-109.5 1027.83,-109.5 961.623,-98.9558 961.623,-84.0442 1027.83,-73.5 1121.46,-73.5 1187.67,-84.0442"/>
<text text-anchor="middle" x="1074.65" y="-87.8" font-family="Helvetica,sans-Serif" font-size="14.00">FloraMexico.OakGenus</text>
</g>
<!-- FloraMexico.MexicanOakSpecies1&#45;&gt;FloraMexico.OakGenus -->
<g id="edge4" class="edge"><title>FloraMexico.MexicanOakSpecies1&#45;&gt;FloraMexico.OakGenus</title>
<path fill="none" stroke="#000000" d="M903.457,-103.658C920.168,-102.464 937.135,-101.252 953.562,-100.079"/>
<polygon fill="#000000" stroke="#000000" points="953.987,-103.557 963.712,-99.3537 953.488,-96.5753 953.987,-103.557"/>
</g>
<!-- FloraMexico.MexicanOakSpecies2&#45;&gt;FloraMexico.OakGenus -->
<g id="edge3" class="edge"><title>FloraMexico.MexicanOakSpecies2&#45;&gt;FloraMexico.OakGenus</title>
<path fill="none" stroke="#000000" d="M906.153,-80.0782C921.362,-81.1153 936.748,-82.1645 951.712,-83.1849"/>
<polygon fill="#000000" stroke="#000000" points="951.781,-86.6977 961.996,-83.8863 952.258,-79.714 951.781,-86.6977"/>
</g>
<!-- Legend -->
<g id="node7" class="node"><title>Legend</title>
<polygon fill="white" stroke="black" points="128,-175 0,-175 0,-0 128,-0 128,-175"/>
<polygon fill="none" stroke="black" points="0,-149.5 0,-174.5 128,-174.5 128,-149.5 0,-149.5"/>
<text text-anchor="start" x="41" y="-158.3" font-family="Arial Black" font-size="14.00"> Nodes</text>
<polygon fill="#ccffcc" stroke="none" points="0,-124.5 0,-149.5 110,-149.5 110,-124.5 0,-124.5"/>
<polygon fill="none" stroke="black" points="0,-124.5 0,-149.5 110,-149.5 110,-124.5 0,-124.5"/>
<text text-anchor="start" x="21.5" y="-133.3" font-family="Helvetica,sans-Serif" font-size="14.00">FloraChina</text>
<polygon fill="none" stroke="black" points="110,-124.5 110,-149.5 128,-149.5 128,-124.5 110,-124.5"/>
<text text-anchor="start" x="115" y="-133.3" font-family="Helvetica,sans-Serif" font-size="14.00">3</text>
<polygon fill="#ffffcc" stroke="none" points="0,-99.5 0,-124.5 110,-124.5 110,-99.5 0,-99.5"/>
<polygon fill="none" stroke="black" points="0,-99.5 0,-124.5 110,-124.5 110,-99.5 0,-99.5"/>
<text text-anchor="start" x="17.5" y="-108.3" font-family="Helvetica,sans-Serif" font-size="14.00">FloraMexico</text>
<polygon fill="none" stroke="black" points="110,-99.5 110,-124.5 128,-124.5 128,-99.5 110,-99.5"/>
<text text-anchor="start" x="115" y="-108.3" font-family="Helvetica,sans-Serif" font-size="14.00">3</text>
<polygon fill="none" stroke="black" points="0,-74.5 0,-99.5 128,-99.5 128,-74.5 0,-74.5"/>
<text text-anchor="start" x="39.5" y="-83.3" font-family="Arial Black" font-size="14.00"> Edges </text>
<polygon fill="none" stroke="black" points="0,-49.5 0,-74.5 110,-74.5 110,-49.5 0,-49.5"/>
<text text-anchor="start" x="9.5" y="-58.3" font-family="Helvetica,sans-Serif" font-size="14.00" fill="#000000">isa_FloraChina</text>
<polygon fill="none" stroke="black" points="110,-49.5 110,-74.5 128,-74.5 128,-49.5 110,-49.5"/>
<text text-anchor="start" x="115" y="-58.3" font-family="Helvetica,sans-Serif" font-size="14.00">2</text>
<polygon fill="none" stroke="black" points="0,-24.5 0,-49.5 110,-49.5 110,-24.5 0,-24.5"/>
<text text-anchor="start" x="5" y="-33.3" font-family="Helvetica,sans-Serif" font-size="14.00" fill="#000000">isa_FloraMexico</text>
<polygon fill="none" stroke="black" points="110,-24.5 110,-49.5 128,-49.5 128,-24.5 110,-24.5"/>
<text text-anchor="start" x="115" y="-33.3" font-family="Helvetica,sans-Serif" font-size="14.00">2</text>
<polygon fill="none" stroke="black" points="0,0.5 0,-24.5 110,-24.5 110,0.5 0,0.5"/>
<text text-anchor="start" x="44" y="-8.3" font-family="Helvetica,sans-Serif" font-size="14.00" fill="#aa00ff">Art.</text>
<polygon fill="none" stroke="black" points="110,0.5 110,-24.5 128,-24.5 128,0.5 110,0.5"/>
<text text-anchor="start" x="115" y="-8.3" font-family="Helvetica,sans-Serif" font-size="14.00">2</text>
</g>
</g>
</svg>
