<?xml version="1.0" encoding="UTF-8" standalone="no"?>
<!DOCTYPE svg PUBLIC "-//W3C//DTD SVG 1.1//EN"
 "http://www.w3.org/Graphics/SVG/1.1/DTD/svg11.dtd">
<!-- Generated by graphviz version 2.38.0 (20140413.2041)
 -->
<!-- Title: %3 Pages: 1 -->
<svg width="1468pt" height="237pt"
 viewBox="0.00 0.00 1467.99 236.50" xmlns="http://www.w3.org/2000/svg" xmlns:xlink="http://www.w3.org/1999/xlink">
<g id="graph0" class="graph" transform="scale(1 1) rotate(0) translate(4 232.5)">
<title>%3</title>
<polygon fill="white" stroke="none" points="-4,4 -4,-232.5 1463.99,-232.5 1463.99,4 -4,4"/>
<!-- 1995.Amauris_damocles -->
<g id="node1" class="node"><title>1995.Amauris_damocles</title>
<polygon fill="#ffffcc" stroke="black" points="1459.98,-162.044 1459.98,-176.956 1391.17,-187.5 1293.85,-187.5 1225.04,-176.956 1225.04,-162.044 1293.85,-151.5 1391.17,-151.5 1459.98,-162.044"/>
<text text-anchor="middle" x="1342.51" y="-165.8" font-family="Helvetica,sans-Serif" font-size="14.00">1995.Amauris_damocles</text>
</g>
<!-- 1995.Amauris_damocles_subsp_makuyensis -->
<g id="node2" class="node"><title>1995.Amauris_damocles_subsp_makuyensis</title>
<polygon fill="#ffffcc" stroke="black" points="1188.04,-203.044 1188.04,-217.956 1068.52,-228.5 899.503,-228.5 779.987,-217.956 779.987,-203.044 899.503,-192.5 1068.52,-192.5 1188.04,-203.044"/>
<text text-anchor="middle" x="984.013" y="-206.8" font-family="Helvetica,sans-Serif" font-size="14.00">1995.Amauris_damocles_subsp_makuyensis</text>
</g>
<!-- 1995.Amauris_damocles_subsp_makuyensis&#45;&gt;1995.Amauris_damocles -->
<g id="edge1" class="edge"><title>1995.Amauris_damocles_subsp_makuyensis&#45;&gt;1995.Amauris_damocles</title>
<path fill="none" stroke="#000000" d="M1115.82,-196.621C1139.84,-193.988 1164.7,-191.208 1188.03,-188.5 1204.97,-186.533 1222.96,-184.372 1240.43,-182.235"/>
<polygon fill="#000000" stroke="#000000" points="1241.14,-185.674 1250.64,-180.981 1240.29,-178.726 1241.14,-185.674"/>
</g>
<!-- 1995.Amauris_damocles_subsp_damocles -->
<g id="node3" class="node"><title>1995.Amauris_damocles_subsp_damocles</title>
<polygon fill="#ffffcc" stroke="black" points="1178.34,-162.044 1178.34,-176.956 1064.51,-187.5 903.52,-187.5 789.685,-176.956 789.685,-162.044 903.52,-151.5 1064.51,-151.5 1178.34,-162.044"/>
<text text-anchor="middle" x="984.013" y="-165.8" font-family="Helvetica,sans-Serif" font-size="14.00">1995.Amauris_damocles_subsp_damocles</text>
</g>
<!-- 1995.Amauris_damocles_subsp_damocles&#45;&gt;1995.Amauris_damocles -->
<g id="edge3" class="edge"><title>1995.Amauris_damocles_subsp_damocles&#45;&gt;1995.Amauris_damocles</title>
<path fill="none" stroke="#000000" d="M1178.39,-169.5C1190.67,-169.5 1202.85,-169.5 1214.7,-169.5"/>
<polygon fill="#000000" stroke="#000000" points="1215.03,-173 1225.03,-169.5 1215.03,-166 1215.03,-173"/>
</g>
<!-- 1995.Amauris_damocles_subsp_hyalites -->
<g id="node4" class="node"><title>1995.Amauris_damocles_subsp_hyalites</title>
<polygon fill="#ffffcc" stroke="black" points="1169.05,-121.044 1169.05,-135.956 1060.66,-146.5 907.368,-146.5 798.976,-135.956 798.976,-121.044 907.368,-110.5 1060.66,-110.5 1169.05,-121.044"/>
<text text-anchor="middle" x="984.013" y="-124.8" font-family="Helvetica,sans-Serif" font-size="14.00">1995.Amauris_damocles_subsp_hyalites</text>
</g>
<!-- 1995.Amauris_damocles_subsp_hyalites&#45;&gt;1995.Amauris_damocles -->
<g id="edge2" class="edge"><title>1995.Amauris_damocles_subsp_hyalites&#45;&gt;1995.Amauris_damocles</title>
<path fill="none" stroke="#000000" d="M1109.86,-141.727C1135.71,-144.55 1162.76,-147.567 1188.03,-150.5 1204.97,-152.467 1222.96,-154.628 1240.43,-156.765"/>
<polygon fill="#000000" stroke="#000000" points="1240.29,-160.274 1250.64,-158.019 1241.14,-153.326 1240.29,-160.274"/>
</g>
<!-- 1997.Amauris_hyalites -->
<g id="node5" class="node"><title>1997.Amauris_hyalites</title>
<polygon fill="#ccffcc" stroke="black" points="255,-105.5 101,-105.5 101,-69.5 255,-69.5 255,-105.5"/>
<text text-anchor="middle" x="178" y="-83.8" font-family="Helvetica,sans-Serif" font-size="14.00">1997.Amauris_hyalites</text>
</g>
<!-- 1997.Amauris_hyalites_subsp_hyalites -->
<g id="node6" class="node"><title>1997.Amauris_hyalites_subsp_hyalites</title>
<polygon fill="#ccffcc" stroke="black" points="722,-146.5 471,-146.5 471,-110.5 722,-110.5 722,-146.5"/>
<text text-anchor="middle" x="596.5" y="-124.8" font-family="Helvetica,sans-Serif" font-size="14.00">1997.Amauris_hyalites_subsp_hyalites</text>
</g>
<!-- 1997.Amauris_hyalites&#45;&gt;1997.Amauris_hyalites_subsp_hyalites -->
<g id="edge5" class="edge"><title>1997.Amauris_hyalites&#45;&gt;1997.Amauris_hyalites_subsp_hyalites</title>
<path fill="none" stroke="#000000" d="M265.266,-100.569C267.872,-100.893 270.455,-101.204 273,-101.5 338.158,-109.072 410.96,-115.353 470.882,-119.946"/>
<polygon fill="#000000" stroke="#000000" points="265.495,-97.0693 255.129,-99.2622 264.6,-104.012 265.495,-97.0693"/>
</g>
<!-- 1997.Amauris_hyalites_subsp_makuyensis -->
<g id="node7" class="node"><title>1997.Amauris_hyalites_subsp_makuyensis</title>
<polygon fill="#ccffcc" stroke="black" points="735,-105.5 458,-105.5 458,-69.5 735,-69.5 735,-105.5"/>
<text text-anchor="middle" x="596.5" y="-83.8" font-family="Helvetica,sans-Serif" font-size="14.00">1997.Amauris_hyalites_subsp_makuyensis</text>
</g>
<!-- 1997.Amauris_hyalites&#45;&gt;1997.Amauris_hyalites_subsp_makuyensis -->
<g id="edge4" class="edge"><title>1997.Amauris_hyalites&#45;&gt;1997.Amauris_hyalites_subsp_makuyensis</title>
<path fill="none" stroke="#000000" d="M265.54,-87.5C321.029,-87.5 394.28,-87.5 457.666,-87.5"/>
<polygon fill="#000000" stroke="#000000" points="265.393,-84.0001 255.393,-87.5 265.392,-91.0001 265.393,-84.0001"/>
</g>
<!-- 1997.Amauris_hyalites_subsp_hyalites&#45;&gt;1995.Amauris_damocles_subsp_hyalites -->
<g id="edge6" class="edge"><title>1997.Amauris_hyalites_subsp_hyalites&#45;&gt;1995.Amauris_damocles_subsp_hyalites</title>
<path fill="none" stroke="#aa00ff" stroke-dasharray="5,2" d="M722.133,-128.5C746.661,-128.5 772.879,-128.5 798.886,-128.5"/>
<text text-anchor="middle" x="757.5" y="-132.3" font-family="Times,serif" font-size="14.00">&lt;</text>
</g>
<!-- 1997.Amauris_damocles -->
<g id="node8" class="node"><title>1997.Amauris_damocles</title>
<polygon fill="#ccffcc" stroke="black" points="440,-190.5 273,-190.5 273,-154.5 440,-154.5 440,-190.5"/>
<text text-anchor="middle" x="356.5" y="-168.8" font-family="Helvetica,sans-Serif" font-size="14.00">1997.Amauris_damocles</text>
</g>
<!-- Legend -->
<g id="node9" class="node"><title>Legend</title>
<polygon fill="white" stroke="black" points="83,-175 0,-175 0,-0 83,-0 83,-175"/>
<polygon fill="none" stroke="black" points="0.5,-149.5 0.5,-174.5 83.5,-174.5 83.5,-149.5 0.5,-149.5"/>
<text text-anchor="start" x="19" y="-158.3" font-family="Arial Black" font-size="14.00"> Nodes</text>
<polygon fill="#ffffcc" stroke="none" points="0.5,-124.5 0.5,-149.5 65.5,-149.5 65.5,-124.5 0.5,-124.5"/>
<polygon fill="none" stroke="black" points="0.5,-124.5 0.5,-149.5 65.5,-149.5 65.5,-124.5 0.5,-124.5"/>
<text text-anchor="start" x="17.5" y="-133.3" font-family="Helvetica,sans-Serif" font-size="14.00">1995</text>
<polygon fill="none" stroke="black" points="65.5,-124.5 65.5,-149.5 83.5,-149.5 83.5,-124.5 65.5,-124.5"/>
<text text-anchor="start" x="70.5" y="-133.3" font-family="Helvetica,sans-Serif" font-size="14.00">4</text>
<polygon fill="#ccffcc" stroke="none" points="0.5,-99.5 0.5,-124.5 65.5,-124.5 65.5,-99.5 0.5,-99.5"/>
<polygon fill="none" stroke="black" points="0.5,-99.5 0.5,-124.5 65.5,-124.5 65.5,-99.5 0.5,-99.5"/>
<text text-anchor="start" x="17.5" y="-108.3" font-family="Helvetica,sans-Serif" font-size="14.00">1997</text>
<polygon fill="none" stroke="black" points="65.5,-99.5 65.5,-124.5 83.5,-124.5 83.5,-99.5 65.5,-99.5"/>
<text text-anchor="start" x="70.5" y="-108.3" font-family="Helvetica,sans-Serif" font-size="14.00">4</text>
<polygon fill="none" stroke="black" points="0.5,-74.5 0.5,-99.5 83.5,-99.5 83.5,-74.5 0.5,-74.5"/>
<text text-anchor="start" x="17.5" y="-83.3" font-family="Arial Black" font-size="14.00"> Edges </text>
<polygon fill="none" stroke="black" points="0.5,-49.5 0.5,-74.5 65.5,-74.5 65.5,-49.5 0.5,-49.5"/>
<text text-anchor="start" x="5.5" y="-58.3" font-family="Helvetica,sans-Serif" font-size="14.00" fill="#000000">isa_1995</text>
<polygon fill="none" stroke="black" points="65.5,-49.5 65.5,-74.5 83.5,-74.5 83.5,-49.5 65.5,-49.5"/>
<text text-anchor="start" x="70.5" y="-58.3" font-family="Helvetica,sans-Serif" font-size="14.00">3</text>
<polygon fill="none" stroke="black" points="0.5,-24.5 0.5,-49.5 65.5,-49.5 65.5,-24.5 0.5,-24.5"/>
<text text-anchor="start" x="5.5" y="-33.3" font-family="Helvetica,sans-Serif" font-size="14.00" fill="#000000">isa_1997</text>
<polygon fill="none" stroke="black" points="65.5,-24.5 65.5,-49.5 83.5,-49.5 83.5,-24.5 65.5,-24.5"/>
<text text-anchor="start" x="70.5" y="-33.3" font-family="Helvetica,sans-Serif" font-size="14.00">2</text>
<polygon fill="none" stroke="black" points="0.5,0.5 0.5,-24.5 65.5,-24.5 65.5,0.5 0.5,0.5"/>
<text text-anchor="start" x="22" y="-8.3" font-family="Helvetica,sans-Serif" font-size="14.00" fill="#aa00ff">Art.</text>
<polygon fill="none" stroke="black" points="65.5,0.5 65.5,-24.5 83.5,-24.5 83.5,0.5 65.5,0.5"/>
<text text-anchor="start" x="70.5" y="-8.3" font-family="Helvetica,sans-Serif" font-size="14.00">1</text>
</g>
</g>
</svg>
