<?xml version="1.0" encoding="UTF-8" standalone="no"?>
<!DOCTYPE svg PUBLIC "-//W3C//DTD SVG 1.1//EN"
 "http://www.w3.org/Graphics/SVG/1.1/DTD/svg11.dtd">
<!-- Generated by graphviz version 2.38.0 (20140413.2041)
 -->
<!-- Title: %3 Pages: 1 -->
<svg width="1310pt" height="225pt"
 viewBox="0.00 0.00 1309.99 224.50" xmlns="http://www.w3.org/2000/svg" xmlns:xlink="http://www.w3.org/1999/xlink">
<g id="graph0" class="graph" transform="scale(1 1) rotate(0) translate(4 220.5)">
<title>%3</title>
<polygon fill="white" stroke="none" points="-4,4 -4,-220.5 1305.99,-220.5 1305.99,4 -4,4"/>
<!-- 1995.Amauris_damocles -->
<g id="node1" class="node"><title>1995.Amauris_damocles</title>
<polygon fill="#ffffcc" stroke="black" points="1301.98,-150.044 1301.98,-164.956 1233.17,-175.5 1135.85,-175.5 1067.04,-164.956 1067.04,-150.044 1135.85,-139.5 1233.17,-139.5 1301.98,-150.044"/>
<text text-anchor="middle" x="1184.51" y="-153.8" font-family="Helvetica,sans-Serif" font-size="14.00">1995.Amauris_damocles</text>
</g>
<!-- 1995.Amauris_damocles_subsp_makuyensis -->
<g id="node2" class="node"><title>1995.Amauris_damocles_subsp_makuyensis</title>
<polygon fill="#ffffcc" stroke="black" points="1030.04,-191.044 1030.04,-205.956 910.523,-216.5 741.503,-216.5 621.987,-205.956 621.987,-191.044 741.503,-180.5 910.523,-180.5 1030.04,-191.044"/>
<text text-anchor="middle" x="826.013" y="-194.8" font-family="Helvetica,sans-Serif" font-size="14.00">1995.Amauris_damocles_subsp_makuyensis</text>
</g>
<!-- 1995.Amauris_damocles_subsp_makuyensis&#45;&gt;1995.Amauris_damocles -->
<g id="edge1" class="edge"><title>1995.Amauris_damocles_subsp_makuyensis&#45;&gt;1995.Amauris_damocles</title>
<path fill="none" stroke="#000000" d="M957.822,-184.621C981.845,-181.988 1006.7,-179.208 1030.03,-176.5 1046.97,-174.533 1064.96,-172.372 1082.43,-170.235"/>
<polygon fill="#000000" stroke="#000000" points="1083.14,-173.674 1092.64,-168.981 1082.29,-166.726 1083.14,-173.674"/>
</g>
<!-- 1995.Amauris_damocles_subsp_damocles -->
<g id="node3" class="node"><title>1995.Amauris_damocles_subsp_damocles</title>
<polygon fill="#ffffcc" stroke="black" points="1020.34,-150.044 1020.34,-164.956 906.506,-175.5 745.52,-175.5 631.685,-164.956 631.685,-150.044 745.52,-139.5 906.506,-139.5 1020.34,-150.044"/>
<text text-anchor="middle" x="826.013" y="-153.8" font-family="Helvetica,sans-Serif" font-size="14.00">1995.Amauris_damocles_subsp_damocles</text>
</g>
<!-- 1995.Amauris_damocles_subsp_damocles&#45;&gt;1995.Amauris_damocles -->
<g id="edge3" class="edge"><title>1995.Amauris_damocles_subsp_damocles&#45;&gt;1995.Amauris_damocles</title>
<path fill="none" stroke="#000000" d="M1020.39,-157.5C1032.67,-157.5 1044.85,-157.5 1056.7,-157.5"/>
<polygon fill="#000000" stroke="#000000" points="1057.03,-161 1067.03,-157.5 1057.03,-154 1057.03,-161"/>
</g>
<!-- 1995.Amauris_damocles_subsp_hyalites -->
<g id="node4" class="node"><title>1995.Amauris_damocles_subsp_hyalites</title>
<polygon fill="#ffffcc" stroke="black" points="1011.05,-107.044 1011.05,-121.956 902.658,-132.5 749.368,-132.5 640.976,-121.956 640.976,-107.044 749.368,-96.5 902.658,-96.5 1011.05,-107.044"/>
<text text-anchor="middle" x="826.013" y="-110.8" font-family="Helvetica,sans-Serif" font-size="14.00">1995.Amauris_damocles_subsp_hyalites</text>
</g>
<!-- 1995.Amauris_damocles_subsp_hyalites&#45;&gt;1995.Amauris_damocles -->
<g id="edge2" class="edge"><title>1995.Amauris_damocles_subsp_hyalites&#45;&gt;1995.Amauris_damocles</title>
<path fill="none" stroke="#000000" d="M953.24,-127.624C978.677,-130.425 1005.22,-133.459 1030.03,-136.5 1048.58,-138.774 1068.37,-141.362 1087.37,-143.925"/>
<polygon fill="#000000" stroke="#000000" points="1087.14,-147.425 1097.52,-145.302 1088.08,-140.489 1087.14,-147.425"/>
</g>
<!-- 1997.Amauris_hyalites -->
<g id="node5" class="node"><title>1997.Amauris_hyalites</title>
<polygon fill="#ccffcc" stroke="black" points="255,-105.5 101,-105.5 101,-69.5 255,-69.5 255,-105.5"/>
<text text-anchor="middle" x="178" y="-83.8" font-family="Helvetica,sans-Serif" font-size="14.00">1997.Amauris_hyalites</text>
</g>
<!-- 1997.Amauris_hyalites_subsp_hyalites -->
<g id="node6" class="node"><title>1997.Amauris_hyalites_subsp_hyalites</title>
<polygon fill="#ccffcc" stroke="black" points="556,-127.5 305,-127.5 305,-91.5 556,-91.5 556,-127.5"/>
<text text-anchor="middle" x="430.5" y="-105.8" font-family="Helvetica,sans-Serif" font-size="14.00">1997.Amauris_hyalites_subsp_hyalites</text>
</g>
<!-- 1997.Amauris_hyalites&#45;&gt;1997.Amauris_hyalites_subsp_hyalites -->
<g id="edge5" class="edge"><title>1997.Amauris_hyalites&#45;&gt;1997.Amauris_hyalites_subsp_hyalites</title>
<path fill="none" stroke="#000000" d="M265.259,-95.0756C278.002,-96.1948 291.343,-97.3665 304.678,-98.5376"/>
<polygon fill="#000000" stroke="#000000" points="265.446,-91.5787 255.179,-94.1903 264.834,-98.5519 265.446,-91.5787"/>
</g>
<!-- 1997.Amauris_hyalites_subsp_makuyensis -->
<g id="node7" class="node"><title>1997.Amauris_hyalites_subsp_makuyensis</title>
<polygon fill="#ccffcc" stroke="black" points="569,-86.5 292,-86.5 292,-50.5 569,-50.5 569,-86.5"/>
<text text-anchor="middle" x="430.5" y="-64.8" font-family="Helvetica,sans-Serif" font-size="14.00">1997.Amauris_hyalites_subsp_makuyensis</text>
</g>
<!-- 1997.Amauris_hyalites&#45;&gt;1997.Amauris_hyalites_subsp_makuyensis -->
<g id="edge4" class="edge"><title>1997.Amauris_hyalites&#45;&gt;1997.Amauris_hyalites_subsp_makuyensis</title>
<path fill="none" stroke="#000000" d="M265.165,-80.9645C273.789,-80.3104 282.687,-79.6355 291.673,-78.9539"/>
<polygon fill="#000000" stroke="#000000" points="264.885,-77.4756 255.179,-81.722 265.415,-84.4556 264.885,-77.4756"/>
</g>
<!-- 1997.Amauris_hyalites_subsp_hyalites&#45;&gt;1995.Amauris_damocles_subsp_hyalites -->
<g id="edge7" class="edge"><title>1997.Amauris_hyalites_subsp_hyalites&#45;&gt;1995.Amauris_damocles_subsp_hyalites</title>
<path fill="none" stroke="#aa00ff" stroke-dasharray="5,2" d="M556.01,-111.082C583.03,-111.425 612.162,-111.795 640.93,-112.161"/>
<text text-anchor="middle" x="595.5" y="-115.3" font-family="Times,serif" font-size="14.00">&lt;</text>
</g>
<!-- 1997.Amauris_damocles -->
<g id="node8" class="node"><title>1997.Amauris_damocles</title>
<polygon fill="#ccffcc" stroke="black" points="514,-178.5 347,-178.5 347,-142.5 514,-142.5 514,-178.5"/>
<text text-anchor="middle" x="430.5" y="-156.8" font-family="Helvetica,sans-Serif" font-size="14.00">1997.Amauris_damocles</text>
</g>
<!-- 1997.Amauris_damocles&#45;&gt;1995.Amauris_damocles_subsp_damocles -->
<g id="edge6" class="edge"><title>1997.Amauris_damocles&#45;&gt;1995.Amauris_damocles_subsp_damocles</title>
<path fill="none" stroke="#aa00ff" stroke-dasharray="5,2" d="M514.473,-159.867C548.861,-159.605 590.313,-159.289 631.571,-158.975"/>
<text text-anchor="middle" x="595.5" y="-162.3" font-family="Times,serif" font-size="14.00">==</text>
</g>
<!-- Legend -->
<g id="node9" class="node"><title>Legend</title>
<polygon fill="white" stroke="black" points="83,-175 0,-175 0,-0 83,-0 83,-175"/>
<polygon fill="none" stroke="black" points="0.5,-149.5 0.5,-174.5 83.5,-174.5 83.5,-149.5 0.5,-149.5"/>
<text text-anchor="start" x="19" y="-158.3" font-family="Arial Black" font-size="14.00"> Nodes</text>
<polygon fill="#ffffcc" stroke="none" points="0.5,-124.5 0.5,-149.5 65.5,-149.5 65.5,-124.5 0.5,-124.5"/>
<polygon fill="none" stroke="black" points="0.5,-124.5 0.5,-149.5 65.5,-149.5 65.5,-124.5 0.5,-124.5"/>
<text text-anchor="start" x="17.5" y="-133.3" font-family="Helvetica,sans-Serif" font-size="14.00">1995</text>
<polygon fill="none" stroke="black" points="65.5,-124.5 65.5,-149.5 83.5,-149.5 83.5,-124.5 65.5,-124.5"/>
<text text-anchor="start" x="70.5" y="-133.3" font-family="Helvetica,sans-Serif" font-size="14.00">4</text>
<polygon fill="#ccffcc" stroke="none" points="0.5,-99.5 0.5,-124.5 65.5,-124.5 65.5,-99.5 0.5,-99.5"/>
<polygon fill="none" stroke="black" points="0.5,-99.5 0.5,-124.5 65.5,-124.5 65.5,-99.5 0.5,-99.5"/>
<text text-anchor="start" x="17.5" y="-108.3" font-family="Helvetica,sans-Serif" font-size="14.00">1997</text>
<polygon fill="none" stroke="black" points="65.5,-99.5 65.5,-124.5 83.5,-124.5 83.5,-99.5 65.5,-99.5"/>
<text text-anchor="start" x="70.5" y="-108.3" font-family="Helvetica,sans-Serif" font-size="14.00">4</text>
<polygon fill="none" stroke="black" points="0.5,-74.5 0.5,-99.5 83.5,-99.5 83.5,-74.5 0.5,-74.5"/>
<text text-anchor="start" x="17.5" y="-83.3" font-family="Arial Black" font-size="14.00"> Edges </text>
<polygon fill="none" stroke="black" points="0.5,-49.5 0.5,-74.5 65.5,-74.5 65.5,-49.5 0.5,-49.5"/>
<text text-anchor="start" x="5.5" y="-58.3" font-family="Helvetica,sans-Serif" font-size="14.00" fill="#000000">isa_1995</text>
<polygon fill="none" stroke="black" points="65.5,-49.5 65.5,-74.5 83.5,-74.5 83.5,-49.5 65.5,-49.5"/>
<text text-anchor="start" x="70.5" y="-58.3" font-family="Helvetica,sans-Serif" font-size="14.00">3</text>
<polygon fill="none" stroke="black" points="0.5,-24.5 0.5,-49.5 65.5,-49.5 65.5,-24.5 0.5,-24.5"/>
<text text-anchor="start" x="5.5" y="-33.3" font-family="Helvetica,sans-Serif" font-size="14.00" fill="#000000">isa_1997</text>
<polygon fill="none" stroke="black" points="65.5,-24.5 65.5,-49.5 83.5,-49.5 83.5,-24.5 65.5,-24.5"/>
<text text-anchor="start" x="70.5" y="-33.3" font-family="Helvetica,sans-Serif" font-size="14.00">2</text>
<polygon fill="none" stroke="black" points="0.5,0.5 0.5,-24.5 65.5,-24.5 65.5,0.5 0.5,0.5"/>
<text text-anchor="start" x="22" y="-8.3" font-family="Helvetica,sans-Serif" font-size="14.00" fill="#aa00ff">Art.</text>
<polygon fill="none" stroke="black" points="65.5,0.5 65.5,-24.5 83.5,-24.5 83.5,0.5 65.5,0.5"/>
<text text-anchor="start" x="70.5" y="-8.3" font-family="Helvetica,sans-Serif" font-size="14.00">2</text>
</g>
</g>
</svg>
