<?xml version="1.0" encoding="UTF-8" standalone="no"?>
<!DOCTYPE svg PUBLIC "-//W3C//DTD SVG 1.1//EN"
 "http://www.w3.org/Graphics/SVG/1.1/DTD/svg11.dtd">
<!-- Generated by graphviz version 2.38.0 (20140413.2041)
 -->
<!-- Title: %3 Pages: 1 -->
<svg width="1369pt" height="304pt"
 viewBox="0.00 0.00 1369.00 303.50" xmlns="http://www.w3.org/2000/svg" xmlns:xlink="http://www.w3.org/1999/xlink">
<g id="graph0" class="graph" transform="scale(1 1) rotate(0) translate(4 299.5)">
<title>%3</title>
<polygon fill="white" stroke="none" points="-4,4 -4,-299.5 1365,-299.5 1365,4 -4,4"/>
<!-- 1995.Amauris_damocles -->
<g id="node1" class="node"><title>1995.Amauris_damocles</title>
<polygon fill="#ffffcc" stroke="black" points="1360.99,-104.044 1360.99,-118.956 1292.18,-129.5 1194.86,-129.5 1126.05,-118.956 1126.05,-104.044 1194.86,-93.5 1292.18,-93.5 1360.99,-104.044"/>
<text text-anchor="middle" x="1243.52" y="-107.8" font-family="Helvetica,sans-Serif" font-size="14.00">1995.Amauris_damocles</text>
</g>
<!-- 1995.Amauris_damocles_subsp_hyalites -->
<g id="node2" class="node"><title>1995.Amauris_damocles_subsp_hyalites</title>
<polygon fill="#ffffcc" stroke="black" points="1089.06,-104.044 1089.06,-118.956 980.663,-129.5 827.374,-129.5 718.981,-118.956 718.981,-104.044 827.374,-93.5 980.663,-93.5 1089.06,-104.044"/>
<text text-anchor="middle" x="904.019" y="-107.8" font-family="Helvetica,sans-Serif" font-size="14.00">1995.Amauris_damocles_subsp_hyalites</text>
</g>
<!-- 1995.Amauris_damocles_subsp_hyalites&#45;&gt;1995.Amauris_damocles -->
<g id="edge1" class="edge"><title>1995.Amauris_damocles_subsp_hyalites&#45;&gt;1995.Amauris_damocles</title>
<path fill="none" stroke="#000000" d="M1089.08,-111.5C1098.06,-111.5 1106.98,-111.5 1115.74,-111.5"/>
<polygon fill="#000000" stroke="#000000" points="1115.94,-115 1125.94,-111.5 1115.94,-108 1115.94,-115"/>
</g>
<!-- 1997.Amauris_foo -->
<g id="node3" class="node"><title>1997.Amauris_foo</title>
<polygon fill="#ccffcc" stroke="black" points="599,-249.5 472,-249.5 472,-213.5 599,-213.5 599,-249.5"/>
<text text-anchor="middle" x="535.5" y="-227.8" font-family="Helvetica,sans-Serif" font-size="14.00">1997.Amauris_foo</text>
</g>
<!-- 1997.Amauris_hyalites_subsp_hyalites -->
<g id="node4" class="node"><title>1997.Amauris_hyalites_subsp_hyalites</title>
<polygon fill="#ccffcc" stroke="black" points="661,-126.5 410,-126.5 410,-90.5 661,-90.5 661,-126.5"/>
<text text-anchor="middle" x="535.5" y="-104.8" font-family="Helvetica,sans-Serif" font-size="14.00">1997.Amauris_hyalites_subsp_hyalites</text>
</g>
<!-- 1997.Amauris_hyalites_subsp_hyalites&#45;&gt;1995.Amauris_damocles_subsp_hyalites -->
<g id="edge9" class="edge"><title>1997.Amauris_hyalites_subsp_hyalites&#45;&gt;1995.Amauris_damocles_subsp_hyalites</title>
<path fill="none" stroke="#aa00ff" stroke-dasharray="5,2" d="M661.098,-109.52C679.775,-109.673 699.362,-109.833 718.96,-109.993"/>
<text text-anchor="middle" x="696.5" y="-113.3" font-family="Times,serif" font-size="14.00">&lt;</text>
</g>
<!-- 1997.Amauris_hyalites_subsp_makuyensis -->
<g id="node5" class="node"><title>1997.Amauris_hyalites_subsp_makuyensis</title>
<polygon fill="#ccffcc" stroke="black" points="674,-83.5 397,-83.5 397,-47.5 674,-47.5 674,-83.5"/>
<text text-anchor="middle" x="535.5" y="-61.8" font-family="Helvetica,sans-Serif" font-size="14.00">1997.Amauris_hyalites_subsp_makuyensis</text>
</g>
<!-- 1997.subsubspec1 -->
<g id="node6" class="node"><title>1997.subsubspec1</title>
<polygon fill="#ccffcc" stroke="black" points="969.019,-83.5 839.019,-83.5 839.019,-47.5 969.019,-47.5 969.019,-83.5"/>
<text text-anchor="middle" x="904.019" y="-61.8" font-family="Helvetica,sans-Serif" font-size="14.00">1997.subsubspec1</text>
</g>
<!-- 1997.Amauris_hyalites_subsp_makuyensis&#45;&gt;1997.subsubspec1 -->
<g id="edge7" class="edge"><title>1997.Amauris_hyalites_subsp_makuyensis&#45;&gt;1997.subsubspec1</title>
<path fill="none" stroke="#000000" d="M684.341,-65.5C738.015,-65.5 795.903,-65.5 838.628,-65.5"/>
<polygon fill="#000000" stroke="#000000" points="684.021,-62.0001 674.021,-65.5 684.021,-69.0001 684.021,-62.0001"/>
</g>
<!-- 1997.subusbspec2 -->
<g id="node10" class="node"><title>1997.subusbspec2</title>
<polygon fill="#ccffcc" stroke="black" points="969.019,-42.5 839.019,-42.5 839.019,-6.5 969.019,-6.5 969.019,-42.5"/>
<text text-anchor="middle" x="904.019" y="-20.8" font-family="Helvetica,sans-Serif" font-size="14.00">1997.subusbspec2</text>
</g>
<!-- 1997.Amauris_hyalites_subsp_makuyensis&#45;&gt;1997.subusbspec2 -->
<g id="edge8" class="edge"><title>1997.Amauris_hyalites_subsp_makuyensis&#45;&gt;1997.subusbspec2</title>
<path fill="none" stroke="#000000" d="M684.006,-48.9995C737.774,-42.9848 795.814,-36.4923 838.628,-31.7029"/>
<polygon fill="#000000" stroke="#000000" points="683.57,-45.5264 674.021,-50.1165 684.348,-52.483 683.57,-45.5264"/>
</g>
<!-- 1997.MyRoot -->
<g id="node7" class="node"><title>1997.MyRoot</title>
<polygon fill="#ccffcc" stroke="black" points="379,-295.5 281,-295.5 281,-259.5 379,-259.5 379,-295.5"/>
<text text-anchor="middle" x="330" y="-273.8" font-family="Helvetica,sans-Serif" font-size="14.00">1997.MyRoot</text>
</g>
<!-- 1997.Amauris_hyalites -->
<g id="node8" class="node"><title>1997.Amauris_hyalites</title>
<polygon fill="#ccffcc" stroke="black" points="263,-105.5 109,-105.5 109,-69.5 263,-69.5 263,-105.5"/>
<text text-anchor="middle" x="186" y="-83.8" font-family="Helvetica,sans-Serif" font-size="14.00">1997.Amauris_hyalites</text>
</g>
<!-- 1997.Amauris_hyalites&#45;&gt;1997.Amauris_hyalites_subsp_hyalites -->
<g id="edge6" class="edge"><title>1997.Amauris_hyalites&#45;&gt;1997.Amauris_hyalites_subsp_hyalites</title>
<path fill="none" stroke="#000000" d="M273.273,-92.7136C314.517,-95.206 364.657,-98.2361 409.94,-100.973"/>
<polygon fill="#000000" stroke="#000000" points="273.453,-89.2182 263.26,-92.1085 273.031,-96.2055 273.453,-89.2182"/>
</g>
<!-- 1997.Amauris_hyalites&#45;&gt;1997.Amauris_hyalites_subsp_makuyensis -->
<g id="edge3" class="edge"><title>1997.Amauris_hyalites&#45;&gt;1997.Amauris_hyalites_subsp_makuyensis</title>
<path fill="none" stroke="#000000" d="M273.564,-82.0197C310.803,-79.6621 355.254,-76.8479 396.823,-74.2162"/>
<polygon fill="#000000" stroke="#000000" points="273.019,-78.5471 263.26,-82.672 273.462,-85.5331 273.019,-78.5471"/>
</g>
<!-- 1997.Amauris_bar -->
<g id="node9" class="node"><title>1997.Amauris_bar</title>
<polygon fill="#ccffcc" stroke="black" points="599.5,-208.5 471.5,-208.5 471.5,-172.5 599.5,-172.5 599.5,-208.5"/>
<text text-anchor="middle" x="535.5" y="-186.8" font-family="Helvetica,sans-Serif" font-size="14.00">1997.Amauris_bar</text>
</g>
<!-- 1997.damocles -->
<g id="node11" class="node"><title>1997.damocles</title>
<polygon fill="#ccffcc" stroke="black" points="240.5,-208.5 131.5,-208.5 131.5,-172.5 240.5,-172.5 240.5,-208.5"/>
<text text-anchor="middle" x="186" y="-186.8" font-family="Helvetica,sans-Serif" font-size="14.00">1997.damocles</text>
</g>
<!-- 1997.damocles&#45;&gt;1997.Amauris_foo -->
<g id="edge4" class="edge"><title>1997.damocles&#45;&gt;1997.Amauris_foo</title>
<path fill="none" stroke="#000000" d="M250.661,-200.349C260.8,-201.811 271.18,-203.246 281,-204.5 345.976,-212.795 420.551,-220.523 471.909,-225.567"/>
<polygon fill="#000000" stroke="#000000" points="251.033,-196.866 240.632,-198.883 250.021,-203.792 251.033,-196.866"/>
</g>
<!-- 1997.damocles&#45;&gt;1997.Amauris_bar -->
<g id="edge5" class="edge"><title>1997.damocles&#45;&gt;1997.Amauris_bar</title>
<path fill="none" stroke="#000000" d="M250.71,-190.5C313.515,-190.5 408.916,-190.5 471.481,-190.5"/>
<polygon fill="#000000" stroke="#000000" points="250.535,-187 240.535,-190.5 250.535,-194 250.535,-187"/>
</g>
<!-- 1997.FooBar -->
<g id="node12" class="node"><title>1997.FooBar</title>
<polygon fill="#ccffcc" stroke="black" points="583,-167.5 488,-167.5 488,-131.5 583,-131.5 583,-167.5"/>
<text text-anchor="middle" x="535.5" y="-145.8" font-family="Helvetica,sans-Serif" font-size="14.00">1997.FooBar</text>
</g>
<!-- 1997.damocles&#45;&gt;1997.FooBar -->
<g id="edge2" class="edge"><title>1997.damocles&#45;&gt;1997.FooBar</title>
<path fill="none" stroke="#000000" d="M250.779,-182.975C319.366,-174.883 426.768,-162.211 487.865,-155.002"/>
<polygon fill="#000000" stroke="#000000" points="250.056,-179.536 240.535,-184.184 250.877,-186.488 250.056,-179.536"/>
</g>
<!-- Legend -->
<g id="node13" class="node"><title>Legend</title>
<polygon fill="white" stroke="black" points="91,-175 0,-175 0,-0 91,-0 91,-175"/>
<polygon fill="none" stroke="black" points="0.5,-149.5 0.5,-174.5 91.5,-174.5 91.5,-149.5 0.5,-149.5"/>
<text text-anchor="start" x="23" y="-158.3" font-family="Arial Black" font-size="14.00"> Nodes</text>
<polygon fill="#ffffcc" stroke="none" points="0.5,-124.5 0.5,-149.5 65.5,-149.5 65.5,-124.5 0.5,-124.5"/>
<polygon fill="none" stroke="black" points="0.5,-124.5 0.5,-149.5 65.5,-149.5 65.5,-124.5 0.5,-124.5"/>
<text text-anchor="start" x="17.5" y="-133.3" font-family="Helvetica,sans-Serif" font-size="14.00">1995</text>
<polygon fill="none" stroke="black" points="65.5,-124.5 65.5,-149.5 91.5,-149.5 91.5,-124.5 65.5,-124.5"/>
<text text-anchor="start" x="74.5" y="-133.3" font-family="Helvetica,sans-Serif" font-size="14.00">2</text>
<polygon fill="#ccffcc" stroke="none" points="0.5,-99.5 0.5,-124.5 65.5,-124.5 65.5,-99.5 0.5,-99.5"/>
<polygon fill="none" stroke="black" points="0.5,-99.5 0.5,-124.5 65.5,-124.5 65.5,-99.5 0.5,-99.5"/>
<text text-anchor="start" x="17.5" y="-108.3" font-family="Helvetica,sans-Serif" font-size="14.00">1997</text>
<polygon fill="none" stroke="black" points="65.5,-99.5 65.5,-124.5 91.5,-124.5 91.5,-99.5 65.5,-99.5"/>
<text text-anchor="start" x="70.5" y="-108.3" font-family="Helvetica,sans-Serif" font-size="14.00">10</text>
<polygon fill="none" stroke="black" points="0.5,-74.5 0.5,-99.5 91.5,-99.5 91.5,-74.5 0.5,-74.5"/>
<text text-anchor="start" x="21.5" y="-83.3" font-family="Arial Black" font-size="14.00"> Edges </text>
<polygon fill="none" stroke="black" points="0.5,-49.5 0.5,-74.5 65.5,-74.5 65.5,-49.5 0.5,-49.5"/>
<text text-anchor="start" x="5.5" y="-58.3" font-family="Helvetica,sans-Serif" font-size="14.00" fill="#000000">isa_1995</text>
<polygon fill="none" stroke="black" points="65.5,-49.5 65.5,-74.5 91.5,-74.5 91.5,-49.5 65.5,-49.5"/>
<text text-anchor="start" x="74.5" y="-58.3" font-family="Helvetica,sans-Serif" font-size="14.00">1</text>
<polygon fill="none" stroke="black" points="0.5,-24.5 0.5,-49.5 65.5,-49.5 65.5,-24.5 0.5,-24.5"/>
<text text-anchor="start" x="5.5" y="-33.3" font-family="Helvetica,sans-Serif" font-size="14.00" fill="#000000">isa_1997</text>
<polygon fill="none" stroke="black" points="65.5,-24.5 65.5,-49.5 91.5,-49.5 91.5,-24.5 65.5,-24.5"/>
<text text-anchor="start" x="74.5" y="-33.3" font-family="Helvetica,sans-Serif" font-size="14.00">7</text>
<polygon fill="none" stroke="black" points="0.5,0.5 0.5,-24.5 65.5,-24.5 65.5,0.5 0.5,0.5"/>
<text text-anchor="start" x="22" y="-8.3" font-family="Helvetica,sans-Serif" font-size="14.00" fill="#aa00ff">Art.</text>
<polygon fill="none" stroke="black" points="65.5,0.5 65.5,-24.5 91.5,-24.5 91.5,0.5 65.5,0.5"/>
<text text-anchor="start" x="74.5" y="-8.3" font-family="Helvetica,sans-Serif" font-size="14.00">1</text>
</g>
</g>
</svg>
