<?xml version="1.0" encoding="UTF-8" standalone="no"?>
<!DOCTYPE svg PUBLIC "-//W3C//DTD SVG 1.1//EN"
 "http://www.w3.org/Graphics/SVG/1.1/DTD/svg11.dtd">
<!-- Generated by graphviz version 2.38.0 (20140413.2041)
 -->
<!-- Title: %3 Pages: 1 -->
<svg width="1310pt" height="187pt"
 viewBox="0.00 0.00 1309.99 186.50" xmlns="http://www.w3.org/2000/svg" xmlns:xlink="http://www.w3.org/1999/xlink">
<g id="graph0" class="graph" transform="scale(1 1) rotate(0) translate(4 182.5)">
<title>%3</title>
<polygon fill="white" stroke="none" points="-4,4 -4,-182.5 1305.99,-182.5 1305.99,4 -4,4"/>
<!-- 1995.Amauris_damocles -->
<g id="node1" class="node"><title>1995.Amauris_damocles</title>
<polygon fill="#ffffcc" stroke="black" points="1301.98,-61.5442 1301.98,-76.4558 1233.17,-87 1135.85,-87 1067.04,-76.4558 1067.04,-61.5442 1135.85,-51 1233.17,-51 1301.98,-61.5442"/>
<text text-anchor="middle" x="1184.51" y="-65.3" font-family="Helvetica,sans-Serif" font-size="14.00">1995.Amauris_damocles</text>
</g>
<!-- 1995.Amauris_damocles_subsp_makuyensis -->
<g id="node2" class="node"><title>1995.Amauris_damocles_subsp_makuyensis</title>
<polygon fill="#ffffcc" stroke="black" points="1030.04,-61.5442 1030.04,-76.4558 910.523,-87 741.503,-87 621.987,-76.4558 621.987,-61.5442 741.503,-51 910.523,-51 1030.04,-61.5442"/>
<text text-anchor="middle" x="826.013" y="-65.3" font-family="Helvetica,sans-Serif" font-size="14.00">1995.Amauris_damocles_subsp_makuyensis</text>
</g>
<!-- 1995.Amauris_damocles_subsp_makuyensis&#45;&gt;1995.Amauris_damocles -->
<g id="edge1" class="edge"><title>1995.Amauris_damocles_subsp_makuyensis&#45;&gt;1995.Amauris_damocles</title>
<path fill="none" stroke="#000000" d="M1030.25,-69C1039.24,-69 1048.15,-69 1056.87,-69"/>
<polygon fill="#000000" stroke="#000000" points="1057.03,-72.5001 1067.03,-69 1057.03,-65.5001 1057.03,-72.5001"/>
</g>
<!-- 1995.Amauris_damocles_subsp_damocles -->
<g id="node3" class="node"><title>1995.Amauris_damocles_subsp_damocles</title>
<polygon fill="#ffffcc" stroke="black" points="1020.34,-15.5442 1020.34,-30.4558 906.506,-41 745.52,-41 631.685,-30.4558 631.685,-15.5442 745.52,-5 906.506,-5 1020.34,-15.5442"/>
<text text-anchor="middle" x="826.013" y="-19.3" font-family="Helvetica,sans-Serif" font-size="14.00">1995.Amauris_damocles_subsp_damocles</text>
</g>
<!-- 1995.Amauris_damocles_subsp_damocles&#45;&gt;1995.Amauris_damocles -->
<g id="edge3" class="edge"><title>1995.Amauris_damocles_subsp_damocles&#45;&gt;1995.Amauris_damocles</title>
<path fill="none" stroke="#000000" d="M957.898,-36.2656C981.913,-38.9603 1006.74,-41.9197 1030.03,-45 1050.71,-47.7358 1072.9,-51.0092 1093.8,-54.2456"/>
<polygon fill="#000000" stroke="#000000" points="1093.53,-57.7452 1103.95,-55.8289 1094.61,-50.8289 1093.53,-57.7452"/>
</g>
<!-- 1995.Amauris_damocles_subsp_hyalites -->
<g id="node4" class="node"><title>1995.Amauris_damocles_subsp_hyalites</title>
<polygon fill="#ffffcc" stroke="black" points="1011.05,-107.544 1011.05,-122.456 902.658,-133 749.368,-133 640.976,-122.456 640.976,-107.544 749.368,-97 902.658,-97 1011.05,-107.544"/>
<text text-anchor="middle" x="826.013" y="-111.3" font-family="Helvetica,sans-Serif" font-size="14.00">1995.Amauris_damocles_subsp_hyalites</text>
</g>
<!-- 1995.Amauris_damocles_subsp_hyalites&#45;&gt;1995.Amauris_damocles -->
<g id="edge2" class="edge"><title>1995.Amauris_damocles_subsp_hyalites&#45;&gt;1995.Amauris_damocles</title>
<path fill="none" stroke="#000000" d="M954.912,-102.069C979.849,-99.2852 1005.78,-96.2082 1030.03,-93 1050.71,-90.2642 1072.9,-86.9908 1093.8,-83.7544"/>
<polygon fill="#000000" stroke="#000000" points="1094.61,-87.1711 1103.95,-82.1711 1093.53,-80.2548 1094.61,-87.1711"/>
</g>
<!-- 1997.Amauris_hyalites_subsp_hyalites -->
<g id="node5" class="node"><title>1997.Amauris_hyalites_subsp_hyalites</title>
<polygon fill="#ccffcc" stroke="black" points="556,-135 305,-135 305,-99 556,-99 556,-135"/>
<text text-anchor="middle" x="430.5" y="-113.3" font-family="Helvetica,sans-Serif" font-size="14.00">1997.Amauris_hyalites_subsp_hyalites</text>
</g>
<!-- 1997.Amauris_hyalites_subsp_hyalites&#45;&gt;1995.Amauris_damocles_subsp_hyalites -->
<g id="edge6" class="edge"><title>1997.Amauris_hyalites_subsp_hyalites&#45;&gt;1995.Amauris_damocles_subsp_hyalites</title>
<path fill="none" stroke="#aa00ff" stroke-dasharray="5,2" d="M556.01,-116.367C583.03,-116.23 612.162,-116.082 640.93,-115.936"/>
<text text-anchor="middle" x="595.5" y="-119.8" font-family="Times,serif" font-size="14.00">&lt;</text>
</g>
<!-- 1997.Amauris_hyalites_subsp_makuyensis -->
<g id="node6" class="node"><title>1997.Amauris_hyalites_subsp_makuyensis</title>
<polygon fill="#ccffcc" stroke="black" points="569,-89 292,-89 292,-53 569,-53 569,-89"/>
<text text-anchor="middle" x="430.5" y="-67.3" font-family="Helvetica,sans-Serif" font-size="14.00">1997.Amauris_hyalites_subsp_makuyensis</text>
</g>
<!-- 1997.Amauris_hyalites_subsp_makuyensis&#45;&gt;1995.Amauris_damocles_subsp_makuyensis -->
<g id="edge8" class="edge"><title>1997.Amauris_hyalites_subsp_makuyensis&#45;&gt;1995.Amauris_damocles_subsp_makuyensis</title>
<path fill="none" stroke="#aa00ff" stroke-dasharray="5,2" d="M569.132,-70.3005C586.198,-70.2138 603.918,-70.1237 621.71,-70.0333"/>
<text text-anchor="middle" x="595.5" y="-74.8" font-family="Times,serif" font-size="14.00">==</text>
</g>
<!-- 1997.Amauris_hyalites -->
<g id="node7" class="node"><title>1997.Amauris_hyalites</title>
<polygon fill="#ccffcc" stroke="black" points="255,-109 101,-109 101,-73 255,-73 255,-109"/>
<text text-anchor="middle" x="178" y="-87.3" font-family="Helvetica,sans-Serif" font-size="14.00">1997.Amauris_hyalites</text>
</g>
<!-- 1997.Amauris_hyalites&#45;&gt;1997.Amauris_hyalites_subsp_hyalites -->
<g id="edge5" class="edge"><title>1997.Amauris_hyalites&#45;&gt;1997.Amauris_hyalites_subsp_hyalites</title>
<path fill="none" stroke="#000000" d="M265.259,-99.953C278.002,-101.276 291.343,-102.66 304.678,-104.044"/>
<polygon fill="#000000" stroke="#000000" points="265.486,-96.4579 255.179,-98.9068 264.764,-103.421 265.486,-96.4579"/>
</g>
<!-- 1997.Amauris_hyalites&#45;&gt;1997.Amauris_hyalites_subsp_makuyensis -->
<g id="edge4" class="edge"><title>1997.Amauris_hyalites&#45;&gt;1997.Amauris_hyalites_subsp_makuyensis</title>
<path fill="none" stroke="#000000" d="M265.165,-84.1206C273.789,-83.432 282.687,-82.7216 291.673,-82.0041"/>
<polygon fill="#000000" stroke="#000000" points="264.868,-80.633 255.179,-84.9179 265.425,-87.6108 264.868,-80.633"/>
</g>
<!-- 1997.Amauris_damocles -->
<g id="node8" class="node"><title>1997.Amauris_damocles</title>
<polygon fill="#ccffcc" stroke="black" points="514,-36 347,-36 347,-0 514,-0 514,-36"/>
<text text-anchor="middle" x="430.5" y="-14.3" font-family="Helvetica,sans-Serif" font-size="14.00">1997.Amauris_damocles</text>
</g>
<!-- 1997.Amauris_damocles&#45;&gt;1995.Amauris_damocles_subsp_damocles -->
<g id="edge7" class="edge"><title>1997.Amauris_damocles&#45;&gt;1995.Amauris_damocles_subsp_damocles</title>
<path fill="none" stroke="#aa00ff" stroke-dasharray="5,2" d="M514.473,-19.0543C548.861,-19.4912 590.313,-20.0179 631.571,-20.5421"/>
<text text-anchor="middle" x="595.5" y="-24.8" font-family="Times,serif" font-size="14.00">==</text>
</g>
<!-- Legend -->
<g id="node9" class="node"><title>Legend</title>
<polygon fill="white" stroke="black" points="83,-178.5 0,-178.5 0,-3.5 83,-3.5 83,-178.5"/>
<polygon fill="none" stroke="black" points="0.5,-153 0.5,-178 83.5,-178 83.5,-153 0.5,-153"/>
<text text-anchor="start" x="19" y="-161.8" font-family="Arial Black" font-size="14.00"> Nodes</text>
<polygon fill="#ffffcc" stroke="none" points="0.5,-128 0.5,-153 65.5,-153 65.5,-128 0.5,-128"/>
<polygon fill="none" stroke="black" points="0.5,-128 0.5,-153 65.5,-153 65.5,-128 0.5,-128"/>
<text text-anchor="start" x="17.5" y="-136.8" font-family="Helvetica,sans-Serif" font-size="14.00">1995</text>
<polygon fill="none" stroke="black" points="65.5,-128 65.5,-153 83.5,-153 83.5,-128 65.5,-128"/>
<text text-anchor="start" x="70.5" y="-136.8" font-family="Helvetica,sans-Serif" font-size="14.00">4</text>
<polygon fill="#ccffcc" stroke="none" points="0.5,-103 0.5,-128 65.5,-128 65.5,-103 0.5,-103"/>
<polygon fill="none" stroke="black" points="0.5,-103 0.5,-128 65.5,-128 65.5,-103 0.5,-103"/>
<text text-anchor="start" x="17.5" y="-111.8" font-family="Helvetica,sans-Serif" font-size="14.00">1997</text>
<polygon fill="none" stroke="black" points="65.5,-103 65.5,-128 83.5,-128 83.5,-103 65.5,-103"/>
<text text-anchor="start" x="70.5" y="-111.8" font-family="Helvetica,sans-Serif" font-size="14.00">4</text>
<polygon fill="none" stroke="black" points="0.5,-78 0.5,-103 83.5,-103 83.5,-78 0.5,-78"/>
<text text-anchor="start" x="17.5" y="-86.8" font-family="Arial Black" font-size="14.00"> Edges </text>
<polygon fill="none" stroke="black" points="0.5,-53 0.5,-78 65.5,-78 65.5,-53 0.5,-53"/>
<text text-anchor="start" x="5.5" y="-61.8" font-family="Helvetica,sans-Serif" font-size="14.00" fill="#000000">isa_1995</text>
<polygon fill="none" stroke="black" points="65.5,-53 65.5,-78 83.5,-78 83.5,-53 65.5,-53"/>
<text text-anchor="start" x="70.5" y="-61.8" font-family="Helvetica,sans-Serif" font-size="14.00">3</text>
<polygon fill="none" stroke="black" points="0.5,-28 0.5,-53 65.5,-53 65.5,-28 0.5,-28"/>
<text text-anchor="start" x="5.5" y="-36.8" font-family="Helvetica,sans-Serif" font-size="14.00" fill="#000000">isa_1997</text>
<polygon fill="none" stroke="black" points="65.5,-28 65.5,-53 83.5,-53 83.5,-28 65.5,-28"/>
<text text-anchor="start" x="70.5" y="-36.8" font-family="Helvetica,sans-Serif" font-size="14.00">2</text>
<polygon fill="none" stroke="black" points="0.5,-3 0.5,-28 65.5,-28 65.5,-3 0.5,-3"/>
<text text-anchor="start" x="22" y="-11.8" font-family="Helvetica,sans-Serif" font-size="14.00" fill="#aa00ff">Art.</text>
<polygon fill="none" stroke="black" points="65.5,-3 65.5,-28 83.5,-28 83.5,-3 65.5,-3"/>
<text text-anchor="start" x="70.5" y="-11.8" font-family="Helvetica,sans-Serif" font-size="14.00">3</text>
</g>
</g>
</svg>
