<?xml version="1.0" encoding="UTF-8" standalone="no"?>
<!DOCTYPE svg PUBLIC "-//W3C//DTD SVG 1.1//EN"
 "http://www.w3.org/Graphics/SVG/1.1/DTD/svg11.dtd">
<!-- Generated by graphviz version 2.38.0 (20140413.2041)
 -->
<!-- Title: %3 Pages: 1 -->
<svg width="1415pt" height="370pt"
 viewBox="0.00 0.00 1414.99 369.50" xmlns="http://www.w3.org/2000/svg" xmlns:xlink="http://www.w3.org/1999/xlink">
<g id="graph0" class="graph" transform="scale(1 1) rotate(0) translate(4 365.5)">
<title>%3</title>
<polygon fill="white" stroke="none" points="-4,4 -4,-365.5 1410.99,-365.5 1410.99,4 -4,4"/>
<!-- 1995.Amauris_damocles_subsp_makuyensis -->
<g id="node1" class="node"><title>1995.Amauris_damocles_subsp_makuyensis</title>
<polygon fill="#ffffcc" stroke="black" points="1135.04,-124.044 1135.04,-138.956 1015.52,-149.5 846.503,-149.5 726.987,-138.956 726.987,-124.044 846.503,-113.5 1015.52,-113.5 1135.04,-124.044"/>
<text text-anchor="middle" x="931.013" y="-127.8" font-family="Helvetica,sans-Serif" font-size="14.00">1995.Amauris_damocles_subsp_makuyensis</text>
</g>
<!-- 1995.Amauris_damocles -->
<g id="node4" class="node"><title>1995.Amauris_damocles</title>
<polygon fill="#ffffcc" stroke="black" points="1406.98,-170.044 1406.98,-184.956 1338.17,-195.5 1240.85,-195.5 1172.04,-184.956 1172.04,-170.044 1240.85,-159.5 1338.17,-159.5 1406.98,-170.044"/>
<text text-anchor="middle" x="1289.51" y="-173.8" font-family="Helvetica,sans-Serif" font-size="14.00">1995.Amauris_damocles</text>
</g>
<!-- 1995.Amauris_damocles_subsp_makuyensis&#45;&gt;1995.Amauris_damocles -->
<g id="edge1" class="edge"><title>1995.Amauris_damocles_subsp_makuyensis&#45;&gt;1995.Amauris_damocles</title>
<path fill="none" stroke="#000000" d="M1065.89,-145.102C1088.97,-147.706 1112.71,-150.548 1135.03,-153.5 1155.71,-156.236 1177.9,-159.509 1198.8,-162.746"/>
<polygon fill="#000000" stroke="#000000" points="1198.53,-166.245 1208.95,-164.329 1199.61,-159.329 1198.53,-166.245"/>
</g>
<!-- 1995.Amauris_damocles_subsp_damocles -->
<g id="node2" class="node"><title>1995.Amauris_damocles_subsp_damocles</title>
<polygon fill="#ffffcc" stroke="black" points="1125.34,-336.044 1125.34,-350.956 1011.51,-361.5 850.52,-361.5 736.685,-350.956 736.685,-336.044 850.52,-325.5 1011.51,-325.5 1125.34,-336.044"/>
<text text-anchor="middle" x="931.013" y="-339.8" font-family="Helvetica,sans-Serif" font-size="14.00">1995.Amauris_damocles_subsp_damocles</text>
</g>
<!-- 1995.Amauris_damocles_subsp_damocles&#45;&gt;1995.Amauris_damocles -->
<g id="edge2" class="edge"><title>1995.Amauris_damocles_subsp_damocles&#45;&gt;1995.Amauris_damocles</title>
<path fill="none" stroke="#000000" d="M1101.05,-333.769C1112.79,-330.497 1124.23,-326.459 1135.03,-321.5 1193.03,-294.848 1243.34,-237.514 1269.45,-203.784"/>
<polygon fill="#000000" stroke="#000000" points="1272.29,-205.829 1275.56,-195.75 1266.72,-201.593 1272.29,-205.829"/>
</g>
<!-- 1995.Amauris_damocles_subsp_hyalites -->
<g id="node3" class="node"><title>1995.Amauris_damocles_subsp_hyalites</title>
<polygon fill="#ffffcc" stroke="black" points="1116.05,-170.044 1116.05,-184.956 1007.66,-195.5 854.368,-195.5 745.976,-184.956 745.976,-170.044 854.368,-159.5 1007.66,-159.5 1116.05,-170.044"/>
<text text-anchor="middle" x="931.013" y="-173.8" font-family="Helvetica,sans-Serif" font-size="14.00">1995.Amauris_damocles_subsp_hyalites</text>
</g>
<!-- 1995.Amauris_damocles_subsp_hyalites&#45;&gt;1995.Amauris_damocles -->
<g id="edge3" class="edge"><title>1995.Amauris_damocles_subsp_hyalites&#45;&gt;1995.Amauris_damocles</title>
<path fill="none" stroke="#000000" d="M1116.27,-177.5C1131.6,-177.5 1146.88,-177.5 1161.65,-177.5"/>
<polygon fill="#000000" stroke="#000000" points="1161.78,-181 1171.78,-177.5 1161.78,-174 1161.78,-181"/>
</g>
<!-- 1997.Amauris_bar -->
<g id="node5" class="node"><title>1997.Amauris_bar</title>
<polygon fill="#ccffcc" stroke="black" points="995.013,-319.5 867.013,-319.5 867.013,-283.5 995.013,-283.5 995.013,-319.5"/>
<text text-anchor="middle" x="931.013" y="-297.8" font-family="Helvetica,sans-Serif" font-size="14.00">1997.Amauris_bar</text>
</g>
<!-- 1997.subsubspec1 -->
<g id="node6" class="node"><title>1997.subsubspec1</title>
<polygon fill="#ccffcc" stroke="black" points="996.013,-98.5 866.013,-98.5 866.013,-62.5 996.013,-62.5 996.013,-98.5"/>
<text text-anchor="middle" x="931.013" y="-76.8" font-family="Helvetica,sans-Serif" font-size="14.00">1997.subsubspec1</text>
</g>
<!-- 1997.Amauris_hyalites_subsp_hyalites -->
<g id="node7" class="node"><title>1997.Amauris_hyalites_subsp_hyalites</title>
<polygon fill="#ccffcc" stroke="black" points="661,-180.5 410,-180.5 410,-144.5 661,-144.5 661,-180.5"/>
<text text-anchor="middle" x="535.5" y="-158.8" font-family="Helvetica,sans-Serif" font-size="14.00">1997.Amauris_hyalites_subsp_hyalites</text>
</g>
<!-- 1997.Amauris_hyalites_subsp_hyalites&#45;&gt;1995.Amauris_damocles_subsp_hyalites -->
<g id="edge11" class="edge"><title>1997.Amauris_hyalites_subsp_hyalites&#45;&gt;1995.Amauris_damocles_subsp_hyalites</title>
<path fill="none" stroke="#aa00ff" stroke-dasharray="5,2" d="M661.01,-167.246C688.03,-168.276 717.162,-169.386 745.93,-170.483"/>
<text text-anchor="middle" x="700.5" y="-172.3" font-family="Times,serif" font-size="14.00">&lt;</text>
</g>
<!-- 1997.Amauris_foo -->
<g id="node8" class="node"><title>1997.Amauris_foo</title>
<polygon fill="#ccffcc" stroke="black" points="994.513,-278.5 867.513,-278.5 867.513,-242.5 994.513,-242.5 994.513,-278.5"/>
<text text-anchor="middle" x="931.013" y="-256.8" font-family="Helvetica,sans-Serif" font-size="14.00">1997.Amauris_foo</text>
</g>
<!-- 1997.Amauris_hyalites_subsp_makuyensis -->
<g id="node9" class="node"><title>1997.Amauris_hyalites_subsp_makuyensis</title>
<polygon fill="#ccffcc" stroke="black" points="674,-105.5 397,-105.5 397,-69.5 674,-69.5 674,-105.5"/>
<text text-anchor="middle" x="535.5" y="-83.8" font-family="Helvetica,sans-Serif" font-size="14.00">1997.Amauris_hyalites_subsp_makuyensis</text>
</g>
<!-- 1997.Amauris_hyalites_subsp_makuyensis&#45;&gt;1995.Amauris_damocles_subsp_makuyensis -->
<g id="edge12" class="edge"><title>1997.Amauris_hyalites_subsp_makuyensis&#45;&gt;1995.Amauris_damocles_subsp_makuyensis</title>
<path fill="none" stroke="#aa00ff" stroke-dasharray="5,2" d="M674.132,-102.889C716.021,-107.573 761.852,-112.697 803.006,-117.299"/>
<text text-anchor="middle" x="700.5" y="-110.3" font-family="Times,serif" font-size="14.00">==</text>
</g>
<!-- 1997.Amauris_hyalites_subsp_makuyensis&#45;&gt;1997.subsubspec1 -->
<g id="edge9" class="edge"><title>1997.Amauris_hyalites_subsp_makuyensis&#45;&gt;1997.subsubspec1</title>
<path fill="none" stroke="#000000" d="M684.515,-84.867C747.107,-83.7536 816.723,-82.5153 865.789,-81.6424"/>
<polygon fill="#000000" stroke="#000000" points="684.068,-81.3743 674.132,-85.0517 684.192,-88.3732 684.068,-81.3743"/>
</g>
<!-- 1997.subusbspec2 -->
<g id="node12" class="node"><title>1997.subusbspec2</title>
<polygon fill="#ccffcc" stroke="black" points="996.013,-57.5 866.013,-57.5 866.013,-21.5 996.013,-21.5 996.013,-57.5"/>
<text text-anchor="middle" x="931.013" y="-35.8" font-family="Helvetica,sans-Serif" font-size="14.00">1997.subusbspec2</text>
</g>
<!-- 1997.Amauris_hyalites_subsp_makuyensis&#45;&gt;1997.subusbspec2 -->
<g id="edge10" class="edge"><title>1997.Amauris_hyalites_subsp_makuyensis&#45;&gt;1997.subusbspec2</title>
<path fill="none" stroke="#000000" d="M675.048,-68.1338C692.528,-65.825 710.174,-63.5595 727,-61.5 773.449,-55.8145 825.973,-50.1431 865.957,-45.9828"/>
<polygon fill="#000000" stroke="#000000" points="674.235,-64.7109 664.783,-69.4969 675.157,-71.65 674.235,-64.7109"/>
</g>
<!-- 1997.MyRoot -->
<g id="node10" class="node"><title>1997.MyRoot</title>
<polygon fill="#ccffcc" stroke="black" points="379,-218.5 281,-218.5 281,-182.5 379,-182.5 379,-218.5"/>
<text text-anchor="middle" x="330" y="-196.8" font-family="Helvetica,sans-Serif" font-size="14.00">1997.MyRoot</text>
</g>
<!-- 1997.Amauris_hyalites -->
<g id="node11" class="node"><title>1997.Amauris_hyalites</title>
<polygon fill="#ccffcc" stroke="black" points="263,-105.5 109,-105.5 109,-69.5 263,-69.5 263,-105.5"/>
<text text-anchor="middle" x="186" y="-83.8" font-family="Helvetica,sans-Serif" font-size="14.00">1997.Amauris_hyalites</text>
</g>
<!-- 1997.Amauris_hyalites&#45;&gt;1997.Amauris_hyalites_subsp_hyalites -->
<g id="edge8" class="edge"><title>1997.Amauris_hyalites&#45;&gt;1997.Amauris_hyalites_subsp_hyalites</title>
<path fill="none" stroke="#000000" d="M273.2,-106.104C327.432,-117.809 397.069,-132.839 450.815,-144.439"/>
<polygon fill="#000000" stroke="#000000" points="273.774,-102.648 263.26,-103.959 272.297,-109.49 273.774,-102.648"/>
</g>
<!-- 1997.Amauris_hyalites&#45;&gt;1997.Amauris_hyalites_subsp_makuyensis -->
<g id="edge5" class="edge"><title>1997.Amauris_hyalites&#45;&gt;1997.Amauris_hyalites_subsp_makuyensis</title>
<path fill="none" stroke="#000000" d="M273.564,-87.5C310.803,-87.5 355.254,-87.5 396.823,-87.5"/>
<polygon fill="#000000" stroke="#000000" points="273.26,-84.0001 263.26,-87.5 273.26,-91.0001 273.26,-84.0001"/>
</g>
<!-- 1997.damocles -->
<g id="node13" class="node"><title>1997.damocles</title>
<polygon fill="#ccffcc" stroke="black" points="590,-297.5 481,-297.5 481,-261.5 590,-261.5 590,-297.5"/>
<text text-anchor="middle" x="535.5" y="-275.8" font-family="Helvetica,sans-Serif" font-size="14.00">1997.damocles</text>
</g>
<!-- 1997.damocles&#45;&gt;1995.Amauris_damocles_subsp_damocles -->
<g id="edge13" class="edge"><title>1997.damocles&#45;&gt;1995.Amauris_damocles_subsp_damocles</title>
<path fill="none" stroke="#aa00ff" stroke-dasharray="5,2" d="M590.391,-293.028C628.375,-302.157 680.545,-313.885 727,-321.5 748.428,-325.012 771.224,-328.104 793.506,-330.774"/>
<text text-anchor="middle" x="700.5" y="-321.3" font-family="Times,serif" font-size="14.00">==</text>
</g>
<!-- 1997.damocles&#45;&gt;1997.Amauris_bar -->
<g id="edge7" class="edge"><title>1997.damocles&#45;&gt;1997.Amauris_bar</title>
<path fill="none" stroke="#000000" d="M600.433,-283.074C673.848,-287.179 793.543,-293.87 866.697,-297.96"/>
<polygon fill="#000000" stroke="#000000" points="600.571,-279.577 590.391,-282.513 600.18,-286.566 600.571,-279.577"/>
</g>
<!-- 1997.damocles&#45;&gt;1997.Amauris_foo -->
<g id="edge6" class="edge"><title>1997.damocles&#45;&gt;1997.Amauris_foo</title>
<path fill="none" stroke="#000000" d="M600.464,-276.412C674.106,-272.856 794.285,-267.053 867.366,-263.525"/>
<polygon fill="#000000" stroke="#000000" points="600.211,-272.92 590.391,-276.898 600.548,-279.912 600.211,-272.92"/>
</g>
<!-- 1997.FooBar -->
<g id="node14" class="node"><title>1997.FooBar</title>
<polygon fill="#ccffcc" stroke="black" points="978.513,-237.5 883.513,-237.5 883.513,-201.5 978.513,-201.5 978.513,-237.5"/>
<text text-anchor="middle" x="931.013" y="-215.8" font-family="Helvetica,sans-Serif" font-size="14.00">1997.FooBar</text>
</g>
<!-- 1997.damocles&#45;&gt;1997.FooBar -->
<g id="edge4" class="edge"><title>1997.damocles&#45;&gt;1997.FooBar</title>
<path fill="none" stroke="#000000" d="M600.173,-265.326C637.071,-257.482 684.496,-248.029 727,-241.5 780.437,-233.292 842.25,-227.056 883.498,-223.355"/>
<polygon fill="#000000" stroke="#000000" points="599.104,-261.975 590.058,-267.491 600.569,-268.82 599.104,-261.975"/>
</g>
<!-- Legend -->
<g id="node15" class="node"><title>Legend</title>
<polygon fill="white" stroke="black" points="91,-175 0,-175 0,-0 91,-0 91,-175"/>
<polygon fill="none" stroke="black" points="0.5,-149.5 0.5,-174.5 91.5,-174.5 91.5,-149.5 0.5,-149.5"/>
<text text-anchor="start" x="23" y="-158.3" font-family="Arial Black" font-size="14.00"> Nodes</text>
<polygon fill="#ffffcc" stroke="none" points="0.5,-124.5 0.5,-149.5 65.5,-149.5 65.5,-124.5 0.5,-124.5"/>
<polygon fill="none" stroke="black" points="0.5,-124.5 0.5,-149.5 65.5,-149.5 65.5,-124.5 0.5,-124.5"/>
<text text-anchor="start" x="17.5" y="-133.3" font-family="Helvetica,sans-Serif" font-size="14.00">1995</text>
<polygon fill="none" stroke="black" points="65.5,-124.5 65.5,-149.5 91.5,-149.5 91.5,-124.5 65.5,-124.5"/>
<text text-anchor="start" x="74.5" y="-133.3" font-family="Helvetica,sans-Serif" font-size="14.00">4</text>
<polygon fill="#ccffcc" stroke="none" points="0.5,-99.5 0.5,-124.5 65.5,-124.5 65.5,-99.5 0.5,-99.5"/>
<polygon fill="none" stroke="black" points="0.5,-99.5 0.5,-124.5 65.5,-124.5 65.5,-99.5 0.5,-99.5"/>
<text text-anchor="start" x="17.5" y="-108.3" font-family="Helvetica,sans-Serif" font-size="14.00">1997</text>
<polygon fill="none" stroke="black" points="65.5,-99.5 65.5,-124.5 91.5,-124.5 91.5,-99.5 65.5,-99.5"/>
<text text-anchor="start" x="70.5" y="-108.3" font-family="Helvetica,sans-Serif" font-size="14.00">10</text>
<polygon fill="none" stroke="black" points="0.5,-74.5 0.5,-99.5 91.5,-99.5 91.5,-74.5 0.5,-74.5"/>
<text text-anchor="start" x="21.5" y="-83.3" font-family="Arial Black" font-size="14.00"> Edges </text>
<polygon fill="none" stroke="black" points="0.5,-49.5 0.5,-74.5 65.5,-74.5 65.5,-49.5 0.5,-49.5"/>
<text text-anchor="start" x="5.5" y="-58.3" font-family="Helvetica,sans-Serif" font-size="14.00" fill="#000000">isa_1995</text>
<polygon fill="none" stroke="black" points="65.5,-49.5 65.5,-74.5 91.5,-74.5 91.5,-49.5 65.5,-49.5"/>
<text text-anchor="start" x="74.5" y="-58.3" font-family="Helvetica,sans-Serif" font-size="14.00">3</text>
<polygon fill="none" stroke="black" points="0.5,-24.5 0.5,-49.5 65.5,-49.5 65.5,-24.5 0.5,-24.5"/>
<text text-anchor="start" x="5.5" y="-33.3" font-family="Helvetica,sans-Serif" font-size="14.00" fill="#000000">isa_1997</text>
<polygon fill="none" stroke="black" points="65.5,-24.5 65.5,-49.5 91.5,-49.5 91.5,-24.5 65.5,-24.5"/>
<text text-anchor="start" x="74.5" y="-33.3" font-family="Helvetica,sans-Serif" font-size="14.00">7</text>
<polygon fill="none" stroke="black" points="0.5,0.5 0.5,-24.5 65.5,-24.5 65.5,0.5 0.5,0.5"/>
<text text-anchor="start" x="22" y="-8.3" font-family="Helvetica,sans-Serif" font-size="14.00" fill="#aa00ff">Art.</text>
<polygon fill="none" stroke="black" points="65.5,0.5 65.5,-24.5 91.5,-24.5 91.5,0.5 65.5,0.5"/>
<text text-anchor="start" x="74.5" y="-8.3" font-family="Helvetica,sans-Serif" font-size="14.00">3</text>
</g>
</g>
</svg>
