<?xml version="1.0" encoding="UTF-8" standalone="no"?>
<!DOCTYPE svg PUBLIC "-//W3C//DTD SVG 1.1//EN"
 "http://www.w3.org/Graphics/SVG/1.1/DTD/svg11.dtd">
<!-- Generated by graphviz version 2.38.0 (20140413.2041)
 -->
<!-- Title: %3 Pages: 1 -->
<svg width="925pt" height="208pt"
 viewBox="0.00 0.00 925.29 208.00" xmlns="http://www.w3.org/2000/svg" xmlns:xlink="http://www.w3.org/1999/xlink">
<g id="graph0" class="graph" transform="scale(1 1) rotate(0) translate(4 204)">
<title>%3</title>
<polygon fill="white" stroke="none" points="-4,4 -4,-204 921.294,-204 921.294,4 -4,4"/>
<!-- FloraChina.OakGenus -->
<g id="node1" class="node"><title>FloraChina.OakGenus</title>
<polygon fill="#ccffcc" stroke="black" points="460.264,-172 322.264,-172 322.264,-136 460.264,-136 460.264,-172"/>
<text text-anchor="middle" x="391.264" y="-150.3" font-family="Times,serif" font-size="14.00">FloraChina.OakGenus</text>
</g>
<!-- FloraMexico.OakGenus -->
<g id="node4" class="node"><title>FloraMexico.OakGenus</title>
<polygon fill="#ffffcc" stroke="black" points="208.351,-119.544 208.351,-134.456 147.292,-145 60.9418,-145 -0.117023,-134.456 -0.117023,-119.544 60.9418,-109 147.292,-109 208.351,-119.544"/>
<text text-anchor="middle" x="104.117" y="-123.3" font-family="Times,serif" font-size="14.00">FloraMexico.OakGenus</text>
</g>
<!-- FloraChina.OakGenus&#45;&gt;FloraMexico.OakGenus -->
<g id="edge6" class="edge"><title>FloraChina.OakGenus&#45;&gt;FloraMexico.OakGenus</title>
<path fill="none" stroke="#ff0000" d="M321.964,-147.533C288.53,-144.367 247.536,-140.485 210.226,-136.953"/>
<polygon fill="#ff0000" stroke="#ff0000" points="210.095,-133.425 199.81,-135.966 209.435,-140.393 210.095,-133.425"/>
</g>
<!-- FloraMexico.MexicanOakSpecies1 -->
<g id="node5" class="node"><title>FloraMexico.MexicanOakSpecies1</title>
<polygon fill="#ffffcc" stroke="black" points="538.324,-92.5442 538.324,-107.456 452.178,-118 330.35,-118 244.204,-107.456 244.204,-92.5442 330.35,-82 452.178,-82 538.324,-92.5442"/>
<text text-anchor="middle" x="391.264" y="-96.3" font-family="Times,serif" font-size="14.00">FloraMexico.MexicanOakSpecies1</text>
</g>
<!-- FloraChina.OakGenus&#45;&gt;FloraMexico.MexicanOakSpecies1 -->
<g id="edge1" class="edge"><title>FloraChina.OakGenus&#45;&gt;FloraMexico.MexicanOakSpecies1</title>
<path fill="none" stroke="#0000ff" stroke-dasharray="1,5" d="M391.264,-135.79C391.264,-129.907 391.264,-124.024 391.264,-118.141"/>
</g>
<!-- FloraChina.ChineseOakSpecies1 -->
<g id="node2" class="node"><title>FloraChina.ChineseOakSpecies1</title>
<polygon fill="#ccffcc" stroke="black" points="776.294,-118 581.294,-118 581.294,-82 776.294,-82 776.294,-118"/>
<text text-anchor="middle" x="678.794" y="-96.3" font-family="Times,serif" font-size="14.00">FloraChina.ChineseOakSpecies1</text>
</g>
<!-- FloraChina.ChineseOakSpecies1&#45;&gt;FloraChina.OakGenus -->
<g id="edge5" class="edge"><title>FloraChina.ChineseOakSpecies1&#45;&gt;FloraChina.OakGenus</title>
<path fill="none" stroke="#000000" d="M585.143,-118.045C569.509,-121.057 553.442,-124.134 538.294,-127 516.216,-131.178 492.245,-135.64 470.23,-139.709"/>
<polygon fill="#000000" stroke="#000000" points="469.465,-136.291 460.266,-141.549 470.736,-143.175 469.465,-136.291"/>
</g>
<!-- FloraChina.ChineseOakSpecies1&#45;&gt;FloraMexico.MexicanOakSpecies1 -->
<g id="edge4" class="edge"><title>FloraChina.ChineseOakSpecies1&#45;&gt;FloraMexico.MexicanOakSpecies1</title>
<path fill="none" stroke="#000000" d="M581.126,-100C570.598,-100 559.694,-100 548.681,-100"/>
<polygon fill="#000000" stroke="#000000" points="548.544,-96.5001 538.544,-100 548.544,-103.5 548.544,-96.5001"/>
</g>
<!-- FloraChina.ChineseOakSpecies2\nFloraMexico.MexicanOakSpecies2 -->
<g id="node3" class="node"><title>FloraChina.ChineseOakSpecies2\nFloraMexico.MexicanOakSpecies2</title>
<path fill="#eeeeee" stroke="black" d="M771.294,-174C771.294,-174 586.294,-174 586.294,-174 580.294,-174 574.294,-168 574.294,-162 574.294,-162 574.294,-148 574.294,-148 574.294,-142 580.294,-136 586.294,-136 586.294,-136 771.294,-136 771.294,-136 777.294,-136 783.294,-142 783.294,-148 783.294,-148 783.294,-162 783.294,-162 783.294,-168 777.294,-174 771.294,-174"/>
<text text-anchor="middle" x="678.794" y="-158.8" font-family="Times,serif" font-size="14.00">FloraChina.ChineseOakSpecies2</text>
<text text-anchor="middle" x="678.794" y="-143.8" font-family="Times,serif" font-size="14.00">FloraMexico.MexicanOakSpecies2</text>
</g>
<!-- FloraChina.ChineseOakSpecies2\nFloraMexico.MexicanOakSpecies2&#45;&gt;FloraChina.OakGenus -->
<g id="edge2" class="edge"><title>FloraChina.ChineseOakSpecies2\nFloraMexico.MexicanOakSpecies2&#45;&gt;FloraChina.OakGenus</title>
<path fill="none" stroke="#000000" d="M573.903,-154.636C539.803,-154.517 502.5,-154.386 470.619,-154.274"/>
<polygon fill="#000000" stroke="#000000" points="470.482,-150.774 460.47,-154.239 470.457,-157.774 470.482,-150.774"/>
</g>
<!-- FloraMexico.MexicanOakSpecies1&#45;&gt;FloraMexico.OakGenus -->
<g id="edge3" class="edge"><title>FloraMexico.MexicanOakSpecies1&#45;&gt;FloraMexico.OakGenus</title>
<path fill="none" stroke="#000000" d="M273.461,-111.06C252.445,-113.05 230.657,-115.113 210.005,-117.068"/>
<polygon fill="#000000" stroke="#000000" points="209.592,-113.592 199.966,-118.019 210.251,-120.561 209.592,-113.592"/>
</g>
<!-- Legend -->
<g id="node6" class="node"><title>Legend</title>
<polygon fill="white" stroke="black" points="917.294,-200 819.294,-200 819.294,-0 917.294,-0 917.294,-200"/>
<polygon fill="none" stroke="black" points="819.294,-175 819.294,-200 917.294,-200 917.294,-175 819.294,-175"/>
<text text-anchor="start" x="845.294" y="-183.8" font-family="Arial Black" font-size="14.00"> Nodes</text>
<polygon fill="#ccffcc" stroke="none" points="819.294,-150 819.294,-175 900.294,-175 900.294,-150 819.294,-150"/>
<polygon fill="none" stroke="black" points="819.294,-150 819.294,-175 900.294,-175 900.294,-150 819.294,-150"/>
<text text-anchor="start" x="829.294" y="-158.8" font-family="Times,serif" font-size="14.00">FloraChina</text>
<polygon fill="none" stroke="black" points="900.294,-150 900.294,-175 917.294,-175 917.294,-150 900.294,-150"/>
<text text-anchor="start" x="905.294" y="-158.8" font-family="Times,serif" font-size="14.00">2</text>
<polygon fill="#eeeeee" stroke="none" points="819.294,-125 819.294,-150 900.294,-150 900.294,-125 819.294,-125"/>
<polygon fill="none" stroke="black" points="819.294,-125 819.294,-150 900.294,-150 900.294,-125 819.294,-125"/>
<text text-anchor="start" x="844.294" y="-133.8" font-family="Times,serif" font-size="14.00">comb</text>
<polygon fill="none" stroke="black" points="900.294,-125 900.294,-150 917.294,-150 917.294,-125 900.294,-125"/>
<text text-anchor="start" x="905.294" y="-133.8" font-family="Times,serif" font-size="14.00">1</text>
<polygon fill="#ffffcc" stroke="none" points="819.294,-100 819.294,-125 900.294,-125 900.294,-100 819.294,-100"/>
<polygon fill="none" stroke="black" points="819.294,-100 819.294,-125 900.294,-125 900.294,-100 819.294,-100"/>
<text text-anchor="start" x="824.294" y="-108.8" font-family="Times,serif" font-size="14.00">FloraMexico</text>
<polygon fill="none" stroke="black" points="900.294,-100 900.294,-125 917.294,-125 917.294,-100 900.294,-100"/>
<text text-anchor="start" x="905.294" y="-108.8" font-family="Times,serif" font-size="14.00">2</text>
<polygon fill="none" stroke="black" points="819.294,-75 819.294,-100 917.294,-100 917.294,-75 819.294,-75"/>
<text text-anchor="start" x="843.794" y="-83.8" font-family="Arial Black" font-size="14.00"> Edges </text>
<polygon fill="none" stroke="black" points="819.294,-50 819.294,-75 900.294,-75 900.294,-50 819.294,-50"/>
<text text-anchor="start" x="836.794" y="-58.8" font-family="Times,serif" font-size="14.00" fill="#0000ff">overlaps</text>
<polygon fill="none" stroke="black" points="900.294,-50 900.294,-75 917.294,-75 917.294,-50 900.294,-50"/>
<text text-anchor="start" x="905.294" y="-58.8" font-family="Times,serif" font-size="14.00">1</text>
<polygon fill="none" stroke="black" points="819.294,-25 819.294,-50 900.294,-50 900.294,-25 819.294,-25"/>
<text text-anchor="start" x="845.794" y="-33.8" font-family="Times,serif" font-size="14.00" fill="#000000">input</text>
<polygon fill="none" stroke="black" points="900.294,-25 900.294,-50 917.294,-50 917.294,-25 900.294,-25"/>
<text text-anchor="start" x="905.294" y="-33.8" font-family="Times,serif" font-size="14.00">4</text>
<polygon fill="none" stroke="black" points="819.294,-0 819.294,-25 900.294,-25 900.294,-0 819.294,-0"/>
<text text-anchor="start" x="838.294" y="-8.8" font-family="Times,serif" font-size="14.00" fill="#ff0000">inferred</text>
<polygon fill="none" stroke="black" points="900.294,-0 900.294,-25 917.294,-25 917.294,-0 900.294,-0"/>
<text text-anchor="start" x="905.294" y="-8.8" font-family="Times,serif" font-size="14.00">1</text>
</g>
</g>
</svg>
