<?xml version="1.0" encoding="UTF-8" standalone="no"?>
<!DOCTYPE svg PUBLIC "-//W3C//DTD SVG 1.1//EN"
 "http://www.w3.org/Graphics/SVG/1.1/DTD/svg11.dtd">
<!-- Generated by graphviz version 2.38.0 (20140413.2041)
 -->
<!-- Title: %3 Pages: 1 -->
<svg width="1310pt" height="189pt"
 viewBox="0.00 0.00 1309.99 188.50" xmlns="http://www.w3.org/2000/svg" xmlns:xlink="http://www.w3.org/1999/xlink">
<g id="graph0" class="graph" transform="scale(1 1) rotate(0) translate(4 184.5)">
<title>%3</title>
<polygon fill="white" stroke="none" points="-4,4 -4,-184.5 1305.99,-184.5 1305.99,4 -4,4"/>
<!-- 1995.Amauris_damocles -->
<g id="node1" class="node"><title>1995.Amauris_damocles</title>
<polygon fill="#ffffcc" stroke="black" points="1301.98,-86.5442 1301.98,-101.456 1233.17,-112 1135.85,-112 1067.04,-101.456 1067.04,-86.5442 1135.85,-76 1233.17,-76 1301.98,-86.5442"/>
<text text-anchor="middle" x="1184.51" y="-90.3" font-family="Helvetica,sans-Serif" font-size="14.00">1995.Amauris_damocles</text>
</g>
<!-- 1995.Amauris_damocles_subsp_makuyensis -->
<g id="node2" class="node"><title>1995.Amauris_damocles_subsp_makuyensis</title>
<polygon fill="#ffffcc" stroke="black" points="1030.04,-64.5442 1030.04,-79.4558 910.523,-90 741.503,-90 621.987,-79.4558 621.987,-64.5442 741.503,-54 910.523,-54 1030.04,-64.5442"/>
<text text-anchor="middle" x="826.013" y="-68.3" font-family="Helvetica,sans-Serif" font-size="14.00">1995.Amauris_damocles_subsp_makuyensis</text>
</g>
<!-- 1995.Amauris_damocles_subsp_makuyensis&#45;&gt;1995.Amauris_damocles -->
<g id="edge1" class="edge"><title>1995.Amauris_damocles_subsp_makuyensis&#45;&gt;1995.Amauris_damocles</title>
<path fill="none" stroke="#000000" d="M996.387,-82.4523C1016.73,-83.708 1037.24,-84.9732 1056.83,-86.1822"/>
<polygon fill="#000000" stroke="#000000" points="1056.79,-89.6864 1066.98,-86.809 1057.22,-82.6997 1056.79,-89.6864"/>
</g>
<!-- 1995.Amauris_damocles_subsp_damocles -->
<g id="node3" class="node"><title>1995.Amauris_damocles_subsp_damocles</title>
<polygon fill="#ffffcc" stroke="black" points="1020.34,-13.5442 1020.34,-28.4558 906.506,-39 745.52,-39 631.685,-28.4558 631.685,-13.5442 745.52,-3 906.506,-3 1020.34,-13.5442"/>
<text text-anchor="middle" x="826.013" y="-17.3" font-family="Helvetica,sans-Serif" font-size="14.00">1995.Amauris_damocles_subsp_damocles</text>
</g>
<!-- 1995.Amauris_damocles_subsp_damocles&#45;&gt;1995.Amauris_damocles -->
<g id="edge3" class="edge"><title>1995.Amauris_damocles_subsp_damocles&#45;&gt;1995.Amauris_damocles</title>
<path fill="none" stroke="#000000" d="M964.654,-33.6581C986.636,-36.7158 1009.04,-40.4537 1030.03,-45 1062.18,-51.9667 1097.19,-62.8767 1125.65,-72.6353"/>
<polygon fill="#000000" stroke="#000000" points="1124.83,-76.0556 1135.42,-76.0306 1127.12,-69.4432 1124.83,-76.0556"/>
</g>
<!-- 1995.Amauris_damocles_subsp_hyalites -->
<g id="node4" class="node"><title>1995.Amauris_damocles_subsp_hyalites</title>
<polygon fill="#ffffcc" stroke="black" points="1011.05,-110.544 1011.05,-125.456 902.658,-136 749.368,-136 640.976,-125.456 640.976,-110.544 749.368,-100 902.658,-100 1011.05,-110.544"/>
<text text-anchor="middle" x="826.013" y="-114.3" font-family="Helvetica,sans-Serif" font-size="14.00">1995.Amauris_damocles_subsp_hyalites</text>
</g>
<!-- 1995.Amauris_damocles_subsp_hyalites&#45;&gt;1995.Amauris_damocles -->
<g id="edge2" class="edge"><title>1995.Amauris_damocles_subsp_hyalites&#45;&gt;1995.Amauris_damocles</title>
<path fill="none" stroke="#000000" d="M981.304,-107.613C1007.1,-105.876 1033.59,-104.093 1058.54,-102.413"/>
<polygon fill="#000000" stroke="#000000" points="1059.01,-105.889 1068.76,-101.725 1058.54,-98.905 1059.01,-105.889"/>
</g>
<!-- 1997.Amauris_hyalites_subsp_hyalites -->
<g id="node5" class="node"><title>1997.Amauris_hyalites_subsp_hyalites</title>
<polygon fill="#ccffcc" stroke="black" points="556,-138 305,-138 305,-102 556,-102 556,-138"/>
<text text-anchor="middle" x="430.5" y="-116.3" font-family="Helvetica,sans-Serif" font-size="14.00">1997.Amauris_hyalites_subsp_hyalites</text>
</g>
<!-- 1997.Amauris_hyalites_subsp_hyalites&#45;&gt;1995.Amauris_damocles -->
<g id="edge7" class="edge"><title>1997.Amauris_hyalites_subsp_hyalites&#45;&gt;1995.Amauris_damocles</title>
<path fill="none" stroke="#aa00ff" stroke-dasharray="5,2" d="M556.052,-137.568C677.644,-151.62 867.556,-165.319 1030.03,-141 1066.96,-135.472 1107.28,-122.854 1137.32,-112.083"/>
<text text-anchor="middle" x="826.013" y="-157.8" font-family="Times,serif" font-size="14.00">&lt;</text>
</g>
<!-- 1997.Amauris_hyalites_subsp_hyalites&#45;&gt;1995.Amauris_damocles_subsp_hyalites -->
<g id="edge6" class="edge"><title>1997.Amauris_hyalites_subsp_hyalites&#45;&gt;1995.Amauris_damocles_subsp_hyalites</title>
<path fill="none" stroke="#aa00ff" stroke-dasharray="5,2" d="M556.01,-119.367C583.03,-119.23 612.162,-119.082 640.93,-118.936"/>
<text text-anchor="middle" x="595.5" y="-122.8" font-family="Times,serif" font-size="14.00">&lt;</text>
</g>
<!-- 1997.Amauris_hyalites_subsp_makuyensis -->
<g id="node6" class="node"><title>1997.Amauris_hyalites_subsp_makuyensis</title>
<polygon fill="#ccffcc" stroke="black" points="569,-89 292,-89 292,-53 569,-53 569,-89"/>
<text text-anchor="middle" x="430.5" y="-67.3" font-family="Helvetica,sans-Serif" font-size="14.00">1997.Amauris_hyalites_subsp_makuyensis</text>
</g>
<!-- 1997.Amauris_hyalites_subsp_makuyensis&#45;&gt;1995.Amauris_damocles_subsp_makuyensis -->
<g id="edge9" class="edge"><title>1997.Amauris_hyalites_subsp_makuyensis&#45;&gt;1995.Amauris_damocles_subsp_makuyensis</title>
<path fill="none" stroke="#aa00ff" stroke-dasharray="5,2" d="M569.132,-71.3498C586.198,-71.3931 603.918,-71.4382 621.71,-71.4834"/>
<text text-anchor="middle" x="595.5" y="-75.8" font-family="Times,serif" font-size="14.00">==</text>
</g>
<!-- 1997.Amauris_hyalites -->
<g id="node7" class="node"><title>1997.Amauris_hyalites</title>
<polygon fill="#ccffcc" stroke="black" points="255,-111 101,-111 101,-75 255,-75 255,-111"/>
<text text-anchor="middle" x="178" y="-89.3" font-family="Helvetica,sans-Serif" font-size="14.00">1997.Amauris_hyalites</text>
</g>
<!-- 1997.Amauris_hyalites&#45;&gt;1997.Amauris_hyalites_subsp_hyalites -->
<g id="edge5" class="edge"><title>1997.Amauris_hyalites&#45;&gt;1997.Amauris_hyalites_subsp_hyalites</title>
<path fill="none" stroke="#000000" d="M265.259,-102.297C278.002,-103.671 291.343,-105.109 304.678,-106.546"/>
<polygon fill="#000000" stroke="#000000" points="265.496,-98.8027 255.179,-101.211 264.746,-105.762 265.496,-98.8027"/>
</g>
<!-- 1997.Amauris_hyalites&#45;&gt;1997.Amauris_hyalites_subsp_makuyensis -->
<g id="edge4" class="edge"><title>1997.Amauris_hyalites&#45;&gt;1997.Amauris_hyalites_subsp_makuyensis</title>
<path fill="none" stroke="#000000" d="M265.165,-85.4326C273.789,-84.6752 282.687,-83.8937 291.673,-83.1046"/>
<polygon fill="#000000" stroke="#000000" points="264.834,-81.9481 255.179,-86.3097 265.446,-88.9213 264.834,-81.9481"/>
</g>
<!-- 1997.Amauris_damocles -->
<g id="node8" class="node"><title>1997.Amauris_damocles</title>
<polygon fill="#ccffcc" stroke="black" points="514,-36 347,-36 347,-0 514,-0 514,-36"/>
<text text-anchor="middle" x="430.5" y="-14.3" font-family="Helvetica,sans-Serif" font-size="14.00">1997.Amauris_damocles</text>
</g>
<!-- 1997.Amauris_damocles&#45;&gt;1995.Amauris_damocles_subsp_damocles -->
<g id="edge8" class="edge"><title>1997.Amauris_damocles&#45;&gt;1995.Amauris_damocles_subsp_damocles</title>
<path fill="none" stroke="#aa00ff" stroke-dasharray="5,2" d="M514.473,-18.6326C548.861,-18.8947 590.313,-19.2107 631.571,-19.5253"/>
<text text-anchor="middle" x="595.5" y="-23.8" font-family="Times,serif" font-size="14.00">==</text>
</g>
<!-- Legend -->
<g id="node9" class="node"><title>Legend</title>
<polygon fill="white" stroke="black" points="83,-180.5 0,-180.5 0,-5.5 83,-5.5 83,-180.5"/>
<polygon fill="none" stroke="black" points="0.5,-155 0.5,-180 83.5,-180 83.5,-155 0.5,-155"/>
<text text-anchor="start" x="19" y="-163.8" font-family="Arial Black" font-size="14.00"> Nodes</text>
<polygon fill="#ffffcc" stroke="none" points="0.5,-130 0.5,-155 65.5,-155 65.5,-130 0.5,-130"/>
<polygon fill="none" stroke="black" points="0.5,-130 0.5,-155 65.5,-155 65.5,-130 0.5,-130"/>
<text text-anchor="start" x="17.5" y="-138.8" font-family="Helvetica,sans-Serif" font-size="14.00">1995</text>
<polygon fill="none" stroke="black" points="65.5,-130 65.5,-155 83.5,-155 83.5,-130 65.5,-130"/>
<text text-anchor="start" x="70.5" y="-138.8" font-family="Helvetica,sans-Serif" font-size="14.00">4</text>
<polygon fill="#ccffcc" stroke="none" points="0.5,-105 0.5,-130 65.5,-130 65.5,-105 0.5,-105"/>
<polygon fill="none" stroke="black" points="0.5,-105 0.5,-130 65.5,-130 65.5,-105 0.5,-105"/>
<text text-anchor="start" x="17.5" y="-113.8" font-family="Helvetica,sans-Serif" font-size="14.00">1997</text>
<polygon fill="none" stroke="black" points="65.5,-105 65.5,-130 83.5,-130 83.5,-105 65.5,-105"/>
<text text-anchor="start" x="70.5" y="-113.8" font-family="Helvetica,sans-Serif" font-size="14.00">4</text>
<polygon fill="none" stroke="black" points="0.5,-80 0.5,-105 83.5,-105 83.5,-80 0.5,-80"/>
<text text-anchor="start" x="17.5" y="-88.8" font-family="Arial Black" font-size="14.00"> Edges </text>
<polygon fill="none" stroke="black" points="0.5,-55 0.5,-80 65.5,-80 65.5,-55 0.5,-55"/>
<text text-anchor="start" x="5.5" y="-63.8" font-family="Helvetica,sans-Serif" font-size="14.00" fill="#000000">isa_1995</text>
<polygon fill="none" stroke="black" points="65.5,-55 65.5,-80 83.5,-80 83.5,-55 65.5,-55"/>
<text text-anchor="start" x="70.5" y="-63.8" font-family="Helvetica,sans-Serif" font-size="14.00">3</text>
<polygon fill="none" stroke="black" points="0.5,-30 0.5,-55 65.5,-55 65.5,-30 0.5,-30"/>
<text text-anchor="start" x="5.5" y="-38.8" font-family="Helvetica,sans-Serif" font-size="14.00" fill="#000000">isa_1997</text>
<polygon fill="none" stroke="black" points="65.5,-30 65.5,-55 83.5,-55 83.5,-30 65.5,-30"/>
<text text-anchor="start" x="70.5" y="-38.8" font-family="Helvetica,sans-Serif" font-size="14.00">2</text>
<polygon fill="none" stroke="black" points="0.5,-5 0.5,-30 65.5,-30 65.5,-5 0.5,-5"/>
<text text-anchor="start" x="22" y="-13.8" font-family="Helvetica,sans-Serif" font-size="14.00" fill="#aa00ff">Art.</text>
<polygon fill="none" stroke="black" points="65.5,-5 65.5,-30 83.5,-30 83.5,-5 65.5,-5"/>
<text text-anchor="start" x="70.5" y="-13.8" font-family="Helvetica,sans-Serif" font-size="14.00">4</text>
</g>
</g>
</svg>
