<?xml version="1.0" encoding="UTF-8" standalone="no"?>
<!DOCTYPE svg PUBLIC "-//W3C//DTD SVG 1.1//EN"
 "http://www.w3.org/Graphics/SVG/1.1/DTD/svg11.dtd">
<!-- Generated by graphviz version 2.38.0 (20140413.2041)
 -->
<!-- Title: %3 Pages: 1 -->
<svg width="1318pt" height="710pt"
 viewBox="0.00 0.00 1317.99 709.94" xmlns="http://www.w3.org/2000/svg" xmlns:xlink="http://www.w3.org/1999/xlink">
<g id="graph0" class="graph" transform="scale(1 1) rotate(0) translate(4 705.943)">
<title>%3</title>
<polygon fill="white" stroke="none" points="-4,4 -4,-705.943 1313.99,-705.943 1313.99,4 -4,4"/>
<!-- 1995.Amauris_damocles -->
<g id="node1" class="node"><title>1995.Amauris_damocles</title>
<polygon fill="#ffffcc" stroke="black" points="343.95,-323.487 343.95,-338.399 275.139,-348.943 177.827,-348.943 109.017,-338.399 109.017,-323.487 177.827,-312.943 275.139,-312.943 343.95,-323.487"/>
<text text-anchor="middle" x="226.483" y="-327.243" font-family="Helvetica,sans-Serif" font-size="14.00">1995.Amauris_damocles</text>
</g>
<!-- 1995.Amauris_damocles_subsp_makuyensis -->
<g id="node2" class="node"><title>1995.Amauris_damocles_subsp_makuyensis</title>
<polygon fill="#ffffcc" stroke="black" points="789.005,-409.487 789.005,-424.399 669.49,-434.943 500.469,-434.943 380.954,-424.399 380.954,-409.487 500.469,-398.943 669.49,-398.943 789.005,-409.487"/>
<text text-anchor="middle" x="584.979" y="-413.243" font-family="Helvetica,sans-Serif" font-size="14.00">1995.Amauris_damocles_subsp_makuyensis</text>
</g>
<!-- 1995.Amauris_damocles&#45;&gt;1995.Amauris_damocles_subsp_makuyensis -->
<g id="edge1" class="edge"><title>1995.Amauris_damocles&#45;&gt;1995.Amauris_damocles_subsp_makuyensis</title>
<path fill="none" stroke="#000000" d="M301.551,-348.811C362.401,-363.49 448.21,-384.19 509.242,-398.913"/>
<polygon fill="#000000" stroke="#000000" points="302.171,-345.36 291.629,-346.417 300.53,-352.165 302.171,-345.36"/>
</g>
<!-- 1995.Amauris_damocles_subsp_damocles -->
<g id="node3" class="node"><title>1995.Amauris_damocles_subsp_damocles</title>
<polygon fill="#ffffcc" stroke="black" points="779.307,-323.487 779.307,-338.399 665.473,-348.943 504.486,-348.943 390.651,-338.399 390.651,-323.487 504.486,-312.943 665.473,-312.943 779.307,-323.487"/>
<text text-anchor="middle" x="584.979" y="-327.243" font-family="Helvetica,sans-Serif" font-size="14.00">1995.Amauris_damocles_subsp_damocles</text>
</g>
<!-- 1995.Amauris_damocles&#45;&gt;1995.Amauris_damocles_subsp_damocles -->
<g id="edge3" class="edge"><title>1995.Amauris_damocles&#45;&gt;1995.Amauris_damocles_subsp_damocles</title>
<path fill="none" stroke="#000000" d="M354.523,-330.943C366.359,-330.943 378.523,-330.943 390.782,-330.943"/>
<polygon fill="#000000" stroke="#000000" points="354.213,-327.443 344.213,-330.943 354.213,-334.443 354.213,-327.443"/>
</g>
<!-- 1995.Amauris_damocles_subsp_hyalites -->
<g id="node4" class="node"><title>1995.Amauris_damocles_subsp_hyalites</title>
<polygon fill="#ffffcc" stroke="black" points="770.016,-29.487 770.016,-44.3987 661.624,-54.9428 508.334,-54.9428 399.942,-44.3987 399.942,-29.487 508.334,-18.9428 661.624,-18.9428 770.016,-29.487"/>
<text text-anchor="middle" x="584.979" y="-33.2428" font-family="Helvetica,sans-Serif" font-size="14.00">1995.Amauris_damocles_subsp_hyalites</text>
</g>
<!-- 1995.Amauris_damocles&#45;&gt;1995.Amauris_damocles_subsp_hyalites -->
<g id="edge2" class="edge"><title>1995.Amauris_damocles&#45;&gt;1995.Amauris_damocles_subsp_hyalites</title>
<path fill="none" stroke="#000000" d="M233.545,-302.75C246.812,-248.05 283.696,-127.336 361.966,-63.9428 373.357,-54.7176 386.215,-47.6259 399.862,-42.2393"/>
<polygon fill="#000000" stroke="#000000" points="230.071,-302.24 231.202,-312.774 236.887,-303.833 230.071,-302.24"/>
</g>
<!-- 1997.Amauris_hyalites_subsp_hyalites -->
<g id="node5" class="node"><title>1997.Amauris_hyalites_subsp_hyalites</title>
<polygon fill="#ccffcc" stroke="black" points="1105.99,-523.943 854.992,-523.943 854.992,-487.943 1105.99,-487.943 1105.99,-523.943"/>
<text text-anchor="middle" x="980.492" y="-502.243" font-family="Helvetica,sans-Serif" font-size="14.00">1997.Amauris_hyalites_subsp_hyalites</text>
</g>
<!-- 1995.Amauris_damocles&#45;&gt;1997.Amauris_hyalites_subsp_hyalites -->
<g id="edge17" class="edge"><title>1995.Amauris_damocles&#45;&gt;1997.Amauris_hyalites_subsp_hyalites</title>
<path fill="none" stroke="#aa00ff" stroke-dasharray="5,2" d="M246.669,-349.111C274.212,-374.193 327.548,-419.132 380.966,-443.943 564.217,-529.056 636.236,-620.591 823.992,-545.943 834.218,-541.877 832.138,-533.841 841.992,-528.943 846.11,-526.896 850.374,-525.026 854.74,-523.319"/>
<text text-anchor="middle" x="584.979" y="-576.743" font-family="Times,serif" font-size="14.00">&gt;</text>
</g>
<!-- 1997.Amauris_damocles -->
<g id="node6" class="node"><title>1997.Amauris_damocles</title>
<polygon fill="#ccffcc" stroke="black" points="1063.99,-144.943 896.992,-144.943 896.992,-108.943 1063.99,-108.943 1063.99,-144.943"/>
<text text-anchor="middle" x="980.492" y="-123.243" font-family="Helvetica,sans-Serif" font-size="14.00">1997.Amauris_damocles</text>
</g>
<!-- 1995.Amauris_damocles&#45;&gt;1997.Amauris_damocles -->
<g id="edge20" class="edge"><title>1995.Amauris_damocles&#45;&gt;1997.Amauris_damocles</title>
<path fill="none" stroke="#aa00ff" stroke-dasharray="5,2" d="M244.544,-312.615C271.105,-285.163 325.12,-233.545 380.966,-204.943 555.322,-115.646 612.744,-117.266 806.992,-91.9428 849.869,-86.3531 898.048,-97.6357 932.569,-108.847"/>
<text text-anchor="middle" x="584.979" y="-208.743" font-family="Times,serif" font-size="14.00">&gt;</text>
</g>
<!-- 1997.Amauris_hyalites_subsp_makuyensis -->
<g id="node7" class="node"><title>1997.Amauris_hyalites_subsp_makuyensis</title>
<polygon fill="#ccffcc" stroke="black" points="1118.99,-332.943 841.992,-332.943 841.992,-296.943 1118.99,-296.943 1118.99,-332.943"/>
<text text-anchor="middle" x="980.492" y="-311.243" font-family="Helvetica,sans-Serif" font-size="14.00">1997.Amauris_hyalites_subsp_makuyensis</text>
</g>
<!-- 1995.Amauris_damocles&#45;&gt;1997.Amauris_hyalites_subsp_makuyensis -->
<g id="edge21" class="edge"><title>1995.Amauris_damocles&#45;&gt;1997.Amauris_hyalites_subsp_makuyensis</title>
<path fill="none" stroke="#aa00ff" stroke-dasharray="5,2" d="M270.955,-312.828C369.991,-274.017 619.629,-190.116 823.992,-237.943 872.244,-249.235 922.692,-277.809 952.59,-296.792"/>
<text text-anchor="middle" x="584.979" y="-278.743" font-family="Times,serif" font-size="14.00">&gt;</text>
</g>
<!-- 1997.Amauris_hyalites -->
<g id="node8" class="node"><title>1997.Amauris_hyalites</title>
<polygon fill="#ccffcc" stroke="black" points="1309.99,-498.943 1155.99,-498.943 1155.99,-462.943 1309.99,-462.943 1309.99,-498.943"/>
<text text-anchor="middle" x="1232.99" y="-477.243" font-family="Helvetica,sans-Serif" font-size="14.00">1997.Amauris_hyalites</text>
</g>
<!-- 1995.Amauris_damocles&#45;&gt;1997.Amauris_hyalites -->
<g id="edge6" class="edge"><title>1995.Amauris_damocles&#45;&gt;1997.Amauris_hyalites</title>
<path fill="none" stroke="#aa00ff" stroke-dasharray="5,2" d="M231.549,-348.944C243.852,-398.617 285.831,-537.522 380.966,-591.943 665.699,-754.819 814.681,-707.399 1118.99,-584.943 1163.02,-567.226 1200.45,-523.867 1219.18,-499.09"/>
<text text-anchor="middle" x="815.492" y="-690.743" font-family="Times,serif" font-size="14.00">&gt;</text>
</g>
<!-- 1995.Amauris_damocles_subsp_makuyensis&#45;&gt;1997.Amauris_hyalites_subsp_hyalites -->
<g id="edge11" class="edge"><title>1995.Amauris_damocles_subsp_makuyensis&#45;&gt;1997.Amauris_hyalites_subsp_hyalites</title>
<path fill="none" stroke="#aa00ff" stroke-dasharray="5,2" d="M612.714,-435.051C652.82,-461.008 731.889,-507.574 806.992,-524.943 840.75,-532.75 878.988,-529.708 910.87,-523.99"/>
<text text-anchor="middle" x="815.492" y="-530.743" font-family="Times,serif" font-size="14.00">!</text>
</g>
<!-- 1995.Amauris_damocles_subsp_makuyensis&#45;&gt;1997.Amauris_damocles -->
<g id="edge14" class="edge"><title>1995.Amauris_damocles_subsp_makuyensis&#45;&gt;1997.Amauris_damocles</title>
<path fill="none" stroke="#aa00ff" stroke-dasharray="5,2" d="M712.367,-402.663C753.334,-391.897 795.507,-373.224 823.992,-340.943 840.452,-322.29 829.694,-309.567 841.992,-287.943 875.065,-229.791 930.61,-172.949 959.958,-144.947"/>
<text text-anchor="middle" x="815.492" y="-358.743" font-family="Times,serif" font-size="14.00">!</text>
</g>
<!-- 1995.Amauris_damocles_subsp_makuyensis&#45;&gt;1997.Amauris_hyalites_subsp_makuyensis -->
<g id="edge7" class="edge"><title>1995.Amauris_damocles_subsp_makuyensis&#45;&gt;1997.Amauris_hyalites_subsp_makuyensis</title>
<path fill="none" stroke="#aa00ff" stroke-dasharray="5,2" d="M730.529,-404.318C761.704,-399.711 794.226,-393.448 823.992,-384.943 868.258,-372.295 916.121,-349.185 946.879,-332.989"/>
<text text-anchor="middle" x="815.492" y="-391.743" font-family="Times,serif" font-size="14.00">==</text>
</g>
<!-- 1995.Amauris_damocles_subsp_makuyensis&#45;&gt;1997.Amauris_hyalites -->
<g id="edge18" class="edge"><title>1995.Amauris_damocles_subsp_makuyensis&#45;&gt;1997.Amauris_hyalites</title>
<path fill="none" stroke="#aa00ff" stroke-dasharray="5,2" d="M607.711,-435.037C645.398,-465.102 726.579,-524.192 806.992,-545.943 940.965,-582.181 984.106,-565.618 1118.99,-532.943 1148.17,-525.876 1178.97,-511.153 1201.04,-499.171"/>
<text text-anchor="middle" x="980.492" y="-569.743" font-family="Times,serif" font-size="14.00">&lt;</text>
</g>
<!-- 1995.Amauris_damocles_subsp_damocles&#45;&gt;1997.Amauris_hyalites_subsp_hyalites -->
<g id="edge15" class="edge"><title>1995.Amauris_damocles_subsp_damocles&#45;&gt;1997.Amauris_hyalites_subsp_hyalites</title>
<path fill="none" stroke="#aa00ff" stroke-dasharray="5,2" d="M710.374,-344.807C739.6,-353.601 768.237,-367.643 788.992,-389.943 815.005,-417.892 779.623,-447.321 806.992,-473.943 820.311,-486.898 837.076,-495.496 854.89,-501.078"/>
<text text-anchor="middle" x="815.492" y="-488.743" font-family="Times,serif" font-size="14.00">!</text>
</g>
<!-- 1995.Amauris_damocles_subsp_damocles&#45;&gt;1997.Amauris_damocles -->
<g id="edge8" class="edge"><title>1995.Amauris_damocles_subsp_damocles&#45;&gt;1997.Amauris_damocles</title>
<path fill="none" stroke="#aa00ff" stroke-dasharray="5,2" d="M627.722,-312.934C669.138,-294.759 734.176,-265.386 788.992,-236.943 804.797,-228.742 898.679,-174.109 948.489,-145.05"/>
<text text-anchor="middle" x="815.492" y="-229.743" font-family="Times,serif" font-size="14.00">==</text>
</g>
<!-- 1995.Amauris_damocles_subsp_damocles&#45;&gt;1997.Amauris_hyalites_subsp_makuyensis -->
<g id="edge12" class="edge"><title>1995.Amauris_damocles_subsp_damocles&#45;&gt;1997.Amauris_hyalites_subsp_makuyensis</title>
<path fill="none" stroke="#aa00ff" stroke-dasharray="5,2" d="M776.396,-323.201C798.466,-322.303 820.643,-321.402 841.815,-320.541"/>
<text text-anchor="middle" x="815.492" y="-325.743" font-family="Times,serif" font-size="14.00">!</text>
</g>
<!-- 1995.Amauris_damocles_subsp_damocles&#45;&gt;1997.Amauris_hyalites -->
<g id="edge10" class="edge"><title>1995.Amauris_damocles_subsp_damocles&#45;&gt;1997.Amauris_hyalites</title>
<path fill="none" stroke="#aa00ff" stroke-dasharray="5,2" d="M677.856,-347.876C714.041,-356.99 754.987,-370.48 788.992,-389.943 798.542,-395.409 797.155,-402.012 806.992,-406.943 822.476,-414.703 1037.53,-449.893 1155.63,-468.815"/>
<text text-anchor="middle" x="980.492" y="-465.743" font-family="Times,serif" font-size="14.00">!</text>
</g>
<!-- 1995.Amauris_damocles_subsp_hyalites&#45;&gt;1997.Amauris_hyalites_subsp_hyalites -->
<g id="edge16" class="edge"><title>1995.Amauris_damocles_subsp_hyalites&#45;&gt;1997.Amauris_hyalites_subsp_hyalites</title>
<path fill="none" stroke="#aa00ff" stroke-dasharray="5,2" d="M770.113,-44.0427C776.91,-48.2181 783.255,-53.1487 788.992,-58.9428 817.743,-87.98 799.479,-201.777 806.992,-241.943 812.167,-269.607 818.764,-275.288 823.992,-302.943 831.296,-341.574 815.5,-449.894 841.992,-478.943 845.845,-483.167 850.148,-486.843 854.788,-490.036"/>
<text text-anchor="middle" x="815.492" y="-306.743" font-family="Times,serif" font-size="14.00">&gt;</text>
</g>
<!-- 1995.Amauris_damocles_subsp_hyalites&#45;&gt;1997.Amauris_damocles -->
<g id="edge13" class="edge"><title>1995.Amauris_damocles_subsp_hyalites&#45;&gt;1997.Amauris_damocles</title>
<path fill="none" stroke="#aa00ff" stroke-dasharray="5,2" d="M770.055,-38.5836C788.438,-41.0216 806.689,-44.3832 823.992,-48.9428 871.889,-61.5642 922.235,-90.0257 952.236,-108.852"/>
<text text-anchor="middle" x="815.492" y="-52.7428" font-family="Times,serif" font-size="14.00">!</text>
</g>
<!-- 1995.Amauris_damocles_subsp_hyalites&#45;&gt;1997.Amauris_hyalites_subsp_makuyensis -->
<g id="edge19" class="edge"><title>1995.Amauris_damocles_subsp_hyalites&#45;&gt;1997.Amauris_hyalites_subsp_makuyensis</title>
<path fill="none" stroke="#aa00ff" stroke-dasharray="5,2" d="M762.543,-45.1686C771.822,-48.917 780.716,-53.4621 788.992,-58.9428 829.303,-85.638 814.38,-114.255 841.992,-153.943 880.409,-209.16 934.164,-267.705 961.698,-296.604"/>
<text text-anchor="middle" x="815.492" y="-117.743" font-family="Times,serif" font-size="14.00">!</text>
</g>
<!-- 1995.Amauris_damocles_subsp_hyalites&#45;&gt;1997.Amauris_hyalites -->
<g id="edge9" class="edge"><title>1995.Amauris_damocles_subsp_hyalites&#45;&gt;1997.Amauris_hyalites</title>
<path fill="none" stroke="#aa00ff" stroke-dasharray="5,2" d="M661.003,-18.9298C774.83,3.56446 991.378,26.7099 1118.99,-84.9428 1178.18,-136.728 1219.09,-391.963 1229.43,-462.724"/>
<text text-anchor="middle" x="980.492" y="-88.7428" font-family="Times,serif" font-size="14.00">&gt;&lt;</text>
</g>
<!-- 1997.Amauris_hyalites_subsp_hyalites&#45;&gt;1997.Amauris_hyalites -->
<g id="edge5" class="edge"><title>1997.Amauris_hyalites_subsp_hyalites&#45;&gt;1997.Amauris_hyalites</title>
<path fill="none" stroke="#000000" d="M1106.01,-493.516C1119.38,-492.182 1132.76,-490.846 1145.54,-489.57"/>
<polygon fill="#000000" stroke="#000000" points="1146.05,-493.037 1155.66,-488.561 1145.36,-486.072 1146.05,-493.037"/>
</g>
<!-- 1997.Amauris_hyalites_subsp_makuyensis&#45;&gt;1997.Amauris_hyalites -->
<g id="edge4" class="edge"><title>1997.Amauris_hyalites_subsp_makuyensis&#45;&gt;1997.Amauris_hyalites</title>
<path fill="none" stroke="#000000" d="M1008.78,-333.024C1054.33,-363.209 1145.84,-423.85 1196.39,-457.353"/>
<polygon fill="#000000" stroke="#000000" points="1194.47,-460.278 1204.74,-462.884 1198.34,-454.443 1194.47,-460.278"/>
</g>
<!-- Legend -->
<g id="node9" class="node"><title>Legend</title>
<polygon fill="white" stroke="black" points="91,-418.443 0,-418.443 0,-243.443 91,-243.443 91,-418.443"/>
<polygon fill="none" stroke="black" points="0.5,-392.943 0.5,-417.943 91.5,-417.943 91.5,-392.943 0.5,-392.943"/>
<text text-anchor="start" x="23" y="-401.743" font-family="Arial Black" font-size="14.00"> Nodes</text>
<polygon fill="#ffffcc" stroke="none" points="0.5,-367.943 0.5,-392.943 65.5,-392.943 65.5,-367.943 0.5,-367.943"/>
<polygon fill="none" stroke="black" points="0.5,-367.943 0.5,-392.943 65.5,-392.943 65.5,-367.943 0.5,-367.943"/>
<text text-anchor="start" x="17.5" y="-376.743" font-family="Helvetica,sans-Serif" font-size="14.00">1995</text>
<polygon fill="none" stroke="black" points="65.5,-367.943 65.5,-392.943 91.5,-392.943 91.5,-367.943 65.5,-367.943"/>
<text text-anchor="start" x="74.5" y="-376.743" font-family="Helvetica,sans-Serif" font-size="14.00">4</text>
<polygon fill="#ccffcc" stroke="none" points="0.5,-342.943 0.5,-367.943 65.5,-367.943 65.5,-342.943 0.5,-342.943"/>
<polygon fill="none" stroke="black" points="0.5,-342.943 0.5,-367.943 65.5,-367.943 65.5,-342.943 0.5,-342.943"/>
<text text-anchor="start" x="17.5" y="-351.743" font-family="Helvetica,sans-Serif" font-size="14.00">1997</text>
<polygon fill="none" stroke="black" points="65.5,-342.943 65.5,-367.943 91.5,-367.943 91.5,-342.943 65.5,-342.943"/>
<text text-anchor="start" x="74.5" y="-351.743" font-family="Helvetica,sans-Serif" font-size="14.00">4</text>
<polygon fill="none" stroke="black" points="0.5,-317.943 0.5,-342.943 91.5,-342.943 91.5,-317.943 0.5,-317.943"/>
<text text-anchor="start" x="21.5" y="-326.743" font-family="Arial Black" font-size="14.00"> Edges </text>
<polygon fill="none" stroke="black" points="0.5,-292.943 0.5,-317.943 65.5,-317.943 65.5,-292.943 0.5,-292.943"/>
<text text-anchor="start" x="5.5" y="-301.743" font-family="Helvetica,sans-Serif" font-size="14.00" fill="#000000">isa_1995</text>
<polygon fill="none" stroke="black" points="65.5,-292.943 65.5,-317.943 91.5,-317.943 91.5,-292.943 65.5,-292.943"/>
<text text-anchor="start" x="74.5" y="-301.743" font-family="Helvetica,sans-Serif" font-size="14.00">3</text>
<polygon fill="none" stroke="black" points="0.5,-267.943 0.5,-292.943 65.5,-292.943 65.5,-267.943 0.5,-267.943"/>
<text text-anchor="start" x="5.5" y="-276.743" font-family="Helvetica,sans-Serif" font-size="14.00" fill="#000000">isa_1997</text>
<polygon fill="none" stroke="black" points="65.5,-267.943 65.5,-292.943 91.5,-292.943 91.5,-267.943 65.5,-267.943"/>
<text text-anchor="start" x="74.5" y="-276.743" font-family="Helvetica,sans-Serif" font-size="14.00">2</text>
<polygon fill="none" stroke="black" points="0.5,-242.943 0.5,-267.943 65.5,-267.943 65.5,-242.943 0.5,-242.943"/>
<text text-anchor="start" x="22" y="-251.743" font-family="Helvetica,sans-Serif" font-size="14.00" fill="#aa00ff">Art.</text>
<polygon fill="none" stroke="black" points="65.5,-242.943 65.5,-267.943 91.5,-267.943 91.5,-242.943 65.5,-242.943"/>
<text text-anchor="start" x="70.5" y="-251.743" font-family="Helvetica,sans-Serif" font-size="14.00">16</text>
</g>
</g>
</svg>
