<?xml version="1.0" encoding="UTF-8" standalone="no"?>
<!DOCTYPE svg PUBLIC "-//W3C//DTD SVG 1.1//EN"
 "http://www.w3.org/Graphics/SVG/1.1/DTD/svg11.dtd">
<!-- Generated by graphviz version 2.38.0 (20140413.2041)
 -->
<!-- Title: %3 Pages: 1 -->
<svg width="1310pt" height="224pt"
 viewBox="0.00 0.00 1309.99 223.50" xmlns="http://www.w3.org/2000/svg" xmlns:xlink="http://www.w3.org/1999/xlink">
<g id="graph0" class="graph" transform="scale(1 1) rotate(0) translate(4 219.5)">
<title>%3</title>
<polygon fill="white" stroke="none" points="-4,4 -4,-219.5 1305.99,-219.5 1305.99,4 -4,4"/>
<!-- 1995.Amauris_damocles -->
<g id="node1" class="node"><title>1995.Amauris_damocles</title>
<polygon fill="#ffffcc" stroke="black" points="1301.98,-51.5442 1301.98,-66.4558 1233.17,-77 1135.85,-77 1067.04,-66.4558 1067.04,-51.5442 1135.85,-41 1233.17,-41 1301.98,-51.5442"/>
<text text-anchor="middle" x="1184.51" y="-55.3" font-family="Helvetica,sans-Serif" font-size="14.00">1995.Amauris_damocles</text>
</g>
<!-- 1995.Amauris_damocles_subsp_makuyensis -->
<g id="node2" class="node"><title>1995.Amauris_damocles_subsp_makuyensis</title>
<polygon fill="#ffffcc" stroke="black" points="1030.04,-97.5442 1030.04,-112.456 910.523,-123 741.503,-123 621.987,-112.456 621.987,-97.5442 741.503,-87 910.523,-87 1030.04,-97.5442"/>
<text text-anchor="middle" x="826.013" y="-101.3" font-family="Helvetica,sans-Serif" font-size="14.00">1995.Amauris_damocles_subsp_makuyensis</text>
</g>
<!-- 1995.Amauris_damocles_subsp_makuyensis&#45;&gt;1995.Amauris_damocles -->
<g id="edge1" class="edge"><title>1995.Amauris_damocles_subsp_makuyensis&#45;&gt;1995.Amauris_damocles</title>
<path fill="none" stroke="#000000" d="M960.893,-91.3975C983.972,-88.7938 1007.71,-85.9524 1030.03,-83 1050.71,-80.2642 1072.9,-76.9908 1093.8,-73.7544"/>
<polygon fill="#000000" stroke="#000000" points="1094.61,-77.1711 1103.95,-72.1711 1093.53,-70.2548 1094.61,-77.1711"/>
</g>
<!-- 1995.Amauris_damocles_subsp_damocles -->
<g id="node3" class="node"><title>1995.Amauris_damocles_subsp_damocles</title>
<polygon fill="#ffffcc" stroke="black" points="1020.34,-51.5442 1020.34,-66.4558 906.506,-77 745.52,-77 631.685,-66.4558 631.685,-51.5442 745.52,-41 906.506,-41 1020.34,-51.5442"/>
<text text-anchor="middle" x="826.013" y="-55.3" font-family="Helvetica,sans-Serif" font-size="14.00">1995.Amauris_damocles_subsp_damocles</text>
</g>
<!-- 1995.Amauris_damocles_subsp_damocles&#45;&gt;1995.Amauris_damocles -->
<g id="edge3" class="edge"><title>1995.Amauris_damocles_subsp_damocles&#45;&gt;1995.Amauris_damocles</title>
<path fill="none" stroke="#000000" d="M1020.39,-59C1032.67,-59 1044.85,-59 1056.7,-59"/>
<polygon fill="#000000" stroke="#000000" points="1057.03,-62.5001 1067.03,-59 1057.03,-55.5001 1057.03,-62.5001"/>
</g>
<!-- 1995.Amauris_damocles_subsp_hyalites -->
<g id="node4" class="node"><title>1995.Amauris_damocles_subsp_hyalites</title>
<polygon fill="#ffffcc" stroke="black" points="1011.05,-10.5442 1011.05,-25.4558 902.658,-36 749.368,-36 640.976,-25.4558 640.976,-10.5442 749.368,-3.55271e-15 902.658,-0 1011.05,-10.5442"/>
<text text-anchor="middle" x="826.013" y="-14.3" font-family="Helvetica,sans-Serif" font-size="14.00">1995.Amauris_damocles_subsp_hyalites</text>
</g>
<!-- 1995.Amauris_damocles_subsp_hyalites&#45;&gt;1995.Amauris_damocles -->
<g id="edge2" class="edge"><title>1995.Amauris_damocles_subsp_hyalites&#45;&gt;1995.Amauris_damocles</title>
<path fill="none" stroke="#000000" d="M951.858,-31.2266C977.708,-34.0502 1004.76,-37.0672 1030.03,-40 1046.97,-41.9668 1064.96,-44.1275 1082.43,-46.2649"/>
<polygon fill="#000000" stroke="#000000" points="1082.29,-49.774 1092.64,-47.5189 1083.14,-42.8262 1082.29,-49.774"/>
</g>
<!-- 1997.Amauris_hyalites -->
<g id="node5" class="node"><title>1997.Amauris_hyalites</title>
<polygon fill="#ccffcc" stroke="black" points="255,-146 101,-146 101,-110 255,-110 255,-146"/>
<text text-anchor="middle" x="178" y="-124.3" font-family="Helvetica,sans-Serif" font-size="14.00">1997.Amauris_hyalites</text>
</g>
<!-- 1997.Amauris_hyalites_subsp_hyalites -->
<g id="node6" class="node"><title>1997.Amauris_hyalites_subsp_hyalites</title>
<polygon fill="#ccffcc" stroke="black" points="556,-166 305,-166 305,-130 556,-130 556,-166"/>
<text text-anchor="middle" x="430.5" y="-144.3" font-family="Helvetica,sans-Serif" font-size="14.00">1997.Amauris_hyalites_subsp_hyalites</text>
</g>
<!-- 1997.Amauris_hyalites&#45;&gt;1997.Amauris_hyalites_subsp_hyalites -->
<g id="edge5" class="edge"><title>1997.Amauris_hyalites&#45;&gt;1997.Amauris_hyalites_subsp_hyalites</title>
<path fill="none" stroke="#000000" d="M265.259,-134.887C278.002,-135.904 291.343,-136.97 304.678,-138.034"/>
<polygon fill="#000000" stroke="#000000" points="265.425,-131.389 255.179,-134.082 264.868,-138.367 265.425,-131.389"/>
</g>
<!-- 1997.Amauris_hyalites_subsp_makuyensis -->
<g id="node7" class="node"><title>1997.Amauris_hyalites_subsp_makuyensis</title>
<polygon fill="#ccffcc" stroke="black" points="569,-125 292,-125 292,-89 569,-89 569,-125"/>
<text text-anchor="middle" x="430.5" y="-103.3" font-family="Helvetica,sans-Serif" font-size="14.00">1997.Amauris_hyalites_subsp_makuyensis</text>
</g>
<!-- 1997.Amauris_hyalites&#45;&gt;1997.Amauris_hyalites_subsp_makuyensis -->
<g id="edge4" class="edge"><title>1997.Amauris_hyalites&#45;&gt;1997.Amauris_hyalites_subsp_makuyensis</title>
<path fill="none" stroke="#000000" d="M265.165,-120.777C273.789,-120.054 282.687,-119.308 291.673,-118.554"/>
<polygon fill="#000000" stroke="#000000" points="264.851,-117.291 255.179,-121.614 265.436,-124.266 264.851,-117.291"/>
</g>
<!-- 1997.Amauris_hyalites_subsp_makuyensis&#45;&gt;1995.Amauris_damocles_subsp_makuyensis -->
<g id="edge7" class="edge"><title>1997.Amauris_hyalites_subsp_makuyensis&#45;&gt;1995.Amauris_damocles_subsp_makuyensis</title>
<path fill="none" stroke="#aa00ff" stroke-dasharray="5,2" d="M569.132,-106.3C586.198,-106.214 603.918,-106.124 621.71,-106.033"/>
<text text-anchor="middle" x="595.5" y="-109.8" font-family="Times,serif" font-size="14.00">==</text>
</g>
<!-- 1997.Amauris_damocles -->
<g id="node8" class="node"><title>1997.Amauris_damocles</title>
<polygon fill="#ccffcc" stroke="black" points="514,-74 347,-74 347,-38 514,-38 514,-74"/>
<text text-anchor="middle" x="430.5" y="-52.3" font-family="Helvetica,sans-Serif" font-size="14.00">1997.Amauris_damocles</text>
</g>
<!-- 1997.Amauris_damocles&#45;&gt;1995.Amauris_damocles_subsp_damocles -->
<g id="edge6" class="edge"><title>1997.Amauris_damocles&#45;&gt;1995.Amauris_damocles_subsp_damocles</title>
<path fill="none" stroke="#aa00ff" stroke-dasharray="5,2" d="M514.473,-56.6326C548.861,-56.8947 590.313,-57.2107 631.571,-57.5253"/>
<text text-anchor="middle" x="595.5" y="-61.8" font-family="Times,serif" font-size="14.00">==</text>
</g>
<!-- Legend -->
<g id="node9" class="node"><title>Legend</title>
<polygon fill="white" stroke="black" points="83,-215.5 0,-215.5 0,-40.5 83,-40.5 83,-215.5"/>
<polygon fill="none" stroke="black" points="0.5,-190 0.5,-215 83.5,-215 83.5,-190 0.5,-190"/>
<text text-anchor="start" x="19" y="-198.8" font-family="Arial Black" font-size="14.00"> Nodes</text>
<polygon fill="#ffffcc" stroke="none" points="0.5,-165 0.5,-190 65.5,-190 65.5,-165 0.5,-165"/>
<polygon fill="none" stroke="black" points="0.5,-165 0.5,-190 65.5,-190 65.5,-165 0.5,-165"/>
<text text-anchor="start" x="17.5" y="-173.8" font-family="Helvetica,sans-Serif" font-size="14.00">1995</text>
<polygon fill="none" stroke="black" points="65.5,-165 65.5,-190 83.5,-190 83.5,-165 65.5,-165"/>
<text text-anchor="start" x="70.5" y="-173.8" font-family="Helvetica,sans-Serif" font-size="14.00">4</text>
<polygon fill="#ccffcc" stroke="none" points="0.5,-140 0.5,-165 65.5,-165 65.5,-140 0.5,-140"/>
<polygon fill="none" stroke="black" points="0.5,-140 0.5,-165 65.5,-165 65.5,-140 0.5,-140"/>
<text text-anchor="start" x="17.5" y="-148.8" font-family="Helvetica,sans-Serif" font-size="14.00">1997</text>
<polygon fill="none" stroke="black" points="65.5,-140 65.5,-165 83.5,-165 83.5,-140 65.5,-140"/>
<text text-anchor="start" x="70.5" y="-148.8" font-family="Helvetica,sans-Serif" font-size="14.00">4</text>
<polygon fill="none" stroke="black" points="0.5,-115 0.5,-140 83.5,-140 83.5,-115 0.5,-115"/>
<text text-anchor="start" x="17.5" y="-123.8" font-family="Arial Black" font-size="14.00"> Edges </text>
<polygon fill="none" stroke="black" points="0.5,-90 0.5,-115 65.5,-115 65.5,-90 0.5,-90"/>
<text text-anchor="start" x="5.5" y="-98.8" font-family="Helvetica,sans-Serif" font-size="14.00" fill="#000000">isa_1995</text>
<polygon fill="none" stroke="black" points="65.5,-90 65.5,-115 83.5,-115 83.5,-90 65.5,-90"/>
<text text-anchor="start" x="70.5" y="-98.8" font-family="Helvetica,sans-Serif" font-size="14.00">3</text>
<polygon fill="none" stroke="black" points="0.5,-65 0.5,-90 65.5,-90 65.5,-65 0.5,-65"/>
<text text-anchor="start" x="5.5" y="-73.8" font-family="Helvetica,sans-Serif" font-size="14.00" fill="#000000">isa_1997</text>
<polygon fill="none" stroke="black" points="65.5,-65 65.5,-90 83.5,-90 83.5,-65 65.5,-65"/>
<text text-anchor="start" x="70.5" y="-73.8" font-family="Helvetica,sans-Serif" font-size="14.00">2</text>
<polygon fill="none" stroke="black" points="0.5,-40 0.5,-65 65.5,-65 65.5,-40 0.5,-40"/>
<text text-anchor="start" x="22" y="-48.8" font-family="Helvetica,sans-Serif" font-size="14.00" fill="#aa00ff">Art.</text>
<polygon fill="none" stroke="black" points="65.5,-40 65.5,-65 83.5,-65 83.5,-40 65.5,-40"/>
<text text-anchor="start" x="70.5" y="-48.8" font-family="Helvetica,sans-Serif" font-size="14.00">2</text>
</g>
</g>
</svg>
