<?xml version="1.0" encoding="UTF-8" standalone="no"?>
<!DOCTYPE svg PUBLIC "-//W3C//DTD SVG 1.1//EN"
 "http://www.w3.org/Graphics/SVG/1.1/DTD/svg11.dtd">
<!-- Generated by graphviz version 2.38.0 (20140413.2041)
 -->
<!-- Title: %3 Pages: 1 -->
<svg width="1310pt" height="297pt"
 viewBox="0.00 0.00 1309.99 296.50" xmlns="http://www.w3.org/2000/svg" xmlns:xlink="http://www.w3.org/1999/xlink">
<g id="graph0" class="graph" transform="scale(1 1) rotate(0) translate(4 292.5)">
<title>%3</title>
<polygon fill="white" stroke="none" points="-4,4 -4,-292.5 1305.99,-292.5 1305.99,4 -4,4"/>
<!-- 1995.Amauris_damocles -->
<g id="node1" class="node"><title>1995.Amauris_damocles</title>
<polygon fill="#ffffcc" stroke="black" points="1301.98,-187.544 1301.98,-202.456 1233.17,-213 1135.85,-213 1067.04,-202.456 1067.04,-187.544 1135.85,-177 1233.17,-177 1301.98,-187.544"/>
<text text-anchor="middle" x="1184.51" y="-191.3" font-family="Helvetica,sans-Serif" font-size="14.00">1995.Amauris_damocles</text>
</g>
<!-- 1995.Amauris_damocles_subsp_makuyensis -->
<g id="node2" class="node"><title>1995.Amauris_damocles_subsp_makuyensis</title>
<polygon fill="#ffffcc" stroke="black" points="1030.04,-233.544 1030.04,-248.456 910.523,-259 741.503,-259 621.987,-248.456 621.987,-233.544 741.503,-223 910.523,-223 1030.04,-233.544"/>
<text text-anchor="middle" x="826.013" y="-237.3" font-family="Helvetica,sans-Serif" font-size="14.00">1995.Amauris_damocles_subsp_makuyensis</text>
</g>
<!-- 1995.Amauris_damocles_subsp_makuyensis&#45;&gt;1995.Amauris_damocles -->
<g id="edge1" class="edge"><title>1995.Amauris_damocles_subsp_makuyensis&#45;&gt;1995.Amauris_damocles</title>
<path fill="none" stroke="#000000" d="M960.893,-227.398C983.972,-224.794 1007.71,-221.952 1030.03,-219 1050.71,-216.264 1072.9,-212.991 1093.8,-209.754"/>
<polygon fill="#000000" stroke="#000000" points="1094.61,-213.171 1103.95,-208.171 1093.53,-206.255 1094.61,-213.171"/>
</g>
<!-- 1995.Amauris_damocles_subsp_damocles -->
<g id="node3" class="node"><title>1995.Amauris_damocles_subsp_damocles</title>
<polygon fill="#ffffcc" stroke="black" points="1020.34,-141.544 1020.34,-156.456 906.506,-167 745.52,-167 631.685,-156.456 631.685,-141.544 745.52,-131 906.506,-131 1020.34,-141.544"/>
<text text-anchor="middle" x="826.013" y="-145.3" font-family="Helvetica,sans-Serif" font-size="14.00">1995.Amauris_damocles_subsp_damocles</text>
</g>
<!-- 1995.Amauris_damocles_subsp_damocles&#45;&gt;1995.Amauris_damocles -->
<g id="edge2" class="edge"><title>1995.Amauris_damocles_subsp_damocles&#45;&gt;1995.Amauris_damocles</title>
<path fill="none" stroke="#000000" d="M957.898,-162.266C981.913,-164.96 1006.74,-167.92 1030.03,-171 1050.71,-173.736 1072.9,-177.009 1093.8,-180.246"/>
<polygon fill="#000000" stroke="#000000" points="1093.53,-183.745 1103.95,-181.829 1094.61,-176.829 1093.53,-183.745"/>
</g>
<!-- 1995.Amauris_damocles_subsp_hyalites -->
<g id="node4" class="node"><title>1995.Amauris_damocles_subsp_hyalites</title>
<polygon fill="#ffffcc" stroke="black" points="1011.05,-187.544 1011.05,-202.456 902.658,-213 749.368,-213 640.976,-202.456 640.976,-187.544 749.368,-177 902.658,-177 1011.05,-187.544"/>
<text text-anchor="middle" x="826.013" y="-191.3" font-family="Helvetica,sans-Serif" font-size="14.00">1995.Amauris_damocles_subsp_hyalites</text>
</g>
<!-- 1995.Amauris_damocles_subsp_hyalites&#45;&gt;1995.Amauris_damocles -->
<g id="edge3" class="edge"><title>1995.Amauris_damocles_subsp_hyalites&#45;&gt;1995.Amauris_damocles</title>
<path fill="none" stroke="#000000" d="M1011.27,-195C1026.6,-195 1041.88,-195 1056.65,-195"/>
<polygon fill="#000000" stroke="#000000" points="1056.78,-198.5 1066.78,-195 1056.78,-191.5 1056.78,-198.5"/>
</g>
<!-- 1997.Amauris_foo -->
<g id="node5" class="node"><title>1997.Amauris_foo</title>
<polygon fill="#ccffcc" stroke="black" points="889.513,-118 762.513,-118 762.513,-82 889.513,-82 889.513,-118"/>
<text text-anchor="middle" x="826.013" y="-96.3" font-family="Helvetica,sans-Serif" font-size="14.00">1997.Amauris_foo</text>
</g>
<!-- 1997.Amauris_hyalites_subsp_makuyensis -->
<g id="node6" class="node"><title>1997.Amauris_hyalites_subsp_makuyensis</title>
<polygon fill="#ccffcc" stroke="black" points="569,-261 292,-261 292,-225 569,-225 569,-261"/>
<text text-anchor="middle" x="430.5" y="-239.3" font-family="Helvetica,sans-Serif" font-size="14.00">1997.Amauris_hyalites_subsp_makuyensis</text>
</g>
<!-- 1997.Amauris_hyalites_subsp_makuyensis&#45;&gt;1995.Amauris_damocles_subsp_makuyensis -->
<g id="edge11" class="edge"><title>1997.Amauris_hyalites_subsp_makuyensis&#45;&gt;1995.Amauris_damocles_subsp_makuyensis</title>
<path fill="none" stroke="#aa00ff" stroke-dasharray="5,2" d="M569.132,-242.3C586.198,-242.214 603.918,-242.124 621.71,-242.033"/>
<text text-anchor="middle" x="595.5" y="-245.8" font-family="Times,serif" font-size="14.00">==</text>
</g>
<!-- 1997.Amauris_hyalites -->
<g id="node7" class="node"><title>1997.Amauris_hyalites</title>
<polygon fill="#ccffcc" stroke="black" points="255,-219 101,-219 101,-183 255,-183 255,-219"/>
<text text-anchor="middle" x="178" y="-197.3" font-family="Helvetica,sans-Serif" font-size="14.00">1997.Amauris_hyalites</text>
</g>
<!-- 1997.Amauris_hyalites&#45;&gt;1997.Amauris_hyalites_subsp_makuyensis -->
<g id="edge5" class="edge"><title>1997.Amauris_hyalites&#45;&gt;1997.Amauris_hyalites_subsp_makuyensis</title>
<path fill="none" stroke="#000000" d="M265.375,-216.439C274.362,-218 283.364,-219.545 292,-221 299.748,-222.305 307.744,-223.634 315.802,-224.959"/>
<polygon fill="#000000" stroke="#000000" points="265.707,-212.944 255.254,-214.673 264.504,-219.84 265.707,-212.944"/>
</g>
<!-- 1997.Amauris_hyalites_subsp_hyalites -->
<g id="node8" class="node"><title>1997.Amauris_hyalites_subsp_hyalites</title>
<polygon fill="#ccffcc" stroke="black" points="556,-215 305,-215 305,-179 556,-179 556,-215"/>
<text text-anchor="middle" x="430.5" y="-193.3" font-family="Helvetica,sans-Serif" font-size="14.00">1997.Amauris_hyalites_subsp_hyalites</text>
</g>
<!-- 1997.Amauris_hyalites&#45;&gt;1997.Amauris_hyalites_subsp_hyalites -->
<g id="edge8" class="edge"><title>1997.Amauris_hyalites&#45;&gt;1997.Amauris_hyalites_subsp_hyalites</title>
<path fill="none" stroke="#000000" d="M265.259,-199.623C278.002,-199.419 291.343,-199.206 304.678,-198.993"/>
<polygon fill="#000000" stroke="#000000" points="265.121,-196.124 255.179,-199.784 265.233,-203.123 265.121,-196.124"/>
</g>
<!-- 1997.Amauris_hyalites_subsp_hyalites&#45;&gt;1995.Amauris_damocles_subsp_hyalites -->
<g id="edge9" class="edge"><title>1997.Amauris_hyalites_subsp_hyalites&#45;&gt;1995.Amauris_damocles_subsp_hyalites</title>
<path fill="none" stroke="#aa00ff" stroke-dasharray="5,2" d="M556.01,-196.367C583.03,-196.23 612.162,-196.082 640.93,-195.936"/>
<text text-anchor="middle" x="595.5" y="-199.8" font-family="Times,serif" font-size="14.00">&lt;</text>
</g>
<!-- 1997.Amauris_bar -->
<g id="node9" class="node"><title>1997.Amauris_bar</title>
<polygon fill="#ccffcc" stroke="black" points="890.013,-77 762.013,-77 762.013,-41 890.013,-41 890.013,-77"/>
<text text-anchor="middle" x="826.013" y="-55.3" font-family="Helvetica,sans-Serif" font-size="14.00">1997.Amauris_bar</text>
</g>
<!-- 1997.Amauris_damocles -->
<g id="node10" class="node"><title>1997.Amauris_damocles</title>
<polygon fill="#ccffcc" stroke="black" points="514,-96 347,-96 347,-60 514,-60 514,-96"/>
<text text-anchor="middle" x="430.5" y="-74.3" font-family="Helvetica,sans-Serif" font-size="14.00">1997.Amauris_damocles</text>
</g>
<!-- 1997.Amauris_damocles&#45;&gt;1995.Amauris_damocles_subsp_damocles -->
<g id="edge10" class="edge"><title>1997.Amauris_damocles&#45;&gt;1995.Amauris_damocles_subsp_damocles</title>
<path fill="none" stroke="#aa00ff" stroke-dasharray="5,2" d="M492.347,-96.0346C529.507,-106.45 578.154,-119.028 622,-127 642.405,-130.71 664.085,-133.873 685.392,-136.546"/>
<text text-anchor="middle" x="595.5" y="-125.8" font-family="Times,serif" font-size="14.00">==</text>
</g>
<!-- 1997.Amauris_damocles&#45;&gt;1997.Amauris_foo -->
<g id="edge4" class="edge"><title>1997.Amauris_damocles&#45;&gt;1997.Amauris_foo</title>
<path fill="none" stroke="#000000" d="M524.648,-83.2076C598.068,-87.3122 698.417,-92.9225 762.483,-96.5042"/>
<polygon fill="#000000" stroke="#000000" points="524.653,-79.7025 514.473,-82.6388 524.262,-86.6916 524.653,-79.7025"/>
</g>
<!-- 1997.Amauris_damocles&#45;&gt;1997.Amauris_bar -->
<g id="edge6" class="edge"><title>1997.Amauris_damocles&#45;&gt;1997.Amauris_bar</title>
<path fill="none" stroke="#000000" d="M524.616,-73.5041C597.805,-69.9703 697.769,-65.1437 761.87,-62.0487"/>
<polygon fill="#000000" stroke="#000000" points="524.293,-70.0155 514.473,-73.9938 524.63,-77.0074 524.293,-70.0155"/>
</g>
<!-- 1997.FooBar -->
<g id="node11" class="node"><title>1997.FooBar</title>
<polygon fill="#ccffcc" stroke="black" points="873.513,-36 778.513,-36 778.513,-0 873.513,-0 873.513,-36"/>
<text text-anchor="middle" x="826.013" y="-14.3" font-family="Helvetica,sans-Serif" font-size="14.00">1997.FooBar</text>
</g>
<!-- 1997.Amauris_damocles&#45;&gt;1997.FooBar -->
<g id="edge7" class="edge"><title>1997.Amauris_damocles&#45;&gt;1997.FooBar</title>
<path fill="none" stroke="#000000" d="M523.691,-57.8922C554.811,-51.5637 589.816,-44.9437 622,-40 675.437,-31.7916 737.25,-25.5557 778.498,-21.8552"/>
<polygon fill="#000000" stroke="#000000" points="522.826,-54.4968 513.733,-59.9342 524.232,-61.3541 522.826,-54.4968"/>
</g>
<!-- Legend -->
<g id="node12" class="node"><title>Legend</title>
<polygon fill="white" stroke="black" points="83,-288.5 0,-288.5 0,-113.5 83,-113.5 83,-288.5"/>
<polygon fill="none" stroke="black" points="0.5,-263 0.5,-288 83.5,-288 83.5,-263 0.5,-263"/>
<text text-anchor="start" x="19" y="-271.8" font-family="Arial Black" font-size="14.00"> Nodes</text>
<polygon fill="#ffffcc" stroke="none" points="0.5,-238 0.5,-263 65.5,-263 65.5,-238 0.5,-238"/>
<polygon fill="none" stroke="black" points="0.5,-238 0.5,-263 65.5,-263 65.5,-238 0.5,-238"/>
<text text-anchor="start" x="17.5" y="-246.8" font-family="Helvetica,sans-Serif" font-size="14.00">1995</text>
<polygon fill="none" stroke="black" points="65.5,-238 65.5,-263 83.5,-263 83.5,-238 65.5,-238"/>
<text text-anchor="start" x="70.5" y="-246.8" font-family="Helvetica,sans-Serif" font-size="14.00">4</text>
<polygon fill="#ccffcc" stroke="none" points="0.5,-213 0.5,-238 65.5,-238 65.5,-213 0.5,-213"/>
<polygon fill="none" stroke="black" points="0.5,-213 0.5,-238 65.5,-238 65.5,-213 0.5,-213"/>
<text text-anchor="start" x="17.5" y="-221.8" font-family="Helvetica,sans-Serif" font-size="14.00">1997</text>
<polygon fill="none" stroke="black" points="65.5,-213 65.5,-238 83.5,-238 83.5,-213 65.5,-213"/>
<text text-anchor="start" x="70.5" y="-221.8" font-family="Helvetica,sans-Serif" font-size="14.00">7</text>
<polygon fill="none" stroke="black" points="0.5,-188 0.5,-213 83.5,-213 83.5,-188 0.5,-188"/>
<text text-anchor="start" x="17.5" y="-196.8" font-family="Arial Black" font-size="14.00"> Edges </text>
<polygon fill="none" stroke="black" points="0.5,-163 0.5,-188 65.5,-188 65.5,-163 0.5,-163"/>
<text text-anchor="start" x="5.5" y="-171.8" font-family="Helvetica,sans-Serif" font-size="14.00" fill="#000000">isa_1995</text>
<polygon fill="none" stroke="black" points="65.5,-163 65.5,-188 83.5,-188 83.5,-163 65.5,-163"/>
<text text-anchor="start" x="70.5" y="-171.8" font-family="Helvetica,sans-Serif" font-size="14.00">3</text>
<polygon fill="none" stroke="black" points="0.5,-138 0.5,-163 65.5,-163 65.5,-138 0.5,-138"/>
<text text-anchor="start" x="5.5" y="-146.8" font-family="Helvetica,sans-Serif" font-size="14.00" fill="#000000">isa_1997</text>
<polygon fill="none" stroke="black" points="65.5,-138 65.5,-163 83.5,-163 83.5,-138 65.5,-138"/>
<text text-anchor="start" x="70.5" y="-146.8" font-family="Helvetica,sans-Serif" font-size="14.00">5</text>
<polygon fill="none" stroke="black" points="0.5,-113 0.5,-138 65.5,-138 65.5,-113 0.5,-113"/>
<text text-anchor="start" x="22" y="-121.8" font-family="Helvetica,sans-Serif" font-size="14.00" fill="#aa00ff">Art.</text>
<polygon fill="none" stroke="black" points="65.5,-113 65.5,-138 83.5,-138 83.5,-113 65.5,-113"/>
<text text-anchor="start" x="70.5" y="-121.8" font-family="Helvetica,sans-Serif" font-size="14.00">3</text>
</g>
</g>
</svg>
