<?xml version="1.0" encoding="UTF-8" standalone="no"?>
<!DOCTYPE svg PUBLIC "-//W3C//DTD SVG 1.1//EN"
 "http://www.w3.org/Graphics/SVG/1.1/DTD/svg11.dtd">
<!-- Generated by graphviz version 2.38.0 (20140413.2041)
 -->
<!-- Title: %3 Pages: 1 -->
<svg width="1363pt" height="183pt"
 viewBox="0.00 0.00 1363.20 183.00" xmlns="http://www.w3.org/2000/svg" xmlns:xlink="http://www.w3.org/1999/xlink">
<g id="graph0" class="graph" transform="scale(1 1) rotate(0) translate(4 179)">
<title>%3</title>
<polygon fill="white" stroke="none" points="-4,4 -4,-179 1359.2,-179 1359.2,4 -4,4"/>
<!-- 2015.Gall_Neoa_Clade -->
<g id="node1" class="node"><title>2015.Gall_Neoa_Clade</title>
<polygon fill="#ccffcc" stroke="black" points="376,-127.5 218,-127.5 218,-91.5 376,-91.5 376,-127.5"/>
<text text-anchor="middle" x="297" y="-105.8" font-family="Helvetica,sans-Serif" font-size="14.00">2015.Gall_Neoa_Clade</text>
</g>
<!-- 2015.Galloanserae -->
<g id="node3" class="node"><title>2015.Galloanserae</title>
<polygon fill="#ccffcc" stroke="black" points="560,-168.5 429,-168.5 429,-132.5 560,-132.5 560,-168.5"/>
<text text-anchor="middle" x="494.5" y="-146.8" font-family="Helvetica,sans-Serif" font-size="14.00">2015.Galloanserae</text>
</g>
<!-- 2015.Gall_Neoa_Clade&#45;&gt;2015.Galloanserae -->
<g id="edge1" class="edge"><title>2015.Gall_Neoa_Clade&#45;&gt;2015.Galloanserae</title>
<path fill="none" stroke="#000000" d="M385.997,-127.955C400.367,-130.968 415.021,-134.042 428.7,-136.91"/>
<polygon fill="#000000" stroke="#000000" points="386.615,-124.508 376.11,-125.881 385.178,-131.359 386.615,-124.508"/>
</g>
<!-- 2015.Neoaves -->
<g id="node5" class="node"><title>2015.Neoaves</title>
<polygon fill="#ccffcc" stroke="black" points="546.5,-127.5 442.5,-127.5 442.5,-91.5 546.5,-91.5 546.5,-127.5"/>
<text text-anchor="middle" x="494.5" y="-105.8" font-family="Helvetica,sans-Serif" font-size="14.00">2015.Neoaves</text>
</g>
<!-- 2015.Gall_Neoa_Clade&#45;&gt;2015.Neoaves -->
<g id="edge3" class="edge"><title>2015.Gall_Neoa_Clade&#45;&gt;2015.Neoaves</title>
<path fill="none" stroke="#000000" d="M386.134,-109.5C405.422,-109.5 425.214,-109.5 442.467,-109.5"/>
<polygon fill="#000000" stroke="#000000" points="386.11,-106 376.11,-109.5 386.11,-113 386.11,-106"/>
</g>
<!-- 2014.Neognathae -->
<g id="node7" class="node"><title>2014.Neognathae</title>
<polygon fill="#ffffcc" stroke="black" points="752.7,-51.0442 752.7,-65.9558 701.463,-76.5 629.003,-76.5 577.766,-65.9558 577.766,-51.0442 629.003,-40.5 701.463,-40.5 752.7,-51.0442"/>
<text text-anchor="middle" x="665.233" y="-54.8" font-family="Helvetica,sans-Serif" font-size="14.00">2014.Neognathae</text>
</g>
<!-- 2015.Gall_Neoa_Clade&#45;&gt;2014.Neognathae -->
<g id="edge10" class="edge"><title>2015.Gall_Neoa_Clade&#45;&gt;2014.Neognathae</title>
<path fill="none" stroke="#aa00ff" stroke-dasharray="5,2" d="M376.042,-92.0612C393.415,-88.5577 411.786,-85.1451 429,-82.5 478.096,-74.956 533.332,-69.1817 577.937,-65.1896"/>
<text text-anchor="middle" x="402.5" y="-91.3" font-family="Times,serif" font-size="14.00">==</text>
</g>
<!-- 2015.Palaeognathae -->
<g id="node2" class="node"><title>2015.Palaeognathae</title>
<polygon fill="#ccffcc" stroke="black" points="367.5,-86.5 226.5,-86.5 226.5,-50.5 367.5,-50.5 367.5,-86.5"/>
<text text-anchor="middle" x="297" y="-64.8" font-family="Helvetica,sans-Serif" font-size="14.00">2015.Palaeognathae</text>
</g>
<!-- 2015.Aves -->
<g id="node4" class="node"><title>2015.Aves</title>
<polygon fill="#ccffcc" stroke="black" points="181,-105.5 101,-105.5 101,-69.5 181,-69.5 181,-105.5"/>
<text text-anchor="middle" x="141" y="-83.8" font-family="Helvetica,sans-Serif" font-size="14.00">2015.Aves</text>
</g>
<!-- 2015.Aves&#45;&gt;2015.Gall_Neoa_Clade -->
<g id="edge4" class="edge"><title>2015.Aves&#45;&gt;2015.Gall_Neoa_Clade</title>
<path fill="none" stroke="#000000" d="M191.32,-94.5456C199.805,-95.7578 208.808,-97.0439 217.832,-98.3331"/>
<polygon fill="#000000" stroke="#000000" points="191.654,-91.0579 181.259,-93.1085 190.664,-97.9876 191.654,-91.0579"/>
</g>
<!-- 2015.Aves&#45;&gt;2015.Palaeognathae -->
<g id="edge2" class="edge"><title>2015.Aves&#45;&gt;2015.Palaeognathae</title>
<path fill="none" stroke="#000000" d="M191.226,-81.4266C202.39,-80.0493 214.453,-78.561 226.285,-77.1012"/>
<polygon fill="#000000" stroke="#000000" points="190.755,-77.9581 181.259,-82.6563 191.613,-84.9054 190.755,-77.9581"/>
</g>
<!-- 2014.Tinamiformes -->
<g id="node9" class="node"><title>2014.Tinamiformes</title>
<polygon fill="#ffffcc" stroke="black" points="969.323,-103.044 969.323,-117.956 914.238,-128.5 836.335,-128.5 781.25,-117.956 781.25,-103.044 836.335,-92.5 914.238,-92.5 969.323,-103.044"/>
<text text-anchor="middle" x="875.287" y="-106.8" font-family="Helvetica,sans-Serif" font-size="14.00">2014.Tinamiformes</text>
</g>
<!-- 2015.Neoaves&#45;&gt;2014.Tinamiformes -->
<g id="edge9" class="edge"><title>2015.Neoaves&#45;&gt;2014.Tinamiformes</title>
<path fill="none" stroke="#aa00ff" stroke-dasharray="5,2" d="M546.585,-109.635C606.561,-109.793 707.224,-110.059 781.189,-110.254"/>
<text text-anchor="middle" x="665.233" y="-113.3" font-family="Times,serif" font-size="14.00">==</text>
</g>
<!-- 2014.Paleognathae -->
<g id="node6" class="node"><title>2014.Paleognathae</title>
<polygon fill="#ffffcc" stroke="black" points="1205.41,-103.044 1205.41,-117.956 1150.33,-128.5 1072.42,-128.5 1017.34,-117.956 1017.34,-103.044 1072.42,-92.5 1150.33,-92.5 1205.41,-103.044"/>
<text text-anchor="middle" x="1111.37" y="-106.8" font-family="Helvetica,sans-Serif" font-size="14.00">2014.Paleognathae</text>
</g>
<!-- 2014.Aves -->
<g id="node8" class="node"><title>2014.Aves</title>
<polygon fill="#ffffcc" stroke="black" points="1354.98,-79.0442 1354.98,-93.9558 1322.14,-104.5 1275.7,-104.5 1242.86,-93.9558 1242.86,-79.0442 1275.7,-68.5 1322.14,-68.5 1354.98,-79.0442"/>
<text text-anchor="middle" x="1298.92" y="-82.8" font-family="Helvetica,sans-Serif" font-size="14.00">2014.Aves</text>
</g>
<!-- 2014.Paleognathae&#45;&gt;2014.Aves -->
<g id="edge6" class="edge"><title>2014.Paleognathae&#45;&gt;2014.Aves</title>
<path fill="none" stroke="#000000" d="M1191.33,-100.287C1205.09,-98.5079 1219.26,-96.6751 1232.59,-94.9499"/>
<polygon fill="#000000" stroke="#000000" points="1233.14,-98.4082 1242.61,-93.6543 1232.25,-91.466 1233.14,-98.4082"/>
</g>
<!-- 2014.Neognathae&#45;&gt;2014.Aves -->
<g id="edge8" class="edge"><title>2014.Neognathae&#45;&gt;2014.Aves</title>
<path fill="none" stroke="#000000" d="M752.742,-62.3346C880.826,-68.0119 1118.08,-78.5284 1232.65,-83.6068"/>
<polygon fill="#000000" stroke="#000000" points="1232.54,-87.1051 1242.68,-84.0514 1232.85,-80.112 1232.54,-87.1051"/>
</g>
<!-- 2014.Tinamiformes&#45;&gt;2014.Paleognathae -->
<g id="edge7" class="edge"><title>2014.Tinamiformes&#45;&gt;2014.Paleognathae</title>
<path fill="none" stroke="#000000" d="M969.477,-110.5C981.729,-110.5 994.345,-110.5 1006.76,-110.5"/>
<polygon fill="#000000" stroke="#000000" points="1007.12,-114 1017.12,-110.5 1007.12,-107 1007.12,-114"/>
</g>
<!-- 2014.Struthioniformes -->
<g id="node10" class="node"><title>2014.Struthioniformes</title>
<polygon fill="#ffffcc" stroke="black" points="979.928,-144.044 979.928,-158.956 918.63,-169.5 831.943,-169.5 770.645,-158.956 770.645,-144.044 831.943,-133.5 918.63,-133.5 979.928,-144.044"/>
<text text-anchor="middle" x="875.287" y="-147.8" font-family="Helvetica,sans-Serif" font-size="14.00">2014.Struthioniformes</text>
</g>
<!-- 2014.Struthioniformes&#45;&gt;2014.Paleognathae -->
<g id="edge5" class="edge"><title>2014.Struthioniformes&#45;&gt;2014.Paleognathae</title>
<path fill="none" stroke="#000000" d="M949.391,-138.696C975.441,-134.133 1004.89,-128.976 1031.41,-124.331"/>
<polygon fill="#000000" stroke="#000000" points="1032.17,-127.751 1041.42,-122.578 1030.96,-120.856 1032.17,-127.751"/>
</g>
<!-- Legend -->
<g id="node11" class="node"><title>Legend</title>
<polygon fill="white" stroke="black" points="83,-175 0,-175 0,-0 83,-0 83,-175"/>
<polygon fill="none" stroke="black" points="0.5,-149.5 0.5,-174.5 83.5,-174.5 83.5,-149.5 0.5,-149.5"/>
<text text-anchor="start" x="19" y="-158.3" font-family="Arial Black" font-size="14.00"> Nodes</text>
<polygon fill="#ccffcc" stroke="none" points="0.5,-124.5 0.5,-149.5 65.5,-149.5 65.5,-124.5 0.5,-124.5"/>
<polygon fill="none" stroke="black" points="0.5,-124.5 0.5,-149.5 65.5,-149.5 65.5,-124.5 0.5,-124.5"/>
<text text-anchor="start" x="17.5" y="-133.3" font-family="Helvetica,sans-Serif" font-size="14.00">2015</text>
<polygon fill="none" stroke="black" points="65.5,-124.5 65.5,-149.5 83.5,-149.5 83.5,-124.5 65.5,-124.5"/>
<text text-anchor="start" x="70.5" y="-133.3" font-family="Helvetica,sans-Serif" font-size="14.00">5</text>
<polygon fill="#ffffcc" stroke="none" points="0.5,-99.5 0.5,-124.5 65.5,-124.5 65.5,-99.5 0.5,-99.5"/>
<polygon fill="none" stroke="black" points="0.5,-99.5 0.5,-124.5 65.5,-124.5 65.5,-99.5 0.5,-99.5"/>
<text text-anchor="start" x="17.5" y="-108.3" font-family="Helvetica,sans-Serif" font-size="14.00">2014</text>
<polygon fill="none" stroke="black" points="65.5,-99.5 65.5,-124.5 83.5,-124.5 83.5,-99.5 65.5,-99.5"/>
<text text-anchor="start" x="70.5" y="-108.3" font-family="Helvetica,sans-Serif" font-size="14.00">5</text>
<polygon fill="none" stroke="black" points="0.5,-74.5 0.5,-99.5 83.5,-99.5 83.5,-74.5 0.5,-74.5"/>
<text text-anchor="start" x="17.5" y="-83.3" font-family="Arial Black" font-size="14.00"> Edges </text>
<polygon fill="none" stroke="black" points="0.5,-49.5 0.5,-74.5 65.5,-74.5 65.5,-49.5 0.5,-49.5"/>
<text text-anchor="start" x="5.5" y="-58.3" font-family="Helvetica,sans-Serif" font-size="14.00" fill="#000000">isa_2015</text>
<polygon fill="none" stroke="black" points="65.5,-49.5 65.5,-74.5 83.5,-74.5 83.5,-49.5 65.5,-49.5"/>
<text text-anchor="start" x="70.5" y="-58.3" font-family="Helvetica,sans-Serif" font-size="14.00">4</text>
<polygon fill="none" stroke="black" points="0.5,-24.5 0.5,-49.5 65.5,-49.5 65.5,-24.5 0.5,-24.5"/>
<text text-anchor="start" x="5.5" y="-33.3" font-family="Helvetica,sans-Serif" font-size="14.00" fill="#000000">isa_2014</text>
<polygon fill="none" stroke="black" points="65.5,-24.5 65.5,-49.5 83.5,-49.5 83.5,-24.5 65.5,-24.5"/>
<text text-anchor="start" x="70.5" y="-33.3" font-family="Helvetica,sans-Serif" font-size="14.00">4</text>
<polygon fill="none" stroke="black" points="0.5,0.5 0.5,-24.5 65.5,-24.5 65.5,0.5 0.5,0.5"/>
<text text-anchor="start" x="22" y="-8.3" font-family="Helvetica,sans-Serif" font-size="14.00" fill="#aa00ff">Art.</text>
<polygon fill="none" stroke="black" points="65.5,0.5 65.5,-24.5 83.5,-24.5 83.5,0.5 65.5,0.5"/>
<text text-anchor="start" x="70.5" y="-8.3" font-family="Helvetica,sans-Serif" font-size="14.00">2</text>
</g>
</g>
</svg>
