<?xml version="1.0" encoding="UTF-8" standalone="no"?>
<!DOCTYPE svg PUBLIC "-//W3C//DTD SVG 1.1//EN"
 "http://www.w3.org/Graphics/SVG/1.1/DTD/svg11.dtd">
<!-- Generated by graphviz version 2.38.0 (20140413.2041)
 -->
<!-- Title: %3 Pages: 1 -->
<svg width="1663pt" height="235pt"
 viewBox="0.00 0.00 1663.03 235.00" xmlns="http://www.w3.org/2000/svg" xmlns:xlink="http://www.w3.org/1999/xlink">
<g id="graph0" class="graph" transform="scale(1 1) rotate(0) translate(4 231)">
<title>%3</title>
<polygon fill="white" stroke="none" points="-4,4 -4,-231 1659.03,-231 1659.03,4 -4,4"/>
<!-- 1995.Amauris_damocles -->
<g id="node1" class="node"><title>1995.Amauris_damocles</title>
<polygon fill="#ffffcc" stroke="black" points="335.95,-120.544 335.95,-135.456 267.139,-146 169.827,-146 101.017,-135.456 101.017,-120.544 169.827,-110 267.139,-110 335.95,-120.544"/>
<text text-anchor="middle" x="218.483" y="-124.3" font-family="Helvetica,sans-Serif" font-size="14.00">1995.Amauris_damocles</text>
</g>
<!-- 1995.Amauris_damocles_subsp_makuyensis -->
<g id="node2" class="node"><title>1995.Amauris_damocles_subsp_makuyensis</title>
<polygon fill="#ffffcc" stroke="black" points="781.005,-201.544 781.005,-216.456 661.49,-227 492.469,-227 372.954,-216.456 372.954,-201.544 492.469,-191 661.49,-191 781.005,-201.544"/>
<text text-anchor="middle" x="576.979" y="-205.3" font-family="Helvetica,sans-Serif" font-size="14.00">1995.Amauris_damocles_subsp_makuyensis</text>
</g>
<!-- 1995.Amauris_damocles&#45;&gt;1995.Amauris_damocles_subsp_makuyensis -->
<g id="edge1" class="edge"><title>1995.Amauris_damocles&#45;&gt;1995.Amauris_damocles_subsp_makuyensis</title>
<path fill="none" stroke="#000000" d="M268.31,-150.018C297.992,-162.497 336.988,-177.308 372.966,-186 390.723,-190.29 409.551,-193.785 428.302,-196.631"/>
<polygon fill="#000000" stroke="#000000" points="269.587,-146.758 259.016,-146.059 266.844,-153.198 269.587,-146.758"/>
</g>
<!-- 1995.Amauris_damocles_subsp_damocles -->
<g id="node3" class="node"><title>1995.Amauris_damocles_subsp_damocles</title>
<polygon fill="#ffffcc" stroke="black" points="771.307,-151.544 771.307,-166.456 657.473,-177 496.486,-177 382.651,-166.456 382.651,-151.544 496.486,-141 657.473,-141 771.307,-151.544"/>
<text text-anchor="middle" x="576.979" y="-155.3" font-family="Helvetica,sans-Serif" font-size="14.00">1995.Amauris_damocles_subsp_damocles</text>
</g>
<!-- 1995.Amauris_damocles&#45;&gt;1995.Amauris_damocles_subsp_damocles -->
<g id="edge3" class="edge"><title>1995.Amauris_damocles&#45;&gt;1995.Amauris_damocles_subsp_damocles</title>
<path fill="none" stroke="#000000" d="M335.191,-138.062C366.935,-140.822 401.71,-143.846 434.715,-146.716"/>
<polygon fill="#000000" stroke="#000000" points="335.262,-134.555 324.997,-137.175 334.656,-141.528 335.262,-134.555"/>
</g>
<!-- 1995.Amauris_damocles_subsp_hyalites -->
<g id="node4" class="node"><title>1995.Amauris_damocles_subsp_hyalites</title>
<polygon fill="#ffffcc" stroke="black" points="1169.05,-99.5442 1169.05,-114.456 1060.66,-125 907.366,-125 798.974,-114.456 798.974,-99.5442 907.366,-89 1060.66,-89 1169.05,-99.5442"/>
<text text-anchor="middle" x="984.011" y="-103.3" font-family="Helvetica,sans-Serif" font-size="14.00">1995.Amauris_damocles_subsp_hyalites</text>
</g>
<!-- 1995.Amauris_damocles&#45;&gt;1995.Amauris_damocles_subsp_hyalites -->
<g id="edge2" class="edge"><title>1995.Amauris_damocles&#45;&gt;1995.Amauris_damocles_subsp_hyalites</title>
<path fill="none" stroke="#000000" d="M346.53,-124.506C469.956,-121.111 658.708,-115.92 798.645,-112.071"/>
<polygon fill="#000000" stroke="#000000" points="346.178,-121.014 336.278,-124.788 346.37,-128.011 346.178,-121.014"/>
</g>
<!-- 1997.Amauris_hyalites -->
<g id="node7" class="node"><title>1997.Amauris_hyalites</title>
<polygon fill="#ccffcc" stroke="black" points="1655.03,-99 1501.03,-99 1501.03,-63 1655.03,-63 1655.03,-99"/>
<text text-anchor="middle" x="1578.03" y="-77.3" font-family="Helvetica,sans-Serif" font-size="14.00">1997.Amauris_hyalites</text>
</g>
<!-- 1995.Amauris_damocles&#45;&gt;1997.Amauris_hyalites -->
<g id="edge6" class="edge"><title>1995.Amauris_damocles&#45;&gt;1997.Amauris_hyalites</title>
<path fill="none" stroke="#aa00ff" stroke-dasharray="5,2" d="M309.939,-116.493C330.64,-113.946 352.557,-111.317 372.966,-109 562.104,-87.5284 608.892,-74.7907 798.992,-65 963.235,-56.541 1004.6,-61.7771 1169.03,-65 1284.73,-67.2678 1418.78,-73.1498 1500.73,-77.1142"/>
<text text-anchor="middle" x="984.011" y="-68.8" font-family="Times,serif" font-size="14.00">&gt;</text>
</g>
<!-- 1997.Amauris_hyalites_subsp_makuyensis -->
<g id="node6" class="node"><title>1997.Amauris_hyalites_subsp_makuyensis</title>
<polygon fill="#ccffcc" stroke="black" points="1464.03,-225 1187.03,-225 1187.03,-189 1464.03,-189 1464.03,-225"/>
<text text-anchor="middle" x="1325.53" y="-203.3" font-family="Helvetica,sans-Serif" font-size="14.00">1997.Amauris_hyalites_subsp_makuyensis</text>
</g>
<!-- 1995.Amauris_damocles_subsp_makuyensis&#45;&gt;1997.Amauris_hyalites_subsp_makuyensis -->
<g id="edge7" class="edge"><title>1995.Amauris_damocles_subsp_makuyensis&#45;&gt;1997.Amauris_hyalites_subsp_makuyensis</title>
<path fill="none" stroke="#aa00ff" stroke-dasharray="5,2" d="M781.484,-208.455C910.253,-208.11 1073.27,-207.673 1186.94,-207.369"/>
<text text-anchor="middle" x="984.011" y="-211.8" font-family="Times,serif" font-size="14.00">==</text>
</g>
<!-- 1997.Amauris_damocles -->
<g id="node8" class="node"><title>1997.Amauris_damocles</title>
<polygon fill="#ccffcc" stroke="black" points="1409.03,-179 1242.03,-179 1242.03,-143 1409.03,-143 1409.03,-179"/>
<text text-anchor="middle" x="1325.53" y="-157.3" font-family="Helvetica,sans-Serif" font-size="14.00">1997.Amauris_damocles</text>
</g>
<!-- 1995.Amauris_damocles_subsp_damocles&#45;&gt;1997.Amauris_damocles -->
<g id="edge8" class="edge"><title>1995.Amauris_damocles_subsp_damocles&#45;&gt;1997.Amauris_damocles</title>
<path fill="none" stroke="#aa00ff" stroke-dasharray="5,2" d="M771.205,-159.518C923.712,-159.926 1128.95,-160.476 1241.71,-160.778"/>
<text text-anchor="middle" x="984.011" y="-163.8" font-family="Times,serif" font-size="14.00">==</text>
</g>
<!-- 1995.Amauris_damocles_subsp_hyalites&#45;&gt;1997.Amauris_hyalites -->
<g id="edge9" class="edge"><title>1995.Amauris_damocles_subsp_hyalites&#45;&gt;1997.Amauris_hyalites</title>
<path fill="none" stroke="#aa00ff" stroke-dasharray="5,2" d="M1164.64,-99.1109C1277.1,-94.1722 1416.21,-88.063 1500.7,-84.3523"/>
<text text-anchor="middle" x="1325.53" y="-102.8" font-family="Times,serif" font-size="14.00">&gt;&lt;</text>
</g>
<!-- 1997.Amauris_hyalites_subsp_hyalites -->
<g id="node5" class="node"><title>1997.Amauris_hyalites_subsp_hyalites</title>
<polygon fill="#ccffcc" stroke="black" points="1451.03,-36 1200.03,-36 1200.03,-0 1451.03,-0 1451.03,-36"/>
<text text-anchor="middle" x="1325.53" y="-14.3" font-family="Helvetica,sans-Serif" font-size="14.00">1997.Amauris_hyalites_subsp_hyalites</text>
</g>
<!-- 1997.Amauris_hyalites_subsp_hyalites&#45;&gt;1997.Amauris_hyalites -->
<g id="edge5" class="edge"><title>1997.Amauris_hyalites_subsp_hyalites&#45;&gt;1997.Amauris_hyalites</title>
<path fill="none" stroke="#000000" d="M1451.4,-34.362C1462.17,-36.6135 1472.84,-39.1495 1483.03,-42 1498.66,-46.3724 1515.18,-52.6296 1529.94,-58.8555"/>
<polygon fill="#000000" stroke="#000000" points="1528.78,-62.17 1539.35,-62.9223 1531.56,-55.7438 1528.78,-62.17"/>
</g>
<!-- 1997.Amauris_hyalites_subsp_makuyensis&#45;&gt;1997.Amauris_hyalites -->
<g id="edge4" class="edge"><title>1997.Amauris_hyalites_subsp_makuyensis&#45;&gt;1997.Amauris_hyalites</title>
<path fill="none" stroke="#000000" d="M1455.36,-188.869C1458.31,-187.659 1461.2,-186.371 1464.03,-185 1501.97,-166.613 1536.15,-131.262 1556.74,-106.918"/>
<polygon fill="#000000" stroke="#000000" points="1559.51,-109.061 1563.19,-99.1252 1554.12,-104.598 1559.51,-109.061"/>
</g>
<!-- Legend -->
<g id="node9" class="node"><title>Legend</title>
<polygon fill="white" stroke="black" points="83,-215.5 0,-215.5 0,-40.5 83,-40.5 83,-215.5"/>
<polygon fill="none" stroke="black" points="0.5,-190 0.5,-215 83.5,-215 83.5,-190 0.5,-190"/>
<text text-anchor="start" x="19" y="-198.8" font-family="Arial Black" font-size="14.00"> Nodes</text>
<polygon fill="#ffffcc" stroke="none" points="0.5,-165 0.5,-190 65.5,-190 65.5,-165 0.5,-165"/>
<polygon fill="none" stroke="black" points="0.5,-165 0.5,-190 65.5,-190 65.5,-165 0.5,-165"/>
<text text-anchor="start" x="17.5" y="-173.8" font-family="Helvetica,sans-Serif" font-size="14.00">1995</text>
<polygon fill="none" stroke="black" points="65.5,-165 65.5,-190 83.5,-190 83.5,-165 65.5,-165"/>
<text text-anchor="start" x="70.5" y="-173.8" font-family="Helvetica,sans-Serif" font-size="14.00">4</text>
<polygon fill="#ccffcc" stroke="none" points="0.5,-140 0.5,-165 65.5,-165 65.5,-140 0.5,-140"/>
<polygon fill="none" stroke="black" points="0.5,-140 0.5,-165 65.5,-165 65.5,-140 0.5,-140"/>
<text text-anchor="start" x="17.5" y="-148.8" font-family="Helvetica,sans-Serif" font-size="14.00">1997</text>
<polygon fill="none" stroke="black" points="65.5,-140 65.5,-165 83.5,-165 83.5,-140 65.5,-140"/>
<text text-anchor="start" x="70.5" y="-148.8" font-family="Helvetica,sans-Serif" font-size="14.00">4</text>
<polygon fill="none" stroke="black" points="0.5,-115 0.5,-140 83.5,-140 83.5,-115 0.5,-115"/>
<text text-anchor="start" x="17.5" y="-123.8" font-family="Arial Black" font-size="14.00"> Edges </text>
<polygon fill="none" stroke="black" points="0.5,-90 0.5,-115 65.5,-115 65.5,-90 0.5,-90"/>
<text text-anchor="start" x="5.5" y="-98.8" font-family="Helvetica,sans-Serif" font-size="14.00" fill="#000000">isa_1995</text>
<polygon fill="none" stroke="black" points="65.5,-90 65.5,-115 83.5,-115 83.5,-90 65.5,-90"/>
<text text-anchor="start" x="70.5" y="-98.8" font-family="Helvetica,sans-Serif" font-size="14.00">3</text>
<polygon fill="none" stroke="black" points="0.5,-65 0.5,-90 65.5,-90 65.5,-65 0.5,-65"/>
<text text-anchor="start" x="5.5" y="-73.8" font-family="Helvetica,sans-Serif" font-size="14.00" fill="#000000">isa_1997</text>
<polygon fill="none" stroke="black" points="65.5,-65 65.5,-90 83.5,-90 83.5,-65 65.5,-65"/>
<text text-anchor="start" x="70.5" y="-73.8" font-family="Helvetica,sans-Serif" font-size="14.00">2</text>
<polygon fill="none" stroke="black" points="0.5,-40 0.5,-65 65.5,-65 65.5,-40 0.5,-40"/>
<text text-anchor="start" x="22" y="-48.8" font-family="Helvetica,sans-Serif" font-size="14.00" fill="#aa00ff">Art.</text>
<polygon fill="none" stroke="black" points="65.5,-40 65.5,-65 83.5,-65 83.5,-40 65.5,-40"/>
<text text-anchor="start" x="70.5" y="-48.8" font-family="Helvetica,sans-Serif" font-size="14.00">4</text>
</g>
</g>
</svg>
