<?xml version="1.0" encoding="UTF-8" standalone="no"?>
<!DOCTYPE svg PUBLIC "-//W3C//DTD SVG 1.1//EN"
 "http://www.w3.org/Graphics/SVG/1.1/DTD/svg11.dtd">
<!-- Generated by graphviz version 2.38.0 (20140413.2041)
 -->
<!-- Title: %3 Pages: 1 -->
<svg width="908pt" height="207pt"
 viewBox="0.00 0.00 907.54 207.00" xmlns="http://www.w3.org/2000/svg" xmlns:xlink="http://www.w3.org/1999/xlink">
<g id="graph0" class="graph" transform="scale(1 1) rotate(0) translate(4 203)">
<title>%3</title>
<polygon fill="white" stroke="none" points="-4,4 -4,-203 903.538,-203 903.538,4 -4,4"/>
<!-- 1995.Amauris_damocles -->
<g id="node1" class="node"><title>1995.Amauris_damocles</title>
<polygon fill="#ffffcc" stroke="black" points="215.403,-87.5442 215.403,-102.456 152.274,-113 62.995,-113 -0.134522,-102.456 -0.134522,-87.5442 62.995,-77 152.274,-77 215.403,-87.5442"/>
<text text-anchor="middle" x="107.634" y="-91.3" font-family="Times,serif" font-size="14.00">1995.Amauris_damocles</text>
</g>
<!-- 1995.Amauris_damocles_subsp_hyalites -->
<g id="node2" class="node"><title>1995.Amauris_damocles_subsp_hyalites</title>
<polygon fill="#ffffcc" stroke="black" points="594.673,-173.544 594.673,-188.456 496.103,-199 356.704,-199 258.134,-188.456 258.134,-173.544 356.704,-163 496.103,-163 594.673,-173.544"/>
<text text-anchor="middle" x="426.403" y="-177.3" font-family="Times,serif" font-size="14.00">1995.Amauris_damocles_subsp_hyalites</text>
</g>
<!-- 1995.Amauris_damocles_subsp_hyalites&#45;&gt;1995.Amauris_damocles -->
<g id="edge1" class="edge"><title>1995.Amauris_damocles_subsp_hyalites&#45;&gt;1995.Amauris_damocles</title>
<path fill="none" stroke="#761212" d="M323.514,-166.534C301.807,-162.559 279.142,-157.729 258.269,-152 224.429,-142.712 187.58,-128.725 158.917,-116.931"/>
<polygon fill="#761212" stroke="#761212" points="160.103,-113.634 149.526,-113.025 157.415,-120.097 160.103,-113.634"/>
<text text-anchor="middle" x="236.769" y="-148.8" font-family="Times,serif" font-size="14.00">1</text>
</g>
<!-- 1997.Amauris_damocles\n1995.Amauris_damocles_subsp_damocles -->
<g id="node3" class="node"><title>1997.Amauris_damocles\n1995.Amauris_damocles_subsp_damocles</title>
<path fill="#eeeeee" stroke="black" d="M538.903,-38C538.903,-38 313.903,-38 313.903,-38 307.903,-38 301.903,-32 301.903,-26 301.903,-26 301.903,-12 301.903,-12 301.903,-6 307.903,-0 313.903,-0 313.903,-0 538.903,-0 538.903,-0 544.903,-0 550.903,-6 550.903,-12 550.903,-12 550.903,-26 550.903,-26 550.903,-32 544.903,-38 538.903,-38"/>
<text text-anchor="middle" x="426.403" y="-22.8" font-family="Times,serif" font-size="14.00">1997.Amauris_damocles</text>
<text text-anchor="middle" x="426.403" y="-7.8" font-family="Times,serif" font-size="14.00">1995.Amauris_damocles_subsp_damocles</text>
</g>
<!-- 1997.Amauris_damocles\n1995.Amauris_damocles_subsp_damocles&#45;&gt;1995.Amauris_damocles -->
<g id="edge2" class="edge"><title>1997.Amauris_damocles\n1995.Amauris_damocles_subsp_damocles&#45;&gt;1995.Amauris_damocles</title>
<path fill="none" stroke="#761212" d="M301.775,-31.1402C278.803,-34.6885 255.156,-39.224 233.269,-45 206.918,-51.9538 178.645,-62.9822 155.7,-72.9142"/>
<polygon fill="#761212" stroke="#761212" points="154.283,-69.7138 146.538,-76.9435 157.101,-76.1214 154.283,-69.7138"/>
<text text-anchor="middle" x="236.769" y="-48.8" font-family="Times,serif" font-size="14.00">1</text>
</g>
<!-- 1997.Amauris_hyalites -->
<g id="node4" class="node"><title>1997.Amauris_hyalites</title>
<polygon fill="#ccffcc" stroke="black" points="497.903,-143 354.903,-143 354.903,-107 497.903,-107 497.903,-143"/>
<text text-anchor="middle" x="426.403" y="-121.3" font-family="Times,serif" font-size="14.00">1997.Amauris_hyalites</text>
</g>
<!-- 1997.Amauris_hyalites&#45;&gt;1995.Amauris_damocles -->
<g id="edge3" class="edge"><title>1997.Amauris_hyalites&#45;&gt;1995.Amauris_damocles</title>
<path fill="none" stroke="#761212" d="M354.709,-118.305C313.768,-114.427 261.413,-109.469 215.528,-105.124"/>
<polygon fill="#761212" stroke="#761212" points="215.825,-101.636 205.539,-104.177 215.165,-108.605 215.825,-101.636"/>
<text text-anchor="middle" x="236.769" y="-110.8" font-family="Times,serif" font-size="14.00">1</text>
</g>
<!-- 1997.Amauris_hyalites_subsp_hyalites -->
<g id="node5" class="node"><title>1997.Amauris_hyalites_subsp_hyalites</title>
<polygon fill="#ccffcc" stroke="black" points="883.538,-175 653.538,-175 653.538,-139 883.538,-139 883.538,-175"/>
<text text-anchor="middle" x="768.538" y="-153.3" font-family="Times,serif" font-size="14.00">1997.Amauris_hyalites_subsp_hyalites</text>
</g>
<!-- 1997.Amauris_hyalites_subsp_hyalites&#45;&gt;1995.Amauris_damocles_subsp_hyalites -->
<g id="edge4" class="edge"><title>1997.Amauris_hyalites_subsp_hyalites&#45;&gt;1995.Amauris_damocles_subsp_hyalites</title>
<path fill="none" stroke="#761212" d="M653.332,-165.058C629.924,-166.71 604.928,-168.474 580.409,-170.204"/>
<polygon fill="#761212" stroke="#761212" points="580.036,-166.721 570.307,-170.917 580.529,-173.704 580.036,-166.721"/>
<text text-anchor="middle" x="616.038" y="-170.8" font-family="Times,serif" font-size="14.00">1</text>
</g>
<!-- 1997.Amauris_hyalites_subsp_hyalites&#45;&gt;1997.Amauris_hyalites -->
<g id="edge5" class="edge"><title>1997.Amauris_hyalites_subsp_hyalites&#45;&gt;1997.Amauris_hyalites</title>
<path fill="none" stroke="#761212" d="M653.332,-146.255C605.716,-141.776 551.529,-136.678 508.16,-132.598"/>
<polygon fill="#761212" stroke="#761212" points="508.23,-129.089 497.946,-131.637 507.575,-136.058 508.23,-129.089"/>
<text text-anchor="middle" x="616.038" y="-145.8" font-family="Times,serif" font-size="14.00">1</text>
</g>
<!-- 1997.Amauris_hyalites_subsp_makuyensis\n1995.Amauris_damocles_subsp_makuyensis -->
<g id="node6" class="node"><title>1997.Amauris_hyalites_subsp_makuyensis\n1995.Amauris_damocles_subsp_makuyensis</title>
<path fill="#eeeeee" stroke="black" d="M887.538,-113C887.538,-113 649.538,-113 649.538,-113 643.538,-113 637.538,-107 637.538,-101 637.538,-101 637.538,-87 637.538,-87 637.538,-81 643.538,-75 649.538,-75 649.538,-75 887.538,-75 887.538,-75 893.538,-75 899.538,-81 899.538,-87 899.538,-87 899.538,-101 899.538,-101 899.538,-107 893.538,-113 887.538,-113"/>
<text text-anchor="middle" x="768.538" y="-97.8" font-family="Times,serif" font-size="14.00">1997.Amauris_hyalites_subsp_makuyensis</text>
<text text-anchor="middle" x="768.538" y="-82.8" font-family="Times,serif" font-size="14.00">1995.Amauris_damocles_subsp_makuyensis</text>
</g>
<!-- 1997.Amauris_hyalites_subsp_makuyensis\n1995.Amauris_damocles_subsp_makuyensis&#45;&gt;1995.Amauris_damocles -->
<g id="edge6" class="edge"><title>1997.Amauris_hyalites_subsp_makuyensis\n1995.Amauris_damocles_subsp_makuyensis&#45;&gt;1995.Amauris_damocles</title>
<path fill="none" stroke="#761212" d="M637.221,-84.825C622.825,-84.0761 608.375,-83.4395 594.538,-83 445.16,-78.2558 407.602,-77.0217 258.269,-83 244.753,-83.5411 230.567,-84.356 216.538,-85.3115"/>
<polygon fill="#761212" stroke="#761212" points="216.091,-81.8343 206.362,-86.0302 216.584,-88.8169 216.091,-81.8343"/>
<text text-anchor="middle" x="426.403" y="-86.8" font-family="Times,serif" font-size="14.00">1</text>
</g>
<!-- 1997.Amauris_hyalites_subsp_makuyensis\n1995.Amauris_damocles_subsp_makuyensis&#45;&gt;1997.Amauris_hyalites -->
<g id="edge7" class="edge"><title>1997.Amauris_hyalites_subsp_makuyensis\n1995.Amauris_damocles_subsp_makuyensis&#45;&gt;1997.Amauris_hyalites</title>
<path fill="none" stroke="#761212" d="M637.299,-105.749C628.92,-106.51 620.61,-107.265 612.538,-108 578.458,-111.104 540.851,-114.553 508.484,-117.528"/>
<polygon fill="#761212" stroke="#761212" points="507.808,-114.076 498.171,-118.477 508.449,-121.046 507.808,-114.076"/>
<text text-anchor="middle" x="616.038" y="-111.8" font-family="Times,serif" font-size="14.00">1</text>
</g>
</g>
</svg>
