<?xml version="1.0" encoding="UTF-8" standalone="no"?>
<!DOCTYPE svg PUBLIC "-//W3C//DTD SVG 1.1//EN"
 "http://www.w3.org/Graphics/SVG/1.1/DTD/svg11.dtd">
<!-- Generated by graphviz version 2.38.0 (20140413.2041)
 -->
<!-- Title: %3 Pages: 1 -->
<svg width="1330pt" height="214pt"
 viewBox="0.00 0.00 1329.74 214.00" xmlns="http://www.w3.org/2000/svg" xmlns:xlink="http://www.w3.org/1999/xlink">
<g id="graph0" class="graph" transform="scale(1 1) rotate(0) translate(4 210)">
<title>%3</title>
<polygon fill="white" stroke="none" points="-4,4 -4,-210 1325.74,-210 1325.74,4 -4,4"/>
<!-- 2015.Gall_Neoa_Clade -->
<g id="node1" class="node"><title>2015.Gall_Neoa_Clade</title>
<polygon fill="#ccffcc" stroke="black" points="376,-166 218,-166 218,-130 376,-130 376,-166"/>
<text text-anchor="middle" x="297" y="-144.3" font-family="Helvetica,sans-Serif" font-size="14.00">2015.Gall_Neoa_Clade</text>
</g>
<!-- 2015.Galloanserae -->
<g id="node3" class="node"><title>2015.Galloanserae</title>
<polygon fill="#ccffcc" stroke="black" points="684,-206 553,-206 553,-170 684,-170 684,-206"/>
<text text-anchor="middle" x="618.5" y="-184.3" font-family="Helvetica,sans-Serif" font-size="14.00">2015.Galloanserae</text>
</g>
<!-- 2015.Gall_Neoa_Clade&#45;&gt;2015.Galloanserae -->
<g id="edge1" class="edge"><title>2015.Gall_Neoa_Clade&#45;&gt;2015.Galloanserae</title>
<path fill="none" stroke="#000000" d="M386.237,-159.998C388.853,-160.338 391.445,-160.673 394,-161 447.499,-167.853 508.266,-175.164 552.919,-180.447"/>
<polygon fill="#000000" stroke="#000000" points="386.423,-156.493 376.053,-158.665 385.514,-163.434 386.423,-156.493"/>
</g>
<!-- 2015.Neoaves -->
<g id="node5" class="node"><title>2015.Neoaves</title>
<polygon fill="#ccffcc" stroke="black" points="670.5,-165 566.5,-165 566.5,-129 670.5,-129 670.5,-165"/>
<text text-anchor="middle" x="618.5" y="-143.3" font-family="Helvetica,sans-Serif" font-size="14.00">2015.Neoaves</text>
</g>
<!-- 2015.Gall_Neoa_Clade&#45;&gt;2015.Neoaves -->
<g id="edge3" class="edge"><title>2015.Gall_Neoa_Clade&#45;&gt;2015.Neoaves</title>
<path fill="none" stroke="#000000" d="M386.391,-147.723C444.191,-147.542 517.677,-147.312 566.078,-147.161"/>
<polygon fill="#000000" stroke="#000000" points="386.147,-144.224 376.158,-147.755 386.169,-151.224 386.147,-144.224"/>
</g>
<!-- 2015.Palaeognathae -->
<g id="node2" class="node"><title>2015.Palaeognathae</title>
<polygon fill="#ccffcc" stroke="black" points="535,-120 394,-120 394,-84 535,-84 535,-120"/>
<text text-anchor="middle" x="464.5" y="-98.3" font-family="Helvetica,sans-Serif" font-size="14.00">2015.Palaeognathae</text>
</g>
<!-- 2014.Paleognathae -->
<g id="node6" class="node"><title>2014.Paleognathae</title>
<polygon fill="#ffffcc" stroke="black" points="1171.95,-118.544 1171.95,-133.456 1116.86,-144 1038.96,-144 983.872,-133.456 983.872,-118.544 1038.96,-108 1116.86,-108 1171.95,-118.544"/>
<text text-anchor="middle" x="1077.91" y="-122.3" font-family="Helvetica,sans-Serif" font-size="14.00">2014.Paleognathae</text>
</g>
<!-- 2015.Palaeognathae&#45;&gt;2014.Paleognathae -->
<g id="edge9" class="edge"><title>2015.Palaeognathae&#45;&gt;2014.Paleognathae</title>
<path fill="none" stroke="#aa00ff" stroke-dasharray="5,2" d="M535.041,-104.73C645.291,-109.057 860.321,-117.498 983.771,-122.344"/>
<text text-anchor="middle" x="710.5" y="-114.8" font-family="Times,serif" font-size="14.00">&lt;</text>
</g>
<!-- 2014.Struthioniformes -->
<g id="node10" class="node"><title>2014.Struthioniformes</title>
<polygon fill="#ffffcc" stroke="black" points="946.461,-137.544 946.461,-152.456 885.164,-163 798.477,-163 737.179,-152.456 737.179,-137.544 798.477,-127 885.164,-127 946.461,-137.544"/>
<text text-anchor="middle" x="841.82" y="-141.3" font-family="Helvetica,sans-Serif" font-size="14.00">2014.Struthioniformes</text>
</g>
<!-- 2015.Galloanserae&#45;&gt;2014.Struthioniformes -->
<g id="edge11" class="edge"><title>2015.Galloanserae&#45;&gt;2014.Struthioniformes</title>
<path fill="none" stroke="#aa00ff" stroke-dasharray="5,2" d="M684.11,-175.447C711.542,-170.117 743.568,-163.895 771.494,-158.469"/>
<text text-anchor="middle" x="710.5" y="-174.8" font-family="Times,serif" font-size="14.00">==</text>
</g>
<!-- 2015.Aves -->
<g id="node4" class="node"><title>2015.Aves</title>
<polygon fill="#ccffcc" stroke="black" points="181,-120 101,-120 101,-84 181,-84 181,-120"/>
<text text-anchor="middle" x="141" y="-98.3" font-family="Helvetica,sans-Serif" font-size="14.00">2015.Aves</text>
</g>
<!-- 2015.Aves&#45;&gt;2015.Gall_Neoa_Clade -->
<g id="edge4" class="edge"><title>2015.Aves&#45;&gt;2015.Gall_Neoa_Clade</title>
<path fill="none" stroke="#000000" d="M191.237,-116.707C205.333,-120.918 220.862,-125.556 235.549,-129.943"/>
<polygon fill="#000000" stroke="#000000" points="191.843,-113.235 181.259,-113.727 189.839,-119.942 191.843,-113.235"/>
</g>
<!-- 2015.Aves&#45;&gt;2015.Palaeognathae -->
<g id="edge2" class="edge"><title>2015.Aves&#45;&gt;2015.Palaeognathae</title>
<path fill="none" stroke="#000000" d="M191.139,-102C245.288,-102 332.801,-102 393.971,-102"/>
<polygon fill="#000000" stroke="#000000" points="191.101,-98.5001 181.101,-102 191.101,-105.5 191.101,-98.5001"/>
</g>
<!-- 2014.Aves -->
<g id="node8" class="node"><title>2014.Aves</title>
<polygon fill="#ffffcc" stroke="black" points="1321.52,-48.5442 1321.52,-63.4558 1288.68,-74 1242.24,-74 1209.4,-63.4558 1209.4,-48.5442 1242.24,-38 1288.68,-38 1321.52,-48.5442"/>
<text text-anchor="middle" x="1265.46" y="-52.3" font-family="Helvetica,sans-Serif" font-size="14.00">2014.Aves</text>
</g>
<!-- 2015.Aves&#45;&gt;2014.Aves -->
<g id="edge10" class="edge"><title>2015.Aves&#45;&gt;2014.Aves</title>
<path fill="none" stroke="#aa00ff" stroke-dasharray="5,2" d="M179.986,-83.9516C210.597,-71.0644 255.122,-56 296,-56 296,-56 296,-56 1078.91,-56 1122.72,-56 1172.35,-56 1209.25,-56"/>
<text text-anchor="middle" x="710.5" y="-59.8" font-family="Times,serif" font-size="14.00">&lt;</text>
</g>
<!-- 2014.Paleognathae&#45;&gt;2014.Aves -->
<g id="edge6" class="edge"><title>2014.Paleognathae&#45;&gt;2014.Aves</title>
<path fill="none" stroke="#000000" d="M1123.35,-109.233C1152.25,-98.3315 1189.83,-84.1554 1218.93,-73.1735"/>
<polygon fill="#000000" stroke="#000000" points="1220.34,-76.3856 1228.46,-69.581 1217.87,-69.8361 1220.34,-76.3856"/>
</g>
<!-- 2014.Neognathae -->
<g id="node7" class="node"><title>2014.Neognathae</title>
<polygon fill="#ffffcc" stroke="black" points="1165.38,-10.5442 1165.38,-25.4558 1114.14,-36 1041.68,-36 990.442,-25.4558 990.442,-10.5442 1041.68,-3.55271e-15 1114.14,-0 1165.38,-10.5442"/>
<text text-anchor="middle" x="1077.91" y="-14.3" font-family="Helvetica,sans-Serif" font-size="14.00">2014.Neognathae</text>
</g>
<!-- 2014.Neognathae&#45;&gt;2014.Aves -->
<g id="edge8" class="edge"><title>2014.Neognathae&#45;&gt;2014.Aves</title>
<path fill="none" stroke="#000000" d="M1140.44,-30.6007C1161.74,-34.9637 1185.53,-39.8366 1206.54,-44.1382"/>
<polygon fill="#000000" stroke="#000000" points="1206.1,-47.6217 1216.6,-46.1993 1207.51,-40.764 1206.1,-47.6217"/>
</g>
<!-- 2014.Tinamiformes -->
<g id="node9" class="node"><title>2014.Tinamiformes</title>
<polygon fill="#ffffcc" stroke="black" points="935.857,-178.544 935.857,-193.456 880.772,-204 802.869,-204 747.784,-193.456 747.784,-178.544 802.869,-168 880.772,-168 935.857,-178.544"/>
<text text-anchor="middle" x="841.82" y="-182.3" font-family="Helvetica,sans-Serif" font-size="14.00">2014.Tinamiformes</text>
</g>
<!-- 2014.Tinamiformes&#45;&gt;2014.Paleognathae -->
<g id="edge7" class="edge"><title>2014.Tinamiformes&#45;&gt;2014.Paleognathae</title>
<path fill="none" stroke="#000000" d="M907.513,-173.076C920.511,-170.259 934.043,-167.167 946.641,-164 969.624,-158.221 994.659,-151.117 1016.58,-144.62"/>
<polygon fill="#000000" stroke="#000000" points="1017.84,-147.899 1026.42,-141.685 1015.84,-141.191 1017.84,-147.899"/>
</g>
<!-- 2014.Struthioniformes&#45;&gt;2014.Paleognathae -->
<g id="edge5" class="edge"><title>2014.Struthioniformes&#45;&gt;2014.Paleognathae</title>
<path fill="none" stroke="#000000" d="M942.774,-136.887C953.026,-136.055 963.457,-135.208 973.742,-134.374"/>
<polygon fill="#000000" stroke="#000000" points="974.284,-137.841 983.968,-133.544 973.718,-130.864 974.284,-137.841"/>
</g>
<!-- Legend -->
<g id="node11" class="node"><title>Legend</title>
<polygon fill="white" stroke="black" points="83,-189.5 0,-189.5 0,-14.5 83,-14.5 83,-189.5"/>
<polygon fill="none" stroke="black" points="0.5,-164 0.5,-189 83.5,-189 83.5,-164 0.5,-164"/>
<text text-anchor="start" x="19" y="-172.8" font-family="Arial Black" font-size="14.00"> Nodes</text>
<polygon fill="#ccffcc" stroke="none" points="0.5,-139 0.5,-164 65.5,-164 65.5,-139 0.5,-139"/>
<polygon fill="none" stroke="black" points="0.5,-139 0.5,-164 65.5,-164 65.5,-139 0.5,-139"/>
<text text-anchor="start" x="17.5" y="-147.8" font-family="Helvetica,sans-Serif" font-size="14.00">2015</text>
<polygon fill="none" stroke="black" points="65.5,-139 65.5,-164 83.5,-164 83.5,-139 65.5,-139"/>
<text text-anchor="start" x="70.5" y="-147.8" font-family="Helvetica,sans-Serif" font-size="14.00">5</text>
<polygon fill="#ffffcc" stroke="none" points="0.5,-114 0.5,-139 65.5,-139 65.5,-114 0.5,-114"/>
<polygon fill="none" stroke="black" points="0.5,-114 0.5,-139 65.5,-139 65.5,-114 0.5,-114"/>
<text text-anchor="start" x="17.5" y="-122.8" font-family="Helvetica,sans-Serif" font-size="14.00">2014</text>
<polygon fill="none" stroke="black" points="65.5,-114 65.5,-139 83.5,-139 83.5,-114 65.5,-114"/>
<text text-anchor="start" x="70.5" y="-122.8" font-family="Helvetica,sans-Serif" font-size="14.00">5</text>
<polygon fill="none" stroke="black" points="0.5,-89 0.5,-114 83.5,-114 83.5,-89 0.5,-89"/>
<text text-anchor="start" x="17.5" y="-97.8" font-family="Arial Black" font-size="14.00"> Edges </text>
<polygon fill="none" stroke="black" points="0.5,-64 0.5,-89 65.5,-89 65.5,-64 0.5,-64"/>
<text text-anchor="start" x="5.5" y="-72.8" font-family="Helvetica,sans-Serif" font-size="14.00" fill="#000000">isa_2015</text>
<polygon fill="none" stroke="black" points="65.5,-64 65.5,-89 83.5,-89 83.5,-64 65.5,-64"/>
<text text-anchor="start" x="70.5" y="-72.8" font-family="Helvetica,sans-Serif" font-size="14.00">4</text>
<polygon fill="none" stroke="black" points="0.5,-39 0.5,-64 65.5,-64 65.5,-39 0.5,-39"/>
<text text-anchor="start" x="5.5" y="-47.8" font-family="Helvetica,sans-Serif" font-size="14.00" fill="#000000">isa_2014</text>
<polygon fill="none" stroke="black" points="65.5,-39 65.5,-64 83.5,-64 83.5,-39 65.5,-39"/>
<text text-anchor="start" x="70.5" y="-47.8" font-family="Helvetica,sans-Serif" font-size="14.00">4</text>
<polygon fill="none" stroke="black" points="0.5,-14 0.5,-39 65.5,-39 65.5,-14 0.5,-14"/>
<text text-anchor="start" x="22" y="-22.8" font-family="Helvetica,sans-Serif" font-size="14.00" fill="#aa00ff">Art.</text>
<polygon fill="none" stroke="black" points="65.5,-14 65.5,-39 83.5,-39 83.5,-14 65.5,-14"/>
<text text-anchor="start" x="70.5" y="-22.8" font-family="Helvetica,sans-Serif" font-size="14.00">3</text>
</g>
</g>
</svg>
