<?xml version="1.0" encoding="UTF-8" standalone="no"?>
<!DOCTYPE svg PUBLIC "-//W3C//DTD SVG 1.1//EN"
 "http://www.w3.org/Graphics/SVG/1.1/DTD/svg11.dtd">
<!-- Generated by graphviz version 2.38.0 (20140413.2041)
 -->
<!-- Title: %3 Pages: 1 -->
<svg width="1310pt" height="211pt"
 viewBox="0.00 0.00 1309.99 210.50" xmlns="http://www.w3.org/2000/svg" xmlns:xlink="http://www.w3.org/1999/xlink">
<g id="graph0" class="graph" transform="scale(1 1) rotate(0) translate(4 206.5)">
<title>%3</title>
<polygon fill="white" stroke="none" points="-4,4 -4,-206.5 1305.99,-206.5 1305.99,4 -4,4"/>
<!-- 1995.Amauris_damocles -->
<g id="node1" class="node"><title>1995.Amauris_damocles</title>
<polygon fill="#ffffcc" stroke="black" points="1301.98,-61.5442 1301.98,-76.4558 1233.17,-87 1135.85,-87 1067.04,-76.4558 1067.04,-61.5442 1135.85,-51 1233.17,-51 1301.98,-61.5442"/>
<text text-anchor="middle" x="1184.51" y="-65.3" font-family="Helvetica,sans-Serif" font-size="14.00">1995.Amauris_damocles</text>
</g>
<!-- 1995.Amauris_damocles_subsp_makuyensis -->
<g id="node2" class="node"><title>1995.Amauris_damocles_subsp_makuyensis</title>
<polygon fill="#ffffcc" stroke="black" points="1030.04,-107.544 1030.04,-122.456 910.523,-133 741.503,-133 621.987,-122.456 621.987,-107.544 741.503,-97 910.523,-97 1030.04,-107.544"/>
<text text-anchor="middle" x="826.013" y="-111.3" font-family="Helvetica,sans-Serif" font-size="14.00">1995.Amauris_damocles_subsp_makuyensis</text>
</g>
<!-- 1995.Amauris_damocles_subsp_makuyensis&#45;&gt;1995.Amauris_damocles -->
<g id="edge1" class="edge"><title>1995.Amauris_damocles_subsp_makuyensis&#45;&gt;1995.Amauris_damocles</title>
<path fill="none" stroke="#000000" d="M960.893,-101.398C983.972,-98.7938 1007.71,-95.9524 1030.03,-93 1050.71,-90.2642 1072.9,-86.9908 1093.8,-83.7544"/>
<polygon fill="#000000" stroke="#000000" points="1094.61,-87.1711 1103.95,-82.1711 1093.53,-80.2548 1094.61,-87.1711"/>
</g>
<!-- 1995.Amauris_damocles_subsp_damocles -->
<g id="node3" class="node"><title>1995.Amauris_damocles_subsp_damocles</title>
<polygon fill="#ffffcc" stroke="black" points="1020.34,-15.5442 1020.34,-30.4558 906.506,-41 745.52,-41 631.685,-30.4558 631.685,-15.5442 745.52,-5 906.506,-5 1020.34,-15.5442"/>
<text text-anchor="middle" x="826.013" y="-19.3" font-family="Helvetica,sans-Serif" font-size="14.00">1995.Amauris_damocles_subsp_damocles</text>
</g>
<!-- 1995.Amauris_damocles_subsp_damocles&#45;&gt;1995.Amauris_damocles -->
<g id="edge3" class="edge"><title>1995.Amauris_damocles_subsp_damocles&#45;&gt;1995.Amauris_damocles</title>
<path fill="none" stroke="#000000" d="M957.898,-36.2656C981.913,-38.9603 1006.74,-41.9197 1030.03,-45 1050.71,-47.7358 1072.9,-51.0092 1093.8,-54.2456"/>
<polygon fill="#000000" stroke="#000000" points="1093.53,-57.7452 1103.95,-55.8289 1094.61,-50.8289 1093.53,-57.7452"/>
</g>
<!-- 1995.Amauris_damocles_subsp_hyalites -->
<g id="node4" class="node"><title>1995.Amauris_damocles_subsp_hyalites</title>
<polygon fill="#ffffcc" stroke="black" points="1011.05,-61.5442 1011.05,-76.4558 902.658,-87 749.368,-87 640.976,-76.4558 640.976,-61.5442 749.368,-51 902.658,-51 1011.05,-61.5442"/>
<text text-anchor="middle" x="826.013" y="-65.3" font-family="Helvetica,sans-Serif" font-size="14.00">1995.Amauris_damocles_subsp_hyalites</text>
</g>
<!-- 1995.Amauris_damocles_subsp_hyalites&#45;&gt;1995.Amauris_damocles -->
<g id="edge2" class="edge"><title>1995.Amauris_damocles_subsp_hyalites&#45;&gt;1995.Amauris_damocles</title>
<path fill="none" stroke="#000000" d="M1011.27,-69C1026.6,-69 1041.88,-69 1056.65,-69"/>
<polygon fill="#000000" stroke="#000000" points="1056.78,-72.5001 1066.78,-69 1056.78,-65.5001 1056.78,-72.5001"/>
</g>
<!-- 1997.Amauris_hyalites_subsp_hyalites -->
<g id="node5" class="node"><title>1997.Amauris_hyalites_subsp_hyalites</title>
<polygon fill="#ccffcc" stroke="black" points="556,-153 305,-153 305,-117 556,-117 556,-153"/>
<text text-anchor="middle" x="430.5" y="-131.3" font-family="Helvetica,sans-Serif" font-size="14.00">1997.Amauris_hyalites_subsp_hyalites</text>
</g>
<!-- 1997.Amauris_hyalites_subsp_makuyensis -->
<g id="node6" class="node"><title>1997.Amauris_hyalites_subsp_makuyensis</title>
<polygon fill="#ccffcc" stroke="black" points="569,-112 292,-112 292,-76 569,-76 569,-112"/>
<text text-anchor="middle" x="430.5" y="-90.3" font-family="Helvetica,sans-Serif" font-size="14.00">1997.Amauris_hyalites_subsp_makuyensis</text>
</g>
<!-- 1997.Amauris_hyalites_subsp_makuyensis&#45;&gt;1995.Amauris_damocles_subsp_makuyensis -->
<g id="edge7" class="edge"><title>1997.Amauris_hyalites_subsp_makuyensis&#45;&gt;1995.Amauris_damocles_subsp_makuyensis</title>
<path fill="none" stroke="#aa00ff" stroke-dasharray="5,2" d="M569.132,-101.345C593.844,-102.664 619.928,-104.056 645.615,-105.426"/>
<text text-anchor="middle" x="595.5" y="-107.8" font-family="Times,serif" font-size="14.00">==</text>
</g>
<!-- 1997.Amauris_hyalites_subsp_makuyensis&#45;&gt;1995.Amauris_damocles_subsp_hyalites -->
<g id="edge8" class="edge"><title>1997.Amauris_hyalites_subsp_makuyensis&#45;&gt;1995.Amauris_damocles_subsp_hyalites</title>
<path fill="none" stroke="#aa00ff" stroke-dasharray="5,2" d="M569.282,-85.13C575.269,-84.7476 581.196,-84.3695 587,-84 612.722,-82.3624 640.008,-80.6343 666.576,-78.9565"/>
<text text-anchor="middle" x="595.5" y="-87.8" font-family="Times,serif" font-size="14.00">&lt;</text>
</g>
<!-- 1997.Amauris_hyalites -->
<g id="node7" class="node"><title>1997.Amauris_hyalites</title>
<polygon fill="#ccffcc" stroke="black" points="255,-133 101,-133 101,-97 255,-97 255,-133"/>
<text text-anchor="middle" x="178" y="-111.3" font-family="Helvetica,sans-Serif" font-size="14.00">1997.Amauris_hyalites</text>
</g>
<!-- 1997.Amauris_hyalites&#45;&gt;1997.Amauris_hyalites_subsp_hyalites -->
<g id="edge5" class="edge"><title>1997.Amauris_hyalites&#45;&gt;1997.Amauris_hyalites_subsp_hyalites</title>
<path fill="none" stroke="#000000" d="M265.259,-121.887C278.002,-122.904 291.343,-123.97 304.678,-125.034"/>
<polygon fill="#000000" stroke="#000000" points="265.425,-118.389 255.179,-121.082 264.868,-125.367 265.425,-118.389"/>
</g>
<!-- 1997.Amauris_hyalites&#45;&gt;1997.Amauris_hyalites_subsp_makuyensis -->
<g id="edge4" class="edge"><title>1997.Amauris_hyalites&#45;&gt;1997.Amauris_hyalites_subsp_makuyensis</title>
<path fill="none" stroke="#000000" d="M265.165,-107.777C273.789,-107.054 282.687,-106.308 291.673,-105.554"/>
<polygon fill="#000000" stroke="#000000" points="264.851,-104.291 255.179,-108.614 265.436,-111.266 264.851,-104.291"/>
</g>
<!-- 1997.Amauris_damocles -->
<g id="node8" class="node"><title>1997.Amauris_damocles</title>
<polygon fill="#ccffcc" stroke="black" points="514,-36 347,-36 347,-0 514,-0 514,-36"/>
<text text-anchor="middle" x="430.5" y="-14.3" font-family="Helvetica,sans-Serif" font-size="14.00">1997.Amauris_damocles</text>
</g>
<!-- 1997.Amauris_damocles&#45;&gt;1995.Amauris_damocles_subsp_damocles -->
<g id="edge6" class="edge"><title>1997.Amauris_damocles&#45;&gt;1995.Amauris_damocles_subsp_damocles</title>
<path fill="none" stroke="#aa00ff" stroke-dasharray="5,2" d="M514.473,-19.0543C548.861,-19.4912 590.313,-20.0179 631.571,-20.5421"/>
<text text-anchor="middle" x="595.5" y="-24.8" font-family="Times,serif" font-size="14.00">==</text>
</g>
<!-- Legend -->
<g id="node9" class="node"><title>Legend</title>
<polygon fill="white" stroke="black" points="83,-202.5 0,-202.5 0,-27.5 83,-27.5 83,-202.5"/>
<polygon fill="none" stroke="black" points="0.5,-177 0.5,-202 83.5,-202 83.5,-177 0.5,-177"/>
<text text-anchor="start" x="19" y="-185.8" font-family="Arial Black" font-size="14.00"> Nodes</text>
<polygon fill="#ffffcc" stroke="none" points="0.5,-152 0.5,-177 65.5,-177 65.5,-152 0.5,-152"/>
<polygon fill="none" stroke="black" points="0.5,-152 0.5,-177 65.5,-177 65.5,-152 0.5,-152"/>
<text text-anchor="start" x="17.5" y="-160.8" font-family="Helvetica,sans-Serif" font-size="14.00">1995</text>
<polygon fill="none" stroke="black" points="65.5,-152 65.5,-177 83.5,-177 83.5,-152 65.5,-152"/>
<text text-anchor="start" x="70.5" y="-160.8" font-family="Helvetica,sans-Serif" font-size="14.00">4</text>
<polygon fill="#ccffcc" stroke="none" points="0.5,-127 0.5,-152 65.5,-152 65.5,-127 0.5,-127"/>
<polygon fill="none" stroke="black" points="0.5,-127 0.5,-152 65.5,-152 65.5,-127 0.5,-127"/>
<text text-anchor="start" x="17.5" y="-135.8" font-family="Helvetica,sans-Serif" font-size="14.00">1997</text>
<polygon fill="none" stroke="black" points="65.5,-127 65.5,-152 83.5,-152 83.5,-127 65.5,-127"/>
<text text-anchor="start" x="70.5" y="-135.8" font-family="Helvetica,sans-Serif" font-size="14.00">4</text>
<polygon fill="none" stroke="black" points="0.5,-102 0.5,-127 83.5,-127 83.5,-102 0.5,-102"/>
<text text-anchor="start" x="17.5" y="-110.8" font-family="Arial Black" font-size="14.00"> Edges </text>
<polygon fill="none" stroke="black" points="0.5,-77 0.5,-102 65.5,-102 65.5,-77 0.5,-77"/>
<text text-anchor="start" x="5.5" y="-85.8" font-family="Helvetica,sans-Serif" font-size="14.00" fill="#000000">isa_1995</text>
<polygon fill="none" stroke="black" points="65.5,-77 65.5,-102 83.5,-102 83.5,-77 65.5,-77"/>
<text text-anchor="start" x="70.5" y="-85.8" font-family="Helvetica,sans-Serif" font-size="14.00">3</text>
<polygon fill="none" stroke="black" points="0.5,-52 0.5,-77 65.5,-77 65.5,-52 0.5,-52"/>
<text text-anchor="start" x="5.5" y="-60.8" font-family="Helvetica,sans-Serif" font-size="14.00" fill="#000000">isa_1997</text>
<polygon fill="none" stroke="black" points="65.5,-52 65.5,-77 83.5,-77 83.5,-52 65.5,-52"/>
<text text-anchor="start" x="70.5" y="-60.8" font-family="Helvetica,sans-Serif" font-size="14.00">2</text>
<polygon fill="none" stroke="black" points="0.5,-27 0.5,-52 65.5,-52 65.5,-27 0.5,-27"/>
<text text-anchor="start" x="22" y="-35.8" font-family="Helvetica,sans-Serif" font-size="14.00" fill="#aa00ff">Art.</text>
<polygon fill="none" stroke="black" points="65.5,-27 65.5,-52 83.5,-52 83.5,-27 65.5,-27"/>
<text text-anchor="start" x="70.5" y="-35.8" font-family="Helvetica,sans-Serif" font-size="14.00">3</text>
</g>
</g>
</svg>
