<?xml version="1.0" encoding="UTF-8" standalone="no"?>
<!DOCTYPE svg PUBLIC "-//W3C//DTD SVG 1.1//EN"
 "http://www.w3.org/Graphics/SVG/1.1/DTD/svg11.dtd">
<!-- Generated by graphviz version 2.38.0 (20140413.2041)
 -->
<!-- Title: %3 Pages: 1 -->
<svg width="991pt" height="260pt"
 viewBox="0.00 0.00 990.54 260.00" xmlns="http://www.w3.org/2000/svg" xmlns:xlink="http://www.w3.org/1999/xlink">
<g id="graph0" class="graph" transform="scale(1 1) rotate(0) translate(4 256)">
<title>%3</title>
<polygon fill="white" stroke="none" points="-4,4 -4,-256 986.538,-256 986.538,4 -4,4"/>
<!-- 1997.Amauris_damocles\n1995.Amauris_damocles_subsp_damocles -->
<g id="node1" class="node"><title>1997.Amauris_damocles\n1995.Amauris_damocles_subsp_damocles</title>
<path fill="#eeeeee" stroke="black" d="M881.038,-252C881.038,-252 656.038,-252 656.038,-252 650.038,-252 644.038,-246 644.038,-240 644.038,-240 644.038,-226 644.038,-226 644.038,-220 650.038,-214 656.038,-214 656.038,-214 881.038,-214 881.038,-214 887.038,-214 893.038,-220 893.038,-226 893.038,-226 893.038,-240 893.038,-240 893.038,-246 887.038,-252 881.038,-252"/>
<text text-anchor="middle" x="768.538" y="-236.8" font-family="Times,serif" font-size="14.00">1997.Amauris_damocles</text>
<text text-anchor="middle" x="768.538" y="-221.8" font-family="Times,serif" font-size="14.00">1995.Amauris_damocles_subsp_damocles</text>
</g>
<!-- 1995.Amauris_damocles -->
<g id="node3" class="node"><title>1995.Amauris_damocles</title>
<polygon fill="#ffffcc" stroke="black" points="215.403,-165.544 215.403,-180.456 152.274,-191 62.995,-191 -0.134522,-180.456 -0.134522,-165.544 62.995,-155 152.274,-155 215.403,-165.544"/>
<text text-anchor="middle" x="107.634" y="-169.3" font-family="Times,serif" font-size="14.00">1995.Amauris_damocles</text>
</g>
<!-- 1997.Amauris_damocles\n1995.Amauris_damocles_subsp_damocles&#45;&gt;1995.Amauris_damocles -->
<g id="edge1" class="edge"><title>1997.Amauris_damocles\n1995.Amauris_damocles_subsp_damocles&#45;&gt;1995.Amauris_damocles</title>
<path fill="none" stroke="#761212" d="M643.832,-231.048C540.407,-228.199 389.207,-221.196 258.269,-204 232.723,-200.645 205.024,-195.374 180.482,-190.124"/>
<polygon fill="#761212" stroke="#761212" points="181.047,-186.665 170.532,-187.96 179.559,-193.505 181.047,-186.665"/>
<text text-anchor="middle" x="426.403" y="-232.8" font-family="Times,serif" font-size="14.00">1</text>
</g>
<!-- 1997.Amauris_hyalites_subsp_makuyensis\n1995.Amauris_damocles_subsp_makuyensis -->
<g id="node2" class="node"><title>1997.Amauris_hyalites_subsp_makuyensis\n1995.Amauris_damocles_subsp_makuyensis</title>
<path fill="#eeeeee" stroke="black" d="M887.538,-190C887.538,-190 649.538,-190 649.538,-190 643.538,-190 637.538,-184 637.538,-178 637.538,-178 637.538,-164 637.538,-164 637.538,-158 643.538,-152 649.538,-152 649.538,-152 887.538,-152 887.538,-152 893.538,-152 899.538,-158 899.538,-164 899.538,-164 899.538,-178 899.538,-178 899.538,-184 893.538,-190 887.538,-190"/>
<text text-anchor="middle" x="768.538" y="-174.8" font-family="Times,serif" font-size="14.00">1997.Amauris_hyalites_subsp_makuyensis</text>
<text text-anchor="middle" x="768.538" y="-159.8" font-family="Times,serif" font-size="14.00">1995.Amauris_damocles_subsp_makuyensis</text>
</g>
<!-- 1997.Amauris_hyalites_subsp_makuyensis\n1995.Amauris_damocles_subsp_makuyensis&#45;&gt;1995.Amauris_damocles -->
<g id="edge6" class="edge"><title>1997.Amauris_hyalites_subsp_makuyensis\n1995.Amauris_damocles_subsp_makuyensis&#45;&gt;1995.Amauris_damocles</title>
<path fill="none" stroke="#761212" d="M637.221,-180.294C631.246,-180.566 625.329,-180.805 619.538,-181 447.96,-186.79 404.856,-186.501 233.269,-181 230.709,-180.918 228.12,-180.826 225.51,-180.726"/>
<polygon fill="#761212" stroke="#761212" points="225.493,-177.223 215.356,-180.301 225.201,-184.217 225.493,-177.223"/>
<text text-anchor="middle" x="426.403" y="-188.8" font-family="Times,serif" font-size="14.00">1</text>
</g>
<!-- 1997.Amauris_hyalites -->
<g id="node5" class="node"><title>1997.Amauris_hyalites</title>
<polygon fill="#ccffcc" stroke="black" points="497.903,-170 354.903,-170 354.903,-134 497.903,-134 497.903,-170"/>
<text text-anchor="middle" x="426.403" y="-148.3" font-family="Times,serif" font-size="14.00">1997.Amauris_hyalites</text>
</g>
<!-- 1997.Amauris_hyalites_subsp_makuyensis\n1995.Amauris_damocles_subsp_makuyensis&#45;&gt;1997.Amauris_hyalites -->
<g id="edge7" class="edge"><title>1997.Amauris_hyalites_subsp_makuyensis\n1995.Amauris_damocles_subsp_makuyensis&#45;&gt;1997.Amauris_hyalites</title>
<path fill="none" stroke="#761212" d="M637.492,-163.736C594.108,-161.312 547.041,-158.683 508.474,-156.529"/>
<polygon fill="#761212" stroke="#761212" points="508.527,-153.026 498.348,-155.963 508.137,-160.015 508.527,-153.026"/>
<text text-anchor="middle" x="616.038" y="-165.8" font-family="Times,serif" font-size="14.00">1</text>
</g>
<!-- 1995.Amauris_damocles_subsp_hyalites -->
<g id="node4" class="node"><title>1995.Amauris_damocles_subsp_hyalites</title>
<polygon fill="#ffffcc" stroke="black" points="594.673,-55.5442 594.673,-70.4558 496.103,-81 356.704,-81 258.134,-70.4558 258.134,-55.5442 356.704,-45 496.103,-45 594.673,-55.5442"/>
<text text-anchor="middle" x="426.403" y="-59.3" font-family="Times,serif" font-size="14.00">1995.Amauris_damocles_subsp_hyalites</text>
</g>
<!-- 1995.Amauris_damocles_subsp_hyalites&#45;&gt;1995.Amauris_damocles -->
<g id="edge5" class="edge"><title>1995.Amauris_damocles_subsp_hyalites&#45;&gt;1995.Amauris_damocles</title>
<path fill="none" stroke="#761212" d="M373.45,-81.0411C316.92,-100.671 226.723,-131.993 167.584,-152.529"/>
<polygon fill="#761212" stroke="#761212" points="166.306,-149.268 158.007,-155.855 168.602,-155.881 166.306,-149.268"/>
<text text-anchor="middle" x="236.769" y="-130.8" font-family="Times,serif" font-size="14.00">1</text>
</g>
<!-- 1997.Amauris_hyalites&#45;&gt;1995.Amauris_damocles -->
<g id="edge2" class="edge"><title>1997.Amauris_hyalites&#45;&gt;1995.Amauris_damocles</title>
<path fill="none" stroke="#761212" d="M354.709,-156.687C316.731,-159.204 268.931,-162.373 225.585,-165.247"/>
<polygon fill="#761212" stroke="#761212" points="225.29,-161.759 215.544,-165.913 225.753,-168.743 225.29,-161.759"/>
<text text-anchor="middle" x="236.769" y="-167.8" font-family="Times,serif" font-size="14.00">1</text>
</g>
<!-- 1997.Amauris_hyalites_subsp_hyalites -->
<g id="node6" class="node"><title>1997.Amauris_hyalites_subsp_hyalites</title>
<polygon fill="#ccffcc" stroke="black" points="883.538,-93 653.538,-93 653.538,-57 883.538,-57 883.538,-93"/>
<text text-anchor="middle" x="768.538" y="-71.3" font-family="Times,serif" font-size="14.00">1997.Amauris_hyalites_subsp_hyalites</text>
</g>
<!-- 1997.Amauris_hyalites_subsp_hyalites&#45;&gt;1995.Amauris_damocles_subsp_hyalites -->
<g id="edge3" class="edge"><title>1997.Amauris_hyalites_subsp_hyalites&#45;&gt;1995.Amauris_damocles_subsp_hyalites</title>
<path fill="none" stroke="#761212" d="M653.252,-65.7156C641.867,-65.028 630.48,-64.4346 619.538,-64 614.69,-63.8074 609.772,-63.6335 604.808,-63.4768"/>
<polygon fill="#761212" stroke="#761212" points="604.66,-59.9711 594.562,-63.1786 604.456,-66.9681 604.66,-59.9711"/>
<text text-anchor="middle" x="616.038" y="-67.8" font-family="Times,serif" font-size="14.00">1</text>
</g>
<!-- 1997.Amauris_hyalites_subsp_hyalites&#45;&gt;1997.Amauris_hyalites -->
<g id="edge4" class="edge"><title>1997.Amauris_hyalites_subsp_hyalites&#45;&gt;1997.Amauris_hyalites</title>
<path fill="none" stroke="#761212" d="M687.792,-93.0531C633.631,-105.314 562.253,-121.473 507.928,-133.771"/>
<polygon fill="#761212" stroke="#761212" points="506.971,-130.399 497.991,-136.02 508.517,-137.226 506.971,-130.399"/>
<text text-anchor="middle" x="616.038" y="-111.8" font-family="Times,serif" font-size="14.00">1</text>
</g>
<!-- Legend -->
<g id="node7" class="node"><title>Legend</title>
<polygon fill="white" stroke="black" points="982.538,-150 917.538,-150 917.538,-0 982.538,-0 982.538,-150"/>
<polygon fill="none" stroke="black" points="918.038,-125 918.038,-150 983.038,-150 983.038,-125 918.038,-125"/>
<text text-anchor="start" x="927.538" y="-133.8" font-family="Arial Black" font-size="14.00"> Nodes</text>
<polygon fill="#eeeeee" stroke="none" points="918.038,-100 918.038,-125 966.038,-125 966.038,-100 918.038,-100"/>
<polygon fill="none" stroke="black" points="918.038,-100 918.038,-125 966.038,-125 966.038,-100 918.038,-100"/>
<text text-anchor="start" x="926.538" y="-108.8" font-family="Times,serif" font-size="14.00">comb</text>
<polygon fill="none" stroke="black" points="966.038,-100 966.038,-125 983.038,-125 983.038,-100 966.038,-100"/>
<text text-anchor="start" x="971.038" y="-108.8" font-family="Times,serif" font-size="14.00">2</text>
<polygon fill="#ffffcc" stroke="none" points="918.038,-75 918.038,-100 966.038,-100 966.038,-75 918.038,-75"/>
<polygon fill="none" stroke="black" points="918.038,-75 918.038,-100 966.038,-100 966.038,-75 918.038,-75"/>
<text text-anchor="start" x="928.038" y="-83.8" font-family="Times,serif" font-size="14.00">1995</text>
<polygon fill="none" stroke="black" points="966.038,-75 966.038,-100 983.038,-100 983.038,-75 966.038,-75"/>
<text text-anchor="start" x="971.038" y="-83.8" font-family="Times,serif" font-size="14.00">2</text>
<polygon fill="#ccffcc" stroke="none" points="918.038,-50 918.038,-75 966.038,-75 966.038,-50 918.038,-50"/>
<polygon fill="none" stroke="black" points="918.038,-50 918.038,-75 966.038,-75 966.038,-50 918.038,-50"/>
<text text-anchor="start" x="928.038" y="-58.8" font-family="Times,serif" font-size="14.00">1997</text>
<polygon fill="none" stroke="black" points="966.038,-50 966.038,-75 983.038,-75 983.038,-50 966.038,-50"/>
<text text-anchor="start" x="971.038" y="-58.8" font-family="Times,serif" font-size="14.00">2</text>
<polygon fill="none" stroke="black" points="918.038,-25 918.038,-50 983.038,-50 983.038,-25 918.038,-25"/>
<text text-anchor="start" x="926.038" y="-33.8" font-family="Arial Black" font-size="14.00"> Edges </text>
<polygon fill="none" stroke="black" points="918.038,1.42109e-14 918.038,-25 966.038,-25 966.038,1.42109e-14 918.038,1.42109e-14"/>
<text text-anchor="start" x="923.038" y="-8.8" font-family="Times,serif" font-size="14.00" fill="#000000">default</text>
<polygon fill="none" stroke="black" points="966.038,1.42109e-14 966.038,-25 983.038,-25 983.038,1.42109e-14 966.038,1.42109e-14"/>
<text text-anchor="start" x="971.038" y="-8.8" font-family="Times,serif" font-size="14.00">7</text>
</g>
</g>
</svg>
