<?xml version="1.0" encoding="UTF-8" standalone="no"?>
<!DOCTYPE svg PUBLIC "-//W3C//DTD SVG 1.1//EN"
 "http://www.w3.org/Graphics/SVG/1.1/DTD/svg11.dtd">
<!-- Generated by graphviz version 2.38.0 (20140413.2041)
 -->
<!-- Title: %3 Pages: 1 -->
<svg width="1190pt" height="183pt"
 viewBox="0.00 0.00 1189.74 183.00" xmlns="http://www.w3.org/2000/svg" xmlns:xlink="http://www.w3.org/1999/xlink">
<g id="graph0" class="graph" transform="scale(1 1) rotate(0) translate(4 179)">
<title>%3</title>
<polygon fill="white" stroke="none" points="-4,4 -4,-179 1185.74,-179 1185.74,4 -4,4"/>
<!-- 2015.Gall_Neoa_Clade -->
<g id="node1" class="node"><title>2015.Gall_Neoa_Clade</title>
<polygon fill="#ccffcc" stroke="black" points="376,-127.5 218,-127.5 218,-91.5 376,-91.5 376,-127.5"/>
<text text-anchor="middle" x="297" y="-105.8" font-family="Helvetica,sans-Serif" font-size="14.00">2015.Gall_Neoa_Clade</text>
</g>
<!-- 2015.Galloanserae -->
<g id="node3" class="node"><title>2015.Galloanserae</title>
<polygon fill="#ccffcc" stroke="black" points="544,-152.5 413,-152.5 413,-116.5 544,-116.5 544,-152.5"/>
<text text-anchor="middle" x="478.5" y="-130.8" font-family="Helvetica,sans-Serif" font-size="14.00">2015.Galloanserae</text>
</g>
<!-- 2015.Gall_Neoa_Clade&#45;&gt;2015.Galloanserae -->
<g id="edge1" class="edge"><title>2015.Gall_Neoa_Clade&#45;&gt;2015.Galloanserae</title>
<path fill="none" stroke="#000000" d="M386.331,-121.802C395.32,-123.054 404.327,-124.309 412.994,-125.516"/>
<polygon fill="#000000" stroke="#000000" points="386.596,-118.306 376.209,-120.393 385.631,-125.239 386.596,-118.306"/>
</g>
<!-- 2015.Neoaves -->
<g id="node5" class="node"><title>2015.Neoaves</title>
<polygon fill="#ccffcc" stroke="black" points="530.5,-106.5 426.5,-106.5 426.5,-70.5 530.5,-70.5 530.5,-106.5"/>
<text text-anchor="middle" x="478.5" y="-84.8" font-family="Helvetica,sans-Serif" font-size="14.00">2015.Neoaves</text>
</g>
<!-- 2015.Gall_Neoa_Clade&#45;&gt;2015.Neoaves -->
<g id="edge3" class="edge"><title>2015.Gall_Neoa_Clade&#45;&gt;2015.Neoaves</title>
<path fill="none" stroke="#000000" d="M386.219,-99.1791C400.003,-97.5665 413.836,-95.9482 426.415,-94.4765"/>
<polygon fill="#000000" stroke="#000000" points="385.735,-95.7118 376.209,-100.35 386.548,-102.664 385.735,-95.7118"/>
</g>
<!-- 2015.Palaeognathae -->
<g id="node2" class="node"><title>2015.Palaeognathae</title>
<polygon fill="#ccffcc" stroke="black" points="367.5,-86.5 226.5,-86.5 226.5,-50.5 367.5,-50.5 367.5,-86.5"/>
<text text-anchor="middle" x="297" y="-64.8" font-family="Helvetica,sans-Serif" font-size="14.00">2015.Palaeognathae</text>
</g>
<!-- 2014.Struthioniformes -->
<g id="node10" class="node"><title>2014.Struthioniformes</title>
<polygon fill="#ffffcc" stroke="black" points="806.461,-127.044 806.461,-141.956 745.164,-152.5 658.477,-152.5 597.179,-141.956 597.179,-127.044 658.477,-116.5 745.164,-116.5 806.461,-127.044"/>
<text text-anchor="middle" x="701.82" y="-130.8" font-family="Helvetica,sans-Serif" font-size="14.00">2014.Struthioniformes</text>
</g>
<!-- 2015.Galloanserae&#45;&gt;2014.Struthioniformes -->
<g id="edge10" class="edge"><title>2015.Galloanserae&#45;&gt;2014.Struthioniformes</title>
<path fill="none" stroke="#aa00ff" stroke-dasharray="5,2" d="M544.11,-134.5C560.697,-134.5 578.963,-134.5 596.987,-134.5"/>
<text text-anchor="middle" x="570.5" y="-138.3" font-family="Times,serif" font-size="14.00">==</text>
</g>
<!-- 2015.Aves -->
<g id="node4" class="node"><title>2015.Aves</title>
<polygon fill="#ccffcc" stroke="black" points="181,-105.5 101,-105.5 101,-69.5 181,-69.5 181,-105.5"/>
<text text-anchor="middle" x="141" y="-83.8" font-family="Helvetica,sans-Serif" font-size="14.00">2015.Aves</text>
</g>
<!-- 2015.Aves&#45;&gt;2015.Gall_Neoa_Clade -->
<g id="edge4" class="edge"><title>2015.Aves&#45;&gt;2015.Gall_Neoa_Clade</title>
<path fill="none" stroke="#000000" d="M191.32,-94.5456C199.805,-95.7578 208.808,-97.0439 217.832,-98.3331"/>
<polygon fill="#000000" stroke="#000000" points="191.654,-91.0579 181.259,-93.1085 190.664,-97.9876 191.654,-91.0579"/>
</g>
<!-- 2015.Aves&#45;&gt;2015.Palaeognathae -->
<g id="edge2" class="edge"><title>2015.Aves&#45;&gt;2015.Palaeognathae</title>
<path fill="none" stroke="#000000" d="M191.226,-81.4266C202.39,-80.0493 214.453,-78.561 226.285,-77.1012"/>
<polygon fill="#000000" stroke="#000000" points="190.755,-77.9581 181.259,-82.6563 191.613,-84.9054 190.755,-77.9581"/>
</g>
<!-- 2014.Tinamiformes -->
<g id="node9" class="node"><title>2014.Tinamiformes</title>
<polygon fill="#ffffcc" stroke="black" points="795.857,-84.0442 795.857,-98.9558 740.772,-109.5 662.869,-109.5 607.784,-98.9558 607.784,-84.0442 662.869,-73.5 740.772,-73.5 795.857,-84.0442"/>
<text text-anchor="middle" x="701.82" y="-87.8" font-family="Helvetica,sans-Serif" font-size="14.00">2014.Tinamiformes</text>
</g>
<!-- 2015.Neoaves&#45;&gt;2014.Tinamiformes -->
<g id="edge9" class="edge"><title>2015.Neoaves&#45;&gt;2014.Tinamiformes</title>
<path fill="none" stroke="#aa00ff" stroke-dasharray="5,2" d="M530.553,-89.192C553.404,-89.5018 581.088,-89.877 607.434,-90.2341"/>
<text text-anchor="middle" x="570.5" y="-93.3" font-family="Times,serif" font-size="14.00">==</text>
</g>
<!-- 2014.Paleognathae -->
<g id="node6" class="node"><title>2014.Paleognathae</title>
<polygon fill="#ffffcc" stroke="black" points="1031.95,-105.044 1031.95,-119.956 976.86,-130.5 898.958,-130.5 843.872,-119.956 843.872,-105.044 898.958,-94.5 976.86,-94.5 1031.95,-105.044"/>
<text text-anchor="middle" x="937.909" y="-108.8" font-family="Helvetica,sans-Serif" font-size="14.00">2014.Paleognathae</text>
</g>
<!-- 2014.Aves -->
<g id="node8" class="node"><title>2014.Aves</title>
<polygon fill="#ffffcc" stroke="black" points="1181.52,-126.044 1181.52,-140.956 1148.68,-151.5 1102.24,-151.5 1069.4,-140.956 1069.4,-126.044 1102.24,-115.5 1148.68,-115.5 1181.52,-126.044"/>
<text text-anchor="middle" x="1125.46" y="-129.8" font-family="Helvetica,sans-Serif" font-size="14.00">2014.Aves</text>
</g>
<!-- 2014.Paleognathae&#45;&gt;2014.Aves -->
<g id="edge6" class="edge"><title>2014.Paleognathae&#45;&gt;2014.Aves</title>
<path fill="none" stroke="#000000" d="M1021.91,-121.894C1034.43,-123.311 1047.18,-124.754 1059.25,-126.12"/>
<polygon fill="#000000" stroke="#000000" points="1058.88,-129.6 1069.21,-127.247 1059.66,-122.644 1058.88,-129.6"/>
</g>
<!-- 2014.Neognathae -->
<g id="node7" class="node"><title>2014.Neognathae</title>
<polygon fill="#ffffcc" stroke="black" points="1025.38,-146.044 1025.38,-160.956 974.139,-171.5 901.679,-171.5 850.442,-160.956 850.442,-146.044 901.679,-135.5 974.139,-135.5 1025.38,-146.044"/>
<text text-anchor="middle" x="937.909" y="-149.8" font-family="Helvetica,sans-Serif" font-size="14.00">2014.Neognathae</text>
</g>
<!-- 2014.Neognathae&#45;&gt;2014.Aves -->
<g id="edge8" class="edge"><title>2014.Neognathae&#45;&gt;2014.Aves</title>
<path fill="none" stroke="#000000" d="M1019.48,-144.815C1032.76,-143.384 1046.37,-141.917 1059.21,-140.533"/>
<polygon fill="#000000" stroke="#000000" points="1059.75,-143.995 1069.32,-139.443 1059,-137.035 1059.75,-143.995"/>
</g>
<!-- 2014.Tinamiformes&#45;&gt;2014.Paleognathae -->
<g id="edge7" class="edge"><title>2014.Tinamiformes&#45;&gt;2014.Paleognathae</title>
<path fill="none" stroke="#000000" d="M792.99,-99.5891C807.327,-100.875 822.232,-102.212 836.781,-103.518"/>
<polygon fill="#000000" stroke="#000000" points="836.513,-107.007 846.785,-104.415 837.138,-100.035 836.513,-107.007"/>
</g>
<!-- 2014.Struthioniformes&#45;&gt;2014.Paleognathae -->
<g id="edge5" class="edge"><title>2014.Struthioniformes&#45;&gt;2014.Paleognathae</title>
<path fill="none" stroke="#000000" d="M798.033,-125.552C811.247,-124.31 824.845,-123.032 838.123,-121.784"/>
<polygon fill="#000000" stroke="#000000" points="838.573,-125.257 848.201,-120.837 837.918,-118.288 838.573,-125.257"/>
</g>
<!-- Legend -->
<g id="node11" class="node"><title>Legend</title>
<polygon fill="white" stroke="black" points="83,-175 0,-175 0,-0 83,-0 83,-175"/>
<polygon fill="none" stroke="black" points="0.5,-149.5 0.5,-174.5 83.5,-174.5 83.5,-149.5 0.5,-149.5"/>
<text text-anchor="start" x="19" y="-158.3" font-family="Arial Black" font-size="14.00"> Nodes</text>
<polygon fill="#ccffcc" stroke="none" points="0.5,-124.5 0.5,-149.5 65.5,-149.5 65.5,-124.5 0.5,-124.5"/>
<polygon fill="none" stroke="black" points="0.5,-124.5 0.5,-149.5 65.5,-149.5 65.5,-124.5 0.5,-124.5"/>
<text text-anchor="start" x="17.5" y="-133.3" font-family="Helvetica,sans-Serif" font-size="14.00">2015</text>
<polygon fill="none" stroke="black" points="65.5,-124.5 65.5,-149.5 83.5,-149.5 83.5,-124.5 65.5,-124.5"/>
<text text-anchor="start" x="70.5" y="-133.3" font-family="Helvetica,sans-Serif" font-size="14.00">5</text>
<polygon fill="#ffffcc" stroke="none" points="0.5,-99.5 0.5,-124.5 65.5,-124.5 65.5,-99.5 0.5,-99.5"/>
<polygon fill="none" stroke="black" points="0.5,-99.5 0.5,-124.5 65.5,-124.5 65.5,-99.5 0.5,-99.5"/>
<text text-anchor="start" x="17.5" y="-108.3" font-family="Helvetica,sans-Serif" font-size="14.00">2014</text>
<polygon fill="none" stroke="black" points="65.5,-99.5 65.5,-124.5 83.5,-124.5 83.5,-99.5 65.5,-99.5"/>
<text text-anchor="start" x="70.5" y="-108.3" font-family="Helvetica,sans-Serif" font-size="14.00">5</text>
<polygon fill="none" stroke="black" points="0.5,-74.5 0.5,-99.5 83.5,-99.5 83.5,-74.5 0.5,-74.5"/>
<text text-anchor="start" x="17.5" y="-83.3" font-family="Arial Black" font-size="14.00"> Edges </text>
<polygon fill="none" stroke="black" points="0.5,-49.5 0.5,-74.5 65.5,-74.5 65.5,-49.5 0.5,-49.5"/>
<text text-anchor="start" x="5.5" y="-58.3" font-family="Helvetica,sans-Serif" font-size="14.00" fill="#000000">isa_2015</text>
<polygon fill="none" stroke="black" points="65.5,-49.5 65.5,-74.5 83.5,-74.5 83.5,-49.5 65.5,-49.5"/>
<text text-anchor="start" x="70.5" y="-58.3" font-family="Helvetica,sans-Serif" font-size="14.00">4</text>
<polygon fill="none" stroke="black" points="0.5,-24.5 0.5,-49.5 65.5,-49.5 65.5,-24.5 0.5,-24.5"/>
<text text-anchor="start" x="5.5" y="-33.3" font-family="Helvetica,sans-Serif" font-size="14.00" fill="#000000">isa_2014</text>
<polygon fill="none" stroke="black" points="65.5,-24.5 65.5,-49.5 83.5,-49.5 83.5,-24.5 65.5,-24.5"/>
<text text-anchor="start" x="70.5" y="-33.3" font-family="Helvetica,sans-Serif" font-size="14.00">4</text>
<polygon fill="none" stroke="black" points="0.5,0.5 0.5,-24.5 65.5,-24.5 65.5,0.5 0.5,0.5"/>
<text text-anchor="start" x="22" y="-8.3" font-family="Helvetica,sans-Serif" font-size="14.00" fill="#aa00ff">Art.</text>
<polygon fill="none" stroke="black" points="65.5,0.5 65.5,-24.5 83.5,-24.5 83.5,0.5 65.5,0.5"/>
<text text-anchor="start" x="70.5" y="-8.3" font-family="Helvetica,sans-Serif" font-size="14.00">2</text>
</g>
</g>
</svg>
