<?xml version="1.0" encoding="UTF-8" standalone="no"?>
<!DOCTYPE svg PUBLIC "-//W3C//DTD SVG 1.1//EN"
 "http://www.w3.org/Graphics/SVG/1.1/DTD/svg11.dtd">
<!-- Generated by graphviz version 2.38.0 (20140413.2041)
 -->
<!-- Title: %3 Pages: 1 -->
<svg width="592pt" height="225pt"
 viewBox="0.00 0.00 592.11 224.50" xmlns="http://www.w3.org/2000/svg" xmlns:xlink="http://www.w3.org/1999/xlink">
<g id="graph0" class="graph" transform="scale(1 1) rotate(0) translate(4 220.5)">
<title>%3</title>
<polygon fill="white" stroke="none" points="-4,4 -4,-220.5 588.106,-220.5 588.106,4 -4,4"/>
<!-- 2015.Palaeognathae -->
<g id="node1" class="node"><title>2015.Palaeognathae</title>
<polygon fill="#ccffcc" stroke="black" points="467.606,-216.5 342.606,-216.5 342.606,-180.5 467.606,-180.5 467.606,-216.5"/>
<text text-anchor="middle" x="405.106" y="-194.8" font-family="Times,serif" font-size="14.00">2015.Palaeognathae</text>
</g>
<!-- 2015.Aves -->
<g id="node2" class="node"><title>2015.Aves</title>
<polygon fill="#ccffcc" stroke="black" points="90.2619,-188.5 15.2619,-188.5 15.2619,-152.5 90.2619,-152.5 90.2619,-188.5"/>
<text text-anchor="middle" x="52.7619" y="-166.8" font-family="Times,serif" font-size="14.00">2015.Aves</text>
</g>
<!-- 2015.Palaeognathae&#45;&gt;2015.Aves -->
<g id="edge6" class="edge"><title>2015.Palaeognathae&#45;&gt;2015.Aves</title>
<path fill="none" stroke="#000000" d="M342.278,-193.559C273.199,-188.038 162.908,-179.223 100.603,-174.244"/>
<polygon fill="#000000" stroke="#000000" points="100.536,-170.727 90.2891,-173.419 99.9785,-177.705 100.536,-170.727"/>
</g>
<!-- 2014.Aves -->
<g id="node3" class="node"><title>2014.Aves</title>
<polygon fill="#ffffcc" stroke="black" points="105.287,-109.044 105.287,-123.956 74.5185,-134.5 31.0054,-134.5 0.236993,-123.956 0.236993,-109.044 31.0054,-98.5 74.5185,-98.5 105.287,-109.044"/>
<text text-anchor="middle" x="52.7619" y="-112.8" font-family="Times,serif" font-size="14.00">2014.Aves</text>
</g>
<!-- 2015.Aves&#45;&gt;2014.Aves -->
<g id="edge1" class="edge"><title>2015.Aves&#45;&gt;2014.Aves</title>
<path fill="none" stroke="#0000ff" stroke-dasharray="1,5" d="M52.7619,-152.29C52.7619,-146.407 52.7619,-140.524 52.7619,-134.641"/>
</g>
<!-- 2014.Neognathae -->
<g id="node4" class="node"><title>2014.Neognathae</title>
<polygon fill="#ffffcc" stroke="black" points="298.898,-81.0442 298.898,-95.9558 252.865,-106.5 187.765,-106.5 141.732,-95.9558 141.732,-81.0442 187.765,-70.5 252.865,-70.5 298.898,-81.0442"/>
<text text-anchor="middle" x="220.315" y="-84.8" font-family="Times,serif" font-size="14.00">2014.Neognathae</text>
</g>
<!-- 2014.Neognathae&#45;&gt;2014.Aves -->
<g id="edge7" class="edge"><title>2014.Neognathae&#45;&gt;2014.Aves</title>
<path fill="none" stroke="#000000" d="M155.781,-99.2455C141.693,-101.628 126.818,-104.144 112.913,-106.496"/>
<polygon fill="#000000" stroke="#000000" points="112.261,-103.056 102.985,-108.175 113.429,-109.958 112.261,-103.056"/>
</g>
<!-- 2015.Gall_Neoa_Clade\n2014.Paleognathae -->
<g id="node5" class="node"><title>2015.Gall_Neoa_Clade\n2014.Paleognathae</title>
<path fill="#eeeeee" stroke="black" d="M280.315,-162.5C280.315,-162.5 160.315,-162.5 160.315,-162.5 154.315,-162.5 148.315,-156.5 148.315,-150.5 148.315,-150.5 148.315,-136.5 148.315,-136.5 148.315,-130.5 154.315,-124.5 160.315,-124.5 160.315,-124.5 280.315,-124.5 280.315,-124.5 286.315,-124.5 292.315,-130.5 292.315,-136.5 292.315,-136.5 292.315,-150.5 292.315,-150.5 292.315,-156.5 286.315,-162.5 280.315,-162.5"/>
<text text-anchor="middle" x="220.315" y="-147.3" font-family="Times,serif" font-size="14.00">2015.Gall_Neoa_Clade</text>
<text text-anchor="middle" x="220.315" y="-132.3" font-family="Times,serif" font-size="14.00">2014.Paleognathae</text>
</g>
<!-- 2015.Gall_Neoa_Clade\n2014.Paleognathae&#45;&gt;2015.Aves -->
<g id="edge2" class="edge"><title>2015.Gall_Neoa_Clade\n2014.Paleognathae&#45;&gt;2015.Aves</title>
<path fill="none" stroke="#000000" d="M148.145,-155.107C132.052,-157.732 115.363,-160.454 100.574,-162.865"/>
<polygon fill="#000000" stroke="#000000" points="99.9768,-159.416 90.6706,-164.481 101.104,-166.325 99.9768,-159.416"/>
</g>
<!-- 2015.Gall_Neoa_Clade\n2014.Paleognathae&#45;&gt;2014.Aves -->
<g id="edge3" class="edge"><title>2015.Gall_Neoa_Clade\n2014.Paleognathae&#45;&gt;2014.Aves</title>
<path fill="none" stroke="#000000" d="M148.145,-131.893C136.738,-130.033 125.032,-128.123 113.915,-126.31"/>
<polygon fill="#000000" stroke="#000000" points="114.33,-122.832 103.897,-124.676 113.203,-129.741 114.33,-122.832"/>
</g>
<!-- 2015.Neoaves\n2014.Tinamiformes -->
<g id="node6" class="node"><title>2015.Neoaves\n2014.Tinamiformes</title>
<path fill="#eeeeee" stroke="black" d="M455.606,-162.5C455.606,-162.5 354.606,-162.5 354.606,-162.5 348.606,-162.5 342.606,-156.5 342.606,-150.5 342.606,-150.5 342.606,-136.5 342.606,-136.5 342.606,-130.5 348.606,-124.5 354.606,-124.5 354.606,-124.5 455.606,-124.5 455.606,-124.5 461.606,-124.5 467.606,-130.5 467.606,-136.5 467.606,-136.5 467.606,-150.5 467.606,-150.5 467.606,-156.5 461.606,-162.5 455.606,-162.5"/>
<text text-anchor="middle" x="405.106" y="-147.3" font-family="Times,serif" font-size="14.00">2015.Neoaves</text>
<text text-anchor="middle" x="405.106" y="-132.3" font-family="Times,serif" font-size="14.00">2014.Tinamiformes</text>
</g>
<!-- 2015.Neoaves\n2014.Tinamiformes&#45;&gt;2015.Gall_Neoa_Clade\n2014.Paleognathae -->
<g id="edge5" class="edge"><title>2015.Neoaves\n2014.Tinamiformes&#45;&gt;2015.Gall_Neoa_Clade\n2014.Paleognathae</title>
<path fill="none" stroke="#000000" d="M342.476,-143.5C329.675,-143.5 315.998,-143.5 302.614,-143.5"/>
<polygon fill="#000000" stroke="#000000" points="302.456,-140 292.456,-143.5 302.456,-147 302.456,-140"/>
</g>
<!-- 2015.Galloanserae\n2014.Struthioniformes -->
<g id="node7" class="node"><title>2015.Galloanserae\n2014.Struthioniformes</title>
<path fill="#eeeeee" stroke="black" d="M463.106,-106.5C463.106,-106.5 347.106,-106.5 347.106,-106.5 341.106,-106.5 335.106,-100.5 335.106,-94.5 335.106,-94.5 335.106,-80.5 335.106,-80.5 335.106,-74.5 341.106,-68.5 347.106,-68.5 347.106,-68.5 463.106,-68.5 463.106,-68.5 469.106,-68.5 475.106,-74.5 475.106,-80.5 475.106,-80.5 475.106,-94.5 475.106,-94.5 475.106,-100.5 469.106,-106.5 463.106,-106.5"/>
<text text-anchor="middle" x="405.106" y="-91.3" font-family="Times,serif" font-size="14.00">2015.Galloanserae</text>
<text text-anchor="middle" x="405.106" y="-76.3" font-family="Times,serif" font-size="14.00">2014.Struthioniformes</text>
</g>
<!-- 2015.Galloanserae\n2014.Struthioniformes&#45;&gt;2015.Gall_Neoa_Clade\n2014.Paleognathae -->
<g id="edge4" class="edge"><title>2015.Galloanserae\n2014.Struthioniformes&#45;&gt;2015.Gall_Neoa_Clade\n2014.Paleognathae</title>
<path fill="none" stroke="#000000" d="M341.966,-106.537C326.367,-111.316 309.497,-116.485 293.456,-121.399"/>
<polygon fill="#000000" stroke="#000000" points="292.13,-118.145 283.593,-124.42 294.18,-124.838 292.13,-118.145"/>
</g>
<!-- Legend -->
<g id="node8" class="node"><title>Legend</title>
<path fill="white" stroke="black" d="M572.106,-175C572.106,-175 523.106,-175 523.106,-175 517.106,-175 511.106,-169 511.106,-163 511.106,-163 511.106,-12 511.106,-12 511.106,-6 517.106,-0 523.106,-0 523.106,-0 572.106,-0 572.106,-0 578.106,-0 584.106,-6 584.106,-12 584.106,-12 584.106,-163 584.106,-163 584.106,-169 578.106,-175 572.106,-175"/>
<polygon fill="none" stroke="black" points="511.606,-149.5 511.606,-174.5 584.606,-174.5 584.606,-149.5 511.606,-149.5"/>
<text text-anchor="start" x="525.106" y="-158.3" font-family="Arial Black" font-size="14.00"> Nodes</text>
<polygon fill="#ccffcc" stroke="none" points="511.606,-124.5 511.606,-149.5 567.606,-149.5 567.606,-124.5 511.606,-124.5"/>
<polygon fill="none" stroke="black" points="511.606,-124.5 511.606,-149.5 567.606,-149.5 567.606,-124.5 511.606,-124.5"/>
<text text-anchor="start" x="525.606" y="-133.3" font-family="Times,serif" font-size="14.00">2015</text>
<polygon fill="none" stroke="black" points="567.606,-124.5 567.606,-149.5 584.606,-149.5 584.606,-124.5 567.606,-124.5"/>
<text text-anchor="start" x="572.606" y="-133.3" font-family="Times,serif" font-size="14.00">2</text>
<polygon fill="#ffffcc" stroke="none" points="511.606,-99.5 511.606,-124.5 567.606,-124.5 567.606,-99.5 511.606,-99.5"/>
<polygon fill="none" stroke="black" points="511.606,-99.5 511.606,-124.5 567.606,-124.5 567.606,-99.5 511.606,-99.5"/>
<text text-anchor="start" x="525.606" y="-108.3" font-family="Times,serif" font-size="14.00">2014</text>
<polygon fill="none" stroke="black" points="567.606,-99.5 567.606,-124.5 584.606,-124.5 584.606,-99.5 567.606,-99.5"/>
<text text-anchor="start" x="572.606" y="-108.3" font-family="Times,serif" font-size="14.00">2</text>
<polygon fill="#eeeeee" stroke="none" points="511.606,-74.5 511.606,-99.5 567.606,-99.5 567.606,-74.5 511.606,-74.5"/>
<polygon fill="none" stroke="black" points="511.606,-74.5 511.606,-99.5 567.606,-99.5 567.606,-74.5 511.606,-74.5"/>
<text text-anchor="start" x="524.106" y="-83.3" font-family="Times,serif" font-size="14.00">comb</text>
<polygon fill="none" stroke="black" points="567.606,-74.5 567.606,-99.5 584.606,-99.5 584.606,-74.5 567.606,-74.5"/>
<text text-anchor="start" x="572.606" y="-83.3" font-family="Times,serif" font-size="14.00">3</text>
<polygon fill="none" stroke="black" points="511.606,-49.5 511.606,-74.5 584.606,-74.5 584.606,-49.5 511.606,-49.5"/>
<text text-anchor="start" x="523.606" y="-58.3" font-family="Arial Black" font-size="14.00"> Edges </text>
<polygon fill="none" stroke="black" points="511.606,-24.5 511.606,-49.5 567.606,-49.5 567.606,-24.5 511.606,-24.5"/>
<text text-anchor="start" x="516.606" y="-33.3" font-family="Times,serif" font-size="14.00" fill="#0000ff">overlaps</text>
<polygon fill="none" stroke="black" points="567.606,-24.5 567.606,-49.5 584.606,-49.5 584.606,-24.5 567.606,-24.5"/>
<text text-anchor="start" x="572.606" y="-33.3" font-family="Times,serif" font-size="14.00">1</text>
<polygon fill="none" stroke="black" points="511.606,0.5 511.606,-24.5 567.606,-24.5 567.606,0.5 511.606,0.5"/>
<text text-anchor="start" x="525.606" y="-8.3" font-family="Times,serif" font-size="14.00" fill="#000000">input</text>
<polygon fill="none" stroke="black" points="567.606,0.5 567.606,-24.5 584.606,-24.5 584.606,0.5 567.606,0.5"/>
<text text-anchor="start" x="572.606" y="-8.3" font-family="Times,serif" font-size="14.00">6</text>
</g>
</g>
</svg>
