<?xml version="1.0" encoding="UTF-8" standalone="no"?>
<!DOCTYPE svg PUBLIC "-//W3C//DTD SVG 1.1//EN"
 "http://www.w3.org/Graphics/SVG/1.1/DTD/svg11.dtd">
<!-- Generated by graphviz version 2.38.0 (20140413.2041)
 -->
<!-- Title: %3 Pages: 1 -->
<svg width="592pt" height="240pt"
 viewBox="0.00 0.00 592.11 239.50" xmlns="http://www.w3.org/2000/svg" xmlns:xlink="http://www.w3.org/1999/xlink">
<g id="graph0" class="graph" transform="scale(1 1) rotate(0) translate(4 235.5)">
<title>%3</title>
<polygon fill="white" stroke="none" points="-4,4 -4,-235.5 588.106,-235.5 588.106,4 -4,4"/>
<!-- 2015.Palaeognathae -->
<g id="node1" class="node"><title>2015.Palaeognathae</title>
<polygon fill="#ccffcc" stroke="black" points="467.606,-231.5 342.606,-231.5 342.606,-195.5 467.606,-195.5 467.606,-231.5"/>
<text text-anchor="middle" x="405.106" y="-209.8" font-family="Times,serif" font-size="14.00">2015.Palaeognathae</text>
</g>
<!-- 2015.Aves -->
<g id="node2" class="node"><title>2015.Aves</title>
<polygon fill="#ccffcc" stroke="black" points="90.2619,-173.5 15.2619,-173.5 15.2619,-137.5 90.2619,-137.5 90.2619,-173.5"/>
<text text-anchor="middle" x="52.7619" y="-151.8" font-family="Times,serif" font-size="14.00">2015.Aves</text>
</g>
<!-- 2015.Palaeognathae&#45;&gt;2015.Aves -->
<g id="edge6" class="edge"><title>2015.Palaeognathae&#45;&gt;2015.Aves</title>
<path fill="none" stroke="#000000" d="M342.583,-212.693C288.873,-210.852 209.156,-205.362 141.524,-189.5 127.699,-186.257 113.146,-181.298 99.9531,-176.161"/>
<polygon fill="#000000" stroke="#000000" points="101.201,-172.891 90.6168,-172.412 98.5919,-179.386 101.201,-172.891"/>
</g>
<!-- 2014.Aves -->
<g id="node3" class="node"><title>2014.Aves</title>
<polygon fill="#ffffcc" stroke="black" points="105.287,-94.0442 105.287,-108.956 74.5185,-119.5 31.0054,-119.5 0.236993,-108.956 0.236993,-94.0442 31.0054,-83.5 74.5185,-83.5 105.287,-94.0442"/>
<text text-anchor="middle" x="52.7619" y="-97.8" font-family="Times,serif" font-size="14.00">2014.Aves</text>
</g>
<!-- 2015.Palaeognathae&#45;&gt;2014.Aves -->
<g id="edge1" class="edge"><title>2015.Palaeognathae&#45;&gt;2014.Aves</title>
<path fill="none" stroke="#0000ff" stroke-dasharray="1,5" d="M342.519,-199.225C328.275,-195.978 313.171,-192.58 299.106,-189.5 229.207,-174.194 206.454,-186.572 141.524,-156.5 123.131,-147.981 122.579,-139.454 105.524,-128.5 98.872,-124.228 91.4683,-120.052 84.3884,-116.311"/>
</g>
<!-- 2014.Neognathae -->
<g id="node4" class="node"><title>2014.Neognathae</title>
<polygon fill="#ffffcc" stroke="black" points="298.898,-66.0442 298.898,-80.9558 252.865,-91.5 187.765,-91.5 141.732,-80.9558 141.732,-66.0442 187.765,-55.5 252.865,-55.5 298.898,-66.0442"/>
<text text-anchor="middle" x="220.315" y="-69.8" font-family="Times,serif" font-size="14.00">2014.Neognathae</text>
</g>
<!-- 2015.Palaeognathae&#45;&gt;2014.Neognathae -->
<g id="edge3" class="edge"><title>2015.Palaeognathae&#45;&gt;2014.Neognathae</title>
<path fill="none" stroke="#0000ff" stroke-dasharray="1,5" d="M365.866,-195.322C354.998,-188.881 343.774,-180.867 335.106,-171.5 311.077,-145.532 325.756,-123.771 299.106,-100.5 292.322,-94.5763 284.166,-89.9329 275.724,-86.2986"/>
</g>
<!-- 2015.Aves&#45;&gt;2014.Aves -->
<g id="edge4" class="edge"><title>2015.Aves&#45;&gt;2014.Aves</title>
<path fill="none" stroke="#0000ff" stroke-dasharray="1,5" d="M52.7619,-137.29C52.7619,-131.407 52.7619,-125.524 52.7619,-119.641"/>
</g>
<!-- 2015.Aves&#45;&gt;2014.Neognathae -->
<g id="edge2" class="edge"><title>2015.Aves&#45;&gt;2014.Neognathae</title>
<path fill="none" stroke="#0000ff" stroke-dasharray="1,5" d="M90.4322,-137.427C95.5849,-134.585 100.748,-131.567 105.524,-128.5 122.579,-117.546 123.712,-110.174 141.524,-100.5 150.569,-95.5874 160.679,-91.3023 170.541,-87.6805"/>
</g>
<!-- 2014.Neognathae&#45;&gt;2014.Aves -->
<g id="edge7" class="edge"><title>2014.Neognathae&#45;&gt;2014.Aves</title>
<path fill="none" stroke="#000000" d="M155.781,-84.2455C141.693,-86.6282 126.818,-89.1441 112.913,-91.4958"/>
<polygon fill="#000000" stroke="#000000" points="112.261,-88.0562 102.985,-93.1749 113.429,-94.9582 112.261,-88.0562"/>
</g>
<!-- 2015.Neoaves\n2014.Tinamiformes -->
<g id="node5" class="node"><title>2015.Neoaves\n2014.Tinamiformes</title>
<path fill="#eeeeee" stroke="black" d="M455.606,-162.5C455.606,-162.5 354.606,-162.5 354.606,-162.5 348.606,-162.5 342.606,-156.5 342.606,-150.5 342.606,-150.5 342.606,-136.5 342.606,-136.5 342.606,-130.5 348.606,-124.5 354.606,-124.5 354.606,-124.5 455.606,-124.5 455.606,-124.5 461.606,-124.5 467.606,-130.5 467.606,-136.5 467.606,-136.5 467.606,-150.5 467.606,-150.5 467.606,-156.5 461.606,-162.5 455.606,-162.5"/>
<text text-anchor="middle" x="405.106" y="-147.3" font-family="Times,serif" font-size="14.00">2015.Neoaves</text>
<text text-anchor="middle" x="405.106" y="-132.3" font-family="Times,serif" font-size="14.00">2014.Tinamiformes</text>
</g>
<!-- 2015.Gall_Neoa_Clade\n2014.Paleognathae -->
<g id="node7" class="node"><title>2015.Gall_Neoa_Clade\n2014.Paleognathae</title>
<path fill="#eeeeee" stroke="black" d="M280.315,-147.5C280.315,-147.5 160.315,-147.5 160.315,-147.5 154.315,-147.5 148.315,-141.5 148.315,-135.5 148.315,-135.5 148.315,-121.5 148.315,-121.5 148.315,-115.5 154.315,-109.5 160.315,-109.5 160.315,-109.5 280.315,-109.5 280.315,-109.5 286.315,-109.5 292.315,-115.5 292.315,-121.5 292.315,-121.5 292.315,-135.5 292.315,-135.5 292.315,-141.5 286.315,-147.5 280.315,-147.5"/>
<text text-anchor="middle" x="220.315" y="-132.3" font-family="Times,serif" font-size="14.00">2015.Gall_Neoa_Clade</text>
<text text-anchor="middle" x="220.315" y="-117.3" font-family="Times,serif" font-size="14.00">2014.Paleognathae</text>
</g>
<!-- 2015.Neoaves\n2014.Tinamiformes&#45;&gt;2015.Gall_Neoa_Clade\n2014.Paleognathae -->
<g id="edge5" class="edge"><title>2015.Neoaves\n2014.Tinamiformes&#45;&gt;2015.Gall_Neoa_Clade\n2014.Paleognathae</title>
<path fill="none" stroke="#000000" d="M342.476,-138.443C329.675,-137.392 315.998,-136.27 302.614,-135.171"/>
<polygon fill="#000000" stroke="#000000" points="302.708,-131.668 292.456,-134.338 302.136,-138.644 302.708,-131.668"/>
</g>
<!-- 2015.Galloanserae\n2014.Struthioniformes -->
<g id="node6" class="node"><title>2015.Galloanserae\n2014.Struthioniformes</title>
<path fill="#eeeeee" stroke="black" d="M463.106,-106.5C463.106,-106.5 347.106,-106.5 347.106,-106.5 341.106,-106.5 335.106,-100.5 335.106,-94.5 335.106,-94.5 335.106,-80.5 335.106,-80.5 335.106,-74.5 341.106,-68.5 347.106,-68.5 347.106,-68.5 463.106,-68.5 463.106,-68.5 469.106,-68.5 475.106,-74.5 475.106,-80.5 475.106,-80.5 475.106,-94.5 475.106,-94.5 475.106,-100.5 469.106,-106.5 463.106,-106.5"/>
<text text-anchor="middle" x="405.106" y="-91.3" font-family="Times,serif" font-size="14.00">2015.Galloanserae</text>
<text text-anchor="middle" x="405.106" y="-76.3" font-family="Times,serif" font-size="14.00">2014.Struthioniformes</text>
</g>
<!-- 2015.Galloanserae\n2014.Struthioniformes&#45;&gt;2015.Gall_Neoa_Clade\n2014.Paleognathae -->
<g id="edge10" class="edge"><title>2015.Galloanserae\n2014.Struthioniformes&#45;&gt;2015.Gall_Neoa_Clade\n2014.Paleognathae</title>
<path fill="none" stroke="#000000" d="M335.001,-103C324.319,-105.396 313.204,-107.889 302.291,-110.337"/>
<polygon fill="#000000" stroke="#000000" points="301.334,-106.965 292.343,-112.569 302.866,-113.795 301.334,-106.965"/>
</g>
<!-- 2015.Gall_Neoa_Clade\n2014.Paleognathae&#45;&gt;2015.Aves -->
<g id="edge8" class="edge"><title>2015.Gall_Neoa_Clade\n2014.Paleognathae&#45;&gt;2015.Aves</title>
<path fill="none" stroke="#000000" d="M148.145,-140.107C132.052,-142.732 115.363,-145.454 100.574,-147.865"/>
<polygon fill="#000000" stroke="#000000" points="99.9768,-144.416 90.6706,-149.481 101.104,-151.325 99.9768,-144.416"/>
</g>
<!-- 2015.Gall_Neoa_Clade\n2014.Paleognathae&#45;&gt;2014.Aves -->
<g id="edge9" class="edge"><title>2015.Gall_Neoa_Clade\n2014.Paleognathae&#45;&gt;2014.Aves</title>
<path fill="none" stroke="#000000" d="M148.145,-116.893C136.738,-115.033 125.032,-113.123 113.915,-111.31"/>
<polygon fill="#000000" stroke="#000000" points="114.33,-107.832 103.897,-109.676 113.203,-114.741 114.33,-107.832"/>
</g>
<!-- Legend -->
<g id="node8" class="node"><title>Legend</title>
<path fill="white" stroke="black" d="M572.106,-175C572.106,-175 523.106,-175 523.106,-175 517.106,-175 511.106,-169 511.106,-163 511.106,-163 511.106,-12 511.106,-12 511.106,-6 517.106,-0 523.106,-0 523.106,-0 572.106,-0 572.106,-0 578.106,-0 584.106,-6 584.106,-12 584.106,-12 584.106,-163 584.106,-163 584.106,-169 578.106,-175 572.106,-175"/>
<polygon fill="none" stroke="black" points="511.606,-149.5 511.606,-174.5 584.606,-174.5 584.606,-149.5 511.606,-149.5"/>
<text text-anchor="start" x="525.106" y="-158.3" font-family="Arial Black" font-size="14.00"> Nodes</text>
<polygon fill="#ccffcc" stroke="none" points="511.606,-124.5 511.606,-149.5 567.606,-149.5 567.606,-124.5 511.606,-124.5"/>
<polygon fill="none" stroke="black" points="511.606,-124.5 511.606,-149.5 567.606,-149.5 567.606,-124.5 511.606,-124.5"/>
<text text-anchor="start" x="525.606" y="-133.3" font-family="Times,serif" font-size="14.00">2015</text>
<polygon fill="none" stroke="black" points="567.606,-124.5 567.606,-149.5 584.606,-149.5 584.606,-124.5 567.606,-124.5"/>
<text text-anchor="start" x="572.606" y="-133.3" font-family="Times,serif" font-size="14.00">2</text>
<polygon fill="#ffffcc" stroke="none" points="511.606,-99.5 511.606,-124.5 567.606,-124.5 567.606,-99.5 511.606,-99.5"/>
<polygon fill="none" stroke="black" points="511.606,-99.5 511.606,-124.5 567.606,-124.5 567.606,-99.5 511.606,-99.5"/>
<text text-anchor="start" x="525.606" y="-108.3" font-family="Times,serif" font-size="14.00">2014</text>
<polygon fill="none" stroke="black" points="567.606,-99.5 567.606,-124.5 584.606,-124.5 584.606,-99.5 567.606,-99.5"/>
<text text-anchor="start" x="572.606" y="-108.3" font-family="Times,serif" font-size="14.00">2</text>
<polygon fill="#eeeeee" stroke="none" points="511.606,-74.5 511.606,-99.5 567.606,-99.5 567.606,-74.5 511.606,-74.5"/>
<polygon fill="none" stroke="black" points="511.606,-74.5 511.606,-99.5 567.606,-99.5 567.606,-74.5 511.606,-74.5"/>
<text text-anchor="start" x="524.106" y="-83.3" font-family="Times,serif" font-size="14.00">comb</text>
<polygon fill="none" stroke="black" points="567.606,-74.5 567.606,-99.5 584.606,-99.5 584.606,-74.5 567.606,-74.5"/>
<text text-anchor="start" x="572.606" y="-83.3" font-family="Times,serif" font-size="14.00">3</text>
<polygon fill="none" stroke="black" points="511.606,-49.5 511.606,-74.5 584.606,-74.5 584.606,-49.5 511.606,-49.5"/>
<text text-anchor="start" x="523.606" y="-58.3" font-family="Arial Black" font-size="14.00"> Edges </text>
<polygon fill="none" stroke="black" points="511.606,-24.5 511.606,-49.5 567.606,-49.5 567.606,-24.5 511.606,-24.5"/>
<text text-anchor="start" x="516.606" y="-33.3" font-family="Times,serif" font-size="14.00" fill="#0000ff">overlaps</text>
<polygon fill="none" stroke="black" points="567.606,-24.5 567.606,-49.5 584.606,-49.5 584.606,-24.5 567.606,-24.5"/>
<text text-anchor="start" x="572.606" y="-33.3" font-family="Times,serif" font-size="14.00">4</text>
<polygon fill="none" stroke="black" points="511.606,0.5 511.606,-24.5 567.606,-24.5 567.606,0.5 511.606,0.5"/>
<text text-anchor="start" x="525.606" y="-8.3" font-family="Times,serif" font-size="14.00" fill="#000000">input</text>
<polygon fill="none" stroke="black" points="567.606,0.5 567.606,-24.5 584.606,-24.5 584.606,0.5 567.606,0.5"/>
<text text-anchor="start" x="572.606" y="-8.3" font-family="Times,serif" font-size="14.00">6</text>
</g>
</g>
</svg>
