<?xml version="1.0" encoding="UTF-8" standalone="no"?>
<!DOCTYPE svg PUBLIC "-//W3C//DTD SVG 1.1//EN"
 "http://www.w3.org/Graphics/SVG/1.1/DTD/svg11.dtd">
<!-- Generated by graphviz version 2.38.0 (20140413.2041)
 -->
<!-- Title: %3 Pages: 1 -->
<svg width="723pt" height="209pt"
 viewBox="0.00 0.00 722.58 209.00" xmlns="http://www.w3.org/2000/svg" xmlns:xlink="http://www.w3.org/1999/xlink">
<g id="graph0" class="graph" transform="scale(1 1) rotate(0) translate(4 205)">
<title>%3</title>
<polygon fill="white" stroke="none" points="-4,4 -4,-205 718.582,-205 718.582,4 -4,4"/>
<!-- 2015.Palaeognathae -->
<g id="node1" class="node"><title>2015.Palaeognathae</title>
<polygon fill="#ccffcc" stroke="black" points="236,-201 111,-201 111,-165 236,-165 236,-201"/>
<text text-anchor="middle" x="173.5" y="-179.3" font-family="Times,serif" font-size="14.00">2015.Palaeognathae</text>
</g>
<!-- 2015.Aves -->
<g id="node2" class="node"><title>2015.Aves</title>
<polygon fill="#ccffcc" stroke="black" points="75,-174 0,-174 0,-138 75,-138 75,-174"/>
<text text-anchor="middle" x="37.5" y="-152.3" font-family="Times,serif" font-size="14.00">2015.Aves</text>
</g>
<!-- 2015.Palaeognathae&#45;&gt;2015.Aves -->
<g id="edge5" class="edge"><title>2015.Palaeognathae&#45;&gt;2015.Aves</title>
<path fill="none" stroke="#000000" d="M110.991,-170.606C102.284,-168.852 93.4529,-167.073 85.0907,-165.388"/>
<polygon fill="#000000" stroke="#000000" points="85.6575,-161.932 75.1631,-163.387 84.2748,-168.794 85.6575,-161.932"/>
</g>
<!-- 2014.Aves -->
<g id="node3" class="node"><title>2014.Aves</title>
<polygon fill="#ffffcc" stroke="black" points="226.025,-121.544 226.025,-136.456 195.257,-147 151.743,-147 120.975,-136.456 120.975,-121.544 151.743,-111 195.257,-111 226.025,-121.544"/>
<text text-anchor="middle" x="173.5" y="-125.3" font-family="Times,serif" font-size="14.00">2014.Aves</text>
</g>
<!-- 2015.Palaeognathae&#45;&gt;2014.Aves -->
<g id="edge1" class="edge"><title>2015.Palaeognathae&#45;&gt;2014.Aves</title>
<path fill="none" stroke="#0000ff" stroke-dasharray="1,5" d="M173.5,-164.79C173.5,-158.907 173.5,-153.024 173.5,-147.141"/>
</g>
<!-- 2014.Aves&#45;&gt;2015.Aves -->
<g id="edge7" class="edge"><title>2014.Aves&#45;&gt;2015.Aves</title>
<path fill="none" stroke="#ff0000" d="M126.009,-138.368C112.757,-141.038 98.3207,-143.947 85.0644,-146.618"/>
<polygon fill="#ff0000" stroke="#ff0000" points="84.308,-143.2 75.1964,-148.606 85.6907,-150.062 84.308,-143.2"/>
</g>
<!-- 2014.Neognathae -->
<g id="node4" class="node"><title>2014.Neognathae</title>
<polygon fill="#ffffcc" stroke="black" points="429.374,-175.544 429.374,-190.456 383.341,-201 318.241,-201 272.208,-190.456 272.208,-175.544 318.241,-165 383.341,-165 429.374,-175.544"/>
<text text-anchor="middle" x="350.791" y="-179.3" font-family="Times,serif" font-size="14.00">2014.Neognathae</text>
</g>
<!-- 2014.Neognathae&#45;&gt;2015.Palaeognathae -->
<g id="edge8" class="edge"><title>2014.Neognathae&#45;&gt;2015.Palaeognathae</title>
<path fill="none" stroke="#ff0000" d="M272.14,-183C263.547,-183 254.823,-183 246.305,-183"/>
<polygon fill="#ff0000" stroke="#ff0000" points="246.041,-179.5 236.041,-183 246.041,-186.5 246.041,-179.5"/>
</g>
<!-- 2014.Neognathae&#45;&gt;2014.Aves -->
<g id="edge6" class="edge"><title>2014.Neognathae&#45;&gt;2014.Aves</title>
<path fill="none" stroke="#000000" d="M302.816,-168.529C278.106,-160.917 247.855,-151.598 222.932,-143.92"/>
<polygon fill="#000000" stroke="#000000" points="223.902,-140.556 213.314,-140.957 221.841,-147.246 223.902,-140.556"/>
</g>
<!-- 2015.Gall_Neoa_Clade\n2014.Paleognathae -->
<g id="node5" class="node"><title>2015.Gall_Neoa_Clade\n2014.Paleognathae</title>
<path fill="#eeeeee" stroke="black" d="M410.791,-147C410.791,-147 290.791,-147 290.791,-147 284.791,-147 278.791,-141 278.791,-135 278.791,-135 278.791,-121 278.791,-121 278.791,-115 284.791,-109 290.791,-109 290.791,-109 410.791,-109 410.791,-109 416.791,-109 422.791,-115 422.791,-121 422.791,-121 422.791,-135 422.791,-135 422.791,-141 416.791,-147 410.791,-147"/>
<text text-anchor="middle" x="350.791" y="-131.8" font-family="Times,serif" font-size="14.00">2015.Gall_Neoa_Clade</text>
<text text-anchor="middle" x="350.791" y="-116.8" font-family="Times,serif" font-size="14.00">2014.Paleognathae</text>
</g>
<!-- 2015.Gall_Neoa_Clade\n2014.Paleognathae&#45;&gt;2014.Aves -->
<g id="edge2" class="edge"><title>2015.Gall_Neoa_Clade\n2014.Paleognathae&#45;&gt;2014.Aves</title>
<path fill="none" stroke="#000000" d="M278.746,-128.405C264.755,-128.485 250.179,-128.568 236.514,-128.646"/>
<polygon fill="#000000" stroke="#000000" points="236.246,-125.148 226.267,-128.705 236.286,-132.147 236.246,-125.148"/>
</g>
<!-- 2015.Neoaves\n2014.Tinamiformes -->
<g id="node6" class="node"><title>2015.Neoaves\n2014.Tinamiformes</title>
<path fill="#eeeeee" stroke="black" d="M586.082,-175C586.082,-175 485.082,-175 485.082,-175 479.082,-175 473.082,-169 473.082,-163 473.082,-163 473.082,-149 473.082,-149 473.082,-143 479.082,-137 485.082,-137 485.082,-137 586.082,-137 586.082,-137 592.082,-137 598.082,-143 598.082,-149 598.082,-149 598.082,-163 598.082,-163 598.082,-169 592.082,-175 586.082,-175"/>
<text text-anchor="middle" x="535.582" y="-159.8" font-family="Times,serif" font-size="14.00">2015.Neoaves</text>
<text text-anchor="middle" x="535.582" y="-144.8" font-family="Times,serif" font-size="14.00">2014.Tinamiformes</text>
</g>
<!-- 2015.Neoaves\n2014.Tinamiformes&#45;&gt;2015.Gall_Neoa_Clade\n2014.Paleognathae -->
<g id="edge4" class="edge"><title>2015.Neoaves\n2014.Tinamiformes&#45;&gt;2015.Gall_Neoa_Clade\n2014.Paleognathae</title>
<path fill="none" stroke="#000000" d="M472.952,-146.56C460.151,-144.599 446.474,-142.504 433.09,-140.453"/>
<polygon fill="#000000" stroke="#000000" points="433.346,-136.952 422.932,-138.897 432.286,-143.871 433.346,-136.952"/>
</g>
<!-- 2015.Galloanserae\n2014.Struthioniformes -->
<g id="node7" class="node"><title>2015.Galloanserae\n2014.Struthioniformes</title>
<path fill="#eeeeee" stroke="black" d="M593.582,-119C593.582,-119 477.582,-119 477.582,-119 471.582,-119 465.582,-113 465.582,-107 465.582,-107 465.582,-93 465.582,-93 465.582,-87 471.582,-81 477.582,-81 477.582,-81 593.582,-81 593.582,-81 599.582,-81 605.582,-87 605.582,-93 605.582,-93 605.582,-107 605.582,-107 605.582,-113 599.582,-119 593.582,-119"/>
<text text-anchor="middle" x="535.582" y="-103.8" font-family="Times,serif" font-size="14.00">2015.Galloanserae</text>
<text text-anchor="middle" x="535.582" y="-88.8" font-family="Times,serif" font-size="14.00">2014.Struthioniformes</text>
</g>
<!-- 2015.Galloanserae\n2014.Struthioniformes&#45;&gt;2015.Gall_Neoa_Clade\n2014.Paleognathae -->
<g id="edge3" class="edge"><title>2015.Galloanserae\n2014.Struthioniformes&#45;&gt;2015.Gall_Neoa_Clade\n2014.Paleognathae</title>
<path fill="none" stroke="#000000" d="M465.477,-110.586C454.795,-112.222 443.68,-113.924 432.767,-115.596"/>
<polygon fill="#000000" stroke="#000000" points="432.173,-112.146 422.819,-117.12 433.233,-119.065 432.173,-112.146"/>
</g>
<!-- Legend -->
<g id="node8" class="node"><title>Legend</title>
<path fill="white" stroke="black" d="M702.582,-200C702.582,-200 653.582,-200 653.582,-200 647.582,-200 641.582,-194 641.582,-188 641.582,-188 641.582,-12 641.582,-12 641.582,-6 647.582,-0 653.582,-0 653.582,-0 702.582,-0 702.582,-0 708.582,-0 714.582,-6 714.582,-12 714.582,-12 714.582,-188 714.582,-188 714.582,-194 708.582,-200 702.582,-200"/>
<polygon fill="none" stroke="black" points="642.082,-175 642.082,-200 715.082,-200 715.082,-175 642.082,-175"/>
<text text-anchor="start" x="655.582" y="-183.8" font-family="Arial Black" font-size="14.00"> Nodes</text>
<polygon fill="#ccffcc" stroke="none" points="642.082,-150 642.082,-175 698.082,-175 698.082,-150 642.082,-150"/>
<polygon fill="none" stroke="black" points="642.082,-150 642.082,-175 698.082,-175 698.082,-150 642.082,-150"/>
<text text-anchor="start" x="656.082" y="-158.8" font-family="Times,serif" font-size="14.00">2015</text>
<polygon fill="none" stroke="black" points="698.082,-150 698.082,-175 715.082,-175 715.082,-150 698.082,-150"/>
<text text-anchor="start" x="703.082" y="-158.8" font-family="Times,serif" font-size="14.00">2</text>
<polygon fill="#ffffcc" stroke="none" points="642.082,-125 642.082,-150 698.082,-150 698.082,-125 642.082,-125"/>
<polygon fill="none" stroke="black" points="642.082,-125 642.082,-150 698.082,-150 698.082,-125 642.082,-125"/>
<text text-anchor="start" x="656.082" y="-133.8" font-family="Times,serif" font-size="14.00">2014</text>
<polygon fill="none" stroke="black" points="698.082,-125 698.082,-150 715.082,-150 715.082,-125 698.082,-125"/>
<text text-anchor="start" x="703.082" y="-133.8" font-family="Times,serif" font-size="14.00">2</text>
<polygon fill="#eeeeee" stroke="none" points="642.082,-100 642.082,-125 698.082,-125 698.082,-100 642.082,-100"/>
<polygon fill="none" stroke="black" points="642.082,-100 642.082,-125 698.082,-125 698.082,-100 642.082,-100"/>
<text text-anchor="start" x="654.582" y="-108.8" font-family="Times,serif" font-size="14.00">comb</text>
<polygon fill="none" stroke="black" points="698.082,-100 698.082,-125 715.082,-125 715.082,-100 698.082,-100"/>
<text text-anchor="start" x="703.082" y="-108.8" font-family="Times,serif" font-size="14.00">3</text>
<polygon fill="none" stroke="black" points="642.082,-75 642.082,-100 715.082,-100 715.082,-75 642.082,-75"/>
<text text-anchor="start" x="654.082" y="-83.8" font-family="Arial Black" font-size="14.00"> Edges </text>
<polygon fill="none" stroke="black" points="642.082,-50 642.082,-75 698.082,-75 698.082,-50 642.082,-50"/>
<text text-anchor="start" x="647.082" y="-58.8" font-family="Times,serif" font-size="14.00" fill="#0000ff">overlaps</text>
<polygon fill="none" stroke="black" points="698.082,-50 698.082,-75 715.082,-75 715.082,-50 698.082,-50"/>
<text text-anchor="start" x="703.082" y="-58.8" font-family="Times,serif" font-size="14.00">1</text>
<polygon fill="none" stroke="black" points="642.082,-25 642.082,-50 698.082,-50 698.082,-25 642.082,-25"/>
<text text-anchor="start" x="656.082" y="-33.8" font-family="Times,serif" font-size="14.00" fill="#000000">input</text>
<polygon fill="none" stroke="black" points="698.082,-25 698.082,-50 715.082,-50 715.082,-25 698.082,-25"/>
<text text-anchor="start" x="703.082" y="-33.8" font-family="Times,serif" font-size="14.00">5</text>
<polygon fill="none" stroke="black" points="642.082,-0 642.082,-25 698.082,-25 698.082,-0 642.082,-0"/>
<text text-anchor="start" x="648.582" y="-8.8" font-family="Times,serif" font-size="14.00" fill="#ff0000">inferred</text>
<polygon fill="none" stroke="black" points="698.082,-0 698.082,-25 715.082,-25 715.082,-0 698.082,-0"/>
<text text-anchor="start" x="703.082" y="-8.8" font-family="Times,serif" font-size="14.00">2</text>
</g>
</g>
</svg>
