<?xml version="1.0" encoding="UTF-8" standalone="no"?>
<!DOCTYPE svg PUBLIC "-//W3C//DTD SVG 1.1//EN"
 "http://www.w3.org/Graphics/SVG/1.1/DTD/svg11.dtd">
<!-- Generated by graphviz version 2.38.0 (20140413.2041)
 -->
<!-- Title: %3 Pages: 1 -->
<svg width="534pt" height="161pt"
 viewBox="0.00 0.00 534.00 161.00" xmlns="http://www.w3.org/2000/svg" xmlns:xlink="http://www.w3.org/1999/xlink">
<g id="graph0" class="graph" transform="scale(1 1) rotate(0) translate(4 157)">
<title>%3</title>
<polygon fill="white" stroke="none" points="-4,4 -4,-157 530,-157 530,4 -4,4"/>
<!-- 2015.Gall_Neoa_Clade\n2014.Paleognathae -->
<g id="node1" class="node"><title>2015.Gall_Neoa_Clade\n2014.Paleognathae</title>
<path fill="#eeeeee" stroke="black" d="M243,-97C243,-97 123,-97 123,-97 117,-97 111,-91 111,-85 111,-85 111,-71 111,-71 111,-65 117,-59 123,-59 123,-59 243,-59 243,-59 249,-59 255,-65 255,-71 255,-71 255,-85 255,-85 255,-91 249,-97 243,-97"/>
<text text-anchor="middle" x="183" y="-81.8" font-family="Times,serif" font-size="14.00">2015.Gall_Neoa_Clade</text>
<text text-anchor="middle" x="183" y="-66.8" font-family="Times,serif" font-size="14.00">2014.Paleognathae</text>
</g>
<!-- 2015.Aves\n2014.Aves -->
<g id="node2" class="node"><title>2015.Aves\n2014.Aves</title>
<path fill="#eeeeee" stroke="black" d="M63,-125C63,-125 12,-125 12,-125 6,-125 0,-119 0,-113 0,-113 0,-99 0,-99 0,-93 6,-87 12,-87 12,-87 63,-87 63,-87 69,-87 75,-93 75,-99 75,-99 75,-113 75,-113 75,-119 69,-125 63,-125"/>
<text text-anchor="middle" x="37.5" y="-109.8" font-family="Times,serif" font-size="14.00">2015.Aves</text>
<text text-anchor="middle" x="37.5" y="-94.8" font-family="Times,serif" font-size="14.00">2014.Aves</text>
</g>
<!-- 2015.Gall_Neoa_Clade\n2014.Paleognathae&#45;&gt;2015.Aves\n2014.Aves -->
<g id="edge3" class="edge"><title>2015.Gall_Neoa_Clade\n2014.Paleognathae&#45;&gt;2015.Aves\n2014.Aves</title>
<path fill="none" stroke="#000000" d="M110.67,-91.918C102.065,-93.5971 93.4508,-95.2779 85.3241,-96.8636"/>
<polygon fill="#000000" stroke="#000000" points="84.4727,-93.4636 75.3281,-98.814 85.8134,-100.334 84.4727,-93.4636"/>
</g>
<!-- 2015.Neoaves\n2014.Tinamiformes -->
<g id="node3" class="node"><title>2015.Neoaves\n2014.Tinamiformes</title>
<path fill="#eeeeee" stroke="black" d="M411.5,-125C411.5,-125 310.5,-125 310.5,-125 304.5,-125 298.5,-119 298.5,-113 298.5,-113 298.5,-99 298.5,-99 298.5,-93 304.5,-87 310.5,-87 310.5,-87 411.5,-87 411.5,-87 417.5,-87 423.5,-93 423.5,-99 423.5,-99 423.5,-113 423.5,-113 423.5,-119 417.5,-125 411.5,-125"/>
<text text-anchor="middle" x="361" y="-109.8" font-family="Times,serif" font-size="14.00">2015.Neoaves</text>
<text text-anchor="middle" x="361" y="-94.8" font-family="Times,serif" font-size="14.00">2014.Tinamiformes</text>
</g>
<!-- 2015.Neoaves\n2014.Tinamiformes&#45;&gt;2015.Gall_Neoa_Clade\n2014.Paleognathae -->
<g id="edge1" class="edge"><title>2015.Neoaves\n2014.Tinamiformes&#45;&gt;2015.Gall_Neoa_Clade\n2014.Paleognathae</title>
<path fill="none" stroke="#000000" d="M298.444,-96.207C287.743,-94.5045 276.466,-92.7106 265.333,-90.9394"/>
<polygon fill="#000000" stroke="#000000" points="265.595,-87.4372 255.17,-89.3225 264.496,-94.3502 265.595,-87.4372"/>
</g>
<!-- 2015.Palaeognathae\n2014.Neognathae -->
<g id="node4" class="node"><title>2015.Palaeognathae\n2014.Neognathae</title>
<path fill="#eeeeee" stroke="black" d="M233.5,-153C233.5,-153 132.5,-153 132.5,-153 126.5,-153 120.5,-147 120.5,-141 120.5,-141 120.5,-127 120.5,-127 120.5,-121 126.5,-115 132.5,-115 132.5,-115 233.5,-115 233.5,-115 239.5,-115 245.5,-121 245.5,-127 245.5,-127 245.5,-141 245.5,-141 245.5,-147 239.5,-153 233.5,-153"/>
<text text-anchor="middle" x="183" y="-137.8" font-family="Times,serif" font-size="14.00">2015.Palaeognathae</text>
<text text-anchor="middle" x="183" y="-122.8" font-family="Times,serif" font-size="14.00">2014.Neognathae</text>
</g>
<!-- 2015.Palaeognathae\n2014.Neognathae&#45;&gt;2015.Aves\n2014.Aves -->
<g id="edge4" class="edge"><title>2015.Palaeognathae\n2014.Neognathae&#45;&gt;2015.Aves\n2014.Aves</title>
<path fill="none" stroke="#000000" d="M120.31,-121.963C108.562,-119.671 96.4467,-117.307 85.2579,-115.123"/>
<polygon fill="#000000" stroke="#000000" points="85.7653,-111.657 75.2801,-113.177 84.4247,-118.527 85.7653,-111.657"/>
</g>
<!-- 2015.Galloanserae\n2014.Struthioniformes -->
<g id="node5" class="node"><title>2015.Galloanserae\n2014.Struthioniformes</title>
<path fill="#eeeeee" stroke="black" d="M419,-69C419,-69 303,-69 303,-69 297,-69 291,-63 291,-57 291,-57 291,-43 291,-43 291,-37 297,-31 303,-31 303,-31 419,-31 419,-31 425,-31 431,-37 431,-43 431,-43 431,-57 431,-57 431,-63 425,-69 419,-69"/>
<text text-anchor="middle" x="361" y="-53.8" font-family="Times,serif" font-size="14.00">2015.Galloanserae</text>
<text text-anchor="middle" x="361" y="-38.8" font-family="Times,serif" font-size="14.00">2014.Struthioniformes</text>
</g>
<!-- 2015.Galloanserae\n2014.Struthioniformes&#45;&gt;2015.Gall_Neoa_Clade\n2014.Paleognathae -->
<g id="edge2" class="edge"><title>2015.Galloanserae\n2014.Struthioniformes&#45;&gt;2015.Gall_Neoa_Clade\n2014.Paleognathae</title>
<path fill="none" stroke="#000000" d="M290.945,-60.986C282.501,-62.3294 273.812,-63.7118 265.21,-65.0803"/>
<polygon fill="#000000" stroke="#000000" points="264.498,-61.6495 255.172,-66.6772 265.597,-68.5625 264.498,-61.6495"/>
</g>
<!-- Legend -->
<g id="node6" class="node"><title>Legend</title>
<path fill="white" stroke="black" d="M514,-100C514,-100 479,-100 479,-100 473,-100 467,-94 467,-88 467,-88 467,-12 467,-12 467,-6 473,-0 479,-0 479,-0 514,-0 514,-0 520,-0 526,-6 526,-12 526,-12 526,-88 526,-88 526,-94 520,-100 514,-100"/>
<polygon fill="none" stroke="black" points="467.5,-75 467.5,-100 526.5,-100 526.5,-75 467.5,-75"/>
<text text-anchor="start" x="474" y="-83.8" font-family="Arial Black" font-size="14.00"> Nodes</text>
<polygon fill="#eeeeee" stroke="none" points="467.5,-50 467.5,-75 508.5,-75 508.5,-50 467.5,-50"/>
<polygon fill="none" stroke="black" points="467.5,-50 467.5,-75 508.5,-75 508.5,-50 467.5,-50"/>
<text text-anchor="start" x="472.5" y="-58.8" font-family="Times,serif" font-size="14.00">comb</text>
<polygon fill="none" stroke="black" points="508.5,-50 508.5,-75 526.5,-75 526.5,-50 508.5,-50"/>
<text text-anchor="start" x="514" y="-58.8" font-family="Times,serif" font-size="14.00">5</text>
<polygon fill="none" stroke="black" points="467.5,-25 467.5,-50 526.5,-50 526.5,-25 467.5,-25"/>
<text text-anchor="start" x="472.5" y="-33.8" font-family="Arial Black" font-size="14.00"> Edges </text>
<polygon fill="none" stroke="black" points="467.5,-0 467.5,-25 508.5,-25 508.5,-0 467.5,-0"/>
<text text-anchor="start" x="474" y="-8.8" font-family="Times,serif" font-size="14.00" fill="#000000">input</text>
<polygon fill="none" stroke="black" points="508.5,-0 508.5,-25 526.5,-25 526.5,-0 508.5,-0"/>
<text text-anchor="start" x="514" y="-8.8" font-family="Times,serif" font-size="14.00">4</text>
</g>
</g>
</svg>
