<?xml version="1.0" encoding="UTF-8" standalone="no"?>
<!DOCTYPE svg PUBLIC "-//W3C//DTD SVG 1.1//EN"
 "http://www.w3.org/Graphics/SVG/1.1/DTD/svg11.dtd">
<!-- Generated by graphviz version 2.38.0 (20140413.2041)
 -->
<!-- Title: %3 Pages: 1 -->
<svg width="1190pt" height="238pt"
 viewBox="0.00 0.00 1189.74 237.50" xmlns="http://www.w3.org/2000/svg" xmlns:xlink="http://www.w3.org/1999/xlink">
<g id="graph0" class="graph" transform="scale(1 1) rotate(0) translate(4 233.5)">
<title>%3</title>
<polygon fill="white" stroke="none" points="-4,4 -4,-233.5 1185.74,-233.5 1185.74,4 -4,4"/>
<!-- 2015.Gall_Neoa_Clade -->
<g id="node1" class="node"><title>2015.Gall_Neoa_Clade</title>
<polygon fill="#ccffcc" stroke="black" points="376,-146.5 218,-146.5 218,-110.5 376,-110.5 376,-146.5"/>
<text text-anchor="middle" x="297" y="-124.8" font-family="Helvetica,sans-Serif" font-size="14.00">2015.Gall_Neoa_Clade</text>
</g>
<!-- 2015.Galloanserae -->
<g id="node3" class="node"><title>2015.Galloanserae</title>
<polygon fill="#ccffcc" stroke="black" points="544,-167.5 413,-167.5 413,-131.5 544,-131.5 544,-167.5"/>
<text text-anchor="middle" x="478.5" y="-145.8" font-family="Helvetica,sans-Serif" font-size="14.00">2015.Galloanserae</text>
</g>
<!-- 2015.Gall_Neoa_Clade&#45;&gt;2015.Galloanserae -->
<g id="edge1" class="edge"><title>2015.Gall_Neoa_Clade&#45;&gt;2015.Galloanserae</title>
<path fill="none" stroke="#000000" d="M386.331,-138.834C395.32,-139.886 404.327,-140.939 412.994,-141.953"/>
<polygon fill="#000000" stroke="#000000" points="386.548,-135.336 376.209,-137.65 385.735,-142.288 386.548,-135.336"/>
</g>
<!-- 2015.Neoaves -->
<g id="node5" class="node"><title>2015.Neoaves</title>
<polygon fill="#ccffcc" stroke="black" points="530.5,-126.5 426.5,-126.5 426.5,-90.5 530.5,-90.5 530.5,-126.5"/>
<text text-anchor="middle" x="478.5" y="-104.8" font-family="Helvetica,sans-Serif" font-size="14.00">2015.Neoaves</text>
</g>
<!-- 2015.Gall_Neoa_Clade&#45;&gt;2015.Neoaves -->
<g id="edge3" class="edge"><title>2015.Gall_Neoa_Clade&#45;&gt;2015.Neoaves</title>
<path fill="none" stroke="#000000" d="M386.219,-118.671C400.003,-117.135 413.836,-115.594 426.415,-114.192"/>
<polygon fill="#000000" stroke="#000000" points="385.76,-115.2 376.209,-119.786 386.535,-122.157 385.76,-115.2"/>
</g>
<!-- 2015.Palaeognathae -->
<g id="node2" class="node"><title>2015.Palaeognathae</title>
<polygon fill="#ccffcc" stroke="black" points="367.5,-105.5 226.5,-105.5 226.5,-69.5 367.5,-69.5 367.5,-105.5"/>
<text text-anchor="middle" x="297" y="-83.8" font-family="Helvetica,sans-Serif" font-size="14.00">2015.Palaeognathae</text>
</g>
<!-- 2014.Struthioniformes -->
<g id="node10" class="node"><title>2014.Struthioniformes</title>
<polygon fill="#ffffcc" stroke="black" points="806.461,-142.044 806.461,-156.956 745.164,-167.5 658.477,-167.5 597.179,-156.956 597.179,-142.044 658.477,-131.5 745.164,-131.5 806.461,-142.044"/>
<text text-anchor="middle" x="701.82" y="-145.8" font-family="Helvetica,sans-Serif" font-size="14.00">2014.Struthioniformes</text>
</g>
<!-- 2015.Galloanserae&#45;&gt;2014.Struthioniformes -->
<g id="edge9" class="edge"><title>2015.Galloanserae&#45;&gt;2014.Struthioniformes</title>
<path fill="none" stroke="#aa00ff" stroke-dasharray="5,2" d="M544.11,-149.5C560.697,-149.5 578.963,-149.5 596.987,-149.5"/>
<text text-anchor="middle" x="570.5" y="-153.3" font-family="Times,serif" font-size="14.00">==</text>
</g>
<!-- 2015.Aves -->
<g id="node4" class="node"><title>2015.Aves</title>
<polygon fill="#ccffcc" stroke="black" points="181,-105.5 101,-105.5 101,-69.5 181,-69.5 181,-105.5"/>
<text text-anchor="middle" x="141" y="-83.8" font-family="Helvetica,sans-Serif" font-size="14.00">2015.Aves</text>
</g>
<!-- 2015.Aves&#45;&gt;2015.Gall_Neoa_Clade -->
<g id="edge4" class="edge"><title>2015.Aves&#45;&gt;2015.Gall_Neoa_Clade</title>
<path fill="none" stroke="#000000" d="M190.978,-100.54C202.873,-103.706 215.801,-107.148 228.389,-110.5"/>
<polygon fill="#000000" stroke="#000000" points="191.823,-97.1427 181.259,-97.9521 190.022,-103.907 191.823,-97.1427"/>
</g>
<!-- 2015.Aves&#45;&gt;2015.Palaeognathae -->
<g id="edge2" class="edge"><title>2015.Aves&#45;&gt;2015.Palaeognathae</title>
<path fill="none" stroke="#000000" d="M191.568,-87.5C202.636,-87.5 214.574,-87.5 226.285,-87.5"/>
<polygon fill="#000000" stroke="#000000" points="191.259,-84.0001 181.259,-87.5 191.259,-91.0001 191.259,-84.0001"/>
</g>
<!-- 2014.Paleognathae -->
<g id="node6" class="node"><title>2014.Paleognathae</title>
<polygon fill="#ffffcc" stroke="black" points="1031.95,-163.044 1031.95,-177.956 976.86,-188.5 898.958,-188.5 843.872,-177.956 843.872,-163.044 898.958,-152.5 976.86,-152.5 1031.95,-163.044"/>
<text text-anchor="middle" x="937.909" y="-166.8" font-family="Helvetica,sans-Serif" font-size="14.00">2014.Paleognathae</text>
</g>
<!-- 2014.Aves -->
<g id="node8" class="node"><title>2014.Aves</title>
<polygon fill="#ffffcc" stroke="black" points="1181.52,-184.044 1181.52,-198.956 1148.68,-209.5 1102.24,-209.5 1069.4,-198.956 1069.4,-184.044 1102.24,-173.5 1148.68,-173.5 1181.52,-184.044"/>
<text text-anchor="middle" x="1125.46" y="-187.8" font-family="Helvetica,sans-Serif" font-size="14.00">2014.Aves</text>
</g>
<!-- 2014.Paleognathae&#45;&gt;2014.Aves -->
<g id="edge6" class="edge"><title>2014.Paleognathae&#45;&gt;2014.Aves</title>
<path fill="none" stroke="#000000" d="M1021.91,-179.894C1034.43,-181.311 1047.18,-182.754 1059.25,-184.12"/>
<polygon fill="#000000" stroke="#000000" points="1058.88,-187.6 1069.21,-185.247 1059.66,-180.644 1058.88,-187.6"/>
</g>
<!-- 2014.Neognathae -->
<g id="node7" class="node"><title>2014.Neognathae</title>
<polygon fill="#ffffcc" stroke="black" points="1025.38,-204.044 1025.38,-218.956 974.139,-229.5 901.679,-229.5 850.442,-218.956 850.442,-204.044 901.679,-193.5 974.139,-193.5 1025.38,-204.044"/>
<text text-anchor="middle" x="937.909" y="-207.8" font-family="Helvetica,sans-Serif" font-size="14.00">2014.Neognathae</text>
</g>
<!-- 2014.Neognathae&#45;&gt;2014.Aves -->
<g id="edge8" class="edge"><title>2014.Neognathae&#45;&gt;2014.Aves</title>
<path fill="none" stroke="#000000" d="M1019.48,-202.815C1032.76,-201.384 1046.37,-199.917 1059.21,-198.533"/>
<polygon fill="#000000" stroke="#000000" points="1059.75,-201.995 1069.32,-197.443 1059,-195.035 1059.75,-201.995"/>
</g>
<!-- 2014.Tinamiformes -->
<g id="node9" class="node"><title>2014.Tinamiformes</title>
<polygon fill="#ffffcc" stroke="black" points="795.857,-183.044 795.857,-197.956 740.772,-208.5 662.869,-208.5 607.784,-197.956 607.784,-183.044 662.869,-172.5 740.772,-172.5 795.857,-183.044"/>
<text text-anchor="middle" x="701.82" y="-186.8" font-family="Helvetica,sans-Serif" font-size="14.00">2014.Tinamiformes</text>
</g>
<!-- 2014.Tinamiformes&#45;&gt;2014.Paleognathae -->
<g id="edge7" class="edge"><title>2014.Tinamiformes&#45;&gt;2014.Paleognathae</title>
<path fill="none" stroke="#000000" d="M794.331,-182.682C807.717,-181.538 821.572,-180.354 835.147,-179.194"/>
<polygon fill="#000000" stroke="#000000" points="835.796,-182.652 845.462,-178.313 835.2,-175.677 835.796,-182.652"/>
</g>
<!-- 2014.Struthioniformes&#45;&gt;2014.Paleognathae -->
<g id="edge5" class="edge"><title>2014.Struthioniformes&#45;&gt;2014.Paleognathae</title>
<path fill="none" stroke="#000000" d="M799.723,-158.193C811.908,-159.286 824.393,-160.406 836.629,-161.504"/>
<polygon fill="#000000" stroke="#000000" points="836.563,-165.012 846.836,-162.42 837.188,-158.04 836.563,-165.012"/>
</g>
<!-- Legend -->
<g id="node11" class="node"><title>Legend</title>
<polygon fill="white" stroke="black" points="83,-175 0,-175 0,-0 83,-0 83,-175"/>
<polygon fill="none" stroke="black" points="0.5,-149.5 0.5,-174.5 83.5,-174.5 83.5,-149.5 0.5,-149.5"/>
<text text-anchor="start" x="19" y="-158.3" font-family="Arial Black" font-size="14.00"> Nodes</text>
<polygon fill="#ccffcc" stroke="none" points="0.5,-124.5 0.5,-149.5 65.5,-149.5 65.5,-124.5 0.5,-124.5"/>
<polygon fill="none" stroke="black" points="0.5,-124.5 0.5,-149.5 65.5,-149.5 65.5,-124.5 0.5,-124.5"/>
<text text-anchor="start" x="17.5" y="-133.3" font-family="Helvetica,sans-Serif" font-size="14.00">2015</text>
<polygon fill="none" stroke="black" points="65.5,-124.5 65.5,-149.5 83.5,-149.5 83.5,-124.5 65.5,-124.5"/>
<text text-anchor="start" x="70.5" y="-133.3" font-family="Helvetica,sans-Serif" font-size="14.00">5</text>
<polygon fill="#ffffcc" stroke="none" points="0.5,-99.5 0.5,-124.5 65.5,-124.5 65.5,-99.5 0.5,-99.5"/>
<polygon fill="none" stroke="black" points="0.5,-99.5 0.5,-124.5 65.5,-124.5 65.5,-99.5 0.5,-99.5"/>
<text text-anchor="start" x="17.5" y="-108.3" font-family="Helvetica,sans-Serif" font-size="14.00">2014</text>
<polygon fill="none" stroke="black" points="65.5,-99.5 65.5,-124.5 83.5,-124.5 83.5,-99.5 65.5,-99.5"/>
<text text-anchor="start" x="70.5" y="-108.3" font-family="Helvetica,sans-Serif" font-size="14.00">5</text>
<polygon fill="none" stroke="black" points="0.5,-74.5 0.5,-99.5 83.5,-99.5 83.5,-74.5 0.5,-74.5"/>
<text text-anchor="start" x="17.5" y="-83.3" font-family="Arial Black" font-size="14.00"> Edges </text>
<polygon fill="none" stroke="black" points="0.5,-49.5 0.5,-74.5 65.5,-74.5 65.5,-49.5 0.5,-49.5"/>
<text text-anchor="start" x="5.5" y="-58.3" font-family="Helvetica,sans-Serif" font-size="14.00" fill="#000000">isa_2015</text>
<polygon fill="none" stroke="black" points="65.5,-49.5 65.5,-74.5 83.5,-74.5 83.5,-49.5 65.5,-49.5"/>
<text text-anchor="start" x="70.5" y="-58.3" font-family="Helvetica,sans-Serif" font-size="14.00">4</text>
<polygon fill="none" stroke="black" points="0.5,-24.5 0.5,-49.5 65.5,-49.5 65.5,-24.5 0.5,-24.5"/>
<text text-anchor="start" x="5.5" y="-33.3" font-family="Helvetica,sans-Serif" font-size="14.00" fill="#000000">isa_2014</text>
<polygon fill="none" stroke="black" points="65.5,-24.5 65.5,-49.5 83.5,-49.5 83.5,-24.5 65.5,-24.5"/>
<text text-anchor="start" x="70.5" y="-33.3" font-family="Helvetica,sans-Serif" font-size="14.00">4</text>
<polygon fill="none" stroke="black" points="0.5,0.5 0.5,-24.5 65.5,-24.5 65.5,0.5 0.5,0.5"/>
<text text-anchor="start" x="22" y="-8.3" font-family="Helvetica,sans-Serif" font-size="14.00" fill="#aa00ff">Art.</text>
<polygon fill="none" stroke="black" points="65.5,0.5 65.5,-24.5 83.5,-24.5 83.5,0.5 65.5,0.5"/>
<text text-anchor="start" x="70.5" y="-8.3" font-family="Helvetica,sans-Serif" font-size="14.00">1</text>
</g>
</g>
</svg>
