<?xml version="1.0" encoding="UTF-8" standalone="no"?>
<!DOCTYPE svg PUBLIC "-//W3C//DTD SVG 1.1//EN"
 "http://www.w3.org/Graphics/SVG/1.1/DTD/svg11.dtd">
<!-- Generated by graphviz version 2.38.0 (20140413.2041)
 -->
<!-- Title: %3 Pages: 1 -->
<svg width="506pt" height="358pt"
 viewBox="0.00 0.00 506.06 358.00" xmlns="http://www.w3.org/2000/svg" xmlns:xlink="http://www.w3.org/1999/xlink">
<g id="graph0" class="graph" transform="scale(1 1) rotate(0) translate(4 354)">
<title>%3</title>
<polygon fill="white" stroke="none" points="-4,4 -4,-354 502.064,-354 502.064,4 -4,4"/>
<!-- AllOtherRed -->
<g id="node1" class="node"><title>AllOtherRed</title>
<polygon fill="none" stroke="#ff0000" stroke-width="0.4" points="319.1,-324.544 319.1,-339.456 281.589,-350 228.54,-350 191.029,-339.456 191.029,-324.544 228.54,-314 281.589,-314 319.1,-324.544"/>
<text text-anchor="middle" x="255.064" y="-328.3" font-family="Helvetica,sans-Serif" font-size="14.00">AllOtherRed</text>
</g>
<!-- AllOtherGreen -->
<g id="node2" class="node"><title>AllOtherGreen</title>
<path fill="none" stroke="#006400" stroke-width="0.4" d="M295.064,-176C295.064,-176 215.064,-176 215.064,-176 209.064,-176 203.064,-170 203.064,-164 203.064,-164 203.064,-152 203.064,-152 203.064,-146 209.064,-140 215.064,-140 215.064,-140 295.064,-140 295.064,-140 301.064,-140 307.064,-146 307.064,-152 307.064,-152 307.064,-164 307.064,-164 307.064,-170 301.064,-176 295.064,-176"/>
<text text-anchor="middle" x="255.064" y="-154.3" font-family="Helvetica,sans-Serif" font-size="14.00">AllOtherGreen</text>
</g>
<!-- 2,3,5 -->
<g id="node3" class="node"><title>2,3,5</title>
<polygon fill="#ffb0b0" stroke="#ff0000" points="66.1926,-237.544 66.1926,-252.456 46.7864,-263 19.3419,-263 -0.0642726,-252.456 -0.0642726,-237.544 19.3419,-227 46.7864,-227 66.1926,-237.544"/>
<text text-anchor="middle" x="33.0641" y="-241.3" font-family="Helvetica,sans-Serif" font-size="14.00">2,3,5</text>
</g>
<!-- AllOtherGreen&#45;&gt;2,3,5 -->
<g id="edge8" class="edge"><title>AllOtherGreen&#45;&gt;2,3,5</title>
<path fill="none" stroke="#0000ff" stroke-width="2" d="M209.081,-176.033C172.643,-189.613 120.484,-209.231 75.0641,-227 69.7896,-229.063 64.1598,-231.311 58.7917,-233.476"/>
<text text-anchor="middle" x="162.564" y="-197.8" font-family="Times,serif" font-size="14.00">3</text>
</g>
<!-- 1,3 -->
<g id="node4" class="node"><title>1,3</title>
<polygon fill="#ffb0b0" stroke="#ff0000" points="138.064,-237.544 138.064,-252.456 122.248,-263 99.8804,-263 84.0641,-252.456 84.0641,-237.544 99.8804,-227 122.248,-227 138.064,-237.544"/>
<text text-anchor="middle" x="111.064" y="-241.3" font-family="Helvetica,sans-Serif" font-size="14.00">1,3</text>
</g>
<!-- AllOtherGreen&#45;&gt;1,3 -->
<g id="edge9" class="edge"><title>AllOtherGreen&#45;&gt;1,3</title>
<path fill="none" stroke="#0000ff" stroke-width="2" d="M225.924,-176.201C197.653,-192.889 155.522,-217.758 130.917,-232.281"/>
<text text-anchor="middle" x="195.564" y="-197.8" font-family="Times,serif" font-size="14.00">2</text>
</g>
<!-- 1,2 -->
<g id="node5" class="node"><title>1,2</title>
<polygon fill="#ffb0b0" stroke="#ff0000" points="210.064,-237.544 210.064,-252.456 194.248,-263 171.88,-263 156.064,-252.456 156.064,-237.544 171.88,-227 194.248,-227 210.064,-237.544"/>
<text text-anchor="middle" x="183.064" y="-241.3" font-family="Helvetica,sans-Serif" font-size="14.00">1,2</text>
</g>
<!-- AllOtherGreen&#45;&gt;1,2 -->
<g id="edge10" class="edge"><title>AllOtherGreen&#45;&gt;1,2</title>
<path fill="none" stroke="#0000ff" stroke-width="2" d="M240.494,-176.201C227.591,-191.433 208.914,-213.482 196.399,-228.258"/>
<text text-anchor="middle" x="227.564" y="-197.8" font-family="Times,serif" font-size="14.00">2</text>
</g>
<!-- 2,4,5 -->
<g id="node6" class="node"><title>2,4,5</title>
<path fill="#a0ffa0" stroke="#006400" d="M270.064,-263C270.064,-263 240.064,-263 240.064,-263 234.064,-263 228.064,-257 228.064,-251 228.064,-251 228.064,-239 228.064,-239 228.064,-233 234.064,-227 240.064,-227 240.064,-227 270.064,-227 270.064,-227 276.064,-227 282.064,-233 282.064,-239 282.064,-239 282.064,-251 282.064,-251 282.064,-257 276.064,-263 270.064,-263"/>
<text text-anchor="middle" x="255.064" y="-241.3" font-family="Helvetica,sans-Serif" font-size="14.00">2,4,5</text>
</g>
<!-- AllOtherGreen&#45;&gt;2,4,5 -->
<g id="edge4" class="edge"><title>AllOtherGreen&#45;&gt;2,4,5</title>
<path fill="none" stroke="#006400" stroke-width="0.4" stroke-dasharray="1,5" d="M255.064,-186.266C255.064,-199.581 255.064,-215.194 255.064,-226.825"/>
<polygon fill="#006400" stroke="#006400" stroke-width="0.4" points="258.564,-186.201 255.064,-176.201 251.564,-186.201 258.564,-186.201"/>
<text text-anchor="middle" x="258.564" y="-197.8" font-family="Times,serif" font-size="14.00">3</text>
</g>
<!-- 1,4,5 -->
<g id="node7" class="node"><title>1,4,5</title>
<path fill="#a0ffa0" stroke="#006400" d="M342.064,-263C342.064,-263 312.064,-263 312.064,-263 306.064,-263 300.064,-257 300.064,-251 300.064,-251 300.064,-239 300.064,-239 300.064,-233 306.064,-227 312.064,-227 312.064,-227 342.064,-227 342.064,-227 348.064,-227 354.064,-233 354.064,-239 354.064,-239 354.064,-251 354.064,-251 354.064,-257 348.064,-263 342.064,-263"/>
<text text-anchor="middle" x="327.064" y="-241.3" font-family="Helvetica,sans-Serif" font-size="14.00">1,4,5</text>
</g>
<!-- AllOtherGreen&#45;&gt;1,4,5 -->
<g id="edge5" class="edge"><title>AllOtherGreen&#45;&gt;1,4,5</title>
<path fill="none" stroke="#006400" stroke-width="0.4" stroke-dasharray="1,5" d="M276.172,-183.919C287.855,-197.711 302.079,-214.503 312.516,-226.825"/>
<polygon fill="#006400" stroke="#006400" stroke-width="0.4" points="278.769,-181.569 269.634,-176.201 273.427,-186.094 278.769,-181.569"/>
<text text-anchor="middle" x="298.564" y="-197.8" font-family="Times,serif" font-size="14.00">3</text>
</g>
<!-- 2,3,4 -->
<g id="node8" class="node"><title>2,3,4</title>
<path fill="#a0ffa0" stroke="#006400" d="M414.064,-263C414.064,-263 384.064,-263 384.064,-263 378.064,-263 372.064,-257 372.064,-251 372.064,-251 372.064,-239 372.064,-239 372.064,-233 378.064,-227 384.064,-227 384.064,-227 414.064,-227 414.064,-227 420.064,-227 426.064,-233 426.064,-239 426.064,-239 426.064,-251 426.064,-251 426.064,-257 420.064,-263 414.064,-263"/>
<text text-anchor="middle" x="399.064" y="-241.3" font-family="Helvetica,sans-Serif" font-size="14.00">2,3,4</text>
</g>
<!-- AllOtherGreen&#45;&gt;2,3,4 -->
<g id="edge6" class="edge"><title>AllOtherGreen&#45;&gt;2,3,4</title>
<path fill="none" stroke="#006400" stroke-width="0.4" stroke-dasharray="1,5" d="M292.997,-181.391C317.805,-196.034 349.626,-214.818 371.915,-227.975"/>
<polygon fill="#006400" stroke="#006400" stroke-width="0.4" points="294.596,-178.27 284.205,-176.201 291.037,-184.298 294.596,-178.27"/>
<text text-anchor="middle" x="338.564" y="-197.8" font-family="Times,serif" font-size="14.00">3</text>
</g>
<!-- 3,4,5 -->
<g id="node9" class="node"><title>3,4,5</title>
<path fill="#a0ffa0" stroke="#006400" d="M486.064,-263C486.064,-263 456.064,-263 456.064,-263 450.064,-263 444.064,-257 444.064,-251 444.064,-251 444.064,-239 444.064,-239 444.064,-233 450.064,-227 456.064,-227 456.064,-227 486.064,-227 486.064,-227 492.064,-227 498.064,-233 498.064,-239 498.064,-239 498.064,-251 498.064,-251 498.064,-257 492.064,-263 486.064,-263"/>
<text text-anchor="middle" x="471.064" y="-241.3" font-family="Helvetica,sans-Serif" font-size="14.00">3,4,5</text>
</g>
<!-- AllOtherGreen&#45;&gt;3,4,5 -->
<g id="edge7" class="edge"><title>AllOtherGreen&#45;&gt;3,4,5</title>
<path fill="none" stroke="#006400" stroke-width="0.4" stroke-dasharray="1,5" d="M312.949,-179.532C348.469,-192.46 394.726,-209.889 435.064,-227 437.991,-228.242 441.029,-229.586 444.042,-230.956"/>
<polygon fill="#006400" stroke="#006400" stroke-width="0.4" points="313.823,-176.126 303.229,-176.009 311.438,-182.707 313.823,-176.126"/>
<text text-anchor="middle" x="389.564" y="-197.8" font-family="Times,serif" font-size="14.00">3</text>
</g>
<!-- 2,3,5&#45;&gt;AllOtherRed -->
<g id="edge1" class="edge"><title>2,3,5&#45;&gt;AllOtherRed</title>
<path fill="none" stroke="#cc0000" stroke-width="0.4" stroke-dasharray="1,5" d="M58.7917,-256.524C64.1598,-258.689 69.7896,-260.937 75.0641,-263 120.043,-280.596 171.629,-300.006 208.014,-313.569"/>
<polygon fill="#cc0000" stroke="#cc0000" stroke-width="0.4" points="206.795,-316.85 217.388,-317.059 209.238,-310.29 206.795,-316.85"/>
<text text-anchor="middle" x="162.564" y="-284.8" font-family="Times,serif" font-size="14.00">2</text>
</g>
<!-- 1,3&#45;&gt;AllOtherRed -->
<g id="edge2" class="edge"><title>1,3&#45;&gt;AllOtherRed</title>
<path fill="none" stroke="#cc0000" stroke-width="0.4" stroke-dasharray="1,5" d="M130.785,-257.641C153.235,-270.892 190.398,-292.829 218.248,-309.268"/>
<polygon fill="#cc0000" stroke="#cc0000" stroke-width="0.4" points="216.542,-312.326 226.933,-314.395 220.1,-306.297 216.542,-312.326"/>
<text text-anchor="middle" x="195.564" y="-284.8" font-family="Times,serif" font-size="14.00">3</text>
</g>
<!-- 1,2&#45;&gt;AllOtherRed -->
<g id="edge3" class="edge"><title>1,2&#45;&gt;AllOtherRed</title>
<path fill="none" stroke="#cc0000" stroke-width="0.4" stroke-dasharray="1,5" d="M196.607,-261.988C207.095,-274.37 221.817,-291.75 233.863,-305.971"/>
<polygon fill="#cc0000" stroke="#cc0000" stroke-width="0.4" points="231.46,-308.549 240.594,-313.917 236.801,-304.024 231.46,-308.549"/>
<text text-anchor="middle" x="227.564" y="-284.8" font-family="Times,serif" font-size="14.00">3</text>
</g>
<!-- 2,4,5&#45;&gt;AllOtherRed -->
<g id="edge11" class="edge"><title>2,4,5&#45;&gt;AllOtherRed</title>
<path fill="none" stroke="#0000ff" stroke-width="2" d="M255.064,-263.201C255.064,-277.948 255.064,-299.085 255.064,-313.825"/>
<text text-anchor="middle" x="258.564" y="-284.8" font-family="Times,serif" font-size="14.00">2</text>
</g>
<!-- 1,4,5&#45;&gt;AllOtherRed -->
<g id="edge12" class="edge"><title>1,4,5&#45;&gt;AllOtherRed</title>
<path fill="none" stroke="#0000ff" stroke-width="2" d="M312.494,-263.201C300.002,-277.948 282.098,-299.085 269.613,-313.825"/>
<text text-anchor="middle" x="298.564" y="-284.8" font-family="Times,serif" font-size="14.00">2</text>
</g>
<!-- 2,3,4&#45;&gt;AllOtherRed -->
<g id="edge13" class="edge"><title>2,3,4&#45;&gt;AllOtherRed</title>
<path fill="none" stroke="#0000ff" stroke-width="2" d="M371.979,-261.988C346.723,-276.896 309.19,-299.051 283.506,-314.211"/>
<text text-anchor="middle" x="338.564" y="-284.8" font-family="Times,serif" font-size="14.00">2</text>
</g>
<!-- 3,4,5&#45;&gt;AllOtherRed -->
<g id="edge14" class="edge"><title>3,4,5&#45;&gt;AllOtherRed</title>
<path fill="none" stroke="#0000ff" stroke-width="2" d="M444.042,-259.044C441.029,-260.414 437.991,-261.758 435.064,-263 387.089,-283.351 330.743,-304.15 294.043,-317.294"/>
<text text-anchor="middle" x="389.564" y="-284.8" font-family="Times,serif" font-size="14.00">2</text>
</g>
<!-- Legend -->
<g id="node10" class="node"><title>Legend</title>
<path fill="white" stroke="none" d="M411.064,-103C411.064,-103 99.0641,-103 99.0641,-103 93.0641,-103 87.0641,-97 87.0641,-91 87.0641,-91 87.0641,-12 87.0641,-12 87.0641,-6 93.0641,-0 99.0641,-0 99.0641,-0 411.064,-0 411.064,-0 417.064,-0 423.064,-6 423.064,-12 423.064,-12 423.064,-91 423.064,-91 423.064,-97 417.064,-103 411.064,-103"/>
<polygon fill="none" stroke="black" points="95.0641,-79.5 95.0641,-98.5 108.064,-98.5 108.064,-79.5 95.0641,-79.5"/>
<text text-anchor="start" x="98.0641" y="-85.9" font-family="Helvetica,sans-Serif" font-size="12.00">1</text>
<polygon fill="none" stroke="black" points="108.064,-79.5 108.064,-98.5 415.064,-98.5 415.064,-79.5 108.064,-79.5"/>
<text text-anchor="start" x="129.064" y="-85.9" font-family="Helvetica,sans-Serif" font-size="12.00">2015.Gall_Neoa_Clade equals 2014.Neognathae</text>
<polygon fill="none" stroke="black" points="95.0641,-60.5 95.0641,-79.5 108.064,-79.5 108.064,-60.5 95.0641,-60.5"/>
<text text-anchor="start" x="98.0641" y="-66.9" font-family="Helvetica,sans-Serif" font-size="12.00">2</text>
<polygon fill="none" stroke="black" points="108.064,-60.5 108.064,-79.5 415.064,-79.5 415.064,-60.5 108.064,-60.5"/>
<text text-anchor="start" x="130.564" y="-66.9" font-family="Helvetica,sans-Serif" font-size="12.00">2015.Galloanserae equals 2014.Struthioniformes</text>
<polygon fill="none" stroke="black" points="95.0641,-41.5 95.0641,-60.5 108.064,-60.5 108.064,-41.5 95.0641,-41.5"/>
<text text-anchor="start" x="98.0641" y="-47.9" font-family="Helvetica,sans-Serif" font-size="12.00">3</text>
<polygon fill="none" stroke="black" points="108.064,-41.5 108.064,-60.5 415.064,-60.5 415.064,-41.5 108.064,-41.5"/>
<text text-anchor="start" x="150.064" y="-47.9" font-family="Helvetica,sans-Serif" font-size="12.00">2015.Neoaves equals 2014.Tinamiformes</text>
<polygon fill="none" stroke="black" points="95.0641,-22.5 95.0641,-41.5 108.064,-41.5 108.064,-22.5 95.0641,-22.5"/>
<text text-anchor="start" x="98.0641" y="-28.9" font-family="Helvetica,sans-Serif" font-size="12.00">4</text>
<polygon fill="none" stroke="black" points="108.064,-22.5 108.064,-41.5 415.064,-41.5 415.064,-22.5 108.064,-22.5"/>
<text text-anchor="start" x="162.064" y="-28.9" font-family="Helvetica,sans-Serif" font-size="12.00">2015.Aves is_included_in 2014.Aves</text>
<polygon fill="none" stroke="black" points="95.0641,-3.5 95.0641,-22.5 108.064,-22.5 108.064,-3.5 95.0641,-3.5"/>
<text text-anchor="start" x="98.0641" y="-9.9" font-family="Helvetica,sans-Serif" font-size="12.00">5</text>
<polygon fill="none" stroke="black" points="108.064,-3.5 108.064,-22.5 415.064,-22.5 415.064,-3.5 108.064,-3.5"/>
<text text-anchor="start" x="111.064" y="-9.9" font-family="Helvetica,sans-Serif" font-size="12.00">2015.Palaeognathae is_included_in 2014.Paleognathae</text>
</g>
<!-- Legend&#45;&gt;AllOtherGreen -->
</g>
</svg>
