<?xml version="1.0" encoding="UTF-8" standalone="no"?>
<!DOCTYPE svg PUBLIC "-//W3C//DTD SVG 1.1//EN"
 "http://www.w3.org/Graphics/SVG/1.1/DTD/svg11.dtd">
<!-- Generated by graphviz version 2.38.0 (20140413.2041)
 -->
<!-- Title: %3 Pages: 1 -->
<svg width="1487pt" height="267pt"
 viewBox="0.00 0.00 1487.20 266.50" xmlns="http://www.w3.org/2000/svg" xmlns:xlink="http://www.w3.org/1999/xlink">
<g id="graph0" class="graph" transform="scale(1 1) rotate(0) translate(4 262.5)">
<title>%3</title>
<polygon fill="white" stroke="none" points="-4,4 -4,-262.5 1483.2,-262.5 1483.2,4 -4,4"/>
<!-- 2015.Gall_Neoa_Clade -->
<g id="node1" class="node"><title>2015.Gall_Neoa_Clade</title>
<polygon fill="#ccffcc" stroke="black" points="376,-178.5 218,-178.5 218,-142.5 376,-142.5 376,-178.5"/>
<text text-anchor="middle" x="297" y="-156.8" font-family="Helvetica,sans-Serif" font-size="14.00">2015.Gall_Neoa_Clade</text>
</g>
<!-- 2015.Galloanserae -->
<g id="node3" class="node"><title>2015.Galloanserae</title>
<polygon fill="#ccffcc" stroke="black" points="684,-202.5 553,-202.5 553,-166.5 684,-166.5 684,-202.5"/>
<text text-anchor="middle" x="618.5" y="-180.8" font-family="Helvetica,sans-Serif" font-size="14.00">2015.Galloanserae</text>
</g>
<!-- 2015.Gall_Neoa_Clade&#45;&gt;2015.Galloanserae -->
<g id="edge2" class="edge"><title>2015.Gall_Neoa_Clade&#45;&gt;2015.Galloanserae</title>
<path fill="none" stroke="#000000" d="M386.188,-167.124C438.947,-171.088 504.834,-176.037 552.779,-179.638"/>
<polygon fill="#000000" stroke="#000000" points="386.393,-163.63 376.158,-166.371 385.868,-170.61 386.393,-163.63"/>
</g>
<!-- 2015.Neoaves -->
<g id="node5" class="node"><title>2015.Neoaves</title>
<polygon fill="#ccffcc" stroke="black" points="670.5,-157.5 566.5,-157.5 566.5,-121.5 670.5,-121.5 670.5,-157.5"/>
<text text-anchor="middle" x="618.5" y="-135.8" font-family="Helvetica,sans-Serif" font-size="14.00">2015.Neoaves</text>
</g>
<!-- 2015.Gall_Neoa_Clade&#45;&gt;2015.Neoaves -->
<g id="edge3" class="edge"><title>2015.Gall_Neoa_Clade&#45;&gt;2015.Neoaves</title>
<path fill="none" stroke="#000000" d="M386.391,-154.69C444.191,-150.891 517.677,-146.061 566.078,-142.88"/>
<polygon fill="#000000" stroke="#000000" points="385.907,-151.214 376.158,-155.363 386.367,-158.199 385.907,-151.214"/>
</g>
<!-- 2014.Neognathae -->
<g id="node8" class="node"><title>2014.Neognathae</title>
<polygon fill="#ffffcc" stroke="black" points="876.7,-233.044 876.7,-247.956 825.463,-258.5 753.003,-258.5 701.766,-247.956 701.766,-233.044 753.003,-222.5 825.463,-222.5 876.7,-233.044"/>
<text text-anchor="middle" x="789.233" y="-236.8" font-family="Helvetica,sans-Serif" font-size="14.00">2014.Neognathae</text>
</g>
<!-- 2015.Gall_Neoa_Clade&#45;&gt;2014.Neognathae -->
<g id="edge13" class="edge"><title>2015.Gall_Neoa_Clade&#45;&gt;2014.Neognathae</title>
<path fill="none" stroke="#aa00ff" stroke-dasharray="5,2" d="M360.762,-178.546C371.789,-181.416 383.192,-184.194 394,-186.5 499.734,-209.061 623.525,-224.219 703.781,-232.593"/>
<text text-anchor="middle" x="464.5" y="-214.3" font-family="Times,serif" font-size="14.00">==</text>
</g>
<!-- 2015.Palaeognathae -->
<g id="node2" class="node"><title>2015.Palaeognathae</title>
<polygon fill="#ccffcc" stroke="black" points="535,-105.5 394,-105.5 394,-69.5 535,-69.5 535,-105.5"/>
<text text-anchor="middle" x="464.5" y="-83.8" font-family="Helvetica,sans-Serif" font-size="14.00">2015.Palaeognathae</text>
</g>
<!-- 2014.Paleognathae -->
<g id="node7" class="node"><title>2014.Paleognathae</title>
<polygon fill="#ffffcc" stroke="black" points="1329.41,-131.044 1329.41,-145.956 1274.33,-156.5 1196.42,-156.5 1141.34,-145.956 1141.34,-131.044 1196.42,-120.5 1274.33,-120.5 1329.41,-131.044"/>
<text text-anchor="middle" x="1235.37" y="-134.8" font-family="Helvetica,sans-Serif" font-size="14.00">2014.Paleognathae</text>
</g>
<!-- 2015.Palaeognathae&#45;&gt;2014.Paleognathae -->
<g id="edge10" class="edge"><title>2015.Palaeognathae&#45;&gt;2014.Paleognathae</title>
<path fill="none" stroke="#aa00ff" stroke-dasharray="5,2" d="M535.256,-86.3297C652.99,-85.2013 898.427,-86.4972 1104.11,-111.5 1127.95,-114.399 1153.92,-119.398 1176.36,-124.313"/>
<text text-anchor="middle" x="789.233" y="-96.3" font-family="Times,serif" font-size="14.00">&lt;</text>
</g>
<!-- 2014.Struthioniformes -->
<g id="node10" class="node"><title>2014.Struthioniformes</title>
<polygon fill="#ffffcc" stroke="black" points="1103.93,-179.044 1103.93,-193.956 1042.63,-204.5 955.943,-204.5 894.645,-193.956 894.645,-179.044 955.943,-168.5 1042.63,-168.5 1103.93,-179.044"/>
<text text-anchor="middle" x="999.287" y="-182.8" font-family="Helvetica,sans-Serif" font-size="14.00">2014.Struthioniformes</text>
</g>
<!-- 2015.Galloanserae&#45;&gt;2014.Struthioniformes -->
<g id="edge12" class="edge"><title>2015.Galloanserae&#45;&gt;2014.Struthioniformes</title>
<path fill="none" stroke="#aa00ff" stroke-dasharray="5,2" d="M684.185,-184.842C741.87,-185.146 827.34,-185.597 894.565,-185.952"/>
<text text-anchor="middle" x="789.233" y="-189.3" font-family="Times,serif" font-size="14.00">==</text>
</g>
<!-- 2015.Aves -->
<g id="node4" class="node"><title>2015.Aves</title>
<polygon fill="#ccffcc" stroke="black" points="181,-105.5 101,-105.5 101,-69.5 181,-69.5 181,-105.5"/>
<text text-anchor="middle" x="141" y="-83.8" font-family="Helvetica,sans-Serif" font-size="14.00">2015.Aves</text>
</g>
<!-- 2015.Aves&#45;&gt;2015.Gall_Neoa_Clade -->
<g id="edge4" class="edge"><title>2015.Aves&#45;&gt;2015.Gall_Neoa_Clade</title>
<path fill="none" stroke="#000000" d="M189.239,-109.892C211.248,-120.325 237.09,-132.575 257.837,-142.41"/>
<polygon fill="#000000" stroke="#000000" points="190.603,-106.666 180.067,-105.545 187.604,-112.991 190.603,-106.666"/>
</g>
<!-- 2015.Aves&#45;&gt;2015.Palaeognathae -->
<g id="edge1" class="edge"><title>2015.Aves&#45;&gt;2015.Palaeognathae</title>
<path fill="none" stroke="#000000" d="M191.139,-87.5C245.288,-87.5 332.801,-87.5 393.971,-87.5"/>
<polygon fill="#000000" stroke="#000000" points="191.101,-84.0001 181.101,-87.5 191.101,-91.0001 191.101,-84.0001"/>
</g>
<!-- 2014.Aves -->
<g id="node6" class="node"><title>2014.Aves</title>
<polygon fill="#ffffcc" stroke="black" points="1478.98,-131.044 1478.98,-145.956 1446.14,-156.5 1399.7,-156.5 1366.86,-145.956 1366.86,-131.044 1399.7,-120.5 1446.14,-120.5 1478.98,-131.044"/>
<text text-anchor="middle" x="1422.92" y="-134.8" font-family="Helvetica,sans-Serif" font-size="14.00">2014.Aves</text>
</g>
<!-- 2015.Aves&#45;&gt;2014.Aves -->
<g id="edge11" class="edge"><title>2015.Aves&#45;&gt;2014.Aves</title>
<path fill="none" stroke="#aa00ff" stroke-dasharray="5,2" d="M175.801,-69.3757C206.317,-54.7168 252.909,-36.5 296,-36.5 296,-36.5 296,-36.5 1236.37,-36.5 1305.3,-36.5 1372.8,-91.2171 1403.98,-120.499"/>
<text text-anchor="middle" x="789.233" y="-40.3" font-family="Times,serif" font-size="14.00">&lt;</text>
</g>
<!-- 2014.Tinamiformes -->
<g id="node9" class="node"><title>2014.Tinamiformes</title>
<polygon fill="#ffffcc" stroke="black" points="1093.32,-131.044 1093.32,-145.956 1038.24,-156.5 960.335,-156.5 905.25,-145.956 905.25,-131.044 960.335,-120.5 1038.24,-120.5 1093.32,-131.044"/>
<text text-anchor="middle" x="999.287" y="-134.8" font-family="Helvetica,sans-Serif" font-size="14.00">2014.Tinamiformes</text>
</g>
<!-- 2015.Neoaves&#45;&gt;2014.Tinamiformes -->
<g id="edge9" class="edge"><title>2015.Neoaves&#45;&gt;2014.Tinamiformes</title>
<path fill="none" stroke="#aa00ff" stroke-dasharray="5,2" d="M670.585,-139.365C730.561,-139.207 831.224,-138.941 905.189,-138.746"/>
<text text-anchor="middle" x="789.233" y="-142.3" font-family="Times,serif" font-size="14.00">==</text>
</g>
<!-- 2014.Paleognathae&#45;&gt;2014.Aves -->
<g id="edge7" class="edge"><title>2014.Paleognathae&#45;&gt;2014.Aves</title>
<path fill="none" stroke="#000000" d="M1329.42,-138.5C1338.58,-138.5 1347.74,-138.5 1356.54,-138.5"/>
<polygon fill="#000000" stroke="#000000" points="1356.69,-142 1366.69,-138.5 1356.69,-135 1356.69,-142"/>
</g>
<!-- 2014.Neognathae&#45;&gt;2014.Aves -->
<g id="edge5" class="edge"><title>2014.Neognathae&#45;&gt;2014.Aves</title>
<path fill="none" stroke="#000000" d="M876.637,-233.535C983.937,-223.735 1172.08,-202.765 1329.64,-165.5 1343.63,-162.192 1358.65,-158.055 1372.42,-154.021"/>
<polygon fill="#000000" stroke="#000000" points="1373.61,-157.319 1382.19,-151.115 1371.61,-150.609 1373.61,-157.319"/>
</g>
<!-- 2014.Tinamiformes&#45;&gt;2014.Paleognathae -->
<g id="edge8" class="edge"><title>2014.Tinamiformes&#45;&gt;2014.Paleognathae</title>
<path fill="none" stroke="#000000" d="M1093.48,-138.5C1105.73,-138.5 1118.35,-138.5 1130.76,-138.5"/>
<polygon fill="#000000" stroke="#000000" points="1131.12,-142 1141.12,-138.5 1131.12,-135 1131.12,-142"/>
</g>
<!-- 2014.Struthioniformes&#45;&gt;2014.Paleognathae -->
<g id="edge6" class="edge"><title>2014.Struthioniformes&#45;&gt;2014.Paleognathae</title>
<path fill="none" stroke="#000000" d="M1067.37,-172.745C1096.5,-166.772 1130.71,-159.756 1160.56,-153.635"/>
<polygon fill="#000000" stroke="#000000" points="1161.41,-157.034 1170.51,-151.596 1160.01,-150.177 1161.41,-157.034"/>
</g>
<!-- Legend -->
<g id="node11" class="node"><title>Legend</title>
<polygon fill="white" stroke="black" points="83,-175 0,-175 0,-0 83,-0 83,-175"/>
<polygon fill="none" stroke="black" points="0.5,-149.5 0.5,-174.5 83.5,-174.5 83.5,-149.5 0.5,-149.5"/>
<text text-anchor="start" x="19" y="-158.3" font-family="Arial Black" font-size="14.00"> Nodes</text>
<polygon fill="#ccffcc" stroke="none" points="0.5,-124.5 0.5,-149.5 65.5,-149.5 65.5,-124.5 0.5,-124.5"/>
<polygon fill="none" stroke="black" points="0.5,-124.5 0.5,-149.5 65.5,-149.5 65.5,-124.5 0.5,-124.5"/>
<text text-anchor="start" x="17.5" y="-133.3" font-family="Helvetica,sans-Serif" font-size="14.00">2015</text>
<polygon fill="none" stroke="black" points="65.5,-124.5 65.5,-149.5 83.5,-149.5 83.5,-124.5 65.5,-124.5"/>
<text text-anchor="start" x="70.5" y="-133.3" font-family="Helvetica,sans-Serif" font-size="14.00">5</text>
<polygon fill="#ffffcc" stroke="none" points="0.5,-99.5 0.5,-124.5 65.5,-124.5 65.5,-99.5 0.5,-99.5"/>
<polygon fill="none" stroke="black" points="0.5,-99.5 0.5,-124.5 65.5,-124.5 65.5,-99.5 0.5,-99.5"/>
<text text-anchor="start" x="17.5" y="-108.3" font-family="Helvetica,sans-Serif" font-size="14.00">2014</text>
<polygon fill="none" stroke="black" points="65.5,-99.5 65.5,-124.5 83.5,-124.5 83.5,-99.5 65.5,-99.5"/>
<text text-anchor="start" x="70.5" y="-108.3" font-family="Helvetica,sans-Serif" font-size="14.00">5</text>
<polygon fill="none" stroke="black" points="0.5,-74.5 0.5,-99.5 83.5,-99.5 83.5,-74.5 0.5,-74.5"/>
<text text-anchor="start" x="17.5" y="-83.3" font-family="Arial Black" font-size="14.00"> Edges </text>
<polygon fill="none" stroke="black" points="0.5,-49.5 0.5,-74.5 65.5,-74.5 65.5,-49.5 0.5,-49.5"/>
<text text-anchor="start" x="5.5" y="-58.3" font-family="Helvetica,sans-Serif" font-size="14.00" fill="#000000">isa_2015</text>
<polygon fill="none" stroke="black" points="65.5,-49.5 65.5,-74.5 83.5,-74.5 83.5,-49.5 65.5,-49.5"/>
<text text-anchor="start" x="70.5" y="-58.3" font-family="Helvetica,sans-Serif" font-size="14.00">4</text>
<polygon fill="none" stroke="black" points="0.5,-24.5 0.5,-49.5 65.5,-49.5 65.5,-24.5 0.5,-24.5"/>
<text text-anchor="start" x="5.5" y="-33.3" font-family="Helvetica,sans-Serif" font-size="14.00" fill="#000000">isa_2014</text>
<polygon fill="none" stroke="black" points="65.5,-24.5 65.5,-49.5 83.5,-49.5 83.5,-24.5 65.5,-24.5"/>
<text text-anchor="start" x="70.5" y="-33.3" font-family="Helvetica,sans-Serif" font-size="14.00">4</text>
<polygon fill="none" stroke="black" points="0.5,0.5 0.5,-24.5 65.5,-24.5 65.5,0.5 0.5,0.5"/>
<text text-anchor="start" x="22" y="-8.3" font-family="Helvetica,sans-Serif" font-size="14.00" fill="#aa00ff">Art.</text>
<polygon fill="none" stroke="black" points="65.5,0.5 65.5,-24.5 83.5,-24.5 83.5,0.5 65.5,0.5"/>
<text text-anchor="start" x="70.5" y="-8.3" font-family="Helvetica,sans-Serif" font-size="14.00">5</text>
</g>
</g>
</svg>
