<?xml version="1.0" encoding="UTF-8" standalone="no"?>
<!DOCTYPE svg PUBLIC "-//W3C//DTD SVG 1.1//EN"
 "http://www.w3.org/Graphics/SVG/1.1/DTD/svg11.dtd">
<!-- Generated by graphviz version 2.38.0 (20140413.2041)
 -->
<!-- Title: %3 Pages: 1 -->
<svg width="1487pt" height="266pt"
 viewBox="0.00 0.00 1487.20 265.50" xmlns="http://www.w3.org/2000/svg" xmlns:xlink="http://www.w3.org/1999/xlink">
<g id="graph0" class="graph" transform="scale(1 1) rotate(0) translate(4 261.5)">
<title>%3</title>
<polygon fill="white" stroke="none" points="-4,4 -4,-261.5 1483.2,-261.5 1483.2,4 -4,4"/>
<!-- 2015.Gall_Neoa_Clade -->
<g id="node1" class="node"><title>2015.Gall_Neoa_Clade</title>
<polygon fill="#ccffcc" stroke="black" points="376,-191.5 218,-191.5 218,-155.5 376,-155.5 376,-191.5"/>
<text text-anchor="middle" x="297" y="-169.8" font-family="Helvetica,sans-Serif" font-size="14.00">2015.Gall_Neoa_Clade</text>
</g>
<!-- 2015.Galloanserae -->
<g id="node3" class="node"><title>2015.Galloanserae</title>
<polygon fill="#ccffcc" stroke="black" points="684,-168.5 553,-168.5 553,-132.5 684,-132.5 684,-168.5"/>
<text text-anchor="middle" x="618.5" y="-146.8" font-family="Helvetica,sans-Serif" font-size="14.00">2015.Galloanserae</text>
</g>
<!-- 2015.Gall_Neoa_Clade&#45;&gt;2015.Galloanserae -->
<g id="edge3" class="edge"><title>2015.Gall_Neoa_Clade&#45;&gt;2015.Galloanserae</title>
<path fill="none" stroke="#000000" d="M386.188,-167.152C438.947,-163.354 504.834,-158.611 552.779,-155.159"/>
<polygon fill="#000000" stroke="#000000" points="385.881,-163.664 376.158,-167.874 386.384,-170.646 385.881,-163.664"/>
</g>
<!-- 2015.Neoaves -->
<g id="node5" class="node"><title>2015.Neoaves</title>
<polygon fill="#ccffcc" stroke="black" points="670.5,-257.5 566.5,-257.5 566.5,-221.5 670.5,-221.5 670.5,-257.5"/>
<text text-anchor="middle" x="618.5" y="-235.8" font-family="Helvetica,sans-Serif" font-size="14.00">2015.Neoaves</text>
</g>
<!-- 2015.Gall_Neoa_Clade&#45;&gt;2015.Neoaves -->
<g id="edge2" class="edge"><title>2015.Gall_Neoa_Clade&#45;&gt;2015.Neoaves</title>
<path fill="none" stroke="#000000" d="M341.362,-195.825C357.499,-203.227 376.216,-210.775 394,-215.5 451.706,-230.832 520.268,-236.41 566.098,-238.417"/>
<polygon fill="#000000" stroke="#000000" points="342.724,-192.597 332.185,-191.505 339.742,-198.931 342.724,-192.597"/>
</g>
<!-- 2014.Neognathae -->
<g id="node8" class="node"><title>2014.Neognathae</title>
<polygon fill="#ffffcc" stroke="black" points="876.7,-194.044 876.7,-208.956 825.463,-219.5 753.003,-219.5 701.766,-208.956 701.766,-194.044 753.003,-183.5 825.463,-183.5 876.7,-194.044"/>
<text text-anchor="middle" x="789.233" y="-197.8" font-family="Helvetica,sans-Serif" font-size="14.00">2014.Neognathae</text>
</g>
<!-- 2015.Gall_Neoa_Clade&#45;&gt;2014.Neognathae -->
<g id="edge12" class="edge"><title>2015.Gall_Neoa_Clade&#45;&gt;2014.Neognathae</title>
<path fill="none" stroke="#aa00ff" stroke-dasharray="5,2" d="M376.221,-177.968C465.023,-183.04 609.48,-191.29 701.619,-196.553"/>
<text text-anchor="middle" x="464.5" y="-190.3" font-family="Times,serif" font-size="14.00">==</text>
</g>
<!-- 2015.Palaeognathae -->
<g id="node2" class="node"><title>2015.Palaeognathae</title>
<polygon fill="#ccffcc" stroke="black" points="535,-105.5 394,-105.5 394,-69.5 535,-69.5 535,-105.5"/>
<text text-anchor="middle" x="464.5" y="-83.8" font-family="Helvetica,sans-Serif" font-size="14.00">2015.Palaeognathae</text>
</g>
<!-- 2014.Paleognathae -->
<g id="node7" class="node"><title>2014.Paleognathae</title>
<polygon fill="#ffffcc" stroke="black" points="1329.41,-118.044 1329.41,-132.956 1274.33,-143.5 1196.42,-143.5 1141.34,-132.956 1141.34,-118.044 1196.42,-107.5 1274.33,-107.5 1329.41,-118.044"/>
<text text-anchor="middle" x="1235.37" y="-121.8" font-family="Helvetica,sans-Serif" font-size="14.00">2014.Paleognathae</text>
</g>
<!-- 2015.Palaeognathae&#45;&gt;2014.Paleognathae -->
<g id="edge9" class="edge"><title>2015.Palaeognathae&#45;&gt;2014.Paleognathae</title>
<path fill="none" stroke="#aa00ff" stroke-dasharray="5,2" d="M535.181,-85.3874C652.806,-82.6349 898.086,-80.4011 1104.11,-101.5 1126.53,-103.796 1150.87,-107.851 1172.38,-111.982"/>
<text text-anchor="middle" x="789.233" y="-91.3" font-family="Times,serif" font-size="14.00">&lt;</text>
</g>
<!-- 2014.Struthioniformes -->
<g id="node10" class="node"><title>2014.Struthioniformes</title>
<polygon fill="#ffffcc" stroke="black" points="1103.93,-157.044 1103.93,-171.956 1042.63,-182.5 955.943,-182.5 894.645,-171.956 894.645,-157.044 955.943,-146.5 1042.63,-146.5 1103.93,-157.044"/>
<text text-anchor="middle" x="999.287" y="-160.8" font-family="Helvetica,sans-Serif" font-size="14.00">2014.Struthioniformes</text>
</g>
<!-- 2015.Galloanserae&#45;&gt;2014.Struthioniformes -->
<g id="edge11" class="edge"><title>2015.Galloanserae&#45;&gt;2014.Struthioniformes</title>
<path fill="none" stroke="#aa00ff" stroke-dasharray="5,2" d="M684.188,-152.658C736.153,-154.418 811.005,-157.01 876.466,-159.5 882.389,-159.725 888.473,-159.961 894.613,-160.202"/>
<text text-anchor="middle" x="789.233" y="-163.3" font-family="Times,serif" font-size="14.00">==</text>
</g>
<!-- 2015.Aves -->
<g id="node4" class="node"><title>2015.Aves</title>
<polygon fill="#ccffcc" stroke="black" points="181,-105.5 101,-105.5 101,-69.5 181,-69.5 181,-105.5"/>
<text text-anchor="middle" x="141" y="-83.8" font-family="Helvetica,sans-Serif" font-size="14.00">2015.Aves</text>
</g>
<!-- 2015.Aves&#45;&gt;2015.Gall_Neoa_Clade -->
<g id="edge4" class="edge"><title>2015.Aves&#45;&gt;2015.Gall_Neoa_Clade</title>
<path fill="none" stroke="#000000" d="M183.262,-110.542C208.516,-124.645 240.361,-142.429 263.759,-155.495"/>
<polygon fill="#000000" stroke="#000000" points="184.721,-107.348 174.283,-105.528 181.308,-113.46 184.721,-107.348"/>
</g>
<!-- 2015.Aves&#45;&gt;2015.Palaeognathae -->
<g id="edge1" class="edge"><title>2015.Aves&#45;&gt;2015.Palaeognathae</title>
<path fill="none" stroke="#000000" d="M191.139,-87.5C245.288,-87.5 332.801,-87.5 393.971,-87.5"/>
<polygon fill="#000000" stroke="#000000" points="191.101,-84.0001 181.101,-87.5 191.101,-91.0001 191.101,-84.0001"/>
</g>
<!-- 2014.Aves -->
<g id="node6" class="node"><title>2014.Aves</title>
<polygon fill="#ffffcc" stroke="black" points="1478.98,-118.044 1478.98,-132.956 1446.14,-143.5 1399.7,-143.5 1366.86,-132.956 1366.86,-118.044 1399.7,-107.5 1446.14,-107.5 1478.98,-118.044"/>
<text text-anchor="middle" x="1422.92" y="-121.8" font-family="Helvetica,sans-Serif" font-size="14.00">2014.Aves</text>
</g>
<!-- 2015.Aves&#45;&gt;2014.Aves -->
<g id="edge10" class="edge"><title>2015.Aves&#45;&gt;2014.Aves</title>
<path fill="none" stroke="#aa00ff" stroke-dasharray="5,2" d="M175.801,-69.3757C206.317,-54.7168 252.909,-36.5 296,-36.5 296,-36.5 296,-36.5 1236.37,-36.5 1301.4,-36.5 1367.75,-81.4835 1400.67,-107.49"/>
<text text-anchor="middle" x="789.233" y="-40.3" font-family="Times,serif" font-size="14.00">&lt;</text>
</g>
<!-- 2014.Paleognathae&#45;&gt;2014.Aves -->
<g id="edge6" class="edge"><title>2014.Paleognathae&#45;&gt;2014.Aves</title>
<path fill="none" stroke="#000000" d="M1329.42,-125.5C1338.58,-125.5 1347.74,-125.5 1356.54,-125.5"/>
<polygon fill="#000000" stroke="#000000" points="1356.69,-129 1366.69,-125.5 1356.69,-122 1356.69,-129"/>
</g>
<!-- 2014.Neognathae&#45;&gt;2014.Aves -->
<g id="edge8" class="edge"><title>2014.Neognathae&#45;&gt;2014.Aves</title>
<path fill="none" stroke="#000000" d="M876.677,-200.185C939.821,-198.607 1027.44,-195.136 1104.11,-187.5 1205.05,-177.447 1230.63,-174.568 1329.64,-152.5 1343.8,-149.344 1358.98,-145.219 1372.86,-141.147"/>
<polygon fill="#000000" stroke="#000000" points="1374.12,-144.423 1382.7,-138.206 1372.12,-137.716 1374.12,-144.423"/>
</g>
<!-- 2014.Tinamiformes -->
<g id="node9" class="node"><title>2014.Tinamiformes</title>
<polygon fill="#ffffcc" stroke="black" points="1093.32,-116.044 1093.32,-130.956 1038.24,-141.5 960.335,-141.5 905.25,-130.956 905.25,-116.044 960.335,-105.5 1038.24,-105.5 1093.32,-116.044"/>
<text text-anchor="middle" x="999.287" y="-119.8" font-family="Helvetica,sans-Serif" font-size="14.00">2014.Tinamiformes</text>
</g>
<!-- 2014.Tinamiformes&#45;&gt;2014.Paleognathae -->
<g id="edge7" class="edge"><title>2014.Tinamiformes&#45;&gt;2014.Paleognathae</title>
<path fill="none" stroke="#000000" d="M1093.48,-124.296C1105.73,-124.401 1118.35,-124.509 1130.76,-124.615"/>
<polygon fill="#000000" stroke="#000000" points="1131.09,-128.118 1141.12,-124.703 1131.15,-121.118 1131.09,-128.118"/>
</g>
<!-- 2014.Struthioniformes&#45;&gt;2014.Paleognathae -->
<g id="edge5" class="edge"><title>2014.Struthioniformes&#45;&gt;2014.Paleognathae</title>
<path fill="none" stroke="#000000" d="M1075,-152.053C1100.04,-147.881 1128.07,-143.211 1153.56,-138.964"/>
<polygon fill="#000000" stroke="#000000" points="1154.27,-142.394 1163.56,-137.298 1153.12,-135.489 1154.27,-142.394"/>
</g>
<!-- Legend -->
<g id="node11" class="node"><title>Legend</title>
<polygon fill="white" stroke="black" points="83,-175 0,-175 0,-0 83,-0 83,-175"/>
<polygon fill="none" stroke="black" points="0.5,-149.5 0.5,-174.5 83.5,-174.5 83.5,-149.5 0.5,-149.5"/>
<text text-anchor="start" x="19" y="-158.3" font-family="Arial Black" font-size="14.00"> Nodes</text>
<polygon fill="#ccffcc" stroke="none" points="0.5,-124.5 0.5,-149.5 65.5,-149.5 65.5,-124.5 0.5,-124.5"/>
<polygon fill="none" stroke="black" points="0.5,-124.5 0.5,-149.5 65.5,-149.5 65.5,-124.5 0.5,-124.5"/>
<text text-anchor="start" x="17.5" y="-133.3" font-family="Helvetica,sans-Serif" font-size="14.00">2015</text>
<polygon fill="none" stroke="black" points="65.5,-124.5 65.5,-149.5 83.5,-149.5 83.5,-124.5 65.5,-124.5"/>
<text text-anchor="start" x="70.5" y="-133.3" font-family="Helvetica,sans-Serif" font-size="14.00">5</text>
<polygon fill="#ffffcc" stroke="none" points="0.5,-99.5 0.5,-124.5 65.5,-124.5 65.5,-99.5 0.5,-99.5"/>
<polygon fill="none" stroke="black" points="0.5,-99.5 0.5,-124.5 65.5,-124.5 65.5,-99.5 0.5,-99.5"/>
<text text-anchor="start" x="17.5" y="-108.3" font-family="Helvetica,sans-Serif" font-size="14.00">2014</text>
<polygon fill="none" stroke="black" points="65.5,-99.5 65.5,-124.5 83.5,-124.5 83.5,-99.5 65.5,-99.5"/>
<text text-anchor="start" x="70.5" y="-108.3" font-family="Helvetica,sans-Serif" font-size="14.00">5</text>
<polygon fill="none" stroke="black" points="0.5,-74.5 0.5,-99.5 83.5,-99.5 83.5,-74.5 0.5,-74.5"/>
<text text-anchor="start" x="17.5" y="-83.3" font-family="Arial Black" font-size="14.00"> Edges </text>
<polygon fill="none" stroke="black" points="0.5,-49.5 0.5,-74.5 65.5,-74.5 65.5,-49.5 0.5,-49.5"/>
<text text-anchor="start" x="5.5" y="-58.3" font-family="Helvetica,sans-Serif" font-size="14.00" fill="#000000">isa_2015</text>
<polygon fill="none" stroke="black" points="65.5,-49.5 65.5,-74.5 83.5,-74.5 83.5,-49.5 65.5,-49.5"/>
<text text-anchor="start" x="70.5" y="-58.3" font-family="Helvetica,sans-Serif" font-size="14.00">4</text>
<polygon fill="none" stroke="black" points="0.5,-24.5 0.5,-49.5 65.5,-49.5 65.5,-24.5 0.5,-24.5"/>
<text text-anchor="start" x="5.5" y="-33.3" font-family="Helvetica,sans-Serif" font-size="14.00" fill="#000000">isa_2014</text>
<polygon fill="none" stroke="black" points="65.5,-24.5 65.5,-49.5 83.5,-49.5 83.5,-24.5 65.5,-24.5"/>
<text text-anchor="start" x="70.5" y="-33.3" font-family="Helvetica,sans-Serif" font-size="14.00">4</text>
<polygon fill="none" stroke="black" points="0.5,0.5 0.5,-24.5 65.5,-24.5 65.5,0.5 0.5,0.5"/>
<text text-anchor="start" x="22" y="-8.3" font-family="Helvetica,sans-Serif" font-size="14.00" fill="#aa00ff">Art.</text>
<polygon fill="none" stroke="black" points="65.5,0.5 65.5,-24.5 83.5,-24.5 83.5,0.5 65.5,0.5"/>
<text text-anchor="start" x="70.5" y="-8.3" font-family="Helvetica,sans-Serif" font-size="14.00">4</text>
</g>
</g>
</svg>
