<?xml version="1.0" encoding="UTF-8" standalone="no"?>
<!DOCTYPE svg PUBLIC "-//W3C//DTD SVG 1.1//EN"
 "http://www.w3.org/Graphics/SVG/1.1/DTD/svg11.dtd">
<!-- Generated by graphviz version 2.38.0 (20140413.2041)
 -->
<!-- Title: %3 Pages: 1 -->
<svg width="1003pt" height="237pt"
 viewBox="0.00 0.00 1002.54 237.00" xmlns="http://www.w3.org/2000/svg" xmlns:xlink="http://www.w3.org/1999/xlink">
<g id="graph0" class="graph" transform="scale(1 1) rotate(0) translate(4 233)">
<title>%3</title>
<polygon fill="white" stroke="none" points="-4,4 -4,-233 998.538,-233 998.538,4 -4,4"/>
<!-- 1997.Amauris_damocles\n1995.Amauris_damocles_subsp_damocles -->
<g id="node1" class="node"><title>1997.Amauris_damocles\n1995.Amauris_damocles_subsp_damocles</title>
<path fill="#eeeeee" stroke="black" d="M867.038,-229C867.038,-229 642.038,-229 642.038,-229 636.038,-229 630.038,-223 630.038,-217 630.038,-217 630.038,-203 630.038,-203 630.038,-197 636.038,-191 642.038,-191 642.038,-191 867.038,-191 867.038,-191 873.038,-191 879.038,-197 879.038,-203 879.038,-203 879.038,-217 879.038,-217 879.038,-223 873.038,-229 867.038,-229"/>
<text text-anchor="middle" x="754.538" y="-213.8" font-family="Times,serif" font-size="14.00">1997.Amauris_damocles</text>
<text text-anchor="middle" x="754.538" y="-198.8" font-family="Times,serif" font-size="14.00">1995.Amauris_damocles_subsp_damocles</text>
</g>
<!-- 1995.Amauris_damocles -->
<g id="node3" class="node"><title>1995.Amauris_damocles</title>
<polygon fill="#ffffcc" stroke="black" points="215.403,-151.544 215.403,-166.456 152.274,-177 62.995,-177 -0.134522,-166.456 -0.134522,-151.544 62.995,-141 152.274,-141 215.403,-151.544"/>
<text text-anchor="middle" x="107.634" y="-155.3" font-family="Times,serif" font-size="14.00">1995.Amauris_damocles</text>
</g>
<!-- 1997.Amauris_damocles\n1995.Amauris_damocles_subsp_damocles&#45;&gt;1995.Amauris_damocles -->
<g id="edge2" class="edge"><title>1997.Amauris_damocles\n1995.Amauris_damocles_subsp_damocles&#45;&gt;1995.Amauris_damocles</title>
<path fill="none" stroke="#000000" d="M629.811,-208.881C527.905,-206.811 379.798,-201.161 251.269,-186 229.445,-183.426 205.942,-179.473 184.434,-175.379"/>
<polygon fill="#000000" stroke="#000000" points="184.864,-171.898 174.38,-173.429 183.531,-178.769 184.864,-171.898"/>
</g>
<!-- 1997.Amauris_hyalites_subsp_makuyensis\n1995.Amauris_damocles_subsp_makuyensis -->
<g id="node2" class="node"><title>1997.Amauris_hyalites_subsp_makuyensis\n1995.Amauris_damocles_subsp_makuyensis</title>
<path fill="#eeeeee" stroke="black" d="M873.538,-119C873.538,-119 635.538,-119 635.538,-119 629.538,-119 623.538,-113 623.538,-107 623.538,-107 623.538,-93 623.538,-93 623.538,-87 629.538,-81 635.538,-81 635.538,-81 873.538,-81 873.538,-81 879.538,-81 885.538,-87 885.538,-93 885.538,-93 885.538,-107 885.538,-107 885.538,-113 879.538,-119 873.538,-119"/>
<text text-anchor="middle" x="754.538" y="-103.8" font-family="Times,serif" font-size="14.00">1997.Amauris_hyalites_subsp_makuyensis</text>
<text text-anchor="middle" x="754.538" y="-88.8" font-family="Times,serif" font-size="14.00">1995.Amauris_damocles_subsp_makuyensis</text>
</g>
<!-- 1997.Amauris_hyalites -->
<g id="node5" class="node"><title>1997.Amauris_hyalites</title>
<polygon fill="#ccffcc" stroke="black" points="490.903,-123 347.903,-123 347.903,-87 490.903,-87 490.903,-123"/>
<text text-anchor="middle" x="419.403" y="-101.3" font-family="Times,serif" font-size="14.00">1997.Amauris_hyalites</text>
</g>
<!-- 1997.Amauris_hyalites_subsp_makuyensis\n1995.Amauris_damocles_subsp_makuyensis&#45;&gt;1997.Amauris_hyalites -->
<g id="edge5" class="edge"><title>1997.Amauris_hyalites_subsp_makuyensis\n1995.Amauris_damocles_subsp_makuyensis&#45;&gt;1997.Amauris_hyalites</title>
<path fill="none" stroke="#000000" d="M623.308,-101.955C582.107,-102.573 537.788,-103.238 501.112,-103.789"/>
<polygon fill="#000000" stroke="#000000" points="500.925,-100.291 490.979,-103.941 501.03,-107.29 500.925,-100.291"/>
</g>
<!-- 1995.Amauris_damocles_subsp_hyalites -->
<g id="node4" class="node"><title>1995.Amauris_damocles_subsp_hyalites</title>
<polygon fill="#ffffcc" stroke="black" points="587.673,-151.544 587.673,-166.456 489.103,-177 349.704,-177 251.134,-166.456 251.134,-151.544 349.704,-141 489.103,-141 587.673,-151.544"/>
<text text-anchor="middle" x="419.403" y="-155.3" font-family="Times,serif" font-size="14.00">1995.Amauris_damocles_subsp_hyalites</text>
</g>
<!-- 1995.Amauris_damocles_subsp_hyalites&#45;&gt;1995.Amauris_damocles -->
<g id="edge4" class="edge"><title>1995.Amauris_damocles_subsp_hyalites&#45;&gt;1995.Amauris_damocles</title>
<path fill="none" stroke="#000000" d="M250.826,-159C242.313,-159 233.851,-159 225.545,-159"/>
<polygon fill="#000000" stroke="#000000" points="225.497,-155.5 215.497,-159 225.497,-162.5 225.497,-155.5"/>
</g>
<!-- 1995.Amauris_damocles_subsp_hyalites&#45;&gt;1997.Amauris_hyalites -->
<g id="edge1" class="edge"><title>1995.Amauris_damocles_subsp_hyalites&#45;&gt;1997.Amauris_hyalites</title>
<path fill="none" stroke="#0000ff" stroke-dasharray="1,5" d="M419.403,-140.79C419.403,-134.907 419.403,-129.024 419.403,-123.141"/>
</g>
<!-- 1997.Amauris_hyalites&#45;&gt;1995.Amauris_damocles -->
<g id="edge6" class="edge"><title>1997.Amauris_hyalites&#45;&gt;1995.Amauris_damocles</title>
<path fill="none" stroke="#ff0000" d="M347.581,-116.009C317.809,-120.749 282.825,-126.465 251.269,-132 230.896,-135.573 208.926,-139.63 188.477,-143.494"/>
<polygon fill="#ff0000" stroke="#ff0000" points="187.747,-140.07 178.574,-145.372 189.052,-146.947 187.747,-140.07"/>
</g>
<!-- 1997.Amauris_hyalites_subsp_hyalites -->
<g id="node6" class="node"><title>1997.Amauris_hyalites_subsp_hyalites</title>
<polygon fill="#ccffcc" stroke="black" points="869.538,-173 639.538,-173 639.538,-137 869.538,-137 869.538,-173"/>
<text text-anchor="middle" x="754.538" y="-151.3" font-family="Times,serif" font-size="14.00">1997.Amauris_hyalites_subsp_hyalites</text>
</g>
<!-- 1997.Amauris_hyalites_subsp_hyalites&#45;&gt;1995.Amauris_damocles_subsp_hyalites -->
<g id="edge7" class="edge"><title>1997.Amauris_hyalites_subsp_hyalites&#45;&gt;1995.Amauris_damocles_subsp_hyalites</title>
<path fill="none" stroke="#ff0000" d="M639.358,-156.371C625.945,-156.532 612.027,-156.699 598.004,-156.868"/>
<polygon fill="#ff0000" stroke="#ff0000" points="597.738,-153.37 587.78,-156.99 597.822,-160.37 597.738,-153.37"/>
</g>
<!-- 1997.Amauris_hyalites_subsp_hyalites&#45;&gt;1997.Amauris_hyalites -->
<g id="edge3" class="edge"><title>1997.Amauris_hyalites_subsp_hyalites&#45;&gt;1997.Amauris_hyalites</title>
<path fill="none" stroke="#000000" d="M639.358,-137.863C593.943,-131.046 542.743,-123.362 501.279,-117.139"/>
<polygon fill="#000000" stroke="#000000" points="501.639,-113.653 491.23,-115.63 500.6,-120.576 501.639,-113.653"/>
</g>
<!-- Legend -->
<g id="node7" class="node"><title>Legend</title>
<polygon fill="white" stroke="black" points="994.538,-200 921.538,-200 921.538,-0 994.538,-0 994.538,-200"/>
<polygon fill="none" stroke="black" points="922.038,-175 922.038,-200 995.038,-200 995.038,-175 922.038,-175"/>
<text text-anchor="start" x="935.538" y="-183.8" font-family="Arial Black" font-size="14.00"> Nodes</text>
<polygon fill="#eeeeee" stroke="none" points="922.038,-150 922.038,-175 978.038,-175 978.038,-150 922.038,-150"/>
<polygon fill="none" stroke="black" points="922.038,-150 922.038,-175 978.038,-175 978.038,-150 922.038,-150"/>
<text text-anchor="start" x="934.538" y="-158.8" font-family="Times,serif" font-size="14.00">comb</text>
<polygon fill="none" stroke="black" points="978.038,-150 978.038,-175 995.038,-175 995.038,-150 978.038,-150"/>
<text text-anchor="start" x="983.038" y="-158.8" font-family="Times,serif" font-size="14.00">2</text>
<polygon fill="#ffffcc" stroke="none" points="922.038,-125 922.038,-150 978.038,-150 978.038,-125 922.038,-125"/>
<polygon fill="none" stroke="black" points="922.038,-125 922.038,-150 978.038,-150 978.038,-125 922.038,-125"/>
<text text-anchor="start" x="936.038" y="-133.8" font-family="Times,serif" font-size="14.00">1995</text>
<polygon fill="none" stroke="black" points="978.038,-125 978.038,-150 995.038,-150 995.038,-125 978.038,-125"/>
<text text-anchor="start" x="983.038" y="-133.8" font-family="Times,serif" font-size="14.00">2</text>
<polygon fill="#ccffcc" stroke="none" points="922.038,-100 922.038,-125 978.038,-125 978.038,-100 922.038,-100"/>
<polygon fill="none" stroke="black" points="922.038,-100 922.038,-125 978.038,-125 978.038,-100 922.038,-100"/>
<text text-anchor="start" x="936.038" y="-108.8" font-family="Times,serif" font-size="14.00">1997</text>
<polygon fill="none" stroke="black" points="978.038,-100 978.038,-125 995.038,-125 995.038,-100 978.038,-100"/>
<text text-anchor="start" x="983.038" y="-108.8" font-family="Times,serif" font-size="14.00">2</text>
<polygon fill="none" stroke="black" points="922.038,-75 922.038,-100 995.038,-100 995.038,-75 922.038,-75"/>
<text text-anchor="start" x="934.038" y="-83.8" font-family="Arial Black" font-size="14.00"> Edges </text>
<polygon fill="none" stroke="black" points="922.038,-50 922.038,-75 978.038,-75 978.038,-50 922.038,-50"/>
<text text-anchor="start" x="927.038" y="-58.8" font-family="Times,serif" font-size="14.00" fill="#0000ff">overlaps</text>
<polygon fill="none" stroke="black" points="978.038,-50 978.038,-75 995.038,-75 995.038,-50 978.038,-50"/>
<text text-anchor="start" x="983.038" y="-58.8" font-family="Times,serif" font-size="14.00">1</text>
<polygon fill="none" stroke="black" points="922.038,-25 922.038,-50 978.038,-50 978.038,-25 922.038,-25"/>
<text text-anchor="start" x="936.038" y="-33.8" font-family="Times,serif" font-size="14.00" fill="#000000">input</text>
<polygon fill="none" stroke="black" points="978.038,-25 978.038,-50 995.038,-50 995.038,-25 978.038,-25"/>
<text text-anchor="start" x="983.038" y="-33.8" font-family="Times,serif" font-size="14.00">4</text>
<polygon fill="none" stroke="black" points="922.038,-0 922.038,-25 978.038,-25 978.038,-0 922.038,-0"/>
<text text-anchor="start" x="928.538" y="-8.8" font-family="Times,serif" font-size="14.00" fill="#ff0000">inferred</text>
<polygon fill="none" stroke="black" points="978.038,-0 978.038,-25 995.038,-25 995.038,-0 978.038,-0"/>
<text text-anchor="start" x="983.038" y="-8.8" font-family="Times,serif" font-size="14.00">2</text>
</g>
</g>
</svg>
