<?xml version="1.0" encoding="UTF-8" standalone="no"?>
<!DOCTYPE svg PUBLIC "-//W3C//DTD SVG 1.1//EN"
 "http://www.w3.org/Graphics/SVG/1.1/DTD/svg11.dtd">
<!-- Generated by graphviz version 2.38.0 (20140413.2041)
 -->
<!-- Title: %3 Pages: 1 -->
<svg width="705pt" height="280pt"
 viewBox="0.00 0.00 704.54 279.50" xmlns="http://www.w3.org/2000/svg" xmlns:xlink="http://www.w3.org/1999/xlink">
<g id="graph0" class="graph" transform="scale(1 1) rotate(0) translate(4 275.5)">
<title>%3</title>
<polygon fill="white" stroke="none" points="-4,4 -4,-275.5 700.538,-275.5 700.538,4 -4,4"/>
<!-- 1997.Amauris_damocles\n1995.Amauris_damocles_subsp_damocles -->
<g id="node1" class="node"><title>1997.Amauris_damocles\n1995.Amauris_damocles_subsp_damocles</title>
<path fill="#eeeeee" stroke="black" d="M531.903,-271.5C531.903,-271.5 306.903,-271.5 306.903,-271.5 300.903,-271.5 294.903,-265.5 294.903,-259.5 294.903,-259.5 294.903,-245.5 294.903,-245.5 294.903,-239.5 300.903,-233.5 306.903,-233.5 306.903,-233.5 531.903,-233.5 531.903,-233.5 537.903,-233.5 543.903,-239.5 543.903,-245.5 543.903,-245.5 543.903,-259.5 543.903,-259.5 543.903,-265.5 537.903,-271.5 531.903,-271.5"/>
<text text-anchor="middle" x="419.403" y="-256.3" font-family="Times,serif" font-size="14.00">1997.Amauris_damocles</text>
<text text-anchor="middle" x="419.403" y="-241.3" font-family="Times,serif" font-size="14.00">1995.Amauris_damocles_subsp_damocles</text>
</g>
<!-- 1995.Amauris_damocles -->
<g id="node3" class="node"><title>1995.Amauris_damocles</title>
<polygon fill="#ffffcc" stroke="black" points="215.403,-190.044 215.403,-204.956 152.274,-215.5 62.995,-215.5 -0.134522,-204.956 -0.134522,-190.044 62.995,-179.5 152.274,-179.5 215.403,-190.044"/>
<text text-anchor="middle" x="107.634" y="-193.8" font-family="Times,serif" font-size="14.00">1995.Amauris_damocles</text>
</g>
<!-- 1997.Amauris_damocles\n1995.Amauris_damocles_subsp_damocles&#45;&gt;1995.Amauris_damocles -->
<g id="edge2" class="edge"><title>1997.Amauris_damocles\n1995.Amauris_damocles_subsp_damocles&#45;&gt;1995.Amauris_damocles</title>
<path fill="none" stroke="#000000" d="M302.815,-233.462C285.527,-230.52 267.923,-227.471 251.269,-224.5 231.013,-220.887 209.17,-216.832 188.813,-212.985"/>
<polygon fill="#000000" stroke="#000000" points="189.429,-209.539 178.952,-211.116 188.125,-216.417 189.429,-209.539"/>
</g>
<!-- 1997.Amauris_hyalites_subsp_makuyensis\n1995.Amauris_damocles_subsp_makuyensis -->
<g id="node2" class="node"><title>1997.Amauris_hyalites_subsp_makuyensis\n1995.Amauris_damocles_subsp_makuyensis</title>
<path fill="#eeeeee" stroke="black" d="M538.403,-161.5C538.403,-161.5 300.403,-161.5 300.403,-161.5 294.403,-161.5 288.403,-155.5 288.403,-149.5 288.403,-149.5 288.403,-135.5 288.403,-135.5 288.403,-129.5 294.403,-123.5 300.403,-123.5 300.403,-123.5 538.403,-123.5 538.403,-123.5 544.403,-123.5 550.403,-129.5 550.403,-135.5 550.403,-135.5 550.403,-149.5 550.403,-149.5 550.403,-155.5 544.403,-161.5 538.403,-161.5"/>
<text text-anchor="middle" x="419.403" y="-146.3" font-family="Times,serif" font-size="14.00">1997.Amauris_hyalites_subsp_makuyensis</text>
<text text-anchor="middle" x="419.403" y="-131.3" font-family="Times,serif" font-size="14.00">1995.Amauris_damocles_subsp_makuyensis</text>
</g>
<!-- 1997.Amauris_hyalites_subsp_makuyensis\n1995.Amauris_damocles_subsp_makuyensis&#45;&gt;1995.Amauris_damocles -->
<g id="edge5" class="edge"><title>1997.Amauris_hyalites_subsp_makuyensis\n1995.Amauris_damocles_subsp_makuyensis&#45;&gt;1995.Amauris_damocles</title>
<path fill="none" stroke="#000000" d="M302.815,-161.538C285.527,-164.48 267.923,-167.529 251.269,-170.5 231.013,-174.113 209.17,-178.168 188.813,-182.015"/>
<polygon fill="#000000" stroke="#000000" points="188.125,-178.583 178.952,-183.884 189.429,-185.461 188.125,-178.583"/>
</g>
<!-- 1997.Amauris_hyalites -->
<g id="node5" class="node"><title>1997.Amauris_hyalites</title>
<polygon fill="#ccffcc" stroke="black" points="179.134,-133.5 36.1344,-133.5 36.1344,-97.5 179.134,-97.5 179.134,-133.5"/>
<text text-anchor="middle" x="107.634" y="-111.8" font-family="Times,serif" font-size="14.00">1997.Amauris_hyalites</text>
</g>
<!-- 1997.Amauris_hyalites_subsp_makuyensis\n1995.Amauris_damocles_subsp_makuyensis&#45;&gt;1997.Amauris_hyalites -->
<g id="edge6" class="edge"><title>1997.Amauris_hyalites_subsp_makuyensis\n1995.Amauris_damocles_subsp_makuyensis&#45;&gt;1997.Amauris_hyalites</title>
<path fill="none" stroke="#000000" d="M288.38,-131.167C254.761,-128.237 219.539,-125.167 189.271,-122.528"/>
<polygon fill="#000000" stroke="#000000" points="189.472,-119.033 179.206,-121.651 188.864,-126.006 189.472,-119.033"/>
</g>
<!-- 1995.Amauris_damocles&#45;&gt;1997.Amauris_hyalites -->
<g id="edge1" class="edge"><title>1995.Amauris_damocles&#45;&gt;1997.Amauris_hyalites</title>
<path fill="none" stroke="#0000ff" stroke-dasharray="1,5" d="M107.634,-179.075C107.634,-163.969 107.634,-148.863 107.634,-133.758"/>
</g>
<!-- 1995.Amauris_damocles_subsp_hyalites -->
<g id="node4" class="node"><title>1995.Amauris_damocles_subsp_hyalites</title>
<polygon fill="#ffffcc" stroke="black" points="587.673,-190.044 587.673,-204.956 489.103,-215.5 349.704,-215.5 251.134,-204.956 251.134,-190.044 349.704,-179.5 489.103,-179.5 587.673,-190.044"/>
<text text-anchor="middle" x="419.403" y="-193.8" font-family="Times,serif" font-size="14.00">1995.Amauris_damocles_subsp_hyalites</text>
</g>
<!-- 1995.Amauris_damocles_subsp_hyalites&#45;&gt;1995.Amauris_damocles -->
<g id="edge4" class="edge"><title>1995.Amauris_damocles_subsp_hyalites&#45;&gt;1995.Amauris_damocles</title>
<path fill="none" stroke="#000000" d="M250.826,-197.5C242.313,-197.5 233.851,-197.5 225.545,-197.5"/>
<polygon fill="#000000" stroke="#000000" points="225.497,-194 215.497,-197.5 225.497,-201 225.497,-194"/>
</g>
<!-- 1997.Amauris_hyalites_subsp_hyalites -->
<g id="node6" class="node"><title>1997.Amauris_hyalites_subsp_hyalites</title>
<polygon fill="#ccffcc" stroke="black" points="534.403,-105.5 304.403,-105.5 304.403,-69.5 534.403,-69.5 534.403,-105.5"/>
<text text-anchor="middle" x="419.403" y="-83.8" font-family="Times,serif" font-size="14.00">1997.Amauris_hyalites_subsp_hyalites</text>
</g>
<!-- 1997.Amauris_hyalites_subsp_hyalites&#45;&gt;1997.Amauris_hyalites -->
<g id="edge3" class="edge"><title>1997.Amauris_hyalites_subsp_hyalites&#45;&gt;1997.Amauris_hyalites</title>
<path fill="none" stroke="#000000" d="M304.377,-97.8069C266.223,-101.256 224.507,-105.026 189.425,-108.197"/>
<polygon fill="#000000" stroke="#000000" points="188.884,-104.732 179.24,-109.118 189.514,-111.703 188.884,-104.732"/>
</g>
<!-- Legend -->
<g id="node7" class="node"><title>Legend</title>
<polygon fill="white" stroke="black" points="696.538,-175 623.538,-175 623.538,-0 696.538,-0 696.538,-175"/>
<polygon fill="none" stroke="black" points="624.038,-149.5 624.038,-174.5 697.038,-174.5 697.038,-149.5 624.038,-149.5"/>
<text text-anchor="start" x="637.538" y="-158.3" font-family="Arial Black" font-size="14.00"> Nodes</text>
<polygon fill="#eeeeee" stroke="none" points="624.038,-124.5 624.038,-149.5 680.038,-149.5 680.038,-124.5 624.038,-124.5"/>
<polygon fill="none" stroke="black" points="624.038,-124.5 624.038,-149.5 680.038,-149.5 680.038,-124.5 624.038,-124.5"/>
<text text-anchor="start" x="636.538" y="-133.3" font-family="Times,serif" font-size="14.00">comb</text>
<polygon fill="none" stroke="black" points="680.038,-124.5 680.038,-149.5 697.038,-149.5 697.038,-124.5 680.038,-124.5"/>
<text text-anchor="start" x="685.038" y="-133.3" font-family="Times,serif" font-size="14.00">2</text>
<polygon fill="#ffffcc" stroke="none" points="624.038,-99.5 624.038,-124.5 680.038,-124.5 680.038,-99.5 624.038,-99.5"/>
<polygon fill="none" stroke="black" points="624.038,-99.5 624.038,-124.5 680.038,-124.5 680.038,-99.5 624.038,-99.5"/>
<text text-anchor="start" x="638.038" y="-108.3" font-family="Times,serif" font-size="14.00">1995</text>
<polygon fill="none" stroke="black" points="680.038,-99.5 680.038,-124.5 697.038,-124.5 697.038,-99.5 680.038,-99.5"/>
<text text-anchor="start" x="685.038" y="-108.3" font-family="Times,serif" font-size="14.00">2</text>
<polygon fill="#ccffcc" stroke="none" points="624.038,-74.5 624.038,-99.5 680.038,-99.5 680.038,-74.5 624.038,-74.5"/>
<polygon fill="none" stroke="black" points="624.038,-74.5 624.038,-99.5 680.038,-99.5 680.038,-74.5 624.038,-74.5"/>
<text text-anchor="start" x="638.038" y="-83.3" font-family="Times,serif" font-size="14.00">1997</text>
<polygon fill="none" stroke="black" points="680.038,-74.5 680.038,-99.5 697.038,-99.5 697.038,-74.5 680.038,-74.5"/>
<text text-anchor="start" x="685.038" y="-83.3" font-family="Times,serif" font-size="14.00">2</text>
<polygon fill="none" stroke="black" points="624.038,-49.5 624.038,-74.5 697.038,-74.5 697.038,-49.5 624.038,-49.5"/>
<text text-anchor="start" x="636.038" y="-58.3" font-family="Arial Black" font-size="14.00"> Edges </text>
<polygon fill="none" stroke="black" points="624.038,-24.5 624.038,-49.5 680.038,-49.5 680.038,-24.5 624.038,-24.5"/>
<text text-anchor="start" x="629.038" y="-33.3" font-family="Times,serif" font-size="14.00" fill="#0000ff">overlaps</text>
<polygon fill="none" stroke="black" points="680.038,-24.5 680.038,-49.5 697.038,-49.5 697.038,-24.5 680.038,-24.5"/>
<text text-anchor="start" x="685.038" y="-33.3" font-family="Times,serif" font-size="14.00">1</text>
<polygon fill="none" stroke="black" points="624.038,0.5 624.038,-24.5 680.038,-24.5 680.038,0.5 624.038,0.5"/>
<text text-anchor="start" x="638.038" y="-8.3" font-family="Times,serif" font-size="14.00" fill="#000000">input</text>
<polygon fill="none" stroke="black" points="680.038,0.5 680.038,-24.5 697.038,-24.5 697.038,0.5 680.038,0.5"/>
<text text-anchor="start" x="685.038" y="-8.3" font-family="Times,serif" font-size="14.00">5</text>
</g>
</g>
</svg>
