<?xml version="1.0" encoding="UTF-8" standalone="no"?>
<!DOCTYPE svg PUBLIC "-//W3C//DTD SVG 1.1//EN"
 "http://www.w3.org/Graphics/SVG/1.1/DTD/svg11.dtd">
<!-- Generated by graphviz version 2.38.0 (20140413.2041)
 -->
<!-- Title: %3 Pages: 1 -->
<svg width="806pt" height="227pt"
 viewBox="0.00 0.00 806.27 226.50" xmlns="http://www.w3.org/2000/svg" xmlns:xlink="http://www.w3.org/1999/xlink">
<g id="graph0" class="graph" transform="scale(1 1) rotate(0) translate(4 222.5)">
<title>%3</title>
<polygon fill="white" stroke="none" points="-4,4 -4,-222.5 802.269,-222.5 802.269,4 -4,4"/>
<!-- 1997.Amauris_damocles\n1995.Amauris_damocles_subsp_damocles -->
<g id="node1" class="node"><title>1997.Amauris_damocles\n1995.Amauris_damocles_subsp_damocles</title>
<path fill="#eeeeee" stroke="black" d="M673.769,-218.5C673.769,-218.5 448.769,-218.5 448.769,-218.5 442.769,-218.5 436.769,-212.5 436.769,-206.5 436.769,-206.5 436.769,-192.5 436.769,-192.5 436.769,-186.5 442.769,-180.5 448.769,-180.5 448.769,-180.5 673.769,-180.5 673.769,-180.5 679.769,-180.5 685.769,-186.5 685.769,-192.5 685.769,-192.5 685.769,-206.5 685.769,-206.5 685.769,-212.5 679.769,-218.5 673.769,-218.5"/>
<text text-anchor="middle" x="561.269" y="-203.3" font-family="Times,serif" font-size="14.00">1997.Amauris_damocles</text>
<text text-anchor="middle" x="561.269" y="-188.3" font-family="Times,serif" font-size="14.00">1995.Amauris_damocles_subsp_damocles</text>
</g>
<!-- 1995.Amauris_damocles -->
<g id="node4" class="node"><title>1995.Amauris_damocles</title>
<polygon fill="#ffffcc" stroke="black" points="215.403,-164.044 215.403,-178.956 152.274,-189.5 62.995,-189.5 -0.134522,-178.956 -0.134522,-164.044 62.995,-153.5 152.274,-153.5 215.403,-164.044"/>
<text text-anchor="middle" x="107.634" y="-167.8" font-family="Times,serif" font-size="14.00">1995.Amauris_damocles</text>
</g>
<!-- 1997.Amauris_damocles\n1995.Amauris_damocles_subsp_damocles&#45;&gt;1995.Amauris_damocles -->
<g id="edge1" class="edge"><title>1997.Amauris_damocles\n1995.Amauris_damocles_subsp_damocles&#45;&gt;1995.Amauris_damocles</title>
<path fill="none" stroke="#000000" d="M436.559,-191.83C370.867,-187.758 290.572,-182.78 225.879,-178.769"/>
<polygon fill="#000000" stroke="#000000" points="225.832,-175.259 215.635,-178.134 225.399,-182.246 225.832,-175.259"/>
</g>
<!-- 1997.Amauris_hyalites_subsp_makuyensis\n1995.Amauris_damocles_subsp_makuyensis -->
<g id="node2" class="node"><title>1997.Amauris_hyalites_subsp_makuyensis\n1995.Amauris_damocles_subsp_makuyensis</title>
<path fill="#eeeeee" stroke="black" d="M680.269,-162.5C680.269,-162.5 442.269,-162.5 442.269,-162.5 436.269,-162.5 430.269,-156.5 430.269,-150.5 430.269,-150.5 430.269,-136.5 430.269,-136.5 430.269,-130.5 436.269,-124.5 442.269,-124.5 442.269,-124.5 680.269,-124.5 680.269,-124.5 686.269,-124.5 692.269,-130.5 692.269,-136.5 692.269,-136.5 692.269,-150.5 692.269,-150.5 692.269,-156.5 686.269,-162.5 680.269,-162.5"/>
<text text-anchor="middle" x="561.269" y="-147.3" font-family="Times,serif" font-size="14.00">1997.Amauris_hyalites_subsp_makuyensis</text>
<text text-anchor="middle" x="561.269" y="-132.3" font-family="Times,serif" font-size="14.00">1995.Amauris_damocles_subsp_makuyensis</text>
</g>
<!-- 1997.Amauris_hyalites -->
<g id="node5" class="node"><title>1997.Amauris_hyalites</title>
<polygon fill="#ccffcc" stroke="black" points="394.269,-161.5 251.269,-161.5 251.269,-125.5 394.269,-125.5 394.269,-161.5"/>
<text text-anchor="middle" x="322.769" y="-139.8" font-family="Times,serif" font-size="14.00">1997.Amauris_hyalites</text>
</g>
<!-- 1997.Amauris_hyalites_subsp_makuyensis\n1995.Amauris_damocles_subsp_makuyensis&#45;&gt;1997.Amauris_hyalites -->
<g id="edge3" class="edge"><title>1997.Amauris_hyalites_subsp_makuyensis\n1995.Amauris_damocles_subsp_makuyensis&#45;&gt;1997.Amauris_hyalites</title>
<path fill="none" stroke="#000000" d="M430.257,-143.5C421.482,-143.5 412.794,-143.5 404.389,-143.5"/>
<polygon fill="#000000" stroke="#000000" points="404.29,-140 394.29,-143.5 404.29,-147 404.29,-140"/>
</g>
<!-- 1997.Amauris_hyalites_subsp_hyalites\n1995.Amauris_damocles_subsp_hyalites -->
<g id="node3" class="node"><title>1997.Amauris_hyalites_subsp_hyalites\n1995.Amauris_damocles_subsp_hyalites</title>
<path fill="#eeeeee" stroke="black" d="M668.769,-106.5C668.769,-106.5 453.769,-106.5 453.769,-106.5 447.769,-106.5 441.769,-100.5 441.769,-94.5 441.769,-94.5 441.769,-80.5 441.769,-80.5 441.769,-74.5 447.769,-68.5 453.769,-68.5 453.769,-68.5 668.769,-68.5 668.769,-68.5 674.769,-68.5 680.769,-74.5 680.769,-80.5 680.769,-80.5 680.769,-94.5 680.769,-94.5 680.769,-100.5 674.769,-106.5 668.769,-106.5"/>
<text text-anchor="middle" x="561.269" y="-91.3" font-family="Times,serif" font-size="14.00">1997.Amauris_hyalites_subsp_hyalites</text>
<text text-anchor="middle" x="561.269" y="-76.3" font-family="Times,serif" font-size="14.00">1995.Amauris_damocles_subsp_hyalites</text>
</g>
<!-- 1997.Amauris_hyalites_subsp_hyalites\n1995.Amauris_damocles_subsp_hyalites&#45;&gt;1997.Amauris_hyalites -->
<g id="edge2" class="edge"><title>1997.Amauris_hyalites_subsp_hyalites\n1995.Amauris_damocles_subsp_hyalites&#45;&gt;1997.Amauris_hyalites</title>
<path fill="none" stroke="#000000" d="M469.234,-106.563C456.137,-109.464 442.843,-112.494 430.269,-115.5 420.577,-117.817 410.416,-120.351 400.379,-122.918"/>
<polygon fill="#000000" stroke="#000000" points="399.216,-119.603 390.406,-125.489 400.964,-126.381 399.216,-119.603"/>
</g>
<!-- 1997.Amauris_hyalites&#45;&gt;1995.Amauris_damocles -->
<g id="edge4" class="edge"><title>1997.Amauris_hyalites&#45;&gt;1995.Amauris_damocles</title>
<path fill="none" stroke="#ff0000" d="M251.094,-152.785C235.985,-154.77 219.786,-156.898 203.924,-158.981"/>
<polygon fill="#ff0000" stroke="#ff0000" points="203.023,-155.57 193.564,-160.343 203.935,-162.51 203.023,-155.57"/>
</g>
<!-- Legend -->
<g id="node6" class="node"><title>Legend</title>
<polygon fill="white" stroke="black" points="798.269,-175 728.269,-175 728.269,-0 798.269,-0 798.269,-175"/>
<polygon fill="none" stroke="black" points="728.269,-149.5 728.269,-174.5 798.269,-174.5 798.269,-149.5 728.269,-149.5"/>
<text text-anchor="start" x="740.269" y="-158.3" font-family="Arial Black" font-size="14.00"> Nodes</text>
<polygon fill="#eeeeee" stroke="none" points="728.269,-124.5 728.269,-149.5 781.269,-149.5 781.269,-124.5 728.269,-124.5"/>
<polygon fill="none" stroke="black" points="728.269,-124.5 728.269,-149.5 781.269,-149.5 781.269,-124.5 728.269,-124.5"/>
<text text-anchor="start" x="739.269" y="-133.3" font-family="Times,serif" font-size="14.00">comb</text>
<polygon fill="none" stroke="black" points="781.269,-124.5 781.269,-149.5 798.269,-149.5 798.269,-124.5 781.269,-124.5"/>
<text text-anchor="start" x="786.269" y="-133.3" font-family="Times,serif" font-size="14.00">3</text>
<polygon fill="#ffffcc" stroke="none" points="728.269,-99.5 728.269,-124.5 781.269,-124.5 781.269,-99.5 728.269,-99.5"/>
<polygon fill="none" stroke="black" points="728.269,-99.5 728.269,-124.5 781.269,-124.5 781.269,-99.5 728.269,-99.5"/>
<text text-anchor="start" x="740.769" y="-108.3" font-family="Times,serif" font-size="14.00">1995</text>
<polygon fill="none" stroke="black" points="781.269,-99.5 781.269,-124.5 798.269,-124.5 798.269,-99.5 781.269,-99.5"/>
<text text-anchor="start" x="786.269" y="-108.3" font-family="Times,serif" font-size="14.00">1</text>
<polygon fill="#ccffcc" stroke="none" points="728.269,-74.5 728.269,-99.5 781.269,-99.5 781.269,-74.5 728.269,-74.5"/>
<polygon fill="none" stroke="black" points="728.269,-74.5 728.269,-99.5 781.269,-99.5 781.269,-74.5 728.269,-74.5"/>
<text text-anchor="start" x="740.769" y="-83.3" font-family="Times,serif" font-size="14.00">1997</text>
<polygon fill="none" stroke="black" points="781.269,-74.5 781.269,-99.5 798.269,-99.5 798.269,-74.5 781.269,-74.5"/>
<text text-anchor="start" x="786.269" y="-83.3" font-family="Times,serif" font-size="14.00">1</text>
<polygon fill="none" stroke="black" points="728.269,-49.5 728.269,-74.5 798.269,-74.5 798.269,-49.5 728.269,-49.5"/>
<text text-anchor="start" x="738.769" y="-58.3" font-family="Arial Black" font-size="14.00"> Edges </text>
<polygon fill="none" stroke="black" points="728.269,-24.5 728.269,-49.5 781.269,-49.5 781.269,-24.5 728.269,-24.5"/>
<text text-anchor="start" x="740.769" y="-33.3" font-family="Times,serif" font-size="14.00" fill="#000000">input</text>
<polygon fill="none" stroke="black" points="781.269,-24.5 781.269,-49.5 798.269,-49.5 798.269,-24.5 781.269,-24.5"/>
<text text-anchor="start" x="786.269" y="-33.3" font-family="Times,serif" font-size="14.00">3</text>
<polygon fill="none" stroke="black" points="728.269,0.5 728.269,-24.5 781.269,-24.5 781.269,0.5 728.269,0.5"/>
<text text-anchor="start" x="733.269" y="-8.3" font-family="Times,serif" font-size="14.00" fill="#ff0000">inferred</text>
<polygon fill="none" stroke="black" points="781.269,0.5 781.269,-24.5 798.269,-24.5 798.269,0.5 781.269,0.5"/>
<text text-anchor="start" x="786.269" y="-8.3" font-family="Times,serif" font-size="14.00">1</text>
</g>
</g>
</svg>
