<?xml version="1.0" encoding="UTF-8" standalone="no"?>
<!DOCTYPE svg PUBLIC "-//W3C//DTD SVG 1.1//EN"
 "http://www.w3.org/Graphics/SVG/1.1/DTD/svg11.dtd">
<!-- Generated by graphviz version 2.38.0 (20140413.2041)
 -->
<!-- Title: %3 Pages: 1 -->
<svg width="898pt" height="238pt"
 viewBox="0.00 0.00 898.27 238.00" xmlns="http://www.w3.org/2000/svg" xmlns:xlink="http://www.w3.org/1999/xlink">
<g id="graph0" class="graph" transform="scale(1 1) rotate(0) translate(4 234)">
<title>%3</title>
<polygon fill="white" stroke="none" points="-4,4 -4,-234 894.269,-234 894.269,4 -4,4"/>
<!-- 1997.Amauris_damocles\n1995.Amauris_damocles_subsp_damocles -->
<g id="node1" class="node"><title>1997.Amauris_damocles\n1995.Amauris_damocles_subsp_damocles</title>
<path fill="#eeeeee" stroke="black" d="M725.635,-174C725.635,-174 500.635,-174 500.635,-174 494.635,-174 488.635,-168 488.635,-162 488.635,-162 488.635,-148 488.635,-148 488.635,-142 494.635,-136 500.635,-136 500.635,-136 725.635,-136 725.635,-136 731.635,-136 737.635,-142 737.635,-148 737.635,-148 737.635,-162 737.635,-162 737.635,-168 731.635,-174 725.635,-174"/>
<text text-anchor="middle" x="613.135" y="-158.8" font-family="Times,serif" font-size="14.00">1997.Amauris_damocles</text>
<text text-anchor="middle" x="613.135" y="-143.8" font-family="Times,serif" font-size="14.00">1995.Amauris_damocles_subsp_damocles</text>
</g>
<!-- 1995.Amauris_damocles -->
<g id="node3" class="node"><title>1995.Amauris_damocles</title>
<polygon fill="#ffffcc" stroke="black" points="401.769,-147.544 401.769,-162.456 338.639,-173 249.361,-173 186.231,-162.456 186.231,-147.544 249.361,-137 338.639,-137 401.769,-147.544"/>
<text text-anchor="middle" x="294" y="-151.3" font-family="Times,serif" font-size="14.00">1995.Amauris_damocles</text>
</g>
<!-- 1997.Amauris_damocles\n1995.Amauris_damocles_subsp_damocles&#45;&gt;1995.Amauris_damocles -->
<g id="edge5" class="edge"><title>1997.Amauris_damocles\n1995.Amauris_damocles_subsp_damocles&#45;&gt;1995.Amauris_damocles</title>
<path fill="none" stroke="#000000" d="M488.614,-155C463.393,-155 436.926,-155 411.943,-155"/>
<polygon fill="#000000" stroke="#000000" points="411.708,-151.5 401.708,-155 411.708,-158.5 411.708,-151.5"/>
</g>
<!-- 1997.Amauris_hyalites_subsp_makuyensis\n1995.Amauris_damocles_subsp_makuyensis -->
<g id="node2" class="node"><title>1997.Amauris_hyalites_subsp_makuyensis\n1995.Amauris_damocles_subsp_makuyensis</title>
<path fill="#eeeeee" stroke="black" d="M732.135,-230C732.135,-230 494.135,-230 494.135,-230 488.135,-230 482.135,-224 482.135,-218 482.135,-218 482.135,-204 482.135,-204 482.135,-198 488.135,-192 494.135,-192 494.135,-192 732.135,-192 732.135,-192 738.135,-192 744.135,-198 744.135,-204 744.135,-204 744.135,-218 744.135,-218 744.135,-224 738.135,-230 732.135,-230"/>
<text text-anchor="middle" x="613.135" y="-214.8" font-family="Times,serif" font-size="14.00">1997.Amauris_hyalites_subsp_makuyensis</text>
<text text-anchor="middle" x="613.135" y="-199.8" font-family="Times,serif" font-size="14.00">1995.Amauris_damocles_subsp_makuyensis</text>
</g>
<!-- 1997.Amauris_hyalites_subsp_makuyensis\n1995.Amauris_damocles_subsp_makuyensis&#45;&gt;1995.Amauris_damocles -->
<g id="edge6" class="edge"><title>1997.Amauris_hyalites_subsp_makuyensis\n1995.Amauris_damocles_subsp_makuyensis&#45;&gt;1995.Amauris_damocles</title>
<path fill="none" stroke="#000000" d="M496.553,-191.924C479.264,-188.987 461.658,-185.95 445,-183 422.605,-179.034 398.361,-174.579 376.027,-170.409"/>
<polygon fill="#000000" stroke="#000000" points="376.386,-166.916 365.913,-168.516 375.098,-173.797 376.386,-166.916"/>
</g>
<!-- 1997.Amauris_hyalites -->
<g id="node5" class="node"><title>1997.Amauris_hyalites</title>
<polygon fill="#ccffcc" stroke="black" points="143,-146 0,-146 0,-110 143,-110 143,-146"/>
<text text-anchor="middle" x="71.5" y="-124.3" font-family="Times,serif" font-size="14.00">1997.Amauris_hyalites</text>
</g>
<!-- 1997.Amauris_hyalites_subsp_makuyensis\n1995.Amauris_damocles_subsp_makuyensis&#45;&gt;1997.Amauris_hyalites -->
<g id="edge7" class="edge"><title>1997.Amauris_hyalites_subsp_makuyensis\n1995.Amauris_damocles_subsp_makuyensis&#45;&gt;1997.Amauris_hyalites</title>
<path fill="none" stroke="#000000" d="M481.954,-215.754C394.755,-215.683 278.2,-209.247 179,-182 154.557,-175.286 129.168,-162.667 109.312,-151.315"/>
<polygon fill="#000000" stroke="#000000" points="111,-148.247 100.602,-146.214 107.462,-154.288 111,-148.247"/>
</g>
<!-- 1995.Amauris_damocles&#45;&gt;1997.Amauris_hyalites -->
<g id="edge2" class="edge"><title>1995.Amauris_damocles&#45;&gt;1997.Amauris_hyalites</title>
<path fill="none" stroke="#0000ff" stroke-dasharray="1,5" d="M205.536,-144.29C184.855,-141.758 163.055,-139.088 143.223,-136.66"/>
</g>
<!-- 1997.Amauris_hyalites_subsp_hyalites -->
<g id="node6" class="node"><title>1997.Amauris_hyalites_subsp_hyalites</title>
<polygon fill="#ccffcc" stroke="black" points="409,-119 179,-119 179,-83 409,-83 409,-119"/>
<text text-anchor="middle" x="294" y="-97.3" font-family="Times,serif" font-size="14.00">1997.Amauris_hyalites_subsp_hyalites</text>
</g>
<!-- 1995.Amauris_damocles&#45;&gt;1997.Amauris_hyalites_subsp_hyalites -->
<g id="edge1" class="edge"><title>1995.Amauris_damocles&#45;&gt;1997.Amauris_hyalites_subsp_hyalites</title>
<path fill="none" stroke="#0000ff" stroke-dasharray="1,5" d="M294,-136.79C294,-130.907 294,-125.024 294,-119.141"/>
</g>
<!-- 1995.Amauris_damocles_subsp_hyalites -->
<g id="node4" class="node"><title>1995.Amauris_damocles_subsp_hyalites</title>
<polygon fill="#ffffcc" stroke="black" points="781.404,-92.5442 781.404,-107.456 682.834,-118 543.435,-118 444.865,-107.456 444.865,-92.5442 543.435,-82 682.834,-82 781.404,-92.5442"/>
<text text-anchor="middle" x="613.135" y="-96.3" font-family="Times,serif" font-size="14.00">1995.Amauris_damocles_subsp_hyalites</text>
</g>
<!-- 1995.Amauris_damocles_subsp_hyalites&#45;&gt;1995.Amauris_damocles -->
<g id="edge4" class="edge"><title>1995.Amauris_damocles_subsp_hyalites&#45;&gt;1995.Amauris_damocles</title>
<path fill="none" stroke="#000000" d="M516.173,-115.091C492.862,-118.87 468.021,-122.993 445,-127 422.379,-130.938 397.881,-135.419 375.37,-139.624"/>
<polygon fill="#000000" stroke="#000000" points="374.704,-136.188 365.52,-141.47 375.994,-143.068 374.704,-136.188"/>
</g>
<!-- 1995.Amauris_damocles_subsp_hyalites&#45;&gt;1997.Amauris_hyalites_subsp_hyalites -->
<g id="edge8" class="edge"><title>1995.Amauris_damocles_subsp_hyalites&#45;&gt;1997.Amauris_hyalites_subsp_hyalites</title>
<path fill="none" stroke="#ff0000" d="M444.745,-100.528C436.17,-100.555 427.63,-100.582 419.226,-100.608"/>
<polygon fill="#ff0000" stroke="#ff0000" points="419.036,-97.1088 409.047,-100.64 419.059,-104.109 419.036,-97.1088"/>
</g>
<!-- 1997.Amauris_hyalites_subsp_hyalites&#45;&gt;1997.Amauris_hyalites -->
<g id="edge3" class="edge"><title>1997.Amauris_hyalites_subsp_hyalites&#45;&gt;1997.Amauris_hyalites</title>
<path fill="none" stroke="#000000" d="M178.875,-114.975C170.209,-116.036 161.574,-117.093 153.187,-118.12"/>
<polygon fill="#000000" stroke="#000000" points="152.592,-114.667 143.092,-119.356 153.443,-121.615 152.592,-114.667"/>
</g>
<!-- Legend -->
<g id="node7" class="node"><title>Legend</title>
<polygon fill="white" stroke="black" points="890.269,-200 817.269,-200 817.269,-0 890.269,-0 890.269,-200"/>
<polygon fill="none" stroke="black" points="817.769,-175 817.769,-200 890.769,-200 890.769,-175 817.769,-175"/>
<text text-anchor="start" x="831.269" y="-183.8" font-family="Arial Black" font-size="14.00"> Nodes</text>
<polygon fill="#eeeeee" stroke="none" points="817.769,-150 817.769,-175 873.769,-175 873.769,-150 817.769,-150"/>
<polygon fill="none" stroke="black" points="817.769,-150 817.769,-175 873.769,-175 873.769,-150 817.769,-150"/>
<text text-anchor="start" x="830.269" y="-158.8" font-family="Times,serif" font-size="14.00">comb</text>
<polygon fill="none" stroke="black" points="873.769,-150 873.769,-175 890.769,-175 890.769,-150 873.769,-150"/>
<text text-anchor="start" x="878.769" y="-158.8" font-family="Times,serif" font-size="14.00">2</text>
<polygon fill="#ffffcc" stroke="none" points="817.769,-125 817.769,-150 873.769,-150 873.769,-125 817.769,-125"/>
<polygon fill="none" stroke="black" points="817.769,-125 817.769,-150 873.769,-150 873.769,-125 817.769,-125"/>
<text text-anchor="start" x="831.769" y="-133.8" font-family="Times,serif" font-size="14.00">1995</text>
<polygon fill="none" stroke="black" points="873.769,-125 873.769,-150 890.769,-150 890.769,-125 873.769,-125"/>
<text text-anchor="start" x="878.769" y="-133.8" font-family="Times,serif" font-size="14.00">2</text>
<polygon fill="#ccffcc" stroke="none" points="817.769,-100 817.769,-125 873.769,-125 873.769,-100 817.769,-100"/>
<polygon fill="none" stroke="black" points="817.769,-100 817.769,-125 873.769,-125 873.769,-100 817.769,-100"/>
<text text-anchor="start" x="831.769" y="-108.8" font-family="Times,serif" font-size="14.00">1997</text>
<polygon fill="none" stroke="black" points="873.769,-100 873.769,-125 890.769,-125 890.769,-100 873.769,-100"/>
<text text-anchor="start" x="878.769" y="-108.8" font-family="Times,serif" font-size="14.00">2</text>
<polygon fill="none" stroke="black" points="817.769,-75 817.769,-100 890.769,-100 890.769,-75 817.769,-75"/>
<text text-anchor="start" x="829.769" y="-83.8" font-family="Arial Black" font-size="14.00"> Edges </text>
<polygon fill="none" stroke="black" points="817.769,-50 817.769,-75 873.769,-75 873.769,-50 817.769,-50"/>
<text text-anchor="start" x="822.769" y="-58.8" font-family="Times,serif" font-size="14.00" fill="#0000ff">overlaps</text>
<polygon fill="none" stroke="black" points="873.769,-50 873.769,-75 890.769,-75 890.769,-50 873.769,-50"/>
<text text-anchor="start" x="878.769" y="-58.8" font-family="Times,serif" font-size="14.00">2</text>
<polygon fill="none" stroke="black" points="817.769,-25 817.769,-50 873.769,-50 873.769,-25 817.769,-25"/>
<text text-anchor="start" x="831.769" y="-33.8" font-family="Times,serif" font-size="14.00" fill="#000000">input</text>
<polygon fill="none" stroke="black" points="873.769,-25 873.769,-50 890.769,-50 890.769,-25 873.769,-25"/>
<text text-anchor="start" x="878.769" y="-33.8" font-family="Times,serif" font-size="14.00">5</text>
<polygon fill="none" stroke="black" points="817.769,-0 817.769,-25 873.769,-25 873.769,-0 817.769,-0"/>
<text text-anchor="start" x="824.269" y="-8.8" font-family="Times,serif" font-size="14.00" fill="#ff0000">inferred</text>
<polygon fill="none" stroke="black" points="873.769,-0 873.769,-25 890.769,-25 890.769,-0 873.769,-0"/>
<text text-anchor="start" x="878.769" y="-8.8" font-family="Times,serif" font-size="14.00">1</text>
</g>
</g>
</svg>
