<?xml version="1.0" encoding="UTF-8" standalone="no"?>
<!DOCTYPE svg PUBLIC "-//W3C//DTD SVG 1.1//EN"
 "http://www.w3.org/Graphics/SVG/1.1/DTD/svg11.dtd">
<!-- Generated by graphviz version 2.38.0 (20140413.2041)
 -->
<!-- Title: %3 Pages: 1 -->
<svg width="892pt" height="396pt"
 viewBox="0.00 0.00 892.00 396.00" xmlns="http://www.w3.org/2000/svg" xmlns:xlink="http://www.w3.org/1999/xlink">
<g id="graph0" class="graph" transform="scale(1 1) rotate(0) translate(4 392)">
<title>%3</title>
<polygon fill="white" stroke="none" points="-4,4 -4,-392 888,-392 888,4 -4,4"/>
<!-- None -->
<g id="node1" class="node"><title>None</title>
<polygon fill="#ffffff" stroke="black" points="302,-172 248,-172 248,-136 302,-136 302,-172"/>
<text text-anchor="middle" x="275" y="-150.3" font-family="Times,serif" font-size="14.00">None</text>
</g>
<!-- 0 -->
<g id="node2" class="node"><title>0</title>
<polygon fill="#ffffff" stroke="black" points="230,-244 176,-244 176,-208 230,-208 230,-244"/>
<text text-anchor="middle" x="203" y="-222.3" font-family="Times,serif" font-size="14.00">0</text>
</g>
<!-- None&#45;&gt;0 -->
<g id="edge1" class="edge"><title>None&#45;&gt;0</title>
<path fill="none" stroke="black" d="M257.202,-172.303C246.042,-183.154 231.714,-197.083 220.593,-207.896"/>
</g>
<!-- 1 -->
<g id="node3" class="node"><title>1</title>
<polygon fill="#ffffff" stroke="black" points="302,-244 248,-244 248,-208 302,-208 302,-244"/>
<text text-anchor="middle" x="275" y="-222.3" font-family="Times,serif" font-size="14.00">1</text>
</g>
<!-- None&#45;&gt;1 -->
<g id="edge2" class="edge"><title>None&#45;&gt;1</title>
<path fill="none" stroke="black" d="M275,-172.303C275,-183.154 275,-197.083 275,-207.896"/>
</g>
<!-- 2 -->
<g id="node5" class="node"><title>2</title>
<polygon fill="#ffffff" stroke="black" points="374,-244 320,-244 320,-208 374,-208 374,-244"/>
<text text-anchor="middle" x="347" y="-222.3" font-family="Times,serif" font-size="14.00">2</text>
</g>
<!-- None&#45;&gt;2 -->
<g id="edge3" class="edge"><title>None&#45;&gt;2</title>
<path fill="none" stroke="black" d="M292.798,-172.303C303.958,-183.154 318.286,-197.083 329.407,-207.896"/>
</g>
<!-- 0,1 -->
<g id="node4" class="node"><title>0,1</title>
<polygon fill="#00ffcc" stroke="black" points="194,-316 162.995,-298 194,-280 225.005,-298 194,-316"/>
<text text-anchor="middle" x="194" y="-294.3" font-family="Times,serif" font-size="14.00">0,1</text>
</g>
<!-- 0&#45;&gt;0,1 -->
<g id="edge4" class="edge"><title>0&#45;&gt;0,1</title>
<path fill="none" stroke="black" d="M200.775,-244.303C199.339,-255.478 197.482,-269.918 196.076,-280.855"/>
</g>
<!-- 0,2 -->
<g id="node6" class="node"><title>0,2</title>
<polygon fill="#00ffcc" stroke="black" points="275,-316 243.995,-298 275,-280 306.005,-298 275,-316"/>
<text text-anchor="middle" x="275" y="-294.3" font-family="Times,serif" font-size="14.00">0,2</text>
</g>
<!-- 0&#45;&gt;0,2 -->
<g id="edge5" class="edge"><title>0&#45;&gt;0,2</title>
<path fill="none" stroke="black" d="M220.798,-244.303C234.29,-257.421 252.412,-275.039 263.9,-286.209"/>
</g>
<!-- 1&#45;&gt;0,1 -->
<g id="edge6" class="edge"><title>1&#45;&gt;0,1</title>
<path fill="none" stroke="black" d="M254.978,-244.303C239.611,-257.583 218.908,-275.475 206.012,-286.619"/>
</g>
<!-- 1,2 -->
<g id="node7" class="node"><title>1,2</title>
<polygon fill="#00ffcc" stroke="black" points="356,-316 324.995,-298 356,-280 387.005,-298 356,-316"/>
<text text-anchor="middle" x="356" y="-294.3" font-family="Times,serif" font-size="14.00">1,2</text>
</g>
<!-- 1&#45;&gt;1,2 -->
<g id="edge7" class="edge"><title>1&#45;&gt;1,2</title>
<path fill="none" stroke="black" d="M295.022,-244.303C310.389,-257.583 331.092,-275.475 343.988,-286.619"/>
</g>
<!-- 0,1,2 -->
<g id="node8" class="node"><title>0,1,2</title>
<polygon fill="#00ff00" stroke="black" points="305.907,-362.544 305.907,-377.456 287.802,-388 262.198,-388 244.093,-377.456 244.093,-362.544 262.198,-352 287.802,-352 305.907,-362.544"/>
<text text-anchor="middle" x="275" y="-366.3" font-family="Times,serif" font-size="14.00">0,1,2</text>
</g>
<!-- 0,1&#45;&gt;0,1,2 -->
<g id="edge8" class="edge"><title>0,1&#45;&gt;0,1,2</title>
<path fill="none" stroke="black" d="M205.952,-309.329C219.682,-321.194 242.319,-340.757 257.909,-354.23"/>
</g>
<!-- 2&#45;&gt;0,2 -->
<g id="edge9" class="edge"><title>2&#45;&gt;0,2</title>
<path fill="none" stroke="black" d="M329.202,-244.303C315.71,-257.421 297.588,-275.039 286.1,-286.209"/>
</g>
<!-- 2&#45;&gt;1,2 -->
<g id="edge10" class="edge"><title>2&#45;&gt;1,2</title>
<path fill="none" stroke="black" d="M349.225,-244.303C350.661,-255.478 352.518,-269.918 353.924,-280.855"/>
</g>
<!-- 0,2&#45;&gt;0,1,2 -->
<g id="edge11" class="edge"><title>0,2&#45;&gt;0,1,2</title>
<path fill="none" stroke="black" d="M275,-316.303C275,-327.154 275,-341.083 275,-351.896"/>
</g>
<!-- 1,2&#45;&gt;0,1,2 -->
<g id="edge12" class="edge"><title>1,2&#45;&gt;0,1,2</title>
<path fill="none" stroke="black" d="M344.048,-309.329C330.318,-321.194 307.681,-340.757 292.091,-354.23"/>
</g>
<!-- Legend -->
<g id="node9" class="node"><title>Legend</title>
<polygon fill="none" stroke="black" points="550,-87.5 0,-87.5 0,-12.5 550,-12.5 550,-87.5"/>
<polygon fill="none" stroke="black" points="0,-62 0,-87 17,-87 17,-62 0,-62"/>
<text text-anchor="start" x="5" y="-70.8" font-family="Times,serif" font-size="14.00">0</text>
<polygon fill="none" stroke="black" points="17,-62 17,-87 550,-87 550,-62 17,-62"/>
<text text-anchor="start" x="77.5" y="-70.8" font-family="Times,serif" font-size="14.00">1997.Amauris_damocles equals 1995.Amauris_damocles_subsp_damocles</text>
<polygon fill="none" stroke="black" points="0,-37 0,-62 17,-62 17,-37 0,-37"/>
<text text-anchor="start" x="5" y="-45.8" font-family="Times,serif" font-size="14.00">1</text>
<polygon fill="none" stroke="black" points="17,-37 17,-62 550,-62 550,-37 17,-37"/>
<text text-anchor="start" x="22" y="-45.8" font-family="Times,serif" font-size="14.00">1997.Amauris_hyalites_subsp_makuyensis equals 1995.Amauris_damocles_subsp_makuyensis</text>
<polygon fill="none" stroke="black" points="0,-12 0,-37 17,-37 17,-12 0,-12"/>
<text text-anchor="start" x="5" y="-20.8" font-family="Times,serif" font-size="14.00">2</text>
<polygon fill="none" stroke="black" points="17,-12 17,-37 550,-37 550,-12 17,-12"/>
<text text-anchor="start" x="22" y="-20.8" font-family="Times,serif" font-size="14.00">1997.Amauris_hyalites_subsp_hyalites is_included_in 1995.Amauris_damocles_subsp_hyalites</text>
</g>
<!-- Legend&#45;&gt;None -->
<!-- Intro -->
<g id="node10" class="node"><title>Intro</title>
<polygon fill="none" stroke="black" points="884,-100 568,-100 568,-0 884,-0 884,-100"/>
<polygon fill="none" stroke="black" points="568,-75 568,-100 786,-100 786,-75 568,-75"/>
<text text-anchor="start" x="573" y="-83.8" font-family="Times,serif" font-size="14.00"> Minimal Inconsistent Subsets (MIS) </text>
<polygon fill="none" stroke="black" points="786,-75 786,-100 884,-100 884,-75 786,-75"/>
<text text-anchor="start" x="808" y="-83.8" font-family="Times,serif" font-size="14.00"> Red box </text>
<polygon fill="none" stroke="black" points="568,-50 568,-75 786,-75 786,-50 568,-50"/>
<text text-anchor="start" x="595" y="-58.8" font-family="Times,serif" font-size="14.00"> Maximal Consistent Subsets </text>
<polygon fill="none" stroke="black" points="786,-50 786,-75 884,-75 884,-50 786,-50"/>
<text text-anchor="start" x="802.5" y="-58.8" font-family="Times,serif" font-size="14.00"> Green box </text>
<polygon fill="none" stroke="black" points="568,-25 568,-50 786,-50 786,-25 568,-25"/>
<text text-anchor="start" x="604.5" y="-33.8" font-family="Times,serif" font-size="14.00"> Minimal Unique Subsets </text>
<polygon fill="none" stroke="black" points="786,-25 786,-50 884,-50 884,-25 786,-25"/>
<text text-anchor="start" x="793" y="-33.8" font-family="Times,serif" font-size="14.00"> Green octagon</text>
<polygon fill="none" stroke="black" points="568,-0 568,-25 786,-25 786,-0 568,-0"/>
<text text-anchor="start" x="591.5" y="-8.8" font-family="Times,serif" font-size="14.00"> Maximal Ambiguous Subsets </text>
<polygon fill="none" stroke="black" points="786,-0 786,-25 884,-25 884,-0 786,-0"/>
<text text-anchor="start" x="791" y="-8.8" font-family="Times,serif" font-size="14.00"> Cyan diamond </text>
</g>
</g>
</svg>
