<?xml version="1.0" encoding="UTF-8" standalone="no"?>
<!DOCTYPE svg PUBLIC "-//W3C//DTD SVG 1.1//EN"
 "http://www.w3.org/Graphics/SVG/1.1/DTD/svg11.dtd">
<!-- Generated by graphviz version 2.38.0 (20140413.2041)
 -->
<!-- Title: %3 Pages: 1 -->
<svg width="560pt" height="387pt"
 viewBox="0.00 0.00 560.00 387.17" xmlns="http://www.w3.org/2000/svg" xmlns:xlink="http://www.w3.org/1999/xlink">
<g id="graph0" class="graph" transform="scale(1 1) rotate(0) translate(4 383.168)">
<title>%3</title>
<polygon fill="white" stroke="none" points="-4,4 -4,-383.168 556,-383.168 556,4 -4,4"/>
<!-- 1,2,3 -->
<g id="node1" class="node"><title>1,2,3</title>
<polygon fill="#df77cb" stroke="#9f1684" points="311.945,-338.002 311.945,-362.166 290.889,-379.252 261.111,-379.252 240.055,-362.166 240.055,-338.002 261.111,-320.916 290.889,-320.916 311.945,-338.002"/>
<text text-anchor="middle" x="276" y="-353.884" font-family="Helvetica,sans-Serif" font-size="14.00">1,2,3</text>
<text text-anchor="middle" x="276" y="-338.884" font-family="Helvetica,sans-Serif" font-size="14.00">(1)</text>
</g>
<!-- 2,3 -->
<g id="node2" class="node"><title>2,3</title>
<path fill="#68b5e3" stroke="#134d9c" stroke-width="0.4" d="M219,-285C219,-285 189,-285 189,-285 183,-285 177,-279 177,-273 177,-273 177,-259 177,-259 177,-253 183,-247 189,-247 189,-247 219,-247 219,-247 225,-247 231,-253 231,-259 231,-259 231,-273 231,-273 231,-279 225,-285 219,-285"/>
<text text-anchor="middle" x="204" y="-269.8" font-family="Helvetica,sans-Serif" font-size="14.00">2,3</text>
<text text-anchor="middle" x="204" y="-254.8" font-family="Helvetica,sans-Serif" font-size="14.00">(11)</text>
</g>
<!-- 2,3&#45;&gt;1,2,3 -->
<g id="edge12" class="edge"><title>2,3&#45;&gt;1,2,3</title>
<path fill="none" stroke="#0000ff" stroke-width="2" d="M219.979,-285.217C230.336,-297.025 243.936,-312.529 255.141,-325.304"/>
</g>
<!-- 1,3 -->
<g id="node3" class="node"><title>1,3</title>
<path fill="#68b5e3" stroke="#134d9c" stroke-width="0.4" d="M291,-285C291,-285 261,-285 261,-285 255,-285 249,-279 249,-273 249,-273 249,-259 249,-259 249,-253 255,-247 261,-247 261,-247 291,-247 291,-247 297,-247 303,-253 303,-259 303,-259 303,-273 303,-273 303,-279 297,-285 291,-285"/>
<text text-anchor="middle" x="276" y="-269.8" font-family="Helvetica,sans-Serif" font-size="14.00">1,3</text>
<text text-anchor="middle" x="276" y="-254.8" font-family="Helvetica,sans-Serif" font-size="14.00">(17)</text>
</g>
<!-- 1,3&#45;&gt;1,2,3 -->
<g id="edge11" class="edge"><title>1,3&#45;&gt;1,2,3</title>
<path fill="none" stroke="#0000ff" stroke-width="2" d="M276,-285.217C276,-295.703 276,-309.102 276,-320.918"/>
</g>
<!-- 1,2 -->
<g id="node4" class="node"><title>1,2</title>
<path fill="#68b5e3" stroke="#134d9c" stroke-width="0.4" d="M363,-285C363,-285 333,-285 333,-285 327,-285 321,-279 321,-273 321,-273 321,-259 321,-259 321,-253 327,-247 333,-247 333,-247 363,-247 363,-247 369,-247 375,-253 375,-259 375,-259 375,-273 375,-273 375,-279 369,-285 363,-285"/>
<text text-anchor="middle" x="348" y="-269.8" font-family="Helvetica,sans-Serif" font-size="14.00">1,2</text>
<text text-anchor="middle" x="348" y="-254.8" font-family="Helvetica,sans-Serif" font-size="14.00">(5)</text>
</g>
<!-- 1,2&#45;&gt;1,2,3 -->
<g id="edge8" class="edge"><title>1,2&#45;&gt;1,2,3</title>
<path fill="none" stroke="#0000ff" stroke-width="2" d="M332.021,-285.217C321.664,-297.025 308.064,-312.529 296.859,-325.304"/>
</g>
<!-- 3 -->
<g id="node5" class="node"><title>3</title>
<path fill="none" stroke="#134d9c" stroke-width="0.4" d="M219,-210C219,-210 189,-210 189,-210 183,-210 177,-204 177,-198 177,-198 177,-186 177,-186 177,-180 183,-174 189,-174 189,-174 219,-174 219,-174 225,-174 231,-180 231,-186 231,-186 231,-198 231,-198 231,-204 225,-210 219,-210"/>
<text text-anchor="middle" x="204" y="-188.3" font-family="Helvetica,sans-Serif" font-size="14.00">3</text>
</g>
<!-- 3&#45;&gt;2,3 -->
<g id="edge10" class="edge"><title>3&#45;&gt;2,3</title>
<path fill="none" stroke="#134d9c" stroke-width="0.4" stroke-dasharray="1,5" d="M204,-220.336C204,-229.187 204,-238.781 204,-246.801"/>
<polygon fill="#134d9c" stroke="#134d9c" stroke-width="0.4" points="207.5,-220.063 204,-210.063 200.5,-220.063 207.5,-220.063"/>
</g>
<!-- 3&#45;&gt;1,3 -->
<g id="edge9" class="edge"><title>3&#45;&gt;1,3</title>
<path fill="none" stroke="#134d9c" stroke-width="0.4" stroke-dasharray="1,5" d="M228.162,-217.162C237.844,-226.844 248.812,-237.812 257.801,-246.801"/>
<polygon fill="#134d9c" stroke="#134d9c" stroke-width="0.4" points="230.609,-214.659 221.063,-210.063 225.659,-219.609 230.609,-214.659"/>
</g>
<!-- None -->
<g id="node6" class="node"><title>None</title>
<path fill="none" stroke="#134d9c" stroke-width="0.4" d="M291,-137C291,-137 261,-137 261,-137 255,-137 249,-131 249,-125 249,-125 249,-113 249,-113 249,-107 255,-101 261,-101 261,-101 291,-101 291,-101 297,-101 303,-107 303,-113 303,-113 303,-125 303,-125 303,-131 297,-137 291,-137"/>
<text text-anchor="middle" x="276" y="-115.3" font-family="Helvetica,sans-Serif" font-size="14.00">None</text>
</g>
<!-- None&#45;&gt;3 -->
<g id="edge3" class="edge"><title>None&#45;&gt;3</title>
<path fill="none" stroke="#134d9c" stroke-width="0.4" stroke-dasharray="1,5" d="M251.312,-144.345C241.422,-154.098 230.264,-165.101 221.269,-173.971"/>
<polygon fill="#134d9c" stroke="#134d9c" stroke-width="0.4" points="253.908,-146.701 258.571,-137.187 248.993,-141.716 253.908,-146.701"/>
</g>
<!-- 1 -->
<g id="node7" class="node"><title>1</title>
<path fill="none" stroke="#134d9c" stroke-width="0.4" d="M363,-211C363,-211 333,-211 333,-211 327,-211 321,-205 321,-199 321,-199 321,-185 321,-185 321,-179 327,-173 333,-173 333,-173 363,-173 363,-173 369,-173 375,-179 375,-185 375,-185 375,-199 375,-199 375,-205 369,-211 363,-211"/>
<text text-anchor="middle" x="348" y="-195.8" font-family="Helvetica,sans-Serif" font-size="14.00">1</text>
<text text-anchor="middle" x="348" y="-180.8" font-family="Helvetica,sans-Serif" font-size="14.00">(161)</text>
</g>
<!-- None&#45;&gt;1 -->
<g id="edge1" class="edge"><title>None&#45;&gt;1</title>
<path fill="none" stroke="#134d9c" stroke-width="0.4" stroke-dasharray="1,5" d="M300.748,-144.404C310.258,-153.782 320.933,-164.309 329.727,-172.98"/>
<polygon fill="#134d9c" stroke="#134d9c" stroke-width="0.4" points="303.007,-141.716 293.429,-137.187 298.092,-146.701 303.007,-141.716"/>
</g>
<!-- 2 -->
<g id="node8" class="node"><title>2</title>
<path fill="none" stroke="#134d9c" stroke-width="0.4" d="M291,-210C291,-210 261,-210 261,-210 255,-210 249,-204 249,-198 249,-198 249,-186 249,-186 249,-180 255,-174 261,-174 261,-174 291,-174 291,-174 297,-174 303,-180 303,-186 303,-186 303,-198 303,-198 303,-204 297,-210 291,-210"/>
<text text-anchor="middle" x="276" y="-188.3" font-family="Helvetica,sans-Serif" font-size="14.00">2</text>
</g>
<!-- None&#45;&gt;2 -->
<g id="edge2" class="edge"><title>None&#45;&gt;2</title>
<path fill="none" stroke="#134d9c" stroke-width="0.4" stroke-dasharray="1,5" d="M276,-147.247C276,-156.235 276,-165.971 276,-173.971"/>
<polygon fill="#134d9c" stroke="#134d9c" stroke-width="0.4" points="279.5,-147.187 276,-137.187 272.5,-147.187 279.5,-147.187"/>
</g>
<!-- 1&#45;&gt;1,3 -->
<g id="edge5" class="edge"><title>1&#45;&gt;1,3</title>
<path fill="none" stroke="#134d9c" stroke-width="0.4" stroke-dasharray="1,5" d="M322.646,-218.354C313.341,-227.659 302.994,-238.006 294.413,-246.587"/>
<polygon fill="#134d9c" stroke="#134d9c" stroke-width="0.4" points="325.235,-220.715 329.831,-211.169 320.285,-215.765 325.235,-220.715"/>
</g>
<!-- 1&#45;&gt;1,2 -->
<g id="edge4" class="edge"><title>1&#45;&gt;1,2</title>
<path fill="none" stroke="#134d9c" stroke-width="0.4" stroke-dasharray="1,5" d="M348,-221.427C348,-229.892 348,-238.941 348,-246.587"/>
<polygon fill="#134d9c" stroke="#134d9c" stroke-width="0.4" points="351.5,-221.169 348,-211.169 344.5,-221.169 351.5,-221.169"/>
</g>
<!-- 2&#45;&gt;2,3 -->
<g id="edge7" class="edge"><title>2&#45;&gt;2,3</title>
<path fill="none" stroke="#134d9c" stroke-width="0.4" stroke-dasharray="1,5" d="M251.838,-217.162C242.156,-226.844 231.188,-237.812 222.199,-246.801"/>
<polygon fill="#134d9c" stroke="#134d9c" stroke-width="0.4" points="254.341,-219.609 258.937,-210.063 249.391,-214.659 254.341,-219.609"/>
</g>
<!-- 2&#45;&gt;1,2 -->
<g id="edge6" class="edge"><title>2&#45;&gt;1,2</title>
<path fill="none" stroke="#134d9c" stroke-width="0.4" stroke-dasharray="1,5" d="M300.162,-217.162C309.844,-226.844 320.812,-237.812 329.801,-246.801"/>
<polygon fill="#134d9c" stroke="#134d9c" stroke-width="0.4" points="302.609,-214.659 293.063,-210.063 297.659,-219.609 302.609,-214.659"/>
</g>
<!-- Legend -->
<g id="node9" class="node"><title>Legend</title>
<polygon fill="none" stroke="black" points="8,-41.5 8,-60.5 21,-60.5 21,-41.5 8,-41.5"/>
<text text-anchor="start" x="11" y="-47.9" font-family="Helvetica,sans-Serif" font-size="12.00">1</text>
<polygon fill="none" stroke="black" points="21,-41.5 21,-60.5 544,-60.5 544,-41.5 21,-41.5"/>
<text text-anchor="start" x="79.5" y="-47.9" font-family="Helvetica,sans-Serif" font-size="12.00">1997.Amauris_damocles equals 1995.Amauris_damocles_subsp_damocles</text>
<polygon fill="none" stroke="black" points="8,-22.5 8,-41.5 21,-41.5 21,-22.5 8,-22.5"/>
<text text-anchor="start" x="11" y="-28.9" font-family="Helvetica,sans-Serif" font-size="12.00">2</text>
<polygon fill="none" stroke="black" points="21,-22.5 21,-41.5 544,-41.5 544,-22.5 21,-22.5"/>
<text text-anchor="start" x="24" y="-28.9" font-family="Helvetica,sans-Serif" font-size="12.00">1997.Amauris_hyalites_subsp_makuyensis equals 1995.Amauris_damocles_subsp_makuyensis</text>
<polygon fill="none" stroke="black" points="8,-3.5 8,-22.5 21,-22.5 21,-3.5 8,-3.5"/>
<text text-anchor="start" x="11" y="-9.9" font-family="Helvetica,sans-Serif" font-size="12.00">3</text>
<polygon fill="none" stroke="black" points="21,-3.5 21,-22.5 544,-22.5 544,-3.5 21,-3.5"/>
<text text-anchor="start" x="25.5" y="-9.9" font-family="Helvetica,sans-Serif" font-size="12.00">1997.Amauris_hyalites_subsp_hyalites is_included_in 1995.Amauris_damocles_subsp_hyalites</text>
</g>
<!-- Legend&#45;&gt;None -->
</g>
</svg>
